<svg xmlns="http://www.w3.org/2000/svg" viewBox="0 0 291.28 203.96"><defs><style>.cls-1{fill:#fff;}.cls-2{fill:#1f1f1f;}.cls-3{fill:#d90c33;}.cls-4{fill:#fab416;}.cls-5{fill:#1d1d1b;}</style></defs><g id="Capa_2" data-name="Capa 2"><g id="Capa_1-2" data-name="Capa 1"><path class="cls-1" d="M184,14.8l.55-.47A1.81,1.81,0,0,0,184,14.8Z"/><path class="cls-1" d="M184.52,14.33l-.55.47A1.81,1.81,0,0,1,184.52,14.33Z"/><path class="cls-1" d="M184.52,14.33l-.55.47A1.81,1.81,0,0,1,184.52,14.33Z"/><path class="cls-1" d="M140.29.48h-.15Z"/><path class="cls-2" d="M110.56,105.57c-.28.94-.52,1.68-.72,2.43-.83,3.17-1.74,6.33-2.44,9.53a14.81,14.81,0,0,0,.08,3.51c3.4,5.6-2.19,12.65-8.65,11.71-3.4-.49-6.88-.45-10.27-1a19.05,19.05,0,0,1-11-5.32,14.93,14.93,0,0,1-4.06-8.22,24.14,24.14,0,0,1,1.74-13.11c2.28-5.79,4.39-11.65,6.67-17.44,2.88-7.32,5.86-14.59,8.8-21.88,1.5-3.72,3-7.45,4.56-11.37a5.91,5.91,0,0,0-1,.26,43.14,43.14,0,0,1-17.44,4.53,18.6,18.6,0,0,1-13.65-4.59,15.41,15.41,0,0,1-5.22-11.41A26.31,26.31,0,0,1,61.76,29c3.36-5.83,12-5.38,15.05.15a2.52,2.52,0,0,0,2.83,1.51,41.54,41.54,0,0,0,11.46-3c5.63-2.22,11.2-4.6,16.85-6.78a37.1,37.1,0,0,1,15.64-2.47,15.79,15.79,0,0,1,7.86,2.47,10.38,10.38,0,0,1,4.94,11.21c-.37,2.16-1.1,4.26-1.67,6.39-.1.37-.25.73-.52,1.49a6.09,6.09,0,0,0,1-.74c1.43-1.9,2.91-3.76,4.23-5.73a11.5,11.5,0,0,0,1.17-3,3.93,3.93,0,0,0-.26-2.81c-2.95-6.56,2.86-12.11,8.67-11.35a29,29,0,0,1,16.72,7.93A18.77,18.77,0,0,1,171.61,38c0,1.63,0,3.25-.05,5.1.54-.21,1.05-.37,1.52-.6a46.8,46.8,0,0,1,18.6-4.82c7.09-.37,13.78,1,19.56,5.38a17,17,0,0,1,6.55,18.49c-1.39,5.59-4.66,9.86-8.93,13.49a34.49,34.49,0,0,1-10.64,6.22c-.26.1-.51.22-.92.4a8.54,8.54,0,0,0,.79,1,17.51,17.51,0,0,1,5.17,9.92,19.89,19.89,0,0,1-.81,8.89,22.85,22.85,0,0,1-.78,2.24,10.82,10.82,0,0,0-1,4.72,11.34,11.34,0,0,1-.94,3.93,52,52,0,0,1-6.19,12.42c-2.49,3.61-5.88,6.25-9.38,8.75a43.58,43.58,0,0,1-15.63,7.2,34.23,34.23,0,0,1-18.61-.6,77.52,77.52,0,0,1-7.67-3.19c-4.34-2-7.84-5.13-11.18-8.45a275.17,275.17,0,0,1-19.29-21.66C111.43,106.45,111.06,106.1,110.56,105.57Zm-3.84-18.7c3,3.86,5.73,7.45,8.52,11a302.11,302.11,0,0,0,20.66,23.84c4.11,4.22,8.55,7.86,14.16,10a27.53,27.53,0,0,0,14,1.69A33,33,0,0,0,175.91,129a38.92,38.92,0,0,0,8.73-6.68c3-3.15,4.71-7,6.31-11,.43-1.06.75-2.17,1.12-3.26a4.45,4.45,0,0,0-1.34.92,41.3,41.3,0,0,1-3.94,3.19c-4.62,3-9.78,4.25-15.21,4.8a22.14,22.14,0,0,1-11.72-2,77.43,77.43,0,0,1-12-7A186.32,186.32,0,0,1,130.2,93.68q-8.83-8-16.95-16.64c-.53-.56-1-1.16-1.59-1.82a6.74,6.74,0,0,1,.72-.38c4.34-1.45,8.7-2.84,13-4.35a126.41,126.41,0,0,0,19-8.11,48.6,48.6,0,0,0,13.38-10c4.15-4.65,6-10,5-16.26a10.3,10.3,0,0,0-2.63-5.58,20.13,20.13,0,0,0-11.32-6.05,2.06,2.06,0,0,0-.57.12c.27.95.59,1.84.76,2.76A14.63,14.63,0,0,1,146.66,38a57.63,57.63,0,0,1-12.29,13.5c-5.84,4.87-12.34,8.77-18.79,12.77-.29.18-.63.3-1.19.57.31-.8.49-1.33.71-1.84,1.82-4.21,3.7-8.39,5.47-12.61,2.17-5.16,4.3-10.34,6.33-15.56A26.44,26.44,0,0,0,128,30.26a2.48,2.48,0,0,0-1.43-2.81,5.56,5.56,0,0,0-2.06-.74,27.43,27.43,0,0,0-6.07-.1,40.3,40.3,0,0,0-7.84,2.08c-5.14,1.91-10.16,4.12-15.27,6.12s-10.43,3.81-16.06,3.95c-4.12.11-7.52-1.32-9.61-5.12-.09-.17-.28-.28-.54-.52-1.38,3.14-2.59,6.1-2.57,9.52,0,5.82,4.32,8.4,8.28,8.49a28.57,28.57,0,0,0,11.33-1.86,55.88,55.88,0,0,0,12.94-7,71.94,71.94,0,0,1,8.78-5.42,17.18,17.18,0,0,1,2.49-1.08,8.55,8.55,0,0,1,1.56-.2c-.27,1-.4,1.68-.66,2.33q-3,7.38-6,14.76Q100,65.7,94.73,78.76q-4.16,10.39-8.2,20.83c-1.45,3.74-2.82,7.52-4.15,11.31a12.36,12.36,0,0,0-.27,6.87A7.2,7.2,0,0,0,87,123a28.52,28.52,0,0,0,8.14,1.53c1.44.11,2.89.1,4.5.16-.25-1-.49-1.8-.65-2.6a18.41,18.41,0,0,1,.6-8.71c1.81-6.42,3.36-12.91,5.07-19.37C105.25,91.69,106,89.38,106.72,86.87Zm70-19.23a12.68,12.68,0,0,0,5.8,7,7.61,7.61,0,0,0,4.26.89A27.64,27.64,0,0,0,202.9,69.1c3-2.43,5.42-5.31,6.45-9.13,1.28-4.73.09-7.91-3.41-10.71a15.77,15.77,0,0,0-7.27-3.11,29.76,29.76,0,0,0-11.44.1,39.56,39.56,0,0,0-19.29,9.69,29.51,29.51,0,0,0-8.68,14.68,10.14,10.14,0,0,0,.67,7.11A18.1,18.1,0,0,0,165,84.2a51.7,51.7,0,0,0,10.22,6.33,49.49,49.49,0,0,1,5.62,3.1A12.33,12.33,0,0,1,185.1,98a3.67,3.67,0,0,1,.29,3.07c-1,3.43-6.53,7.4-11.07,6.1a11.24,11.24,0,0,1-7.25-6.18,22.56,22.56,0,0,1-2.42-10.83,13.55,13.55,0,0,0-.17-1.62A34.41,34.41,0,0,0,158,95.12a8.86,8.86,0,0,0-1.07,8.71,13.31,13.31,0,0,0,10.41,8.75,21.37,21.37,0,0,0,4.39.28,27.18,27.18,0,0,0,14.3-3.59c4.88-2.9,8-7,8.64-12.87a8.9,8.9,0,0,0-1.82-7,20.82,20.82,0,0,0-3.77-3.62c-2.65-1.83-5.48-3.38-8.2-5.11-2.48-1.57-5-3.09-7.34-4.87-2.72-2.07-2.92-3.85-2.13-6.53a16.6,16.6,0,0,1,3.69-6.41A35.58,35.58,0,0,1,192,52.31a27.82,27.82,0,0,1,6.35-1c2.71-.12,3.81,1.41,3.11,4.24a10.17,10.17,0,0,1-2.1,3.84A23,23,0,0,1,188.15,67a19.13,19.13,0,0,1-10,.78A10.64,10.64,0,0,0,176.7,67.64Zm-21.83,18a29,29,0,0,1-4.06-8.24c-.85-2.92-.53-5.89.05-9.16a147.14,147.14,0,0,1-24,10.43c1.53,2.67,18.44,17.69,21,18.64C148.8,92.68,151.77,89.18,154.87,85.68Z"/><path class="cls-3" d="M197.72,21.87a3.47,3.47,0,0,0-1.12-1.81c-15.4-12.93-26.94-19.25-53-20-1.37,0-2.78-.06-4.24-.07h-.3q-3.12,0-6.21.24l-.28,0h-.11c-1.63.12-3.25.29-4.86.5h0c-.81.17-1.77.31-2.89.43h0c-1.12.19-2.24.39-3.35.62-2,.41-4,.9-6.06,1.45l-.06,0c-2.88.81-5.74,1.76-8.57,2.87l-.06-.07c-.93.39-1.85.8-2.74,1.21l0,0c-1,.49-2,1-3,1.44h0C98.34,10,96,11.33,93.87,12.64h0l-.62.38h0c-1.58,1-3.08,2-4.48,2.92-1.13.76-2.19,1.52-3.18,2.24h0c-.64.49-1.29,1-1.89,1.55l-.08-.09c-.92.71-1.76,1.37-2.5,2l-.06.05a3.12,3.12,0,0,1-.32.45,5,5,0,0,1-.73.72c-.91.71-1.84,1.41-2.87,2.19l0,0,2.41,3.2c1.34-.25,2.74-.42,4.09-.79A71.49,71.49,0,0,0,94,23.86c4.17-1.87,8.45-3.51,12.73-5.14a54.1,54.1,0,0,1,5.88-1.87,30.48,30.48,0,0,1,15.53-.12,18.79,18.79,0,0,1,2.4.81,14.41,14.41,0,0,1,5.83,4.25,9,9,0,0,0,.69.67,11.71,11.71,0,0,1,2.22-4.59,11.2,11.2,0,0,1,9.24-4,25.35,25.35,0,0,1,5.18.85,29.22,29.22,0,0,1,9,4,39.74,39.74,0,0,1,5.87,4.8,16.88,16.88,0,0,1,1.93,2.35,1.53,1.53,0,0,0,1.56.77q6.16-.59,12.33-1.13c.39,0,.79-.05,1.19-.09,3.43-.3,6.87-.57,10.31-.93A2.12,2.12,0,0,0,197.72,21.87Zm-28.81-7.42a1.14,1.14,0,0,1-.46-.53h0a1.24,1.24,0,0,1-.31-1.15c.25-.82,1.58-1.14,3-.72a2.82,2.82,0,0,1,2.07,1.79,2.15,2.15,0,0,1,.49,1A4.61,4.61,0,0,1,168.91,14.45Zm5.56-4.52a.86.86,0,0,1,0,.22,1.12,1.12,0,0,1-.74.7h0A2.32,2.32,0,0,1,173,11a4,4,0,0,1-1.58-.17,4.08,4.08,0,0,1-1.07-.51c-.44-.15-.87-.48-.88-.93h0a1.11,1.11,0,0,1-.1-.81c.26-.82,1.58-1.14,3-.71S174.52,9.15,174.47,9.93ZM182.62,15c-.26.82-1.59,1.14-3,.72-1.18-.36-2-1.15-2.09-1.88a4,4,0,0,1-.26-.35,2.53,2.53,0,0,0,.33-.12h0c.32-.75,1.59-1,2.92-.62S182.86,14.18,182.62,15Z"/><path class="cls-3" d="M191,144.65c-5.06.49-10.13,1-15.2,1.46-3.27.29-6.54.52-9.81.79l-11.83,1-10,.81L129.85,150l-10.48.86c-4,.33-7.89.76-11.84,1a31.62,31.62,0,0,1-8-.16,24.1,24.1,0,0,1-9.09-4c-1.86-1.27-3.69-2.59-5.51-3.93-1.09-.8-2.15-1.66-3.18-2.54a2.29,2.29,0,0,1-.87-2.55,2.45,2.45,0,0,1,2.1-1.74c1.29-.2,2.59-.28,3.89-.38s2.37-.1,3.55-.2l19.62-1.79,12.68-1.09c2.54-.21,5.07-.38,7.61-.59a3,3,0,0,1,2.49.78,40.24,40.24,0,0,0,12.87,7.7,35.59,35.59,0,0,0,14,2.84,44.56,44.56,0,0,0,13.53-2.2,50.9,50.9,0,0,0,14.63-8.06,39.8,39.8,0,0,0,6.26-5.7,2.61,2.61,0,0,1,1.61-.77c3.43-.33,6.87-.58,10.31-.87,1.24-.1,2.47-.29,3.71-.34a4,4,0,0,1,1.79.34,2.36,2.36,0,0,1,.86,3.59c-1.41,1.63-2.77,3.3-4.25,4.85s-3.13,3.1-4.74,4.6a17.11,17.11,0,0,1-8.61,4.46c-1.28.24-2.54.55-3.8.82ZM94.72,137.5l-.15.5c.41.36.79.74,1.22,1.06,3,2.25,6,4.48,8.94,6.72,1.8,1.37,2.54,1.3,4.33-.08,2-1.51,4-2.9,6-4.34,2.24-1.62,4.5-3.22,6.73-4.86.37-.27.93-.52.6-1.38C113.21,135.88,104,136.53,94.72,137.5Z"/><path class="cls-3" d="M111.28,138.21a1.42,1.42,0,0,1,1.62,1.15,1.32,1.32,0,0,1-1.17,1.41,1.47,1.47,0,0,1-1.51-1.08A1.3,1.3,0,0,1,111.28,138.21Z"/><path class="cls-3" d="M106.74,142a1.43,1.43,0,0,1,1.62,1.16,1.34,1.34,0,0,1-1.17,1.41,1.46,1.46,0,0,1-1.51-1.09A1.31,1.31,0,0,1,106.74,142Z"/><path class="cls-3" d="M102.6,141.32c-.6.1-1.31-.37-1.32-.88a.93.93,0,0,1,.92-1,.91.91,0,0,1,1.12.77A1,1,0,0,1,102.6,141.32Z"/><path class="cls-4" d="M51.74,106.59,10,112.36l-.54-4.52L50.61,102C51,103.51,51.32,105.06,51.74,106.59Z"/><path class="cls-4" d="M279.82,75.09,235.58,81.2c0-1.9-.1-3.81-.23-5.73L279,69.22C279.35,71.58,279.56,73.14,279.82,75.09Z"/><path class="cls-4" d="M54.16,114.23l-43.28,5.62-.54-4.48,42.28-5.7Q53.34,112,54.16,114.23Z"/><path class="cls-4" d="M281.16,84.75l-46,6c.17-1.88.29-3.79.34-5.7l44.84-6C280.69,81.25,280.9,82.82,281.16,84.75Z"/><path class="cls-4" d="M48.56,78.26c-.07,1.57-.09,3.16-.07,4.75L7.28,89.76,6.75,85.3Z"/><path class="cls-4" d="M275.94,46.38c-5.32.72-10.49,1.31-15.62,2.15l-29.27,4.73c-.59-1.83-1.24-3.63-1.93-5.41l46-7.74C275.39,42.31,275.6,43.87,275.94,46.38Z"/><path class="cls-4" d="M50,99.1l-40.93,6-.59-4.94L49.25,94C49.46,95.71,49.73,97.41,50,99.1Z"/><path class="cls-4" d="M278.48,64.88c-1.06.36-17,2.85-43.48,6.84q-.3-2.73-.75-5.41c26.79-3.92,42.83-6.17,43.6-6.07C278.06,61.8,278.28,63.36,278.48,64.88Z"/><path class="cls-4" d="M57.32,121.82l-45.55,5.54-.53-4.5,44.1-5.57C56,118.82,56.62,120.34,57.32,121.82Z"/><path class="cls-4" d="M282.41,94.49l-48.61,5.9c.38-1.9.7-3.83,1-5.77l46.86-5.92C281.93,91,282.16,92.65,282.41,94.49Z"/><path class="cls-4" d="M48.78,89.44c0,.55.09,1.09.14,1.64L8.19,97.39l-.54-4.57,40.93-6.55C48.63,87.32,48.69,88.38,48.78,89.44Z"/><path class="cls-4" d="M277.28,56c-6.16.84-12.19,1.57-18.18,2.49l-25.59,4c-.4-1.88-.85-3.74-1.37-5.57l44.3-7.08C276.73,52,276.94,53.53,277.28,56Z"/><path class="cls-4" d="M49.24,70.11c-.21,1.61-.37,3.24-.5,4.88L6.39,82.3l-.26-2.17a2.5,2.5,0,0,1,2-2.76Z"/><path class="cls-4" d="M274.58,36c-1,.24-1.55.43-2.15.53l-44.81,7.78q-1.19-2.68-2.53-5.26l45.43-8a3.23,3.23,0,0,1,3.76,2.75C274.38,34.44,274.48,35.17,274.58,36Z"/><path class="cls-4" d="M72.19,144.33Q44.08,147,16,149.76a1.54,1.54,0,0,1-1.67-1.35l-.36-3,54.51-5.52C69.64,141.38,70.9,142.88,72.19,144.33Z"/><path class="cls-4" d="M286,120.66a2.88,2.88,0,0,1-2.48,3.25c-.37,0-.74.1-1.11.13q-30,2.92-59.92,5.82c1.16-1.94,2.25-3.93,3.26-6l59.86-6.07C285.73,118.83,285.85,119.76,286,120.66Z"/><path class="cls-4" d="M66.21,136.9q-26.32,2.74-52.64,5.49L13,137.87l50.1-5.49Q64.6,134.68,66.21,136.9Z"/><path class="cls-4" d="M285.12,113.21c-7.24,1-14.1,2.1-21,2.84L227.59,120q1.29-2.89,2.38-5.89l54.46-6C284.71,110.16,284.92,111.73,285.12,113.21Z"/><path class="cls-4" d="M61.28,129.35l-48.61,5.54-.53-4.46,6.89-.82,39.8-4.7C59.61,126.41,60.43,127.9,61.28,129.35Z"/><path class="cls-4" d="M283.81,104c-3.28.45-6.11.9-8.95,1.21l-43.56,4.9q.91-2.88,1.62-5.83l46.32-5.47c1.21-.14,2.42-.19,3.82-.3C283.32,100.44,283.54,102.1,283.81,104Z"/><path class="cls-1" d="M58.36,37.18v0l0,0Z"/><path class="cls-2" d="M235.51,144.35a4.06,4.06,0,0,1,3.79,6.22A113.54,113.54,0,0,1,59,166.76,4.05,4.05,0,0,1,61.64,160l14.76-1.33a4.07,4.07,0,0,1,3.09,1A94,94,0,0,0,217.9,147.25a4,4,0,0,1,2.85-1.57Z"/><path class="cls-1" d="M89.11,175.25l-4.5,6.49L83,180.64l2.69-3.9-4.16,2.89-1.28-.91,1.23-4.91-2.71,3.9-1.59-1.1,4.5-6.51,1.88,1.31-1.28,5.77L87.23,174Z"/><path class="cls-1" d="M89.08,178.75a2.71,2.71,0,0,1,2.86-.14,2.37,2.37,0,0,1,.89.82,2,2,0,0,1,.34,1l.43-.78,1.7,1-3.07,5.46-1.7-.95.43-.77a2,2,0,0,1-1,.23,2.48,2.48,0,0,1-1.15-.33,2.69,2.69,0,0,1-1-1.05,2.81,2.81,0,0,1-.33-1.48,4.22,4.22,0,0,1,.52-1.68A3.92,3.92,0,0,1,89.08,178.75Zm3.19,2.45a1.32,1.32,0,0,0-.65-.84,1.26,1.26,0,0,0-1.05-.12,1.79,1.79,0,0,0-1.12,2,1.24,1.24,0,0,0,.65.83,1.17,1.17,0,0,0,1.06.12,1.47,1.47,0,0,0,.9-.78A1.55,1.55,0,0,0,92.27,181.2Zm2.22-2.83L91.56,178l.64-1.18,3,.22Z"/><path class="cls-1" d="M95.51,187.48a2.59,2.59,0,0,1-.59-1.12,1.91,1.91,0,0,1,.08-1.18l1.74.82a.77.77,0,0,0,.05.61,1.1,1.1,0,0,0,.53.46,1,1,0,0,0,.56.11.42.42,0,0,0,.34-.25.44.44,0,0,0-.09-.48,5.61,5.61,0,0,0-.71-.64,10,10,0,0,1-.9-.79,2,2,0,0,1-.48-.83,1.56,1.56,0,0,1,.14-1.07,1.68,1.68,0,0,1,.68-.74,1.9,1.9,0,0,1,1.1-.28,3.11,3.11,0,0,1,1.37.36,2.76,2.76,0,0,1,1.46,1.31,2.34,2.34,0,0,1,.07,1.75l-1.63-.76a.77.77,0,0,0,0-.58,1.12,1.12,0,0,0-.51-.47,1,1,0,0,0-.53-.08.42.42,0,0,0-.22.72,3.38,3.38,0,0,0,.71.63,9.81,9.81,0,0,1,.89.8,1.91,1.91,0,0,1,.46.85,1.49,1.49,0,0,1-.12,1.08,1.74,1.74,0,0,1-.7.77,2.13,2.13,0,0,1-1.1.23,3.49,3.49,0,0,1-1.33-.34A3.82,3.82,0,0,1,95.51,187.48Z"/><path class="cls-1" d="M109,186.63a2.51,2.51,0,0,1,1.19.13A2.62,2.62,0,0,1,112,189a3.62,3.62,0,0,1-.2,1.72,3.72,3.72,0,0,1-.9,1.5,2.74,2.74,0,0,1-1.32.74,2.64,2.64,0,0,1-2.49-.71,2.23,2.23,0,0,1-.52-.9L105.34,195l-1.84-.63,3-8.77,1.84.64-.29.84A2.15,2.15,0,0,1,109,186.63Zm.91,2.24a1.4,1.4,0,0,0-1.88-.64,1.55,1.55,0,0,0-.74,1,1.46,1.46,0,0,0,0,1.18,1.32,1.32,0,0,0,.79.73,1.29,1.29,0,0,0,1.07-.08,1.58,1.58,0,0,0,.76-1A1.55,1.55,0,0,0,109.93,188.87Z"/><path class="cls-1" d="M114.15,189.59a2.65,2.65,0,0,1,1.24-.84,2.62,2.62,0,0,1,1.47-.05,2.75,2.75,0,0,1,1.08.55,2.21,2.21,0,0,1,.58.88l.22-.86,1.88.47-1.53,6.09-1.88-.48.21-.85a2.1,2.1,0,0,1-.93.5,2.77,2.77,0,0,1-1.21,0,2.49,2.49,0,0,1-1.27-.72,2.72,2.72,0,0,1-.69-1.35,3.82,3.82,0,0,1,.05-1.74A3.76,3.76,0,0,1,114.15,189.59Zm3.71,1.53a1.26,1.26,0,0,0-.86-.65,1.34,1.34,0,0,0-1,.16,1.81,1.81,0,0,0-.55,2.2,1.37,1.37,0,0,0,1.91.49,1.61,1.61,0,0,0,.66-1A1.58,1.58,0,0,0,117.86,191.12Z"/><path class="cls-1" d="M125.05,190.8a2.21,2.21,0,0,1,1.17-.08l-.37,2-.51-.1a1.74,1.74,0,0,0-1.13.11,1.5,1.5,0,0,0-.56,1l-.51,2.86-1.91-.34,1.12-6.17,1.9.35-.18,1A2.71,2.71,0,0,1,125.05,190.8Z"/><path class="cls-1" d="M130.46,191.57a2.18,2.18,0,0,1,1.16-.16l-.25,2-.53-.06a1.59,1.59,0,0,0-1.11.17,1.37,1.37,0,0,0-.5,1l-.36,2.9-1.93-.25.79-6.22,1.92.23-.14,1A2.55,2.55,0,0,1,130.46,191.57Z"/><path class="cls-1" d="M135.17,191.78l-.49,6.26-1.93-.16.49-6.25Zm-1.72-1.09a.94.94,0,0,1-.27-.74,1.07,1.07,0,0,1,.38-.74,1.3,1.3,0,0,1,.86-.23,1.17,1.17,0,0,1,.8.38.91.91,0,0,1,.26.76,1,1,0,0,1-.38.71,1.19,1.19,0,0,1-.84.23A1.16,1.16,0,0,1,133.45,190.69Z"/><path class="cls-1" d="M139.46,189.93l-.31,8.33-1.94-.08.32-8.32Z"/><path class="cls-1" d="M143,189.92v8.33H141v-8.33Z"/><path class="cls-1" d="M145.28,193.42a3,3,0,0,1,.93-1.2,2.73,2.73,0,0,1,1.4-.48,2.53,2.53,0,0,1,1.19.2,2,2,0,0,1,.82.66l-.06-.89,1.94-.12.4,6.26L150,198l-.06-.89a2.2,2.2,0,0,1-.74.78,2.72,2.72,0,0,1-1.15.33,2.51,2.51,0,0,1-1.44-.32,2.7,2.7,0,0,1-1.07-1.05,3.76,3.76,0,0,1-.48-1.7A3.72,3.72,0,0,1,145.28,193.42Zm4,.31a1.3,1.3,0,0,0-1-.35,1.35,1.35,0,0,0-.95.48A1.49,1.49,0,0,0,147,195a1.59,1.59,0,0,0,.47,1.11,1.32,1.32,0,0,0,1,.36,1.25,1.25,0,0,0,1-.48,1.48,1.48,0,0,0,.33-1.16A1.59,1.59,0,0,0,149.28,193.73Z"/><path class="cls-1" d="M156.05,195.53l-.85,3.36L154,199l.25-3.27Z"/><path class="cls-1" d="M170.05,188.75a2.72,2.72,0,0,1,1.14,1.76l.86,3.56-1.88.45-.8-3.31a1.26,1.26,0,0,0-.53-.84,1.38,1.38,0,0,0-1.74.42,1.31,1.31,0,0,0-.09,1l.8,3.31-1.87.46-.8-3.32a1.27,1.27,0,0,0-.54-.83,1.12,1.12,0,0,0-.94-.11,1.16,1.16,0,0,0-.79.53,1.24,1.24,0,0,0-.09,1l.8,3.3-1.89.46-1.48-6.1,1.89-.45.18.76a2.18,2.18,0,0,1,.61-.78,2.61,2.61,0,0,1,1-.48,2.68,2.68,0,0,1,1.32,0,2.27,2.27,0,0,1,1.05.63,2.55,2.55,0,0,1,.68-1,2.26,2.26,0,0,1,1.13-.6A2.53,2.53,0,0,1,170.05,188.75Z"/><path class="cls-1" d="M173.11,188.57a2.78,2.78,0,0,1,.57-1.4,2.75,2.75,0,0,1,1.2-.85,2.87,2.87,0,0,1,1.2-.15,2,2,0,0,1,1,.41l-.3-.84,1.83-.66,2.13,5.92-1.84.65-.3-.84a1.91,1.91,0,0,1-.49.93,2.68,2.68,0,0,1-2.48.76,2.87,2.87,0,0,1-1.34-.73,3.83,3.83,0,0,1-.91-1.48A3.76,3.76,0,0,1,173.11,188.57Zm3.26-4.35-2.2,2-.44-1.24,2.12-2.16Zm.68,3.55a1.23,1.23,0,0,0-1.06-.06,1.3,1.3,0,0,0-.8.72,1.84,1.84,0,0,0,.78,2.13,1.31,1.31,0,0,0,1.06.06,1.25,1.25,0,0,0,.79-.72,1.6,1.6,0,0,0,0-1.2A1.56,1.56,0,0,0,177.05,187.77Z"/><path class="cls-1" d="M184,189.37a2.31,2.31,0,0,1-1.24-.27,2,2,0,0,1-.84-.83l1.76-.78a.69.69,0,0,0,.49.35,1.16,1.16,0,0,0,.7-.09.89.89,0,0,0,.45-.36.4.4,0,0,0,0-.41.41.41,0,0,0-.42-.26,7.18,7.18,0,0,0-1,.12,7.83,7.83,0,0,1-1.17.17,1.91,1.91,0,0,1-.94-.18,1.5,1.5,0,0,1-.72-.78,1.76,1.76,0,0,1-.13-1,2,2,0,0,1,.52-1,3.76,3.76,0,0,1,1.15-.79,2.7,2.7,0,0,1,2-.23A2.25,2.25,0,0,1,186,184l-1.63.76a.75.75,0,0,0-.48-.36,1.06,1.06,0,0,0-.66.09.87.87,0,0,0-.42.33.39.39,0,0,0,0,.39.44.44,0,0,0,.43.26,5.2,5.2,0,0,0,.93-.12,8.27,8.27,0,0,1,1.2-.15,2.25,2.25,0,0,1,.94.18,1.64,1.64,0,0,1,.74.81,1.6,1.6,0,0,1,.12,1,2,2,0,0,1-.53,1,3.76,3.76,0,0,1-1.14.78A3.49,3.49,0,0,1,184,189.37Z"/><path class="cls-1" d="M193.53,184.63a2.34,2.34,0,0,1-1.27-.16,1.93,1.93,0,0,1-.91-.73l1.66-1a.69.69,0,0,0,.53.3,1.05,1.05,0,0,0,.68-.14,1.1,1.1,0,0,0,.42-.41.44.44,0,0,0,0-.42.4.4,0,0,0-.44-.2,4.37,4.37,0,0,0-.94.22,9.58,9.58,0,0,1-1.15.27,1.64,1.64,0,0,1-1-.09,1.41,1.41,0,0,1-.8-.7,1.71,1.71,0,0,1-.23-1,2,2,0,0,1,.41-1.05,3.32,3.32,0,0,1,1.08-.92,2.83,2.83,0,0,1,1.92-.44,2.28,2.28,0,0,1,1.46,1l-1.56.89a.71.71,0,0,0-.5-.29,1,1,0,0,0-.66.14,1,1,0,0,0-.38.38.4.4,0,0,0,0,.41.45.45,0,0,0,.45.19,4,4,0,0,0,.92-.22c.46-.12.85-.22,1.16-.27a2,2,0,0,1,1,.09,1.68,1.68,0,0,1,.82.73,1.64,1.64,0,0,1,.23,1,2.25,2.25,0,0,1-.44,1.06,3.9,3.9,0,0,1-2.47,1.38Z"/><path class="cls-1" d="M196.3,177.58a2.92,2.92,0,0,1,.19-1.5,2.51,2.51,0,0,1,1-1.11,2.34,2.34,0,0,1,1.11-.45,2.15,2.15,0,0,1,1.05.14l-.51-.73,1.6-1.1,3.56,5.17-1.6,1.1-.51-.73a2,2,0,0,1-.25,1,2.4,2.4,0,0,1-.81.88,2.63,2.63,0,0,1-1.38.47,2.92,2.92,0,0,1-1.48-.36,3.9,3.9,0,0,1-1.27-1.2A4,4,0,0,1,196.3,177.58Zm3.6-1.77a1.35,1.35,0,0,0-1.62,1.1,1.54,1.54,0,0,0,.32,1.16,1.63,1.63,0,0,0,1,.73,1.37,1.37,0,0,0,1.06-.22,1.3,1.3,0,0,0,.57-.9,1.8,1.8,0,0,0-1.29-1.87Z"/><path class="cls-1" d="M204.58,170a2.38,2.38,0,0,1,.72-.94,2.54,2.54,0,0,1,1.35-.6,2.66,2.66,0,0,1,1.48.23,3.86,3.86,0,0,1,1.38,1.08,3.76,3.76,0,0,1,.78,1.56,2.85,2.85,0,0,1,0,1.51,2.64,2.64,0,0,1-.85,1.22,2.34,2.34,0,0,1-1.07.51,1.87,1.87,0,0,1-1,0l.55.67-1.5,1.24L201.05,170l1.51-1.22,1.85,2.26A2,2,0,0,1,204.58,170Zm2.37.41a1.42,1.42,0,0,0-1,.3,1.39,1.39,0,0,0-.48,1,1.48,1.48,0,0,0,.4,1.14,1.6,1.6,0,0,0,1,.63,1.44,1.44,0,0,0,1-.3,1.34,1.34,0,0,0,.5-1A1.57,1.57,0,0,0,208,171,1.52,1.52,0,0,0,207,170.4Z"/><path class="cls-1" d="M213.87,169.59a3,3,0,0,1-1.62,0,3.59,3.59,0,0,1-2.36-2.45,2.81,2.81,0,0,1,.07-1.65,3.68,3.68,0,0,1,.92-1.45,4,4,0,0,1,1.49-.88,2.83,2.83,0,0,1,1.63,0,3.16,3.16,0,0,1,1.49.92,3.07,3.07,0,0,1,.87,1.52,3,3,0,0,1-.06,1.65,3.78,3.78,0,0,1-2.43,2.33Zm.73-3a1.63,1.63,0,0,0-.52-1.11,1.69,1.69,0,0,0-1.09-.57,1.2,1.2,0,0,0-.94.37,1.18,1.18,0,0,0-.41.93,1.78,1.78,0,0,0,.54,1.11,1.74,1.74,0,0,0,1.08.58,1.3,1.3,0,0,0,1.34-1.31Z"/><path class="cls-1" d="M216.6,158.51a2.32,2.32,0,0,1,.55-1l1.51,1.37-.37.39a1.79,1.79,0,0,0-.49,1,1.35,1.35,0,0,0,.56,1l2.17,1.95-1.29,1.45-4.67-4.2,1.29-1.45.78.69A2.45,2.45,0,0,1,216.6,158.51Z"/><path class="cls-1" d="M222.71,160.36a1,1,0,0,1-.77-.22,1,1,0,0,1-.37-.73,1.14,1.14,0,0,1,.3-.83,1.13,1.13,0,0,1,.75-.45,1,1,0,0,1,1.15,1,1.2,1.2,0,0,1-.28.82A1.25,1.25,0,0,1,222.71,160.36Z"/><path class="cls-5" d="M123.08,163.08c.15-1.33,1.92-3.78,6.09-4.11,7.35-.57,8,8.25-1.76,9.13-.38,1.14-.72,2.21-.89,2.92-.12.55-.29,1.37-.31,1.61s-.07.24-.26.25c-.55-.1-1.52-.54-1.58-1.32-.13-1.64,3.55-9.59,3.55-9.59a.93.93,0,0,1,.86-.55c.43,0,1,.18.8.71,0,.1-1,2.52-1.81,4.91,6.12-.57,6.61-7.38,1.45-7a4.92,4.92,0,0,0-4.52,4,1.12,1.12,0,0,0,.17.78c0,.07,0,.25-.24.27A1.74,1.74,0,0,1,123.08,163.08Z"/><path class="cls-5" d="M137.54,164.37c.91-.07,1.36.28,1.56.77.14-.27.26-.48.34-.63a.55.55,0,0,1,.45-.33c.38,0,1.3.27,1,.84-.4.77-1.85,4.77-1.41,4.73s1.23-1.19,2.16-2.4a.56.56,0,0,1,.38-.25c.26,0,.44.25.25.55-1.12,1.66-2.38,3.32-2.86,3.35s-1.77-.37-1.86-1.32c-.65.88-1.38,1.58-2,1.63a1.63,1.63,0,0,1-1.81-1.35C133.61,168.1,135.07,164.56,137.54,164.37ZM135.82,170c1.49-.12,3.54-4.79,2.12-4.68C136.23,165.5,134.94,170.11,135.82,170Z"/><path class="cls-5" d="M142,167.85a.32.32,0,0,1-.31-.5c.53-.7,1-1.44,1.44-2l-.22,0c-.53,0-.88-.7-1-1a.25.25,0,0,1,.19-.36h.05a16.52,16.52,0,0,0,1.85-.09c1.09-.08,2.28-.2,2.44-.21.38,0,1.3.27,1,.84-.4.76-1.84,4.76-1.41,4.73s1.23-1.2,2.16-2.41a.65.65,0,0,1,.39-.25c.27,0,.44.26.24.55-1.1,1.67-2.38,3.33-2.85,3.36s-1.79-.39-1.87-1.34.72-2.8,1.32-4l-1.57.16c-.37.58-.94,1.48-1.55,2.38A.46.46,0,0,1,142,167.85Z"/><path class="cls-5" d="M148.48,167.34a.33.33,0,0,1-.32-.51c.53-.7,1-1.43,1.44-2l-.22,0c-.53,0-.88-.7-1-1a.26.26,0,0,1,.19-.37l.06,0a16.46,16.46,0,0,0,1.84-.09l2.45-.21c.38,0,1.3.26,1,.84-.4.76-1.85,4.76-1.41,4.73s1.22-1.2,2.16-2.41a.6.6,0,0,1,.38-.25c.27,0,.44.26.24.55-1.09,1.66-2.37,3.32-2.85,3.36s-1.79-.39-1.86-1.34.71-2.8,1.31-4l-1.56.16c-.38.58-.95,1.48-1.56,2.37A.43.43,0,0,1,148.48,167.34Z"/><path class="cls-5" d="M158.33,166a.61.61,0,0,1,.38-.25c.28,0,.45.25.25.55-1.1,1.66-2.38,3.32-2.85,3.35s-1.8-.39-1.87-1.33c-.11-1.39,1.46-4.35,1.89-5.16a.57.57,0,0,1,.45-.33c.38,0,1.3.27,1,.84-.4.77-1.85,4.77-1.41,4.73S157.4,167.25,158.33,166Zm-.58-3.85c-.38,0-1.12-.27-1-.65,0-.17.4-1.5.63-2a.64.64,0,0,1,.58-.37c.63-.05,1.52.52,1.3.92s-1.08,1.68-1.27,2.05A.27.27,0,0,1,157.75,162.19Z"/><path class="cls-5" d="M162.12,165.74a.6.6,0,0,1,.39-.25c.27,0,.44.26.24.55-1.1,1.66-2.38,3.32-2.85,3.36s-1.94-.38-2-1.33c-.13-1.64,3.8-10.18,3.8-10.18a.83.83,0,0,1,.78-.54c.4,0,1.17.18,1,.7-.08.19-3.63,8.77-3.53,10a.06.06,0,0,0,.06.05C160.27,168.12,161.19,167,162.12,165.74Z"/><path class="cls-5" d="M165.91,165.44a.6.6,0,0,1,.39-.25c.27,0,.44.26.24.55-1.1,1.66-2.38,3.32-2.85,3.36s-1.94-.38-2-1.33c-.13-1.64,3.8-10.18,3.8-10.18a.85.85,0,0,1,.78-.54c.4,0,1.17.19,1,.7-.08.19-3.62,8.77-3.53,10.05a.06.06,0,0,0,.06,0C164.06,167.82,165,166.65,165.91,165.44Z"/><path class="cls-5" d="M151.3,171.58a.31.31,0,0,1,.25.11,4.84,4.84,0,0,0,3.73,1c5.68-.45,10.3-1.86,14.49-2.72a7.56,7.56,0,0,1-.36-1.8,7.1,7.1,0,0,1,0-.92c-.65.84-1.37,1.52-1.95,1.57a1.63,1.63,0,0,1-1.81-1.35c-.15-1.86,1.32-5.4,3.78-5.59.91-.07,1.38.27,1.56.77l.34-.63a.57.57,0,0,1,.45-.33c.38,0,1.3.27,1,.84a23.79,23.79,0,0,0-1.47,4.35,8.08,8.08,0,0,0,0,1.53,5.83,5.83,0,0,0,.24,1.23c.42-.07.84-.13,1.24-.16,3.68-.29,3.75,3.6,1.1,3.8a3.69,3.69,0,0,1-3.54-2.14c-4.38,1.19-9.47,3.62-15.34,4.08-1.8.15-3.68-.72-3.84-2.72C151.08,172.31,151,171.6,151.3,171.58Zm16.39-4c1.49-.12,3.55-4.79,2.13-4.68C168.1,163,166.81,167.61,167.69,167.54Zm4.3,3.15a2.14,2.14,0,0,0,1.85,1.12c1-.08,1.13-1.49-.42-1.36A8.72,8.72,0,0,0,172,170.69Z"/><path class="cls-1" d="M55.75,28.27h-.06a.42.42,0,0,1,0-.07Z"/><path class="cls-1" d="M58.36,37.18v0l0,0Z"/><rect class="cls-4" x="0.89" y="107.28" width="5.24" height="16.09" rx="0.07" transform="translate(-13.01 1.14) rotate(-6.49)"/><rect class="cls-4" x="284.8" y="67.85" width="5.38" height="16.51" rx="0.07" transform="translate(-7.74 40.28) rotate(-7.91)"/></g></g></svg>