<svg xmlns="http://www.w3.org/2000/svg" viewBox="0 0 299.82 218.48"><defs><style>.cls-1{fill:#fff;}.cls-2{fill:#da0c31;}</style></defs><g id="Capa_2" data-name="Capa 2"><g id="Capa_1-2" data-name="Capa 1"><path class="cls-1" d="M190.52,15.86l.59-.51A1.83,1.83,0,0,0,190.52,15.86Z"/><path class="cls-1" d="M191.11,15.35l-.59.51A1.83,1.83,0,0,1,191.11,15.35Z"/><path class="cls-1" d="M191.11,15.35l-.59.51A1.83,1.83,0,0,1,191.11,15.35Z"/><path class="cls-1" d="M143.73.52h0l-.14,0Z"/><path class="cls-1" d="M111.88,113.08c-.3,1-.55,1.8-.77,2.61-.89,3.4-1.86,6.78-2.61,10.21a15.76,15.76,0,0,0,.08,3.75c3.65,6-2.34,13.56-9.26,12.56-3.65-.54-7.38-.49-11-1.06a20.28,20.28,0,0,1-11.74-5.7,16,16,0,0,1-4.36-8.81,25.9,25.9,0,0,1,1.87-14c2.45-6.2,4.7-12.48,7.14-18.68,3.09-7.83,6.29-15.62,9.43-23.44,1.61-4,3.2-8,4.89-12.17a6.37,6.37,0,0,0-1.13.28,46.26,46.26,0,0,1-18.68,4.85,19.91,19.91,0,0,1-14.62-4.92A16.46,16.46,0,0,1,55.52,46.3,28.25,28.25,0,0,1,59.6,31.05c3.6-6.24,12.87-5.76,16.13.17a2.71,2.71,0,0,0,3,1.61A44.45,44.45,0,0,0,91,29.65c6-2.38,12-4.92,18-7.26a39.82,39.82,0,0,1,16.77-2.65,17,17,0,0,1,8.41,2.64c4.37,2.86,6.17,6.9,5.29,12-.4,2.32-1.17,4.57-1.79,6.85-.11.4-.27.78-.55,1.59a6.57,6.57,0,0,0,1-.79c1.53-2,3.12-4,4.52-6.13A12,12,0,0,0,144,32.72a4.18,4.18,0,0,0-.28-3c-3.16-7,3.07-13,9.29-12.17A31.17,31.17,0,0,1,171,26.06a20.08,20.08,0,0,1,6.32,14.61c0,1.73,0,3.48-.06,5.46.59-.23,1.13-.4,1.64-.65a50.31,50.31,0,0,1,19.92-5.16c7.59-.4,14.76,1.12,20.95,5.77a18.18,18.18,0,0,1,7,19.8c-1.48,6-5,10.56-9.56,14.45A37.07,37.07,0,0,1,205.79,87c-.28.1-.55.23-1,.42a9.9,9.9,0,0,0,.85,1.12,18.7,18.7,0,0,1,5.53,10.62,21.23,21.23,0,0,1-.86,9.52,25.25,25.25,0,0,1-.84,2.4,11.62,11.62,0,0,0-1.11,5.06,12.23,12.23,0,0,1-1,4.21,55.93,55.93,0,0,1-6.63,13.31c-2.67,3.87-6.3,6.69-10,9.37a46.79,46.79,0,0,1-16.74,7.71A36.63,36.63,0,0,1,154,150.1a80.26,80.26,0,0,1-8.21-3.41c-4.65-2.13-8.4-5.5-12-9.05a293.22,293.22,0,0,1-20.66-23.2C112.82,114,112.42,113.66,111.88,113.08Zm-4.11-20c3.2,4.14,6.14,8,9.13,11.78A321.63,321.63,0,0,0,139,130.38c4.4,4.52,9.16,8.42,15.17,10.67a29.49,29.49,0,0,0,15,1.81,35.53,35.53,0,0,0,12.72-4.69,41.82,41.82,0,0,0,9.35-7.17c3.16-3.37,5-7.52,6.75-11.75.46-1.14.81-2.33,1.2-3.49a4.62,4.62,0,0,0-1.43,1,44.4,44.4,0,0,1-4.22,3.42c-4.95,3.18-10.48,4.55-16.3,5.13a23.63,23.63,0,0,1-12.55-2.11,83,83,0,0,1-12.86-7.5,198.74,198.74,0,0,1-18.91-15.33q-9.46-8.53-18.16-17.83c-.56-.6-1.08-1.24-1.7-2a6.55,6.55,0,0,1,.77-.4c4.65-1.55,9.32-3,14-4.66a135.85,135.85,0,0,0,20.37-8.69c5.29-2.89,10.28-6.17,14.34-10.71,4.44-5,6.45-10.7,5.4-17.42a11.08,11.08,0,0,0-2.82-6,21.5,21.5,0,0,0-12.13-6.48,1.89,1.89,0,0,0-.6.12c.28,1,.62,2,.8,3a15.66,15.66,0,0,1-2.58,11.42,61.7,61.7,0,0,1-13.17,14.47c-6.26,5.22-13.22,9.4-20.12,13.67a13.17,13.17,0,0,1-1.28.62c.32-.86.52-1.43.76-2,2-4.5,4-9,5.86-13.5,2.32-5.53,4.6-11.08,6.78-16.67a29,29,0,0,0,1.17-4.93,2.66,2.66,0,0,0-1.54-3,5.91,5.91,0,0,0-2.2-.8,28.9,28.9,0,0,0-6.5-.1,43.51,43.51,0,0,0-8.4,2.22c-5.51,2.05-10.89,4.41-16.36,6.55s-11.18,4.1-17.21,4.25c-4.41.11-8-1.42-10.29-5.5a4,4,0,0,0-.58-.55C66,38.84,64.71,42,64.73,45.68c0,6.23,4.63,9,8.87,9.09a30.63,30.63,0,0,0,12.14-2,59.2,59.2,0,0,0,13.85-7.52,79.8,79.8,0,0,1,9.41-5.8,21.11,21.11,0,0,1,2.67-1.16,8.73,8.73,0,0,1,1.67-.21c-.29,1-.43,1.8-.71,2.5-2.11,5.27-4.26,10.54-6.4,15.81-3.77,9.32-7.57,18.63-11.31,28q-4.45,11.13-8.78,22.31c-1.55,4-3,8.06-4.45,12.12a13.26,13.26,0,0,0-.28,7.36,7.73,7.73,0,0,0,5.21,5.62,30.85,30.85,0,0,0,8.72,1.64c1.54.12,3.09.11,4.83.17-.27-1.07-.53-1.92-.7-2.79a19.55,19.55,0,0,1,.64-9.32c1.94-6.88,3.6-13.84,5.43-20.75C106.2,98.22,107,95.74,107.77,93.06Zm75-20.6A13.57,13.57,0,0,0,189,79.92a8.11,8.11,0,0,0,4.56.94A29.58,29.58,0,0,0,210.8,74c3.19-2.61,5.81-5.69,6.91-9.78,1.36-5.06.09-8.47-3.66-11.47a16.87,16.87,0,0,0-7.78-3.33,31.77,31.77,0,0,0-12.25.11,42.3,42.3,0,0,0-20.67,10.38,31.54,31.54,0,0,0-9.3,15.72,10.91,10.91,0,0,0,.71,7.61,19.51,19.51,0,0,0,5.47,6.93A56.12,56.12,0,0,0,181.17,97a54.19,54.19,0,0,1,6,3.31,13.39,13.39,0,0,1,4.53,4.63,4,4,0,0,1,.31,3.3c-1,3.67-7,7.92-11.86,6.53a12.1,12.1,0,0,1-7.77-6.63,24.2,24.2,0,0,1-2.58-11.59,16.47,16.47,0,0,0-.19-1.74,37.25,37.25,0,0,0-6.91,7.1,9.49,9.49,0,0,0-1.14,9.33c1.91,5.2,5.79,8.26,11.15,9.38a23.71,23.71,0,0,0,4.7.3,29.1,29.1,0,0,0,15.32-3.85c5.23-3.11,8.6-7.55,9.25-13.79a9.48,9.48,0,0,0-1.95-7.51,21.81,21.81,0,0,0-4-3.88c-2.83-2-5.86-3.63-8.77-5.47-2.66-1.69-5.38-3.31-7.88-5.22-2.91-2.22-3.12-4.13-2.27-7a18,18,0,0,1,4-6.87A38,38,0,0,1,199.17,56,28.94,28.94,0,0,1,206,55c2.9-.14,4.08,1.51,3.33,4.54A10.78,10.78,0,0,1,207,63.63a24.72,24.72,0,0,1-12,8.1,20.46,20.46,0,0,1-10.75.84A10.57,10.57,0,0,0,182.74,72.46ZM159.35,91.78A31,31,0,0,1,155,83c-.91-3.12-.57-6.3.05-9.81a156.92,156.92,0,0,1-25.71,11.17c1.64,2.86,19.76,19,22.48,20C152.85,99.28,156,95.53,159.35,91.78Z"/><path class="cls-1" d="M205.25,23.42a3.7,3.7,0,0,0-1.2-1.93C187.55,7.63,175.19.87,147.26.08c-1.47,0-3-.07-4.53-.08h-.33c-2.23,0-4.44.1-6.65.26l-.31,0h-.1q-2.62.2-5.22.54h0c-.87.18-1.9.33-3.09.46h0c-1.2.2-2.4.42-3.59.66q-3.27.66-6.49,1.56l-.07,0a96,96,0,0,0-9.18,3.07l-.07-.08c-1,.42-2,.86-2.93,1.3,0,0,0,0,0,0-1,.52-2.1,1-3.19,1.53l0,0c-2.61,1.32-5.09,2.72-7.4,4.13h0l-.66.41h0c-1.7,1-3.3,2.1-4.8,3.12-1.21.82-2.35,1.63-3.41,2.4h0c-.69.53-1.38,1.07-2,1.67l-.08-.1c-1,.76-1.89,1.47-2.69,2.11l-.06,0a3.72,3.72,0,0,1-.35.49,4.68,4.68,0,0,1-.78.76c-1,.77-2,1.52-3.07,2.35l0,0,2.58,3.42C80,30,81.51,29.82,83,29.42A75.28,75.28,0,0,0,94.1,25.56c4.47-2,9.05-3.76,13.64-5.5a57.48,57.48,0,0,1,6.3-2,32.63,32.63,0,0,1,16.63-.13,22.78,22.78,0,0,1,2.57.86,15.55,15.55,0,0,1,6.25,4.56,8.59,8.59,0,0,0,.74.72,12.36,12.36,0,0,1,2.38-4.92,12,12,0,0,1,9.89-4.25,26.91,26.91,0,0,1,5.55.91,31.39,31.39,0,0,1,9.61,4.3,41.8,41.8,0,0,1,6.28,5.13A18.79,18.79,0,0,1,176,27.76a1.65,1.65,0,0,0,1.66.82c4.41-.42,8.81-.81,13.22-1.21l1.27-.1c3.68-.32,7.36-.61,11-1A2.28,2.28,0,0,0,205.25,23.42Zm-30.86-7.94a1.18,1.18,0,0,1-.49-.57h0a1.33,1.33,0,0,1-.34-1.23c.27-.88,1.69-1.22,3.17-.77A3,3,0,0,1,179,14.82a2.3,2.3,0,0,1,.51,1.11A4.91,4.91,0,0,1,174.39,15.48Zm6-4.84a.66.66,0,0,1,0,.24,1.17,1.17,0,0,1-.79.74h0a2.29,2.29,0,0,1-.74.19,4.23,4.23,0,0,1-1.69-.18,4.36,4.36,0,0,1-1.15-.54c-.47-.16-.93-.51-.94-1h0a1.12,1.12,0,0,1-.1-.87c.27-.87,1.69-1.22,3.17-.76S180.4,9.81,180.34,10.64Zm8.73,5.43c-.27.88-1.7,1.22-3.18.77-1.26-.39-2.17-1.24-2.24-2-.1-.12-.19-.24-.28-.37a3,3,0,0,0,.36-.13h0c.34-.8,1.71-1.1,3.13-.67S189.33,15.19,189.07,16.07Z"/><path class="cls-1" d="M198.1,155c-5.43.52-10.86,1.06-16.29,1.56-3.5.32-7,.56-10.51.85l-12.67,1.08c-3.56.3-7.13.57-10.69.88l-15.39,1.32-11.23.92c-4.23.35-8.45.81-12.68,1a33.7,33.7,0,0,1-8.51-.17,26,26,0,0,1-9.75-4.27c-2-1.37-3.95-2.78-5.9-4.22-1.17-.86-2.3-1.77-3.4-2.71a2.47,2.47,0,0,1-.94-2.74,2.6,2.6,0,0,1,2.25-1.86c1.38-.21,2.78-.31,4.17-.41s2.54-.1,3.8-.22c7-.62,14-1.28,21-1.91q6.78-.6,13.58-1.17c2.72-.22,5.44-.41,8.15-.63a3.21,3.21,0,0,1,2.67.83,43.23,43.23,0,0,0,13.79,8.26,38,38,0,0,0,15,3,47.67,47.67,0,0,0,14.49-2.35,54.5,54.5,0,0,0,15.68-8.64,42.54,42.54,0,0,0,6.7-6.1,2.74,2.74,0,0,1,1.72-.82c3.68-.36,7.36-.63,11-.93,1.33-.11,2.66-.32,4-.37a4.17,4.17,0,0,1,1.91.36,2.52,2.52,0,0,1,.92,3.85c-1.51,1.74-3,3.53-4.55,5.19s-3.36,3.32-5.08,4.93a18.39,18.39,0,0,1-9.23,4.78c-1.36.25-2.71.58-4.07.88ZM94.92,147.29l-.17.54c.44.38.85.79,1.31,1.14l9.57,7.2c1.94,1.46,2.72,1.38,4.64-.1,2.1-1.62,4.3-3.1,6.45-4.65,2.41-1.73,4.82-3.45,7.21-5.2.4-.29,1-.56.64-1.48C114.72,145.56,104.8,146.25,94.92,147.29Z"/><path class="cls-1" d="M112.66,148.05a1.51,1.51,0,0,1,1.73,1.23,1.42,1.42,0,0,1-1.25,1.51,1.56,1.56,0,0,1-1.62-1.15A1.39,1.39,0,0,1,112.66,148.05Z"/><path class="cls-1" d="M107.79,152.09a1.52,1.52,0,0,1,1.73,1.24,1.41,1.41,0,0,1-1.25,1.51,1.57,1.57,0,0,1-1.62-1.16A1.4,1.4,0,0,1,107.79,152.09Z"/><path class="cls-1" d="M103.36,151.38c-.65.11-1.41-.4-1.42-.94a1,1,0,0,1,1-1.08,1,1,0,0,1,1.19.83A1,1,0,0,1,103.36,151.38Z"/><path class="cls-1" d="M76,26.82c.23-.2,1.83-1.65,4.2-3.6a3.72,3.72,0,0,1-.35.49,4.68,4.68,0,0,1-.78.76C78.13,25.24,77.13,26,76,26.82Z"/><path class="cls-1" d="M48.87,114.18,4.14,120.36l-.57-4.84,44.09-6.31C48,110.88,48.43,112.54,48.87,114.18Z"/><path class="cls-1" d="M293.2,80.43,245.8,87c0-2-.1-4.08-.25-6.13l46.79-6.71C292.69,76.67,292.92,78.34,293.2,80.43Z"/><path class="cls-1" d="M51.46,122.36l-46.36,6-.57-4.8,45.29-6.1C50.33,119.12,50.88,120.76,51.46,122.36Z"/><path class="cls-1" d="M294.64,90.79,245.4,97.18c.18-2,.31-4.06.37-6.11l48-6.48C294.12,87,294.35,88.72,294.64,90.79Z"/><path class="cls-1" d="M45.46,83.83c-.07,1.69-.09,3.39-.07,5.09L1.25,96.15.68,91.37Z"/><path class="cls-1" d="M289,49.68c-5.7.78-11.24,1.41-16.73,2.3L241,57.05c-.64-1.95-1.33-3.89-2.08-5.79L288.13,43C288.45,45.33,288.68,47,289,49.68Z"/><path class="cls-1" d="M47.05,106.15c-14.34,2.11-29,4.25-43.84,6.42l-.63-5.29,43.62-6.6Q46.56,103.46,47.05,106.15Z"/><path class="cls-1" d="M291.76,69.5c-1.13.38-18.21,3-46.57,7.33-.22-2-.49-3.89-.81-5.8,28.7-4.2,45.88-6.61,46.7-6.51C291.31,66.2,291.54,67.87,291.76,69.5Z"/><path class="cls-1" d="M54.85,130.5,6.06,136.43l-.57-4.82,47.24-6C53.39,127.28,54.1,128.91,54.85,130.5Z"/><path class="cls-1" d="M296,101.22l-52.07,6.32c.4-2,.75-4.1,1-6.18L295.12,95C295.45,97.47,295.7,99.25,296,101.22Z"/><path class="cls-1" d="M45.7,95.81c0,.59.1,1.17.15,1.75L2.23,104.32l-.59-4.89,43.85-7C45.54,93.54,45.61,94.68,45.7,95.81Z"/><path class="cls-1" d="M290.48,60c-6.61.9-13.06,1.68-19.48,2.67l-27.41,4.24c-.43-2-.92-4-1.47-6l47.45-7.59C289.88,55.68,290.11,57.34,290.48,60Z"/><path class="cls-1" d="M46.2,75.1c-.23,1.73-.4,3.47-.54,5.22L.3,88.16,0,85.83a2.67,2.67,0,0,1,2.19-3Z"/><path class="cls-1" d="M287.59,38.51c-1,.26-1.67.46-2.31.57l-48,8.33q-1.26-2.86-2.7-5.64l48.66-8.6a3.46,3.46,0,0,1,4,2.94C287.37,36.89,287.47,37.67,287.59,38.51Z"/><path class="cls-1" d="M70.78,154.61l-60.23,5.81A1.64,1.64,0,0,1,8.76,159l-.39-3.26,58.39-5.92Q68.69,152.27,70.78,154.61Z"/><path class="cls-1" d="M299.79,129.25a3.1,3.1,0,0,1-2.65,3.49c-.4,0-.8.1-1.19.13q-32.08,3.13-64.18,6.24c1.23-2.08,2.4-4.21,3.49-6.38l64.12-6.5C299.52,127.3,299.66,128.28,299.79,129.25Z"/><path class="cls-1" d="M64.37,146.64,8,152.53l-.58-4.84,53.67-5.89C62.13,143.45,63.23,145.07,64.37,146.64Z"/><path class="cls-1" d="M298.88,121.27c-7.76,1.06-15.12,2.25-22.51,3q-19.56,2.11-39.12,4.19,1.38-3.1,2.54-6.3l58.34-6.4C298.43,118,298.66,119.69,298.88,121.27Z"/><path class="cls-1" d="M59.09,138.56,7,144.49l-.58-4.78,7.38-.87,42.64-5C57.3,135.41,58.18,137,59.09,138.56Z"/><path class="cls-1" d="M297.47,111.45c-3.51.48-6.54,1-9.58,1.3L241.22,118q1-3.08,1.74-6.24l49.62-5.86c1.29-.16,2.59-.21,4.08-.32C296.94,107.59,297.18,109.37,297.47,111.45Z"/><path class="cls-1" d="M56,39.83v0l0,0Z"/><path class="cls-1" d="M245.73,154.63a4.35,4.35,0,0,1,4.06,6.67A121.62,121.62,0,0,1,56.63,178.63a4.35,4.35,0,0,1,2.85-7.23L75.29,170a4.32,4.32,0,0,1,3.3,1.1,100.71,100.71,0,0,0,148.28-13.35,4.32,4.32,0,0,1,3-1.68Z"/><path class="cls-2" d="M89.55,187.18l-4.71,6.92-1.14-.78,3.21-4.74-5.35,3.28-.79-.54,1.08-6.19-3.23,4.74-1.15-.77,4.72-6.93,1.22.84-1.22,7.1,6.13-3.77Z"/><path class="cls-2" d="M90,191.2a3.18,3.18,0,0,1,1.58-.51,3,3,0,0,1,1.61.4,3,3,0,0,1,1.06.94,2.77,2.77,0,0,1,.45,1.11l.47-.84,1.22.68-3.19,5.81L92,198.11l.48-.86a2.42,2.42,0,0,1-1.22.22,3.1,3.1,0,0,1-2.54-1.54,3.14,3.14,0,0,1-.41-1.63,3.86,3.86,0,0,1,.5-1.76A3.61,3.61,0,0,1,90,191.2Zm3.9,2.83a2.07,2.07,0,0,0-.29-1,1.94,1.94,0,0,0-.74-.71,2.2,2.2,0,0,0-1-.27,2.11,2.11,0,0,0-1,.32,2.42,2.42,0,0,0-.83.9,2.46,2.46,0,0,0-.32,1.2,2,2,0,0,0,.27,1,1.86,1.86,0,0,0,.74.71,1.89,1.89,0,0,0,1,.27,2.07,2.07,0,0,0,1-.34,2.38,2.38,0,0,0,.83-.89A2.59,2.59,0,0,0,93.91,194Zm1.64-3.56-3-.13.49-.91,3,0Z"/><path class="cls-2" d="M96.73,200.3a2.34,2.34,0,0,1-.58-1.11,2,2,0,0,1,.09-1.17l1.32.62a.94.94,0,0,0,.07.81,1.55,1.55,0,0,0,.73.64,1.44,1.44,0,0,0,.91.16.66.66,0,0,0,.54-.37.62.62,0,0,0-.1-.66,6.57,6.57,0,0,0-.87-.83,11.17,11.17,0,0,1-1-.88,2.2,2.2,0,0,1-.5-.88,1.57,1.57,0,0,1,.12-1.09,1.64,1.64,0,0,1,.7-.75,2.06,2.06,0,0,1,1.1-.25,3.65,3.65,0,0,1,1.34.33,2.84,2.84,0,0,1,1.44,1.29,2.07,2.07,0,0,1,0,1.74l-1.27-.59a1,1,0,0,0,0-.8,1.38,1.38,0,0,0-.69-.6,1.31,1.31,0,0,0-.86-.17.67.67,0,0,0-.49.38.57.57,0,0,0,0,.46,1.25,1.25,0,0,0,.31.47l.64.57a9.54,9.54,0,0,1,.94.87,2.44,2.44,0,0,1,.49.86,1.6,1.6,0,0,1-.11,1.08,1.64,1.64,0,0,1-.71.78,2.13,2.13,0,0,1-1.11.27,3.37,3.37,0,0,1-1.34-.33A3.53,3.53,0,0,1,96.73,200.3Z"/><path class="cls-2" d="M110.93,199.29a3,3,0,0,1,1.41.13,3.09,3.09,0,0,1,1.38.92,3,3,0,0,1,.71,1.49,4.08,4.08,0,0,1-1.12,3.37,2.87,2.87,0,0,1-1.47.81,2.91,2.91,0,0,1-1.65-.08,3,3,0,0,1-1.89-1.75L107,208.1l-1.33-.45,3.08-9.29,1.32.43-.32.94A2.84,2.84,0,0,1,110.93,199.29ZM113,202a1.94,1.94,0,0,0-.47-.95,2.19,2.19,0,0,0-.88-.57,2,2,0,0,0-1-.06,2.14,2.14,0,0,0-1,.5,2.32,2.32,0,0,0-.65,1,2.54,2.54,0,0,0-.1,1.24,1.9,1.9,0,0,0,.48,1,1.86,1.86,0,0,0,.86.57,2,2,0,0,0,2-.47,2.47,2.47,0,0,0,.65-1.05A2.45,2.45,0,0,0,113,202Z"/><path class="cls-2" d="M116.69,202.47a3,3,0,0,1,1.4-.89,3.11,3.11,0,0,1,1.66,0,3.34,3.34,0,0,1,1.27.61,3,3,0,0,1,.73,1l.23-.93,1.35.33L121.77,209l-1.36-.32.23-.95a2.72,2.72,0,0,1-1.11.52,2.68,2.68,0,0,1-1.43,0,2.88,2.88,0,0,1-1.43-.8,3.12,3.12,0,0,1-.81-1.47,3.66,3.66,0,0,1,0-1.83A3.71,3.71,0,0,1,116.69,202.47Zm4.5,1.71a2,2,0,0,0-.54-.92,1.82,1.82,0,0,0-.9-.49,1.9,1.9,0,0,0-1.94.59,2.29,2.29,0,0,0-.56,1.06,2.41,2.41,0,0,0,0,1.25,2,2,0,0,0,.54.94,1.93,1.93,0,0,0,.9.5,1.91,1.91,0,0,0,1.94-.61,2.23,2.23,0,0,0,.56-1.09A2.33,2.33,0,0,0,121.19,204.18Z"/><path class="cls-2" d="M127.92,203.52a2.26,2.26,0,0,1,1.22-.06l-.24,1.4-.35-.08a1.68,1.68,0,0,0-1.29.22,1.82,1.82,0,0,0-.65,1.31l-.6,3.44-1.36-.23,1.13-6.54,1.37.24-.17.94A2.11,2.11,0,0,1,127.92,203.52Z"/><path class="cls-2" d="M133.35,204.28a2.47,2.47,0,0,1,1.23-.14l-.18,1.42-.35,0a1.7,1.7,0,0,0-1.27.25,2,2,0,0,0-.6,1.35l-.41,3.48-1.39-.17.8-6.6,1.39.18-.12,1A2.1,2.1,0,0,1,133.35,204.28Z"/><path class="cls-2" d="M137.79,204.52l-.53,6.62-1.38-.11.52-6.62Zm-1.21-1.23a.81.81,0,0,1-.21-.64.87.87,0,0,1,.3-.61,1,1,0,0,1,.65-.2.87.87,0,0,1,.6.3.86.86,0,0,1,.21.65.91.91,0,0,1-.31.62.88.88,0,0,1-.64.18A.83.83,0,0,1,136.58,203.29Z"/><path class="cls-2" d="M141.76,202.48l-.39,8.91-1.39-.07.39-8.9Z"/><path class="cls-2" d="M145.54,202.54l-.06,8.93h-1.39l.07-8.93Z"/><path class="cls-2" d="M147.78,206.36a3.1,3.1,0,0,1,2.67-1.76,2.9,2.9,0,0,1,1.4.25,2.63,2.63,0,0,1,1,.71l0-1,1.4-.05.32,6.63-1.39.06,0-1a2.89,2.89,0,0,1-.93.83,3.17,3.17,0,0,1-1.37.39,3,3,0,0,1-1.6-.37,3.18,3.18,0,0,1-1.19-1.17,3.91,3.91,0,0,1-.52-1.78A3.85,3.85,0,0,1,147.78,206.36Zm4.82.38a1.89,1.89,0,0,0-.8-.74,1.82,1.82,0,0,0-1-.22,2.06,2.06,0,0,0-1,.31,1.91,1.91,0,0,0-.71.78,2.59,2.59,0,0,0,.11,2.4,2.1,2.1,0,0,0,.79.75,2,2,0,0,0,1,.22,1.9,1.9,0,0,0,1-.31,2,2,0,0,0,.72-.82,2.47,2.47,0,0,0,.22-1.21A2.44,2.44,0,0,0,152.6,206.74Z"/><path class="cls-2" d="M159,209l-1.11,3.47-.89.1.49-3.4Z"/><path class="cls-2" d="M173.32,201.5a2.43,2.43,0,0,1,1.17.72,3.15,3.15,0,0,1,.69,1.42l.86,3.82-1.34.3-.82-3.62a1.9,1.9,0,0,0-.74-1.22,1.83,1.83,0,0,0-2.39.54,1.81,1.81,0,0,0-.15,1.44l.82,3.6-1.34.31-.82-3.61a1.94,1.94,0,0,0-.74-1.23,1.7,1.7,0,0,0-1.31-.21,1.68,1.68,0,0,0-1.1.75,1.85,1.85,0,0,0-.13,1.42l.82,3.64-1.36.3L164,203.39l1.34-.31.17.74a2.37,2.37,0,0,1,.71-.81,2.87,2.87,0,0,1,1-.48,3.35,3.35,0,0,1,1.48,0,2.35,2.35,0,0,1,1.16.74,2.39,2.39,0,0,1,.71-1.15,2.92,2.92,0,0,1,1.28-.64A3,3,0,0,1,173.32,201.5Z"/><path class="cls-2" d="M177.66,201.58a3,3,0,0,1,.7-1.52,3.09,3.09,0,0,1,1.37-.91,2.71,2.71,0,0,1,1.41-.16,2.65,2.65,0,0,1,1.14.42l-.32-.91,1.32-.46,2.16,6.28-1.32.44-.32-.92a2.86,2.86,0,0,1-.66,1,3,3,0,0,1-1.21.75,2.93,2.93,0,0,1-1.63.1,3.08,3.08,0,0,1-1.48-.8,4,4,0,0,1-1.16-3.35Zm3.2-4.6-2.12,2.12-.33-.95,2.06-2.27Zm1.52,3.61a2.1,2.1,0,0,0-1-.49,2,2,0,0,0-1,.08,1.79,1.79,0,0,0-.86.57,2.06,2.06,0,0,0-.46.95,2.33,2.33,0,0,0,.12,1.23,2.3,2.3,0,0,0,.66,1,2,2,0,0,0,1,.5,1.77,1.77,0,0,0,1-.05,2.22,2.22,0,0,0,.86-.58,2,2,0,0,0,.45-1,2.37,2.37,0,0,0-.11-1.23A2.42,2.42,0,0,0,182.38,200.59Z"/><path class="cls-2" d="M189,202.69a2.4,2.4,0,0,1-1.21-.32,1.94,1.94,0,0,1-.79-.84l1.32-.58a1,1,0,0,0,.66.49,1.45,1.45,0,0,0,1-.1,1.62,1.62,0,0,0,.74-.58.68.68,0,0,0,.06-.65.6.6,0,0,0-.55-.36,9.13,9.13,0,0,0-1.2.08,10.42,10.42,0,0,1-1.28.13,2.1,2.1,0,0,1-1-.22,1.56,1.56,0,0,1-.74-.83,1.65,1.65,0,0,1-.09-1,1.88,1.88,0,0,1,.56-1,3.43,3.43,0,0,1,1.14-.78,2.87,2.87,0,0,1,1.92-.2,2,2,0,0,1,1.31,1.14l-1.28.55a1,1,0,0,0-.61-.51,1.46,1.46,0,0,0-.92.11,1.43,1.43,0,0,0-.69.51.64.64,0,0,0,.3,1,1.41,1.41,0,0,0,.55.06,7.84,7.84,0,0,0,.86-.09,11.22,11.22,0,0,1,1.25-.1,2.15,2.15,0,0,1,1,.21,1.45,1.45,0,0,1,.73.8,1.86,1.86,0,0,1,.11,1.06,2.2,2.2,0,0,1-.54,1,3.66,3.66,0,0,1-1.15.76A3.52,3.52,0,0,1,189,202.69Z"/><path class="cls-2" d="M199.19,197.82a2.7,2.7,0,0,1-1.25-.2,1.83,1.83,0,0,1-.85-.75l1.24-.71a.89.89,0,0,0,.7.42,1.4,1.4,0,0,0,.95-.21,1.5,1.5,0,0,0,.69-.64.68.68,0,0,0,0-.65.6.6,0,0,0-.58-.3,6.15,6.15,0,0,0-1.19.2,10,10,0,0,1-1.27.25,2.14,2.14,0,0,1-1-.12,1.52,1.52,0,0,1-.81-.74,1.66,1.66,0,0,1-.2-1,2.08,2.08,0,0,1,.46-1.06,3.59,3.59,0,0,1,1.06-.87,2.81,2.81,0,0,1,1.89-.39,2,2,0,0,1,1.41,1l-1.21.66a1,1,0,0,0-.67-.43,1.2,1.2,0,0,0-.9.2,1.32,1.32,0,0,0-.64.58.69.69,0,0,0,0,.61.61.61,0,0,0,.4.3,1.17,1.17,0,0,0,.56,0l.84-.16a9.38,9.38,0,0,1,1.24-.24,2.1,2.1,0,0,1,1,.11,1.55,1.55,0,0,1,.8.71,1.73,1.73,0,0,1,.22,1.06,2,2,0,0,1-.45,1,3.46,3.46,0,0,1-1.05.88A4,4,0,0,1,199.19,197.82Z"/><path class="cls-2" d="M202.26,190.37a3.09,3.09,0,0,1,.3-1.62,2.91,2.91,0,0,1,1.09-1.24A2.74,2.74,0,0,1,205,187a2.59,2.59,0,0,1,1.22.11l-.54-.8,1.17-.78,3.66,5.53-1.17.78-.55-.83a2.68,2.68,0,0,1-.36,1.18,3,3,0,0,1-1,1,3.2,3.2,0,0,1-1.57.5,3.3,3.3,0,0,1-1.63-.4,4,4,0,0,1-2-3Zm4.32-2.13a2,2,0,0,0-2,.09,2.13,2.13,0,0,0-.69.77,1.85,1.85,0,0,0-.19,1.06,2.21,2.21,0,0,0,.41,1.14,2.47,2.47,0,0,0,.9.84,2,2,0,0,0,1.06.25,2.12,2.12,0,0,0,1-.33,2,2,0,0,0,.7-.76,2,2,0,0,0,.19-1.06,2.45,2.45,0,0,0-.42-1.17A2.36,2.36,0,0,0,206.58,188.24Z"/><path class="cls-2" d="M210.83,182.77a3.21,3.21,0,0,1,.88-1.09,3.17,3.17,0,0,1,1.53-.66,3,3,0,0,1,1.62.24,3.57,3.57,0,0,1,1.43,1.14,3.61,3.61,0,0,1,.79,1.65,3.06,3.06,0,0,1-.14,1.67,3,3,0,0,1-1,1.35,3.08,3.08,0,0,1-1.27.6,2.56,2.56,0,0,1-1.23,0l.6.75-1.08.86-5.54-7,1.08-.85,2,2.55A2.67,2.67,0,0,1,210.83,182.77Zm3.4-.25a2.21,2.21,0,0,0-1.07-.13,2.12,2.12,0,0,0-.94.42,2,2,0,0,0-.62.81,2.08,2.08,0,0,0-.11,1.08,2.46,2.46,0,0,0,.51,1.12,2.4,2.4,0,0,0,1,.76,2,2,0,0,0,2-.26,2.05,2.05,0,0,0,.62-.84,2.1,2.1,0,0,0,.1-1.09,2.58,2.58,0,0,0-.53-1.13A2.29,2.29,0,0,0,214.23,182.52Z"/><path class="cls-2" d="M221.17,182.14a3.17,3.17,0,0,1-1.7-.07,3.89,3.89,0,0,1-2.45-2.64,2.92,2.92,0,0,1,.09-1.71,3.5,3.5,0,0,1,1-1.51,3.68,3.68,0,0,1,1.56-.87,3.05,3.05,0,0,1,1.72,0A3.76,3.76,0,0,1,223.8,178a3.17,3.17,0,0,1-.09,1.75,3.85,3.85,0,0,1-2.54,2.37Zm1.29-2.61a1.82,1.82,0,0,0,0-1.06,2.27,2.27,0,0,0-.62-1.1,2.43,2.43,0,0,0-1-.71,1.92,1.92,0,0,0-1.06,0,2,2,0,0,0-.9.5,1.88,1.88,0,0,0-.55.86,1.83,1.83,0,0,0,0,1,2.53,2.53,0,0,0,.64,1.07,2.39,2.39,0,0,0,1.54.85,1.86,1.86,0,0,0,1.42-.54A2,2,0,0,0,222.46,179.53Z"/><path class="cls-2" d="M223.61,171.11a2.23,2.23,0,0,1,.62-1.07l1,1-.24.26a1.67,1.67,0,0,0-.55,1.18,1.91,1.91,0,0,0,.74,1.26l2.54,2.42-.95,1L222,172.58l1-1,.7.66A2.13,2.13,0,0,1,223.61,171.11Z"/><path class="cls-2" d="M230.57,172.77a.83.83,0,0,1-.64-.21.84.84,0,0,1-.3-.62.83.83,0,0,1,.21-.62.79.79,0,0,1,.61-.3.78.78,0,0,1,.63.2.88.88,0,0,1,.32.6.91.91,0,0,1-.22.64A.85.85,0,0,1,230.57,172.77Z"/><path class="cls-1" d="M125.27,174.69c.17-1.43,2.06-4.05,6.53-4.4,7.87-.62,8.51,8.84-1.88,9.77-.42,1.23-.78,2.38-1,3.14-.13.58-.31,1.46-.33,1.71s-.08.26-.28.28c-.59-.11-1.63-.58-1.7-1.42-.14-1.76,3.81-10.27,3.81-10.27a1,1,0,0,1,.92-.59c.47,0,1.09.19.86.76-.05.1-1,2.69-1.94,5.26,6.55-.61,7.08-7.9,1.55-7.47a5.28,5.28,0,0,0-4.84,4.31,1.19,1.19,0,0,0,.18.83c0,.08,0,.28-.25.3A1.87,1.87,0,0,1,125.27,174.69Z"/><path class="cls-1" d="M140.76,176.07c1-.08,1.46.3,1.67.83.16-.29.28-.51.36-.68a.61.61,0,0,1,.49-.35c.41,0,1.39.28,1.07.9-.43.82-2,5.1-1.51,5.06s1.32-1.28,2.31-2.57a.66.66,0,0,1,.41-.27c.28,0,.48.28.27.59-1.2,1.78-2.55,3.55-3.06,3.59s-1.9-.4-2-1.41c-.69.94-1.47,1.69-2.12,1.74a1.74,1.74,0,0,1-1.94-1.44C136.56,180.07,138.12,176.27,140.76,176.07Zm-1.84,6.07c1.6-.12,3.8-5.13,2.28-5C139.36,177.28,138,182.21,138.92,182.14Z"/><path class="cls-1" d="M145.49,179.8a.34.34,0,0,1-.33-.54c.56-.76,1.11-1.54,1.54-2.15l-.24,0c-.57.05-.94-.75-1.05-1.11a.27.27,0,0,1,.21-.39h.06a18.82,18.82,0,0,0,2-.09l2.62-.23c.41,0,1.39.28,1.07.9-.43.82-2,5.1-1.51,5.07s1.31-1.29,2.31-2.58a.66.66,0,0,1,.41-.27c.3,0,.48.28.27.59-1.18,1.78-2.55,3.56-3.06,3.6s-1.92-.42-2-1.44.77-3,1.41-4.33c-.57.06-1.17.13-1.68.17-.4.62-1,1.59-1.66,2.55A.49.49,0,0,1,145.49,179.8Z"/><path class="cls-1" d="M152.48,179.25a.35.35,0,0,1-.34-.54c.57-.75,1.12-1.54,1.54-2.15l-.23,0c-.57,0-.94-.75-1-1.11a.27.27,0,0,1,.21-.39s0,0,0,0a18.88,18.88,0,0,0,2-.09c1.17-.09,2.44-.21,2.61-.23.41,0,1.4.29,1.08.9-.43.82-2,5.1-1.51,5.07s1.31-1.28,2.31-2.58a.64.64,0,0,1,.41-.27c.29,0,.48.28.26.59-1.17,1.78-2.54,3.56-3.05,3.6s-1.92-.42-2-1.44.77-3,1.41-4.33c-.57.07-1.17.13-1.68.17-.4.62-1,1.59-1.66,2.55A.49.49,0,0,1,152.48,179.25Z"/><path class="cls-1" d="M163,177.85a.64.64,0,0,1,.41-.26c.29,0,.47.27.26.59-1.18,1.77-2.55,3.55-3.06,3.59s-1.91-.42-2-1.43c-.12-1.49,1.55-4.66,2-5.52a.56.56,0,0,1,.48-.35c.41,0,1.4.28,1.07.89-.42.82-2,5.11-1.51,5.07S162,179.15,163,177.85Zm-.62-4.11c-.41,0-1.2-.3-1.1-.7.05-.18.43-1.6.68-2.19a.68.68,0,0,1,.61-.41c.68-.05,1.64.56,1.39,1s-1.15,1.79-1.35,2.18A.26.26,0,0,1,162.42,173.74Z"/><path class="cls-1" d="M167.1,177.54a.62.62,0,0,1,.41-.27c.29,0,.47.28.26.59-1.18,1.78-2.55,3.55-3.06,3.59s-2.07-.4-2.15-1.42c-.14-1.75,4.07-10.9,4.07-10.9a.91.91,0,0,1,.84-.58c.43,0,1.25.2,1,.75-.08.2-3.87,9.39-3.77,10.76a0,0,0,0,0,.06.05C165.12,180.09,166.1,178.83,167.1,177.54Z"/><path class="cls-1" d="M171.16,177.22a.62.62,0,0,1,.41-.27c.29,0,.47.28.26.59-1.18,1.78-2.55,3.56-3.06,3.6s-2.07-.41-2.15-1.43c-.14-1.75,4.07-10.9,4.07-10.9a.91.91,0,0,1,.84-.58c.43,0,1.25.2,1,.75-.08.2-3.87,9.39-3.77,10.76a.05.05,0,0,0,.07,0C169.18,179.77,170.16,178.51,171.16,177.22Z"/><path class="cls-1" d="M155.51,183.79a.35.35,0,0,1,.27.11,5.09,5.09,0,0,0,4,1.06c6.09-.47,11-2,15.52-2.9a8.15,8.15,0,0,1-.39-1.94,8.06,8.06,0,0,1,0-1c-.69.9-1.46,1.63-2.08,1.68a1.73,1.73,0,0,1-1.94-1.44c-.16-2,1.41-5.78,4-6,1-.08,1.48.3,1.68.83l.36-.68a.61.61,0,0,1,.48-.35c.41,0,1.4.29,1.07.9a26.42,26.42,0,0,0-1.58,4.66,8.26,8.26,0,0,0,0,1.63,5.42,5.42,0,0,0,.26,1.32,12.18,12.18,0,0,1,1.32-.16c3.94-.31,4,3.84,1.18,4.07a4,4,0,0,1-3.79-2.3c-4.69,1.27-10.14,3.88-16.43,4.37-1.93.15-3.95-.77-4.12-2.92C155.28,184.57,155.22,183.81,155.51,183.79Zm17.55-4.33c1.6-.12,3.8-5.12,2.28-5C173.5,174.6,172.13,179.54,173.06,179.46Zm4.61,3.37a2.25,2.25,0,0,0,2,1.2c1-.08,1.21-1.59-.45-1.45A10,10,0,0,0,177.67,182.83Z"/><path class="cls-1" d="M53.17,30.28l-.07,0a.45.45,0,0,1,0-.08Z"/><path class="cls-1" d="M56,39.83v0l0,0Z"/><rect class="cls-1" x="271.7" y="75.96" width="5.76" height="17.69" rx="0.08" transform="translate(-9.06 38.59) rotate(-7.91)"/></g></g></svg>