<svg xmlns="http://www.w3.org/2000/svg" viewBox="0 0 215.72 153.83"><defs><style>.cls-1{fill:#1f1f1f;}.cls-2{fill:#fff;}.cls-3{fill:#d90c33;}.cls-4{fill:#fab416;}.cls-5{fill:#9a203b;}.cls-6{fill:#fcc009;}.cls-7{fill:#0b0d12;}</style></defs><g id="Capa_2" data-name="Capa 2"><g id="Capa_1-2" data-name="Capa 1"><path class="cls-1" d="M138.76,11.16l.41-.35A1.18,1.18,0,0,0,138.76,11.16Z"/><path class="cls-1" d="M139.17,10.81l-.41.35A1.18,1.18,0,0,1,139.17,10.81Z"/><path class="cls-1" d="M139.17,10.81l-.41.35A1.18,1.18,0,0,1,139.17,10.81Z"/><path class="cls-1" d="M105.81.36h-.11Z"/><path class="cls-2" d="M83.39,79.62c-.21.71-.39,1.27-.54,1.84-.63,2.39-1.32,4.77-1.85,7.19a10.66,10.66,0,0,0,.07,2.64c2.56,4.23-1.66,9.55-6.53,8.84-2.56-.37-5.19-.34-7.75-.74a14.4,14.4,0,0,1-8.27-4,11.35,11.35,0,0,1-3.07-6.21,18.29,18.29,0,0,1,1.32-9.88c1.72-4.37,3.31-8.79,5-13.16,2.17-5.52,4.42-11,6.64-16.5l3.44-8.58a4.69,4.69,0,0,0-.79.2,32.48,32.48,0,0,1-13.16,3.42,14,14,0,0,1-10.29-3.46A11.6,11.6,0,0,1,43.7,32.6a19.93,19.93,0,0,1,2.88-10.74A6.63,6.63,0,0,1,57.94,22a1.89,1.89,0,0,0,2.12,1.14,31.32,31.32,0,0,0,8.65-2.24c4.25-1.68,8.45-3.47,12.71-5.12a27.93,27.93,0,0,1,11.8-1.86,11.93,11.93,0,0,1,5.92,1.86,7.83,7.83,0,0,1,3.73,8.46c-.28,1.63-.83,3.21-1.26,4.82-.08.28-.19.55-.39,1.12a4.25,4.25,0,0,0,.74-.56c1.08-1.43,2.19-2.83,3.19-4.32A8.44,8.44,0,0,0,106,23a2.91,2.91,0,0,0-.2-2.12c-2.22-5,2.16-9.13,6.54-8.56a21.89,21.89,0,0,1,12.62,6,14.14,14.14,0,0,1,4.44,10.28c0,1.23,0,2.45,0,3.85.41-.16.79-.28,1.15-.46a35.36,35.36,0,0,1,14-3.63c5.34-.28,10.39.79,14.75,4.06a12.8,12.8,0,0,1,4.93,13.94,19.34,19.34,0,0,1-6.73,10.18,26,26,0,0,1-8,4.69c-.2.07-.39.17-.7.3a6.77,6.77,0,0,0,.6.79,13.19,13.19,0,0,1,3.9,7.48,15,15,0,0,1-.61,6.7,17,17,0,0,1-.6,1.69,8.45,8.45,0,0,0-.78,3.56,8.54,8.54,0,0,1-.71,3,39.26,39.26,0,0,1-4.67,9.37,27.75,27.75,0,0,1-7.07,6.6,32.9,32.9,0,0,1-11.79,5.42,25.78,25.78,0,0,1-14-.45,56.8,56.8,0,0,1-5.78-2.4,29.85,29.85,0,0,1-8.43-6.38A206.83,206.83,0,0,1,84.28,80.58C84.05,80.29,83.77,80,83.39,79.62Zm-2.9-14.1c2.26,2.92,4.32,5.62,6.43,8.3a227.54,227.54,0,0,0,15.58,18,29.38,29.38,0,0,0,10.68,7.51,20.7,20.7,0,0,0,10.55,1.28,24.93,24.93,0,0,0,9-3.3,29.4,29.4,0,0,0,6.58-5.05A25.63,25.63,0,0,0,144,84c.32-.8.56-1.63.84-2.45a3.33,3.33,0,0,0-1,.69,32.13,32.13,0,0,1-3,2.4,25.4,25.4,0,0,1-11.48,3.62,16.55,16.55,0,0,1-8.84-1.49,58.42,58.42,0,0,1-9-5.28A140.75,140.75,0,0,1,98.2,70.66q-6.66-6-12.78-12.55c-.4-.43-.77-.88-1.2-1.38a4.82,4.82,0,0,1,.54-.28c3.28-1.1,6.56-2.15,9.82-3.28a95.39,95.39,0,0,0,14.34-6.12A36.59,36.59,0,0,0,119,39.51a14.27,14.27,0,0,0,3.8-12.26,7.76,7.76,0,0,0-2-4.21,15.14,15.14,0,0,0-8.54-4.57c-.11,0-.23.05-.43.09.2.72.44,1.39.57,2.09a11,11,0,0,1-1.82,8,43.85,43.85,0,0,1-9.27,10.19A122.55,122.55,0,0,1,87.18,48.5c-.23.14-.48.24-.9.44.23-.61.36-1,.53-1.4,1.38-3.16,2.79-6.32,4.13-9.5,1.63-3.9,3.24-7.8,4.77-11.74a20.28,20.28,0,0,0,.83-3.48,1.86,1.86,0,0,0-1.09-2.11,4.1,4.1,0,0,0-1.55-.57,21.2,21.2,0,0,0-4.57-.07,31.13,31.13,0,0,0-5.92,1.57c-3.87,1.44-7.67,3.1-11.52,4.61s-7.87,2.88-12.11,3c-3.1.08-5.67-1-7.25-3.87a2.25,2.25,0,0,0-.41-.39,17.29,17.29,0,0,0-1.93,7.18,6.12,6.12,0,0,0,6.24,6.4A21.61,21.61,0,0,0,65,37.17a42.34,42.34,0,0,0,9.76-5.3,54.24,54.24,0,0,1,6.62-4.08A13,13,0,0,1,83.24,27a6.24,6.24,0,0,1,1.18-.15c-.21.74-.31,1.27-.5,1.76-1.49,3.71-3,7.42-4.51,11.13-2.66,6.57-5.33,13.12-8,19.7q-3.14,7.83-6.19,15.71c-1.09,2.82-2.12,5.67-3.13,8.53a9.32,9.32,0,0,0-.2,5.18,5.46,5.46,0,0,0,3.67,4,21.72,21.72,0,0,0,6.14,1.15c1.09.09,2.18.08,3.4.12-.19-.75-.37-1.35-.49-2a13.79,13.79,0,0,1,.45-6.56c1.36-4.85,2.54-9.75,3.82-14.61C79.38,69.16,79.94,67.41,80.49,65.52ZM133.28,51a9.51,9.51,0,0,0,4.37,5.25,5.69,5.69,0,0,0,3.21.67A21,21,0,0,0,153,52.12a13.5,13.5,0,0,0,4.86-6.89c1-3.56.07-6-2.57-8.08a12,12,0,0,0-5.48-2.34,22.38,22.38,0,0,0-8.63.08,29.74,29.74,0,0,0-14.55,7.3,22.25,22.25,0,0,0-6.55,11.08,7.66,7.66,0,0,0,.5,5.36,13.9,13.9,0,0,0,3.85,4.88,39,39,0,0,0,7.71,4.77,37.14,37.14,0,0,1,4.24,2.34,9.4,9.4,0,0,1,3.19,3.26,2.77,2.77,0,0,1,.22,2.32c-.74,2.58-4.92,5.57-8.35,4.6A8.52,8.52,0,0,1,126,76.13,17,17,0,0,1,124.19,68a10.26,10.26,0,0,0-.14-1.23,26.3,26.3,0,0,0-4.86,5,6.68,6.68,0,0,0-.8,6.57,10,10,0,0,0,7.85,6.6,16.55,16.55,0,0,0,3.31.22,20.5,20.5,0,0,0,10.78-2.71,12.4,12.4,0,0,0,6.52-9.71,6.7,6.7,0,0,0-1.37-5.29,15.71,15.71,0,0,0-2.85-2.74c-2-1.38-4.13-2.55-6.18-3.85-1.87-1.18-3.78-2.33-5.54-3.67-2-1.56-2.2-2.91-1.6-4.93a12.54,12.54,0,0,1,2.78-4.84,26.8,26.8,0,0,1,12.76-7.93,20.36,20.36,0,0,1,4.78-.75c2.05-.09,2.88,1.06,2.35,3.2a7.53,7.53,0,0,1-1.59,2.89,17.38,17.38,0,0,1-8.48,5.71,14.53,14.53,0,0,1-7.57.59A8.07,8.07,0,0,0,133.28,51Zm-16.47,13.6a21.62,21.62,0,0,1-3.06-6.21,14.94,14.94,0,0,1,0-6.91,110.45,110.45,0,0,1-18.1,7.87c1.15,2,13.91,13.34,15.83,14.06C112.23,69.91,114.47,67.27,116.81,64.62Z"/><path class="cls-3" d="M149.13,16.49a2.69,2.69,0,0,0-.84-1.36C136.67,5.38,128,.61,108.3.05c-1,0-2.1,0-3.19,0h-.23c-1.57,0-3.13.07-4.69.18L100,.2H99.9c-1.23.09-2.45.22-3.67.38h0a21.82,21.82,0,0,1-2.17.32h0c-.84.13-1.69.29-2.53.46-1.53.31-3,.68-4.56,1.1h0q-3.26.92-6.47,2.17l0-.06c-.7.29-1.39.6-2.07.91l0,0c-.73.37-1.47.72-2.24,1.09h0c-1.84.93-3.59,1.91-5.21,2.9h0l-.47.29h0c-1.19.74-2.32,1.48-3.38,2.2-.85.58-1.65,1.15-2.4,1.69h0c-.49.38-1,.76-1.43,1.18L63,14.83c-.69.53-1.33,1-1.88,1.48l0,0a2.62,2.62,0,0,1-.24.34,4,4,0,0,1-.55.54c-.69.54-1.39,1.07-2.17,1.66h0l1.82,2.42c1-.2,2.06-.32,3.08-.6A55.22,55.22,0,0,0,70.87,18c3.14-1.42,6.37-2.65,9.6-3.88a40.76,40.76,0,0,1,4.44-1.41,22.88,22.88,0,0,1,11.71-.09,15.39,15.39,0,0,1,1.81.61,10.91,10.91,0,0,1,4.4,3.21,5.07,5.07,0,0,0,.52.5A8.8,8.8,0,0,1,105,13.48a8.39,8.39,0,0,1,7-3,18.65,18.65,0,0,1,3.91.63,22.39,22.39,0,0,1,6.77,3,30.15,30.15,0,0,1,4.42,3.62,12.51,12.51,0,0,1,1.45,1.78,1.18,1.18,0,0,0,1.18.57l9.3-.85.9-.07c2.59-.22,5.18-.43,7.77-.7A1.6,1.6,0,0,0,149.13,16.49ZM127.4,10.9a.92.92,0,0,1-.35-.4h0a1,1,0,0,1-.23-.87c.19-.61,1.19-.86,2.23-.54a2.17,2.17,0,0,1,1.57,1.35,1.72,1.72,0,0,1,.36.78A3.45,3.45,0,0,1,127.4,10.9Zm4.19-3.41a.5.5,0,0,1,0,.17.85.85,0,0,1-.56.52h0a2.05,2.05,0,0,1-.53.14,2.9,2.9,0,0,1-1.18-.13,3.1,3.1,0,0,1-.82-.38.87.87,0,0,1-.66-.71h0a.82.82,0,0,1-.07-.61C128,5.87,129,5.63,130,6S131.63,6.91,131.59,7.49Zm6.15,3.83c-.19.61-1.2.86-2.24.54-.89-.28-1.53-.87-1.58-1.42l-.2-.27a1,1,0,0,0,.26-.09h0c.24-.56,1.21-.77,2.21-.47S137.92,10.7,137.74,11.32Z"/><path class="cls-3" d="M144.09,109.1c-3.82.37-7.64.75-11.46,1.1-2.47.22-4.94.4-7.4.6l-8.93.76c-2.51.21-5,.4-7.52.62-3.62.3-7.23.62-10.84.93l-7.91.65c-3,.24-6,.57-8.93.73a24,24,0,0,1-6-.12,18.22,18.22,0,0,1-6.86-3c-1.4-1-2.79-2-4.16-3-.82-.6-1.61-1.25-2.39-1.91a1.72,1.72,0,0,1-.66-1.93,1.85,1.85,0,0,1,1.58-1.31c1-.15,2-.21,2.94-.29s1.79-.07,2.68-.15L83,101.46c3.19-.29,6.38-.56,9.57-.83,1.91-.15,3.82-.28,5.74-.44a2.3,2.3,0,0,1,1.88.58,30.45,30.45,0,0,0,9.7,5.82,26.86,26.86,0,0,0,10.59,2.13,33.77,33.77,0,0,0,10.21-1.65,38.49,38.49,0,0,0,11-6.08,30.13,30.13,0,0,0,4.73-4.3,1.9,1.9,0,0,1,1.21-.58c2.58-.25,5.18-.44,7.77-.66.94-.07,1.87-.22,2.81-.26a3.08,3.08,0,0,1,1.34.26,1.77,1.77,0,0,1,.65,2.71c-1.06,1.23-2.09,2.49-3.2,3.66s-2.37,2.33-3.58,3.46a12.91,12.91,0,0,1-6.5,3.37c-1,.18-1.91.41-2.86.62Zm-72.65-5.39-.11.38a11.71,11.71,0,0,0,.92.8L79,110c1.36,1,1.91,1,3.26-.07s3-2.18,4.54-3.27c1.7-1.22,3.4-2.43,5.08-3.66.28-.21.71-.4.45-1C85.39,102.49,78.4,103,71.44,103.71Z"/><path class="cls-3" d="M83.93,104.24a1.08,1.08,0,0,1,1.22.87,1,1,0,0,1-.88,1.07,1.11,1.11,0,0,1-1.14-.82A1,1,0,0,1,83.93,104.24Z"/><path class="cls-3" d="M80.51,107.09a1.08,1.08,0,0,1,1.22.87,1,1,0,0,1-.88,1.07,1.11,1.11,0,0,1-1.15-.82A1,1,0,0,1,80.51,107.09Z"/><path class="cls-3" d="M77.38,106.59c-.45.08-1-.28-1-.66a.78.78,0,0,1,1.54-.18A.75.75,0,0,1,77.38,106.59Z"/><path class="cls-3" d="M58.14,18.89c.16-.15,1.29-1.16,3-2.54a2.62,2.62,0,0,1-.24.34,4,4,0,0,1-.55.54C59.62,17.77,58.92,18.3,58.14,18.89Z"/><path class="cls-4" d="M39,80.4,7.53,84.75l-.41-3.41,31.05-4.45C38.42,78.07,38.71,79.24,39,80.4Z"/><path class="cls-4" d="M211.06,56.63l-33.38,4.61c0-1.43-.07-2.87-.17-4.32l32.94-4.71C210.7,54,210.86,55.16,211.06,56.63Z"/><path class="cls-4" d="M40.85,86.16,8.2,90.4,7.8,87l31.89-4.3C40.05,83.88,40.43,85,40.85,86.16Z"/><path class="cls-4" d="M212.07,63.92,177.4,68.43c.13-1.42.22-2.86.26-4.31l33.81-4.56C211.71,61.29,211.87,62.47,212.07,63.92Z"/><path class="cls-4" d="M36.62,59c0,1.19-.06,2.38,0,3.58L5.49,67.7l-.4-3.36Z"/><path class="cls-4" d="M208.13,35c-4,.55-7.92,1-11.78,1.62l-22.08,3.57c-.44-1.38-.93-2.74-1.46-4.08l34.67-5.84Z"/><path class="cls-4" d="M37.74,74.74c-10.1,1.49-20.41,3-30.87,4.52l-.44-3.72,30.71-4.65C37.31,72.19,37.5,73.47,37.74,74.74Z"/><path class="cls-4" d="M210,48.94c-.79.26-12.82,2.14-32.79,5.16Q177,52,176.68,50c20.21-3,32.31-4.66,32.89-4.59C209.73,46.61,209.89,47.79,210,48.94Z"/><path class="cls-4" d="M43.23,91.89,8.88,96.06l-.41-3.39,33.27-4.2C42.2,89.62,42.7,90.76,43.23,91.89Z"/><path class="cls-4" d="M213,71.27l-36.66,4.45c.29-1.44.53-2.89.73-4.35l35.34-4.47C212.64,68.63,212.82,69.88,213,71.27Z"/><path class="cls-4" d="M36.79,67.46c0,.41.07.83.1,1.23L6.18,73.46,5.77,70l30.87-4.94C36.68,65.86,36.72,66.66,36.79,67.46Z"/><path class="cls-4" d="M209.14,42.25c-4.65.64-9.2,1.18-13.72,1.88l-19.3,3c-.3-1.42-.64-2.82-1-4.2l33.41-5.35C208.72,39.2,208.88,40.37,209.14,42.25Z"/><path class="cls-4" d="M37.14,52.88c-.16,1.22-.29,2.44-.38,3.68L4.82,62.08l-.2-1.64a1.88,1.88,0,0,1,1.54-2.08Z"/><path class="cls-4" d="M207.1,27.12c-.72.18-1.17.32-1.62.4l-33.8,5.86c-.59-1.34-1.23-2.67-1.9-4L204,23.35a2.43,2.43,0,0,1,2.84,2.07C207,26,207,26.52,207.1,27.12Z"/><path class="cls-4" d="M54.45,108.86,12,113a1.15,1.15,0,0,1-1.26-1l-.28-2.29,41.12-4.17Q53,107.22,54.45,108.86Z"/><path class="cls-4" d="M215.7,91a2.18,2.18,0,0,1-1.87,2.45l-.84.1Q190.4,95.77,167.8,98c.87-1.47,1.69-3,2.46-4.49l45.15-4.58C215.51,89.63,215.6,90.33,215.7,91Z"/><path class="cls-4" d="M49.93,103.25l-39.7,4.15L9.82,104l37.8-4.15C48.36,101,49.13,102.14,49.93,103.25Z"/><path class="cls-4" d="M215.05,85.39c-5.46.74-10.64,1.58-15.85,2.14l-27.54,3q1-2.19,1.79-4.44l41.08-4.5Z"/><path class="cls-4" d="M46.22,97.57,9.56,101.74l-.41-3.37,5.2-.61,30-3.55C45,95.35,45.57,96.47,46.22,97.57Z"/><path class="cls-4" d="M214.06,78.47c-2.47.34-4.6.68-6.74.92l-32.86,3.69c.45-1.45.86-2.91,1.22-4.39l34.94-4.13c.91-.11,1.82-.15,2.88-.23C213.69,75.76,213.86,77,214.06,78.47Z"/><path class="cls-5" d="M44,28v0h0Z"/><path class="cls-6" d="M177.63,108.88a3.06,3.06,0,0,1,2.86,4.69,85.64,85.64,0,0,1-136,12.21,3.06,3.06,0,0,1,2-5.09l11.13-1a3.05,3.05,0,0,1,2.33.77,70.9,70.9,0,0,0,104.4-9.4,3.06,3.06,0,0,1,2.15-1.18Z"/><path class="cls-1" d="M67.66,131.8l-3.32,4.87-.8-.56,2.27-3.33L62,135.09l-.55-.38.76-4.36L60,133.69l-.81-.55,3.32-4.87.86.59-.86,5,4.31-2.66Z"/><path class="cls-1" d="M68,134.62a2.35,2.35,0,0,1,1.12-.36,2.12,2.12,0,0,1,1.13.29,2,2,0,0,1,.75.66,2.08,2.08,0,0,1,.32.78l.32-.59.86.48L70.24,140l-.86-.48.33-.61a1.62,1.62,0,0,1-.86.16,2.18,2.18,0,0,1-1-.27,2.15,2.15,0,0,1-.83-.81,2.33,2.33,0,0,1-.28-1.15,2.67,2.67,0,0,1,.34-1.24A2.74,2.74,0,0,1,68,134.62Zm2.75,2a1.52,1.52,0,0,0-.2-.73,1.49,1.49,0,0,0-.52-.51,1.59,1.59,0,0,0-.71-.18,1.48,1.48,0,0,0-.72.22,1.69,1.69,0,0,0-.58.63,1.84,1.84,0,0,0-.23.85,1.38,1.38,0,0,0,.2.73,1.19,1.19,0,0,0,.52.5,1.26,1.26,0,0,0,.71.19,1.34,1.34,0,0,0,.71-.24,1.63,1.63,0,0,0,.59-.63A1.83,1.83,0,0,0,70.73,136.62Zm1.15-2.51-2.1-.09.35-.64h2.15Z"/><path class="cls-1" d="M72.72,141a1.56,1.56,0,0,1-.41-.78,1.44,1.44,0,0,1,.06-.82l.93.43a.68.68,0,0,0,0,.57,1.08,1.08,0,0,0,.51.45,1,1,0,0,0,.65.12.48.48,0,0,0,.38-.27.42.42,0,0,0-.07-.45,5.21,5.21,0,0,0-.62-.6c-.28-.23-.5-.44-.67-.61a1.59,1.59,0,0,1-.35-.62,1.07,1.07,0,0,1,.09-.77,1.09,1.09,0,0,1,.49-.53,1.41,1.41,0,0,1,.78-.17,2.64,2.64,0,0,1,.94.23,2,2,0,0,1,1,.91,1.44,1.44,0,0,1,0,1.22l-.89-.41a.71.71,0,0,0,0-.57,1,1,0,0,0-.49-.42,1,1,0,0,0-.6-.12.48.48,0,0,0-.35.27.42.42,0,0,0,0,.33.87.87,0,0,0,.22.32c.1.1.25.24.45.41a6,6,0,0,1,.66.61,1.64,1.64,0,0,1,.35.6,1.14,1.14,0,0,1-.08.76,1.24,1.24,0,0,1-.5.56,1.5,1.5,0,0,1-.78.18,2.55,2.55,0,0,1-1.76-.83Z"/><path class="cls-1" d="M82.72,140.32a2.15,2.15,0,0,1,1,.1,2.17,2.17,0,0,1,1.47,1.69,2.56,2.56,0,0,1-.12,1.27,2.59,2.59,0,0,1-.67,1.1,2,2,0,0,1-1,.57,2.12,2.12,0,0,1-1.17-.05,2.09,2.09,0,0,1-.84-.51,2.16,2.16,0,0,1-.48-.72L80,146.53l-.93-.32,2.17-6.54.92.3-.22.66A2.06,2.06,0,0,1,82.72,140.32Zm1.47,1.89a1.56,1.56,0,0,0-.33-.67,1.63,1.63,0,0,0-.62-.39,1.36,1.36,0,0,0-.72-.05,1.45,1.45,0,0,0-.68.36,1.49,1.49,0,0,0-.45.73,1.64,1.64,0,0,0-.07.87,1.36,1.36,0,0,0,.33.68,1.33,1.33,0,0,0,.61.4,1.35,1.35,0,0,0,.72,0,1.41,1.41,0,0,0,.68-.36,1.83,1.83,0,0,0,.46-.74A1.72,1.72,0,0,0,84.19,142.21Z"/><path class="cls-1" d="M86.77,142.56a2.24,2.24,0,0,1,1-.63,2.17,2.17,0,0,1,1.16,0A1.94,1.94,0,0,1,90.33,143l.16-.66,1,.23-1.1,4.54-1-.23.16-.67a1.89,1.89,0,0,1-.78.37A2.15,2.15,0,0,1,86.19,145a2.46,2.46,0,0,1,0-1.29A2.67,2.67,0,0,1,86.77,142.56Zm3.17,1.21a1.45,1.45,0,0,0-.38-.66,1.3,1.3,0,0,0-.63-.34,1.5,1.5,0,0,0-.73,0,1.41,1.41,0,0,0-.64.4,1.83,1.83,0,0,0-.39,1.64,1.4,1.4,0,0,0,.38.66,1.36,1.36,0,0,0,.63.35,1.5,1.5,0,0,0,.73,0,1.44,1.44,0,0,0,.64-.41,1.85,1.85,0,0,0,.39-1.63Z"/><path class="cls-1" d="M94.68,143.3a1.54,1.54,0,0,1,.86,0l-.17,1-.24-.05a1.16,1.16,0,0,0-.91.15,1.3,1.3,0,0,0-.47.92l-.42,2.43-1-.17.79-4.6,1,.17-.11.66A1.59,1.59,0,0,1,94.68,143.3Z"/><path class="cls-1" d="M98.5,143.84a1.64,1.64,0,0,1,.87-.1l-.13,1-.24,0a1.22,1.22,0,0,0-.9.18,1.34,1.34,0,0,0-.42,1l-.29,2.45-1-.12.57-4.65,1,.12-.08.68A1.4,1.4,0,0,1,98.5,143.84Z"/><path class="cls-1" d="M101.63,144l-.37,4.67-1-.08.37-4.66Zm-.85-.86a.57.57,0,0,1-.15-.45.58.58,0,0,1,.21-.43.67.67,0,0,1,.46-.14.61.61,0,0,1,.42.21.58.58,0,0,1,.14.46.58.58,0,0,1-.66.56A.61.61,0,0,1,100.78,143.14Z"/><path class="cls-1" d="M104.43,142.57l-.28,6.27-1-.05.28-6.27Z"/><path class="cls-1" d="M107.09,142.61l0,6.29h-1l0-6.29Z"/><path class="cls-1" d="M108.67,145.3a2.11,2.11,0,0,1,.76-.88,2.15,2.15,0,0,1,1.11-.36,2.11,2.11,0,0,1,1,.17,2,2,0,0,1,.68.51l0-.69,1,0,.23,4.67-1,0,0-.69a1.87,1.87,0,0,1-.66.58,2.08,2.08,0,0,1-1,.28,2.12,2.12,0,0,1-1.13-.26,2.3,2.3,0,0,1-.84-.83,2.73,2.73,0,0,1-.36-1.25A2.57,2.57,0,0,1,108.67,145.3Zm3.39.26a1.54,1.54,0,0,0-.56-.52,1.42,1.42,0,0,0-.71-.15,1.37,1.37,0,0,0-.69.22,1.33,1.33,0,0,0-.5.55,1.68,1.68,0,0,0-.17.86,1.72,1.72,0,0,0,.25.83,1.4,1.4,0,0,0,.56.52,1.25,1.25,0,0,0,.7.16,1.38,1.38,0,0,0,1.2-.79,1.7,1.7,0,0,0,.15-.86A1.79,1.79,0,0,0,112.06,145.56Z"/><path class="cls-1" d="M116.58,147.17l-.78,2.44-.63.07.35-2.4Z"/><path class="cls-1" d="M126.64,141.88a1.74,1.74,0,0,1,.83.5,2.17,2.17,0,0,1,.48,1l.61,2.69-1,.21-.57-2.55a1.3,1.3,0,0,0-.52-.86,1.28,1.28,0,0,0-1.69.38,1.3,1.3,0,0,0-.1,1l.57,2.54-.94.22-.57-2.55a1.31,1.31,0,0,0-.53-.86,1.26,1.26,0,0,0-1.69.38,1.31,1.31,0,0,0-.1,1l.58,2.56-1,.21-1-4.56,1-.22.11.52a1.79,1.79,0,0,1,.5-.57,2,2,0,0,1,.73-.34,2.27,2.27,0,0,1,1,0,1.63,1.63,0,0,1,.82.52,1.62,1.62,0,0,1,.5-.81,2,2,0,0,1,.9-.45A2,2,0,0,1,126.64,141.88Z"/><path class="cls-1" d="M129.7,141.93a2.21,2.21,0,0,1,.49-1.06,2.17,2.17,0,0,1,1-.65,2,2,0,0,1,1-.11,1.72,1.72,0,0,1,.8.3l-.22-.65.93-.32,1.52,4.42-.93.31-.22-.64a2.27,2.27,0,0,1-.47.73,2.19,2.19,0,0,1-2,.6,2.3,2.3,0,0,1-1-.56,2.65,2.65,0,0,1-.69-1.1A2.57,2.57,0,0,1,129.7,141.93ZM132,138.7l-1.49,1.49-.23-.67,1.45-1.6Zm1.07,2.54a1.45,1.45,0,0,0-.67-.35,1.47,1.47,0,0,0-.72.06,1.26,1.26,0,0,0-.61.4,1.35,1.35,0,0,0-.32.67,1.62,1.62,0,0,0,.08.86,1.66,1.66,0,0,0,.46.73,1.35,1.35,0,0,0,.68.35,1.39,1.39,0,0,0,.73,0,1.57,1.57,0,0,0,.6-.41,1.43,1.43,0,0,0,.32-.69,1.71,1.71,0,0,0-.08-.86A1.6,1.6,0,0,0,133,141.24Z"/><path class="cls-1" d="M137.66,142.72a1.78,1.78,0,0,1-.86-.23,1.42,1.42,0,0,1-.55-.59l.93-.41a.69.69,0,0,0,.46.35,1.09,1.09,0,0,0,.68-.07,1.08,1.08,0,0,0,.52-.41.45.45,0,0,0,0-.46.4.4,0,0,0-.38-.25,4.82,4.82,0,0,0-.85,0,7.43,7.43,0,0,1-.9.1,1.56,1.56,0,0,1-.7-.16,1.13,1.13,0,0,1-.51-.58,1.18,1.18,0,0,1-.07-.72,1.41,1.41,0,0,1,.39-.7,2.39,2.39,0,0,1,.81-.54A2,2,0,0,1,138,138a1.46,1.46,0,0,1,.93.8l-.9.39a.68.68,0,0,0-.44-.36,1,1,0,0,0-.65.08.94.94,0,0,0-.48.36.44.44,0,0,0,0,.43.45.45,0,0,0,.25.24,1,1,0,0,0,.39,0c.14,0,.34,0,.6-.06a6.39,6.39,0,0,1,.89-.07,1.5,1.5,0,0,1,.68.15,1,1,0,0,1,.51.56,1.27,1.27,0,0,1,.08.74,1.59,1.59,0,0,1-.38.71,2.73,2.73,0,0,1-.81.54A2.43,2.43,0,0,1,137.66,142.72Z"/><path class="cls-1" d="M144.86,139.29a2,2,0,0,1-.88-.14,1.35,1.35,0,0,1-.6-.53l.87-.5a.69.69,0,0,0,.5.3,1.28,1.28,0,0,0,1.15-.6.47.47,0,0,0,0-.46.4.4,0,0,0-.4-.21,3.79,3.79,0,0,0-.84.14,6,6,0,0,1-.9.17,1.53,1.53,0,0,1-.7-.08,1.06,1.06,0,0,1-.57-.52,1.17,1.17,0,0,1-.14-.71,1.51,1.51,0,0,1,.32-.74,2.46,2.46,0,0,1,.75-.62,2,2,0,0,1,1.33-.27,1.41,1.41,0,0,1,1,.7l-.85.47a.75.75,0,0,0-.47-.31.9.9,0,0,0-.63.14.93.93,0,0,0-.45.42.45.45,0,0,0,0,.42.37.37,0,0,0,.28.21.73.73,0,0,0,.39,0l.59-.11a7.22,7.22,0,0,1,.87-.17,1.4,1.4,0,0,1,.7.08,1,1,0,0,1,.56.5,1.17,1.17,0,0,1,.16.74,1.36,1.36,0,0,1-.32.73,2.34,2.34,0,0,1-.74.63A2.88,2.88,0,0,1,144.86,139.29Z"/><path class="cls-1" d="M147,134a2.16,2.16,0,0,1,1-2,2.06,2.06,0,0,1,.93-.35,1.88,1.88,0,0,1,.86.08l-.38-.56.82-.55,2.58,3.9-.83.54-.38-.58a1.89,1.89,0,0,1-.25.83,2.11,2.11,0,0,1-.7.73,2.17,2.17,0,0,1-1.1.35,2.22,2.22,0,0,1-1.14-.28,2.62,2.62,0,0,1-.94-.88A2.55,2.55,0,0,1,147,134Zm3-1.5a1.42,1.42,0,0,0-.74-.16,1.32,1.32,0,0,0-.69.23,1.47,1.47,0,0,0-.49.53,1.42,1.42,0,0,0-.14.75,1.73,1.73,0,0,0,.29.81,1.88,1.88,0,0,0,.64.59,1.43,1.43,0,0,0,.74.17,1.35,1.35,0,0,0,.69-.23,1.47,1.47,0,0,0,.49-.53A1.44,1.44,0,0,0,151,134a1.63,1.63,0,0,0-.29-.82A1.67,1.67,0,0,0,150.07,132.54Z"/><path class="cls-1" d="M153.06,128.69a2.3,2.3,0,0,1,1.69-1.23,2,2,0,0,1,1.14.17,2.46,2.46,0,0,1,1,.8,2.55,2.55,0,0,1,.56,1.16,2.21,2.21,0,0,1-.1,1.17,2.1,2.1,0,0,1-.68,1,2.17,2.17,0,0,1-.9.42,1.78,1.78,0,0,1-.86,0l.42.53-.76.61-3.9-4.92.76-.6,1.43,1.8A1.83,1.83,0,0,1,153.06,128.69Zm2.39-.17a1.4,1.4,0,0,0-.75-.1,1.51,1.51,0,0,0-.67.3,1.44,1.44,0,0,0-.43.57,1.51,1.51,0,0,0-.08.76,1.73,1.73,0,0,0,.36.78,1.64,1.64,0,0,0,.69.54,1.42,1.42,0,0,0,.76.1,1.44,1.44,0,0,0,.66-.28,1.55,1.55,0,0,0,.43-.59,1.34,1.34,0,0,0,.07-.77,1.83,1.83,0,0,0-.37-.79A1.5,1.5,0,0,0,155.45,128.52Z"/><path class="cls-1" d="M160.34,128.24a2.22,2.22,0,0,1-1.2,0,2.54,2.54,0,0,1-1.09-.72,2.59,2.59,0,0,1-.63-1.14,2.07,2.07,0,0,1,.06-1.21,2.5,2.5,0,0,1,.69-1.06,2.46,2.46,0,0,1,1.1-.61,2.17,2.17,0,0,1,1.21,0,2.7,2.7,0,0,1,1.71,1.85,2.37,2.37,0,0,1-.06,1.24,2.59,2.59,0,0,1-.7,1A2.43,2.43,0,0,1,160.34,128.24Zm.91-1.83a1.36,1.36,0,0,0,0-.75,1.92,1.92,0,0,0-1.17-1.27,1.21,1.21,0,0,0-.75,0,1.24,1.24,0,0,0-.63.35,1.26,1.26,0,0,0-.39.6,1.21,1.21,0,0,0,0,.73,1.71,1.71,0,0,0,.44.76,1.75,1.75,0,0,0,1.09.6,1.37,1.37,0,0,0,1-.38A1.46,1.46,0,0,0,161.25,126.41Z"/><path class="cls-1" d="M162.06,120.48a1.52,1.52,0,0,1,.43-.75l.73.68-.17.19a1.21,1.21,0,0,0-.39.83,1.38,1.38,0,0,0,.52.89L165,124l-.67.7-3.39-3.2.67-.72.49.47A1.42,1.42,0,0,1,162.06,120.48Z"/><path class="cls-1" d="M167,121.65a.61.61,0,0,1-.46-.15.65.65,0,0,1-.21-.43.58.58,0,0,1,.16-.44.55.55,0,0,1,.42-.22.58.58,0,0,1,.45.15.6.6,0,0,1,.22.42.6.6,0,0,1-.16.45A.58.58,0,0,1,167,121.65Z"/><path class="cls-2" d="M92.82,123c.12-1,1.45-2.86,4.6-3.1,5.54-.44,6,6.22-1.33,6.88-.29.87-.54,1.68-.67,2.21s-.22,1-.23,1.21-.06.19-.2.2c-.42-.08-1.15-.41-1.2-1-.09-1.24,2.69-7.24,2.69-7.24a.69.69,0,0,1,.64-.41c.33,0,.77.13.61.53,0,.07-.73,1.9-1.37,3.71,4.62-.43,5-5.57,1.1-5.26a3.73,3.73,0,0,0-3.42,3,.89.89,0,0,0,.13.58.17.17,0,0,1-.17.21A1.31,1.31,0,0,1,92.82,123Z"/><path class="cls-2" d="M103.73,124a1,1,0,0,1,1.18.59l.25-.48a.42.42,0,0,1,.34-.25c.29,0,1,.2.76.63s-1.39,3.6-1.06,3.57.92-.9,1.62-1.81a.5.5,0,0,1,.29-.19c.2,0,.34.19.19.41-.84,1.26-1.8,2.51-2.16,2.54s-1.33-.29-1.4-1c-.49.66-1,1.19-1.5,1.23a1.23,1.23,0,0,1-1.36-1C100.77,126.78,101.87,124.11,103.73,124Zm-1.3,4.28c1.13-.09,2.68-3.61,1.61-3.53C102.74,124.81,101.77,128.29,102.43,128.24Z"/><path class="cls-2" d="M107.06,126.59a.24.24,0,0,1-.24-.38c.4-.53.79-1.09,1.09-1.51h-.17c-.4,0-.66-.53-.74-.79a.19.19,0,0,1,.15-.27h0a11.55,11.55,0,0,0,1.39-.07c.83-.06,1.72-.15,1.84-.16.29,0,1,.2.76.64s-1.39,3.59-1.06,3.57.92-.9,1.62-1.82a.5.5,0,0,1,.29-.19c.21,0,.34.2.19.42-.83,1.25-1.8,2.5-2.16,2.53s-1.35-.29-1.4-1a8,8,0,0,1,1-3l-1.18.12c-.28.44-.72,1.12-1.17,1.79A.34.34,0,0,1,107.06,126.59Z"/><path class="cls-2" d="M112,126.2a.24.24,0,0,1-.24-.38c.4-.53.79-1.08,1.09-1.51h-.17c-.4,0-.66-.52-.74-.78a.2.2,0,0,1,.15-.28l0,0c.08,0,.72,0,1.39-.07l1.84-.16c.29,0,1,.2.76.63s-1.39,3.6-1.06,3.57.92-.9,1.63-1.81c.1-.12.19-.19.28-.19s.34.19.19.41c-.83,1.26-1.8,2.51-2.15,2.54s-1.36-.3-1.41-1a8.06,8.06,0,0,1,1-3.06c-.4.05-.82.1-1.18.12-.28.44-.71,1.12-1.17,1.8A.33.33,0,0,1,112,126.2Z"/><path class="cls-2" d="M119.41,125.22a.5.5,0,0,1,.29-.19c.21,0,.34.2.19.42-.83,1.25-1.8,2.5-2.16,2.53s-1.35-.3-1.4-1c-.09-1,1.1-3.28,1.42-3.89a.42.42,0,0,1,.34-.25c.29,0,1,.2.76.64s-1.4,3.59-1.07,3.57S118.71,126.13,119.41,125.22Zm-.43-2.9c-.29,0-.85-.21-.77-.49,0-.13.3-1.13.47-1.55a.49.49,0,0,1,.43-.28c.49,0,1.16.39,1,.7s-.82,1.26-1,1.54A.22.22,0,0,1,119,122.32Z"/><path class="cls-2" d="M122.27,125a.49.49,0,0,1,.29-.18c.21,0,.34.19.19.41-.83,1.26-1.8,2.51-2.16,2.54s-1.46-.29-1.51-1c-.1-1.23,2.87-7.68,2.87-7.68a.6.6,0,0,1,.59-.4c.3,0,.88.13.72.52-.06.14-2.74,6.62-2.66,7.58a0,0,0,0,0,0,0C120.88,126.79,121.57,125.91,122.27,125Z"/><path class="cls-2" d="M125.13,124.77a.47.47,0,0,1,.29-.19c.21,0,.34.2.19.42-.83,1.25-1.8,2.5-2.16,2.53s-1.46-.29-1.51-1c-.1-1.24,2.87-7.68,2.87-7.68a.61.61,0,0,1,.59-.41c.3,0,.88.14.72.53-.06.14-2.74,6.62-2.66,7.58a0,0,0,0,0,0,0C123.74,126.57,124.43,125.68,125.13,124.77Z"/><path class="cls-2" d="M114.11,129.4a.24.24,0,0,1,.18.08,3.61,3.61,0,0,0,2.81.75,80.22,80.22,0,0,0,10.94-2,6.23,6.23,0,0,1-.29-2.05c-.48.63-1,1.15-1.47,1.18a1.22,1.22,0,0,1-1.36-1c-.11-1.41,1-4.08,2.85-4.23.69,0,1,.21,1.18.59.11-.2.19-.36.25-.48a.42.42,0,0,1,.34-.24c.29,0,1,.19.76.63a17.72,17.72,0,0,0-1.11,3.28,5.72,5.72,0,0,0,0,1.15,4.51,4.51,0,0,0,.18.93l.94-.12c2.78-.21,2.82,2.72.83,2.87a2.77,2.77,0,0,1-2.67-1.62c-3.31.9-7.15,2.74-11.58,3.09-1.36.1-2.78-.55-2.9-2.06C113.94,130,113.9,129.41,114.11,129.4Zm12.36-3c1.13-.09,2.68-3.62,1.61-3.54C126.78,122.93,125.81,126.41,126.47,126.36Zm3.25,2.37a1.6,1.6,0,0,0,1.39.84c.73,0,.85-1.12-.32-1A6.64,6.64,0,0,0,129.72,128.73Z"/><path class="cls-7" d="M42,21.32h0v0Z"/><path class="cls-7" d="M44,28v0h0Z"/><rect class="cls-4" x="0.67" y="80.91" width="3.95" height="12.14" rx="0.07" transform="translate(-9.82 0.86) rotate(-6.49)"/></g></g></svg>