<svg xmlns="http://www.w3.org/2000/svg" viewBox="0 0 314.73 220.37"><defs><style>.cls-1{fill:#1f1f1f;}.cls-2{fill:#fff;}.cls-3{fill:#d90c33;}.cls-4{fill:#9a203b;}.cls-5{fill:#0b0d12;}</style></defs><g id="Capa_2" data-name="Capa 2"><g id="Capa_1-2" data-name="Capa 1"><path class="cls-1" d="M198.78,16l.59-.51A2,2,0,0,0,198.78,16Z"/><path class="cls-1" d="M199.37,15.48l-.59.51A2,2,0,0,1,199.37,15.48Z"/><path class="cls-1" d="M199.37,15.48l-.59.51A2,2,0,0,1,199.37,15.48Z"/><path class="cls-1" d="M151.58.52h-.16Z"/><path class="cls-2" d="M228.25,46.48c-6.25-4.68-13.49-6.21-21.14-5.81A50.46,50.46,0,0,0,187,45.88c-.52.24-1.07.41-1.65.64,0-2,.1-3.75,0-5.5a20.29,20.29,0,0,0-6.37-14.74A31.43,31.43,0,0,0,161,17.7c-6.27-.81-12.55,5.18-9.37,12.28a4.16,4.16,0,0,1,.28,3,12.13,12.13,0,0,1-1.26,3.21c-1.42,2.13-3,4.14-4.57,6.19a6.7,6.7,0,0,1-1.05.79c.29-.81.45-1.21.55-1.61.62-2.3,1.4-4.56,1.8-6.9.89-5.15-.93-9.23-5.33-12.11a17.15,17.15,0,0,0-8.49-2.67,40.18,40.18,0,0,0-16.91,2.67c-6.09,2.36-12.11,4.93-18.19,7.32a44.46,44.46,0,0,1-12.39,3.21,2.71,2.71,0,0,1-3-1.62c-3.3-6-12.64-6.47-16.27-.17A28.54,28.54,0,0,0,62.6,46.7,16.69,16.69,0,0,0,68.24,59,20.18,20.18,0,0,0,83,64a46.41,46.41,0,0,0,18.85-4.9,6.29,6.29,0,0,1,1.14-.28c-1.7,4.24-3.31,8.27-4.94,12.29C94.87,79,91.65,86.84,88.53,94.74c-2.46,6.25-4.73,12.58-7.2,18.84a26.13,26.13,0,0,0-1.88,14.16,16.15,16.15,0,0,0,4.39,8.89,20.51,20.51,0,0,0,11.84,5.74c3.67.58,7.43.53,11.11,1.07,7,1,13-6.61,9.34-12.66A16.66,16.66,0,0,1,116,127c.76-3.46,1.74-6.87,2.64-10.3.22-.81.48-1.61.78-2.63.54.58.94,1,1.28,1.37a296.31,296.31,0,0,0,20.84,23.4c3.61,3.58,7.39,7,12.08,9.13a81.64,81.64,0,0,0,8.28,3.44,36.86,36.86,0,0,0,20.11.65,47,47,0,0,0,16.89-7.77c3.78-2.71,7.44-5.55,10.13-9.46a56.27,56.27,0,0,0,6.7-13.41,12.55,12.55,0,0,0,1-4.26,11.83,11.83,0,0,1,1.12-5.1,25.5,25.5,0,0,0,.85-2.41,21.49,21.49,0,0,0,.87-9.61A18.92,18.92,0,0,0,214,89.32a11.09,11.09,0,0,1-.86-1.13c.45-.19.72-.33,1-.43A37.6,37.6,0,0,0,225.68,81c4.61-3.91,8.14-8.53,9.64-14.57A18.37,18.37,0,0,0,228.25,46.48Zm-21.93,73.8c-1.73,4.26-3.63,8.46-6.81,11.86a42,42,0,0,1-9.44,7.22,35.36,35.36,0,0,1-12.82,4.74,29.82,29.82,0,0,1-15.11-1.83c-6.06-2.27-10.86-6.21-15.3-10.76a329.28,329.28,0,0,1-22.32-25.76c-3-3.83-6-7.71-9.22-11.89-.78,2.71-1.57,5.21-2.24,7.75-1.84,7-3.52,14-5.48,20.92a19.89,19.89,0,0,0-.64,9.4c.17.88.43,1.73.7,2.81-1.74-.05-3.31,0-4.86-.16a31.7,31.7,0,0,1-8.8-1.65,7.81,7.81,0,0,1-5.26-5.68,13.38,13.38,0,0,1,.28-7.42c1.45-4.1,2.93-8.18,4.5-12.23q4.36-11.26,8.85-22.49c3.77-9.43,7.61-18.82,11.41-28.23,2.15-5.31,4.32-10.62,6.46-15.94.28-.71.42-1.47.71-2.52a9.71,9.71,0,0,0-1.69.22,17.79,17.79,0,0,0-2.69,1.17,77.67,77.67,0,0,0-9.48,5.85,60.07,60.07,0,0,1-14,7.58,31,31,0,0,1-12.24,2c-4.29-.09-8.92-2.89-8.95-9.17,0-3.69,1.28-6.9,2.77-10.28a3,3,0,0,1,.59.56c2.26,4.11,5.93,5.64,10.37,5.54,6.09-.15,11.77-2.1,17.36-4.28s11-4.54,16.5-6.62A45.29,45.29,0,0,1,128,28.75a30.68,30.68,0,0,1,6.56.1,6.28,6.28,0,0,1,2.22.81,2.71,2.71,0,0,1,1.55,3,28.9,28.9,0,0,1-1.19,5c-2.19,5.63-4.49,11.23-6.83,16.81-1.92,4.56-3.94,9.08-5.91,13.62-.24.55-.44,1.13-.77,2,.61-.29,1-.42,1.29-.62,7-4.31,14-8.53,20.3-13.79A62.51,62.51,0,0,0,158.47,41.1a15.84,15.84,0,0,0,2.61-11.52c-.19-1-.53-2-.81-3a2.3,2.3,0,0,1,.61-.13A21.83,21.83,0,0,1,173.11,33,11.19,11.19,0,0,1,176,39c1.07,6.77-1,12.54-5.45,17.57-4.08,4.58-9.12,7.89-14.46,10.8a136,136,0,0,1-20.54,8.76c-4.67,1.63-9.39,3.13-14.07,4.7a6.89,6.89,0,0,0-.79.41c.63.72,1.16,1.36,1.73,2q8.77,9.38,18.31,18a201.82,201.82,0,0,0,19.07,15.46,84.46,84.46,0,0,0,13,7.57,23.84,23.84,0,0,0,12.67,2.13c5.86-.59,11.44-2,16.44-5.18a46.54,46.54,0,0,0,4.26-3.45,4.57,4.57,0,0,1,1.44-1C207.13,117.94,206.78,119.13,206.32,120.28ZM163,83.67a31,31,0,0,0,4.38,8.91c-3.36,3.78-6.56,7.56-7.59,12.61-2.75-1-21-17.27-22.68-20.15A157.54,157.54,0,0,0,163,73.77C162.37,77.31,162,80.52,163,83.67Zm63.25-18.88c-1.12,4.14-3.76,7.24-7,9.88a29.88,29.88,0,0,1-17.43,6.89,8.18,8.18,0,0,1-4.61-1,13.66,13.66,0,0,1-6.26-7.53,14.48,14.48,0,0,1,1.52.11,20.58,20.58,0,0,0,10.84-.84,25,25,0,0,0,12.16-8.16A11,11,0,0,0,217.72,60c.76-3.06-.43-4.72-3.36-4.59a30,30,0,0,0-6.86,1.07,38.4,38.4,0,0,0-18.27,11.37,18,18,0,0,0-4,6.94c-.85,2.89-.64,4.82,2.3,7.06,2.52,1.92,5.26,3.56,7.94,5.26,2.94,1.85,6,3.54,8.84,5.51a22.3,22.3,0,0,1,4.09,3.92,9.55,9.55,0,0,1,2,7.58c-.66,6.29-4.06,10.77-9.34,13.9A29.36,29.36,0,0,1,185.58,122a24.21,24.21,0,0,1-4.74-.3c-5.4-1.14-9.31-4.22-11.24-9.46a9.56,9.56,0,0,1,1.15-9.41,37.59,37.59,0,0,1,7-7.17,12.71,12.71,0,0,1,.19,1.75,24.52,24.52,0,0,0,2.61,11.7,12.26,12.26,0,0,0,7.84,6.69c4.91,1.4,10.9-2.89,12-6.59a4,4,0,0,0-.31-3.33,13.42,13.42,0,0,0-4.57-4.66,52.06,52.06,0,0,0-6.08-3.35,55.89,55.89,0,0,1-11-6.85,19.7,19.7,0,0,1-5.51-7,11.06,11.06,0,0,1-.72-7.68,31.85,31.85,0,0,1,9.38-15.86A42.7,42.7,0,0,1,202.31,50a32.28,32.28,0,0,1,12.35-.1,16.87,16.87,0,0,1,7.85,3.36C226.3,56.25,227.58,59.69,226.21,64.79Z"/><path class="cls-1" d="M172.84,151.73a33.34,33.34,0,0,1-10.46-1.66,78.55,78.55,0,0,1-7.84-3.26c-4.54-2.08-8-5.07-12-9a288.8,288.8,0,0,1-20.73-23.28c-.25-.31-.53-.59-.86-.94l-2.17-2.29s-1.33,4.42-1.49,5l-.68,2.54c-.7,2.6-1.4,5.19-2,7.82a9.46,9.46,0,0,0,0,3c0,.38.07.76.08,1.13v.38l.2.32a6.3,6.3,0,0,1,0,6.49,8.06,8.06,0,0,1-6.88,4.11A7.68,7.68,0,0,1,107,142c-1.81-.26-3.64-.39-5.47-.51s-3.76-.26-5.62-.55a18.93,18.93,0,0,1-11.05-5.33,14.78,14.78,0,0,1-4-8.14,24.53,24.53,0,0,1,1.82-13.42c1.23-3.14,2.42-6.3,3.61-9.46s2.36-6.26,3.58-9.38c2.1-5.33,4.26-10.65,6.41-16l9-22.48-2.65.64a5.18,5.18,0,0,0-1.45.39,45.59,45.59,0,0,1-18.27,4.75l-1.08,0A18.55,18.55,0,0,1,69.18,58,15.25,15.25,0,0,1,64,46.65,26.82,26.82,0,0,1,68,32a7.69,7.69,0,0,1,6.78-3.83,8,8,0,0,1,7,4,4,4,0,0,0,3.78,2.38l.63,0A45.86,45.86,0,0,0,99,31.21c2.8-1.1,5.58-2.24,8.37-3.37,3.27-1.34,6.53-2.68,9.82-3.95a38.85,38.85,0,0,1,14-2.64c.76,0,1.52,0,2.28.07a15.69,15.69,0,0,1,7.8,2.44c4,2.59,5.51,6.09,4.71,10.69a41.6,41.6,0,0,1-1.2,4.77l-.57,2c-.07.27-.16.51-.29.87l-1.78,5,3.72-2.77.49-.35a2.88,2.88,0,0,0,.85-.73l1.09-1.42c1.21-1.59,2.42-3.17,3.52-4.83a11.78,11.78,0,0,0,1.31-3.15,5.94,5.94,0,0,0-.21-4.45,7,7,0,0,1,.34-6.84A8,8,0,0,1,159.82,19a8.18,8.18,0,0,1,1,.06,30.2,30.2,0,0,1,17.28,8.2A18.77,18.77,0,0,1,184,41.05c0,1.16,0,2.32,0,3.55l-.05,4,2.51-1a12.63,12.63,0,0,0,1.18-.48,49.43,49.43,0,0,1,19.55-5.06q1.13-.06,2.22-.06c7.1,0,13,1.83,18,5.59A16.91,16.91,0,0,1,234,66.12c-1.29,5.22-4.21,9.61-9.18,13.84a36.25,36.25,0,0,1-11.07,6.47L211,87.6,212.06,89a9.18,9.18,0,0,0,1,1.28,17.56,17.56,0,0,1,5.17,9.93,20,20,0,0,1-.82,9,22.86,22.86,0,0,1-.81,2.28,13.41,13.41,0,0,0-1.23,5.69,10,10,0,0,1-.78,3.32A55.34,55.34,0,0,1,207.91,134c-2.63,3.82-6.28,6.59-9.79,9.1a45.54,45.54,0,0,1-16.38,7.55,40.41,40.41,0,0,1-8.9,1Zm-55.3-52.67c2,2.59,3.92,5.09,5.87,7.56a328.55,328.55,0,0,0,22.42,25.87c5.49,5.64,10.37,9.06,15.82,11.1a32.88,32.88,0,0,0,11.55,2.22,28.88,28.88,0,0,0,4.26-.32,37,37,0,0,0,13.33-4.92,43.38,43.38,0,0,0,9.74-7.46c3.43-3.66,5.38-8.08,7.09-12.3.34-.83.61-1.68.89-2.53l1.31-3.89L207,115.45a3.61,3.61,0,0,0-.71.34,18.38,18.38,0,0,0,5.45-11.48c.38-3.57-.37-6.39-2.29-8.64a22.77,22.77,0,0,0-4.36-4.17c-1.82-1.26-3.73-2.41-5.64-3.56-1.09-.65-2.18-1.31-3.25-2L194.75,85c-2.14-1.34-4.35-2.73-6.36-4.26-2.41-1.84-2.5-3.14-1.8-5.55a16.72,16.72,0,0,1,3.69-6.39A37.11,37.11,0,0,1,207.9,57.88a27.57,27.57,0,0,1,6.52-1h.07a2.27,2.27,0,0,1,1.78.5,3,3,0,0,1,.08,2.34,9.79,9.79,0,0,1-2,3.61A23.62,23.62,0,0,1,202.86,71a22,22,0,0,1-6.72,1.17,15.86,15.86,0,0,1-3.39-.36,7.2,7.2,0,0,0-1.12-.11l-2.79-.18.77,2a15.08,15.08,0,0,0,6.9,8.26,9.32,9.32,0,0,0,4.6,1.15q.39,0,.78,0a31.22,31.22,0,0,0,18.23-7.21c4-3.28,6.38-6.64,7.45-10.59,1.48-5.52.19-9.54-4.17-13a18.33,18.33,0,0,0-8.5-3.65,37.05,37.05,0,0,0-6.34-.57,30.92,30.92,0,0,0-6.55.69A43.87,43.87,0,0,0,180.5,59.42,33.27,33.27,0,0,0,170.72,76a12.39,12.39,0,0,0,.81,8.62,20.75,20.75,0,0,0,5.91,7.48c.4.33.81.64,1.22,1l-1.84,1.49a39.36,39.36,0,0,0-7.21,7.43,10.91,10.91,0,0,0-1.33,10.73c2.06,5.58,6.19,9.06,12.28,10.34a23.26,23.26,0,0,0,4.61.34h.58a30.4,30.4,0,0,0,16-4.09c.57-.33,1.1-.68,1.62-1a21,21,0,0,1-2.31,1.79c-4.24,2.72-9.26,4.3-15.81,5-.82.08-1.62.12-2.41.12a22.42,22.42,0,0,1-9.53-2.13,82,82,0,0,1-12.75-7.44,198.11,198.11,0,0,1-18.94-15.35c-6.22-5.62-12.36-11.64-18.23-17.9l-.4-.45,3.88-1.29c3-1,6.07-2,9.09-3.05a138.65,138.65,0,0,0,20.75-8.85c4.48-2.44,10.21-5.91,14.84-11.11,4.93-5.52,6.88-11.82,5.79-18.72a12.47,12.47,0,0,0-3.2-6.77,23.09,23.09,0,0,0-13-7h-.2l-.81.09-1.32.39.1,1.4.29,1a18.41,18.41,0,0,1,.49,1.87c.64,3.49-.15,6.93-2.42,10.51a60.19,60.19,0,0,1-13,14.27,153.66,153.66,0,0,1-17.84,12.25l1.17-2.67c1.33-3,2.67-6.09,4-9.15,2.35-5.6,4.65-11.2,6.85-16.85a23.52,23.52,0,0,0,1.07-4.26l.18-1a4.08,4.08,0,0,0-2.27-4.55,7.33,7.33,0,0,0-2.77-1l-1.25-.09c-1.08-.08-2.17-.17-3.25-.17a15.69,15.69,0,0,0-2.38.17A45.32,45.32,0,0,0,119,29.67c-3.26,1.22-6.47,2.54-9.69,3.86-2.27.93-4.54,1.87-6.83,2.76-5,2-10.79,4-16.88,4.19h0c-4.47,0-7.31-1.57-9.09-4.81l-.13-.23-.52-.5-1.44-1.2-1,1.48c-1.6,3.61-2.92,6.92-2.9,10.85,0,7.11,5.38,10.47,10.32,10.58h.91a32,32,0,0,0,11.89-2.11,60.84,60.84,0,0,0,14.3-7.77A77.6,77.6,0,0,1,117.23,41a15.39,15.39,0,0,1,1.75-.8c0,.06-10.22,25.25-10.22,25.25Q104.88,75,101,84.58q-4.49,11.24-8.86,22.52c-1.57,4.06-3.06,8.15-4.5,12.26a14.71,14.71,0,0,0-.33,8.2,9.2,9.2,0,0,0,6.13,6.68,32.62,32.62,0,0,0,9.18,1.74c1.09.08,2.18.11,3.33.13l3.48.1-.74-2.87c-.16-.6-.3-1.14-.41-1.69a18.38,18.38,0,0,1,.61-8.74c1.28-4.5,2.43-9,3.59-13.57q.93-3.69,1.9-7.38c.43-1.62.91-3.24,1.41-4.9l0-.16Zm44.77-26.52a155.94,155.94,0,0,1-25.7,11.17l-1.6.56.84,1.47c1.8,3.14,20.38,19.63,23.4,20.77l1.55.58.33-1.61c.93-4.55,3.71-8,7.27-12l.73-.82-.62-.91a29.41,29.41,0,0,1-4.2-8.5c-.82-2.76-.57-5.59.07-9.26l.52-2.94Zm28,42.07a5.69,5.69,0,0,1-1.61-.22,10.84,10.84,0,0,1-7-6,23.16,23.16,0,0,1-2.46-11,7.83,7.83,0,0,0-.11-1.29l-.35-2.94a57.76,57.76,0,0,0,9.9,5.92,51.56,51.56,0,0,1,5.92,3.26,12.13,12.13,0,0,1,4.11,4.18,2.62,2.62,0,0,1,.18,2.23C198.2,111.4,194.09,114.61,190.35,114.61Z"/><path class="cls-2" d="M226.21,64.79c-1.12,4.14-3.76,7.24-7,9.88a29.88,29.88,0,0,1-17.43,6.89,8.18,8.18,0,0,1-4.61-1,13.66,13.66,0,0,1-6.26-7.53,14.48,14.48,0,0,1,1.52.11,20.58,20.58,0,0,0,10.84-.84,25,25,0,0,0,12.16-8.16A11,11,0,0,0,217.72,60c.76-3.06-.43-4.72-3.36-4.59a30,30,0,0,0-6.86,1.07,38.4,38.4,0,0,0-18.27,11.37,18,18,0,0,0-4,6.94c-.85,2.89-.64,4.82,2.3,7.06,2.52,1.92,5.26,3.56,7.94,5.26,2.94,1.85,6,3.54,8.84,5.51a22.3,22.3,0,0,1,4.09,3.92,9.55,9.55,0,0,1,2,7.58c-.66,6.29-4.06,10.77-9.34,13.9A29.36,29.36,0,0,1,185.58,122a24.21,24.21,0,0,1-4.74-.3c-5.4-1.14-9.31-4.22-11.24-9.46a9.56,9.56,0,0,1,1.15-9.41,37.59,37.59,0,0,1,7-7.17,12.71,12.71,0,0,1,.19,1.75,24.52,24.52,0,0,0,2.61,11.7,12.26,12.26,0,0,0,7.84,6.69c4.91,1.4,10.9-2.89,12-6.59a4,4,0,0,0-.31-3.33,13.42,13.42,0,0,0-4.57-4.66,52.06,52.06,0,0,0-6.08-3.35,55.89,55.89,0,0,1-11-6.85,19.7,19.7,0,0,1-5.51-7,11.06,11.06,0,0,1-.72-7.68,31.85,31.85,0,0,1,9.38-15.86A42.7,42.7,0,0,1,202.31,50a32.28,32.28,0,0,1,12.35-.1,16.87,16.87,0,0,1,7.85,3.36C226.3,56.25,227.58,59.69,226.21,64.79Z"/><path class="cls-2" d="M207.53,116.76c-.4,1.18-.75,2.37-1.21,3.52-1.73,4.26-3.63,8.46-6.81,11.86a42,42,0,0,1-9.44,7.22,35.36,35.36,0,0,1-12.82,4.74,29.82,29.82,0,0,1-15.11-1.83c-6.06-2.27-10.86-6.21-15.3-10.76a329.28,329.28,0,0,1-22.32-25.76c-3-3.83-6-7.71-9.22-11.89-.78,2.71-1.57,5.21-2.24,7.75-1.84,7-3.52,14-5.48,20.92a19.89,19.89,0,0,0-.64,9.4c.17.88.43,1.73.7,2.81-1.74-.05-3.31,0-4.86-.16a31.7,31.7,0,0,1-8.8-1.65,7.81,7.81,0,0,1-5.26-5.68,13.38,13.38,0,0,1,.28-7.42c1.45-4.1,2.93-8.18,4.5-12.23q4.36-11.26,8.85-22.49c3.77-9.43,7.61-18.82,11.41-28.23,2.15-5.31,4.32-10.62,6.46-15.94.28-.71.42-1.47.71-2.52a9.71,9.71,0,0,0-1.69.22,17.79,17.79,0,0,0-2.69,1.17,77.67,77.67,0,0,0-9.48,5.85,60.07,60.07,0,0,1-14,7.58,31,31,0,0,1-12.24,2c-4.29-.09-8.92-2.89-8.95-9.17,0-3.69,1.28-6.9,2.77-10.28a3,3,0,0,1,.59.56c2.26,4.11,5.93,5.64,10.37,5.54,6.09-.15,11.77-2.1,17.36-4.28s11-4.54,16.5-6.62A45.29,45.29,0,0,1,128,28.75a30.68,30.68,0,0,1,6.56.1,6.28,6.28,0,0,1,2.22.81,2.71,2.71,0,0,1,1.55,3,28.9,28.9,0,0,1-1.19,5c-2.19,5.63-4.49,11.23-6.83,16.81-1.92,4.56-3.94,9.08-5.91,13.62-.24.55-.44,1.13-.77,2,.61-.29,1-.42,1.29-.62,7-4.31,14-8.53,20.3-13.79A62.51,62.51,0,0,0,158.47,41.1a15.84,15.84,0,0,0,2.61-11.52c-.19-1-.53-2-.81-3a2.3,2.3,0,0,1,.61-.13A21.83,21.83,0,0,1,173.11,33,11.19,11.19,0,0,1,176,39c1.07,6.77-1,12.54-5.45,17.57-4.08,4.58-9.12,7.89-14.46,10.8a136,136,0,0,1-20.54,8.76c-4.67,1.63-9.39,3.13-14.07,4.7a6.89,6.89,0,0,0-.79.41c.63.72,1.16,1.36,1.73,2q8.77,9.38,18.31,18a201.82,201.82,0,0,0,19.07,15.46,84.46,84.46,0,0,0,13,7.57,23.84,23.84,0,0,0,12.67,2.13c5.86-.59,11.44-2,16.44-5.18a46.54,46.54,0,0,0,4.26-3.45A4.57,4.57,0,0,1,207.53,116.76Z"/><path class="cls-3" d="M213.64,23.63a3.8,3.8,0,0,0-1.21-2C195.78,7.7,183.31.88,155.15.08c-1.48,0-3-.07-4.58-.08h-.33c-2.25,0-4.48.1-6.7.26l-.31,0h-.11c-1.77.13-3.52.31-5.26.55h0c-.88.18-1.92.33-3.12.46h0c-1.21.2-2.42.42-3.63.67-2.19.44-4.37,1-6.54,1.57l-.07,0q-4.66,1.31-9.26,3.1l-.07-.08c-1,.42-2,.86-3,1.31l-.05,0c-1,.53-2.11,1-3.21,1.56h0c-2.64,1.34-5.14,2.75-7.47,4.17h0c-.23.13-.45.27-.67.41h0c-1.71,1.06-3.33,2.12-4.84,3.15-1.22.83-2.37,1.64-3.44,2.42h0c-.7.54-1.39,1.08-2,1.68l-.09-.1c-1,.77-1.9,1.48-2.7,2.13l-.07.06a2.92,2.92,0,0,1-.35.48,5.75,5.75,0,0,1-.78.78c-1,.77-2,1.52-3.1,2.37l0,0c.81,1.08,1.64,2.19,2.6,3.45,1.44-.27,3-.45,4.42-.85a77.73,77.73,0,0,0,11.23-3.9c4.51-2,9.14-3.79,13.76-5.55a56.4,56.4,0,0,1,6.36-2,32.74,32.74,0,0,1,16.77-.13A21.87,21.87,0,0,1,141,19a15.56,15.56,0,0,1,6.31,4.59,7.35,7.35,0,0,0,.74.73,12.56,12.56,0,0,1,2.4-5,12.09,12.09,0,0,1,10-4.29,27.38,27.38,0,0,1,5.6.91,32,32,0,0,1,9.7,4.34,43,43,0,0,1,6.33,5.18A19,19,0,0,1,184.15,28a1.65,1.65,0,0,0,1.68.82c4.44-.42,8.88-.81,13.33-1.22l1.28-.09c3.71-.33,7.43-.61,11.14-1A2.29,2.29,0,0,0,213.64,23.63Zm-31.13-8A1.22,1.22,0,0,1,182,15h0a1.37,1.37,0,0,1-.34-1.24c.28-.89,1.71-1.23,3.2-.78a3,3,0,0,1,2.24,1.93,2.43,2.43,0,0,1,.53,1.13A5,5,0,0,1,182.51,15.61Zm6-4.88a.66.66,0,0,1,0,.24,1.2,1.2,0,0,1-.8.75h0a2.42,2.42,0,0,1-.76.19,4.06,4.06,0,0,1-1.69-.18,4.35,4.35,0,0,1-1.17-.54,1.27,1.27,0,0,1-.95-1h0a1.24,1.24,0,0,1-.1-.88c.27-.88,1.71-1.23,3.21-.77S188.57,9.89,188.51,10.73Zm8.81,5.48c-.28.89-1.71,1.23-3.21.77-1.28-.39-2.19-1.24-2.26-2-.1-.12-.19-.25-.28-.37l.36-.13h0c.34-.8,1.72-1.1,3.16-.67S197.58,15.32,197.32,16.21Z"/><path class="cls-3" d="M206.42,156.3c-5.47.52-10.95,1.07-16.42,1.57-3.53.32-7.07.56-10.6.86-4.27.35-8.53.73-12.79,1.08-3.59.3-7.19.58-10.78.89-5.17.43-10.35.89-15.53,1.33-3.77.32-7.55.61-11.32.93-4.27.35-8.52.82-12.79,1a34.33,34.33,0,0,1-8.59-.17,26.18,26.18,0,0,1-9.82-4.31q-3-2.07-6-4.25c-1.18-.87-2.32-1.79-3.43-2.74a2.49,2.49,0,0,1-1-2.76,2.64,2.64,0,0,1,2.27-1.88c1.39-.21,2.8-.31,4.2-.41s2.57-.11,3.84-.22c7.07-.63,14.13-1.29,21.2-1.93q6.85-.61,13.7-1.18c2.74-.23,5.49-.41,8.23-.64a3.28,3.28,0,0,1,2.69.84,43.63,43.63,0,0,0,13.9,8.33,38.51,38.51,0,0,0,15.17,3.06,47.85,47.85,0,0,0,14.62-2.37,55.26,55.26,0,0,0,15.81-8.71,42.46,42.46,0,0,0,6.76-6.16,2.86,2.86,0,0,1,1.74-.83c3.71-.36,7.42-.63,11.14-.94,1.34-.11,2.67-.32,4-.37a4.07,4.07,0,0,1,1.92.37,2.54,2.54,0,0,1,.93,3.88c-1.52,1.75-3,3.56-4.59,5.24s-3.38,3.34-5.12,5a18.42,18.42,0,0,1-9.31,4.82c-1.37.26-2.73.59-4.1.89Zm-104.07-7.73-.17.54c.44.39.86.8,1.32,1.15,3.21,2.43,6.44,4.84,9.66,7.26,2,1.47,2.74,1.4,4.68-.09,2.11-1.64,4.33-3.14,6.5-4.7,2.43-1.74,4.86-3.47,7.27-5.24.4-.29,1-.57.65-1.49C122.32,146.82,112.32,147.52,102.35,148.57Z"/><path class="cls-3" d="M120.24,149.33a1.54,1.54,0,0,1,1.75,1.25,1.43,1.43,0,0,1-1.26,1.52,1.58,1.58,0,0,1-1.64-1.17A1.42,1.42,0,0,1,120.24,149.33Z"/><path class="cls-3" d="M115.33,153.41a1.54,1.54,0,0,1,1.75,1.25,1.43,1.43,0,0,1-1.26,1.52,1.58,1.58,0,0,1-1.64-1.17A1.42,1.42,0,0,1,115.33,153.41Z"/><path class="cls-3" d="M110.86,152.69c-.65.11-1.42-.4-1.43-.95a1,1,0,0,1,1-1.09,1,1,0,0,1,1.2.84A1,1,0,0,1,110.86,152.69Z"/><path class="cls-3" d="M83.3,27.06c.22-.21,1.84-1.67,4.23-3.63a2.92,2.92,0,0,1-.35.48,5.75,5.75,0,0,1-.78.78C85.41,25.46,84.4,26.21,83.3,27.06Z"/><path class="cls-2" d="M55.9,115.17l-45.12,6.24-.58-4.89,44.48-6.37C55.05,111.84,55.46,113.52,55.9,115.17Z"/><path class="cls-2" d="M302.35,81.13l-47.81,6.6q0-3.08-.25-6.18l47.2-6.76C301.84,77.34,302.07,79,302.35,81.13Z"/><path class="cls-2" d="M58.52,123.42l-46.77,6.07-.58-4.84,45.69-6.16Q57.63,121,58.52,123.42Z"/><path class="cls-2" d="M303.8,91.57,254.13,98c.19-2,.31-4.09.38-6.16L303,85.33C303.28,87.79,303.51,89.48,303.8,91.57Z"/><path class="cls-2" d="M52.47,84.56c-.07,1.7-.1,3.41-.08,5.13L7.87,97l-.58-4.81Z"/><path class="cls-2" d="M298.15,50.11c-5.75.78-11.33,1.42-16.88,2.32l-31.62,5.12q-1-3-2.09-5.85l49.67-8.36C297.56,45.72,297.79,47.4,298.15,50.11Z"/><path class="cls-2" d="M54.07,107.07,9.85,113.55l-.64-5.34,44-6.65C53.45,103.41,53.73,105.25,54.07,107.07Z"/><path class="cls-2" d="M300.9,70.11c-1.14.38-18.37,3.07-47,7.39q-.33-3-.81-5.85c28.95-4.24,46.27-6.67,47.1-6.57C300.45,66.77,300.68,68.46,300.9,70.11Z"/><path class="cls-2" d="M61.93,131.63l-49.21,6-.58-4.86,47.65-6C60.46,128.39,61.18,130,61.93,131.63Z"/><path class="cls-2" d="M305.14,102.09l-52.52,6.38q.62-3.09,1-6.23l50.63-6.4C304.62,98.31,304.87,100.11,305.14,102.09Z"/><path class="cls-2" d="M52.7,96.64c0,.59.1,1.18.16,1.77l-44,6.82-.59-4.94,44.23-7.07C52.54,94.35,52.61,95.5,52.7,96.64Z"/><path class="cls-2" d="M299.6,60.53c-6.66.91-13.17,1.69-19.64,2.69L252.31,67.5q-.65-3-1.48-6l47.86-7.65C299,56.16,299.23,57.84,299.6,60.53Z"/><path class="cls-2" d="M53.2,75.75c-.22,1.75-.4,3.5-.53,5.27L6.91,88.93l-.28-2.35a2.7,2.7,0,0,1,2.2-3Z"/><path class="cls-2" d="M296.69,38.85c-1.05.26-1.68.45-2.33.57l-48.42,8.4c-.85-1.93-1.76-3.83-2.73-5.68l49.08-8.69a3.5,3.5,0,0,1,4.07,3C296.47,37.21,296.57,38,296.69,38.85Z"/><path class="cls-2" d="M78,156q-30.37,2.93-60.75,5.86a1.66,1.66,0,0,1-1.81-1.45l-.39-3.29,58.9-6Q75.9,153.59,78,156Z"/><path class="cls-2" d="M309,130.37a3.13,3.13,0,0,1-2.68,3.52l-1.2.14q-32.36,3.15-64.74,6.28c1.25-2.1,2.43-4.24,3.52-6.43l64.68-6.56C308.73,128.4,308.86,129.4,309,130.37Z"/><path class="cls-2" d="M71.54,147.92l-56.88,5.93L14.08,149,68.21,143C69.28,144.69,70.38,146.32,71.54,147.92Z"/><path class="cls-2" d="M308.07,122.32c-7.82,1.07-15.24,2.27-22.7,3.07q-19.72,2.13-39.46,4.22,1.4-3.12,2.57-6.35l58.84-6.45C307.62,119,307.86,120.72,308.07,122.32Z"/><path class="cls-2" d="M66.21,139.77l-52.51,6-.58-4.82,7.44-.88,43-5.08Q64.83,137.41,66.21,139.77Z"/><path class="cls-2" d="M306.65,112.42c-3.53.48-6.59,1-9.66,1.31L249.92,119c.65-2.07,1.24-4.17,1.75-6.29l50.05-5.91c1.3-.16,2.61-.21,4.12-.33C306.12,108.53,306.37,110.32,306.65,112.42Z"/><path class="cls-4" d="M63.06,40.17v0l0,0Z"/><path class="cls-1" d="M254.47,156a4.38,4.38,0,0,1,4.09,6.72A122.67,122.67,0,0,1,63.73,180.18a4.38,4.38,0,0,1,2.87-7.29l16-1.44a4.33,4.33,0,0,1,3.33,1.12A101.58,101.58,0,0,0,235.44,159.1a4.33,4.33,0,0,1,3.08-1.69Z"/><path class="cls-2" d="M96.59,188.53l-4.74,7-1.16-.8,3.25-4.79-5.4,3.33-.81-.56,1.1-6.23-3.26,4.77-1.15-.79,4.74-7,1.25.85-1.25,7.16,6.19-3.8Z"/><path class="cls-2" d="M97.41,192.83a3.18,3.18,0,0,1,1.59-.49,3,3,0,0,1,1.62.41,2.73,2.73,0,0,1,1.07.93,2.66,2.66,0,0,1,.46,1.13l.48-.84,1.23.68-3.23,5.85-1.24-.67.48-.88a2.8,2.8,0,0,1-1.22.24,3.1,3.1,0,0,1-1.38-.41,2.89,2.89,0,0,1-1.19-1.16,3.12,3.12,0,0,1-.4-1.64,4,4,0,0,1,1.73-3.15Zm3.93,2.86a2,2,0,0,0-1-1.76,1.9,1.9,0,0,0-1-.25,2.1,2.1,0,0,0-1,.3,2.47,2.47,0,0,0-.82.92,2.35,2.35,0,0,0-.34,1.2,2,2,0,0,0,1,1.78,2,2,0,0,0,1,.25,1.93,1.93,0,0,0,1-.33,2.38,2.38,0,0,0,.83-.91A2.53,2.53,0,0,0,101.34,195.69Zm1.66-3.57-3-.16.5-.89h3.08Z"/><path class="cls-2" d="M104.13,202a2.6,2.6,0,0,1-.58-1.13,1.81,1.81,0,0,1,.1-1.17l1.32.62a.88.88,0,0,0,.08.81,1.47,1.47,0,0,0,.72.64,1.63,1.63,0,0,0,.94.18.69.69,0,0,0,.53-.39.62.62,0,0,0-.1-.67,6.26,6.26,0,0,0-.88-.82,12.91,12.91,0,0,1-1-.89,2.21,2.21,0,0,1-.52-.89,1.57,1.57,0,0,1,.14-1.1,1.59,1.59,0,0,1,.69-.76,2.21,2.21,0,0,1,1.12-.26,3.53,3.53,0,0,1,1.35.34,3,3,0,0,1,1.45,1.29,2.08,2.08,0,0,1,0,1.76L108.3,199a1,1,0,0,0,0-.81,1.39,1.39,0,0,0-.69-.61,1.37,1.37,0,0,0-.87-.17.63.63,0,0,0-.49.37.6.6,0,0,0,0,.49,1.34,1.34,0,0,0,.33.47c.15.13.35.33.64.57a11.07,11.07,0,0,1,.94.86,2.57,2.57,0,0,1,.5.88,1.66,1.66,0,0,1-.11,1.1,1.81,1.81,0,0,1-.71.79,2.25,2.25,0,0,1-1.11.27,3.84,3.84,0,0,1-2.54-1.19Z"/><path class="cls-2" d="M118.45,201a2.93,2.93,0,0,1,1.42.13,3.13,3.13,0,0,1,1.39.91,3.06,3.06,0,0,1,.71,1.52,3.73,3.73,0,0,1-.16,1.82,3.82,3.82,0,0,1-1,1.58,3.28,3.28,0,0,1-1.48.83,3.18,3.18,0,0,1-1.67-.1,3,3,0,0,1-1.21-.72,3.2,3.2,0,0,1-.69-1l-1.3,4-1.33-.45,3.1-9.37,1.32.44-.31.92A2.86,2.86,0,0,1,118.45,201Zm2.11,2.7a1.92,1.92,0,0,0-.49-1,2.24,2.24,0,0,0-.86-.57,2.09,2.09,0,0,0-1-.06,1.84,1.84,0,0,0-1,.51,2.54,2.54,0,0,0-.65,1,2.44,2.44,0,0,0-.11,1.24,1.93,1.93,0,0,0,.48,1,1.87,1.87,0,0,0,.87.57,1.84,1.84,0,0,0,1,.06,1.82,1.82,0,0,0,1-.52,2.43,2.43,0,0,0,.66-1.06A2.4,2.4,0,0,0,120.56,203.69Z"/><path class="cls-2" d="M124.59,204.28a3.19,3.19,0,0,1,1.4-.9,3.25,3.25,0,0,1,1.67,0A3.07,3.07,0,0,1,129,204a2.62,2.62,0,0,1,.73,1l.24-.94,1.37.32-1.57,6.52-1.36-.34.23-1a2.83,2.83,0,0,1-1.13.54,3.33,3.33,0,0,1-1.44,0,3.09,3.09,0,0,1-1.43-.81,3.06,3.06,0,0,1-.83-1.48,3.7,3.7,0,0,1,0-1.84A3.57,3.57,0,0,1,124.59,204.28Zm4.55,1.72a2.1,2.1,0,0,0-.56-.93,1.77,1.77,0,0,0-.91-.49,2,2,0,0,0-1,0,2.09,2.09,0,0,0-.91.57,2.38,2.38,0,0,0-.56,1.11,2.48,2.48,0,0,0,0,1.24,2.17,2.17,0,0,0,.56,1,1.77,1.77,0,0,0,.91.49,1.93,1.93,0,0,0,1,0,2.09,2.09,0,0,0,.92-.57,2.6,2.6,0,0,0,.55-1.13A2.24,2.24,0,0,0,129.14,206Z"/><path class="cls-2" d="M135.9,205.29a2.68,2.68,0,0,1,1.24-.06l-.24,1.41-.34-.06a1.71,1.71,0,0,0-1.31.19,2,2,0,0,0-.66,1.34l-.59,3.48-1.38-.24,1.13-6.6,1.37.24-.16.95A2.35,2.35,0,0,1,135.9,205.29Z"/><path class="cls-2" d="M141.38,206.05a2.44,2.44,0,0,1,1.25-.13l-.18,1.41-.35,0a1.7,1.7,0,0,0-1.29.26,2,2,0,0,0-.58,1.38l-.42,3.49-1.39-.16.79-6.64,1.4.17-.13.94A2.39,2.39,0,0,1,141.38,206.05Z"/><path class="cls-2" d="M145.87,206.29l-.52,6.68-1.39-.11.51-6.66Zm-1.23-1.23a.82.82,0,0,1-.21-.65.86.86,0,0,1,.3-.61.91.91,0,0,1,.66-.21.87.87,0,0,1,.61.3.94.94,0,0,1,.2.65.82.82,0,0,1-.3.61.8.8,0,0,1-.65.2A.87.87,0,0,1,144.64,205.06Z"/><path class="cls-2" d="M149.87,204.2l-.37,9-1.4-.06.37-9Z"/><path class="cls-2" d="M153.7,204.28l0,9-1.4,0,.05-9Z"/><path class="cls-2" d="M156.3,208.1a3.06,3.06,0,0,1,2.68-1.79,3.1,3.1,0,0,1,1.4.24,2.74,2.74,0,0,1,1,.71l-.06-1,1.42-.06.36,6.67-1.41.07,0-1a2.9,2.9,0,0,1-.93.83,2.93,2.93,0,0,1-1.38.4,3,3,0,0,1-1.62-.36,3.11,3.11,0,0,1-1.21-1.18,3.91,3.91,0,0,1-.53-1.77A3.83,3.83,0,0,1,156.3,208.1Zm4.85.34a2.1,2.1,0,0,0-.8-.74,2,2,0,0,0-1-.2,2,2,0,0,0-1,.31,1.89,1.89,0,0,0-.72.81,2.45,2.45,0,0,0-.22,1.21,2.39,2.39,0,0,0,.36,1.2,2,2,0,0,0,.8.75,2,2,0,0,0,2-.11,2,2,0,0,0,.7-.82,2.38,2.38,0,0,0,.23-1.22A2.42,2.42,0,0,0,161.15,208.44Z"/><path class="cls-2" d="M167,210.79l-1.11,3.49-.9.11.49-3.43Z"/><path class="cls-2" d="M181.71,203.07a2.43,2.43,0,0,1,1.19.73,3.15,3.15,0,0,1,.7,1.43l.89,3.85-1.35.31-.84-3.65a2,2,0,0,0-.76-1.24,1.71,1.71,0,0,0-1.32-.19,1.62,1.62,0,0,0-1.09.76,1.87,1.87,0,0,0-.14,1.45l.84,3.64-1.35.31-.84-3.65a1.87,1.87,0,0,0-.76-1.22,1.56,1.56,0,0,0-1.32-.21,1.67,1.67,0,0,0-1.1.74,2,2,0,0,0-.14,1.47l.84,3.64-1.35.31L172.3,205l1.36-.31.17.74a2.31,2.31,0,0,1,.71-.82,2.66,2.66,0,0,1,1.05-.48,3.09,3.09,0,0,1,1.48,0,2.27,2.27,0,0,1,1.17.74,2.25,2.25,0,0,1,.72-1.15,2.88,2.88,0,0,1,1.28-.67A3,3,0,0,1,181.71,203.07Z"/><path class="cls-2" d="M186.1,203.14a3.19,3.19,0,0,1,.69-1.53,3.36,3.36,0,0,1,1.39-.92,2.83,2.83,0,0,1,1.41-.17,2.78,2.78,0,0,1,1.16.43l-.32-.93,1.33-.45,2.19,6.32-1.33.45-.33-.93a2.75,2.75,0,0,1-.66,1.06,3.05,3.05,0,0,1-1.21.76,2.94,2.94,0,0,1-1.66.1,3.12,3.12,0,0,1-1.49-.8,3.76,3.76,0,0,1-1-1.57A3.71,3.71,0,0,1,186.1,203.14Zm3.21-4.63-2.14,2.14-.32-1,2.07-2.3Zm1.55,3.63a2,2,0,0,0-1-.49,1.93,1.93,0,0,0-1,.08,2,2,0,0,0-1.33,1.54,2.27,2.27,0,0,0,.12,1.22,2.3,2.3,0,0,0,.67,1,2,2,0,0,0,1,.51,1.75,1.75,0,0,0,1-.07,1.95,1.95,0,0,0,1.32-1.57,2.41,2.41,0,0,0-.12-1.23A2.49,2.49,0,0,0,190.86,202.14Z"/><path class="cls-2" d="M197.78,204.1a2.35,2.35,0,0,1-1.22-.3,1.9,1.9,0,0,1-.79-.85l1.32-.58a.9.9,0,0,0,.66.48,1.42,1.42,0,0,0,1-.1,1.56,1.56,0,0,0,.74-.58.64.64,0,0,0,.06-.65.58.58,0,0,0-.55-.38,6.28,6.28,0,0,0-1.2.11c-.53.06-.95.11-1.3.12a2.47,2.47,0,0,1-1-.22,1.6,1.6,0,0,1-.74-.83,1.65,1.65,0,0,1-.1-1,2.18,2.18,0,0,1,.57-1,3.58,3.58,0,0,1,1.15-.78,2.76,2.76,0,0,1,1.92-.21,2.09,2.09,0,0,1,1.33,1.14l-1.29.56a.91.91,0,0,0-.61-.51,1.35,1.35,0,0,0-.93.11,1.48,1.48,0,0,0-.7.52.63.63,0,0,0-.05.62.57.57,0,0,0,.35.33,1.73,1.73,0,0,0,.56.09l.87-.09a8.39,8.39,0,0,1,1.27-.13,2.14,2.14,0,0,1,1,.21,1.54,1.54,0,0,1,.73.81,1.65,1.65,0,0,1,.12,1.07,2.28,2.28,0,0,1-.54,1,3.63,3.63,0,0,1-1.16.78A3.37,3.37,0,0,1,197.78,204.1Z"/><path class="cls-2" d="M208.1,199.15a2.59,2.59,0,0,1-1.25-.18,2,2,0,0,1-.88-.78l1.26-.71a.92.92,0,0,0,.71.42,1.43,1.43,0,0,0,1-.2,1.58,1.58,0,0,0,.69-.66.68.68,0,0,0,0-.65.58.58,0,0,0-.6-.31,5.72,5.72,0,0,0-1.19.21,10,10,0,0,1-1.28.26,2.23,2.23,0,0,1-1-.11,1.64,1.64,0,0,1-.81-.74,1.74,1.74,0,0,1-.21-1,2.17,2.17,0,0,1,.45-1.07,3.68,3.68,0,0,1,1.07-.89,2.85,2.85,0,0,1,1.9-.41,2,2,0,0,1,1.43,1l-1.22.68a1,1,0,0,0-.66-.43,1.34,1.34,0,0,0-.92.2,1.5,1.5,0,0,0-.64.6.67.67,0,0,0,0,.63.65.65,0,0,0,.39.29,1.49,1.49,0,0,0,.56,0c.2,0,.48-.1.85-.18a9.59,9.59,0,0,1,1.24-.26,2.66,2.66,0,0,1,1,.11,1.65,1.65,0,0,1,.82.74,1.87,1.87,0,0,1,.23,1,2,2,0,0,1-.45,1.05,3.46,3.46,0,0,1-1.07.9A3.2,3.2,0,0,1,208.1,199.15Z"/><path class="cls-2" d="M211.17,191.64a3,3,0,0,1,.27-1.64,3.22,3.22,0,0,1,1.09-1.26,3.11,3.11,0,0,1,1.32-.53,2.91,2.91,0,0,1,1.23.11l-.55-.82,1.16-.79,3.77,5.56-1.17.79-.55-.83a3,3,0,0,1-1.35,2.24,3,3,0,0,1-1.56.53,3.16,3.16,0,0,1-1.65-.39,3.92,3.92,0,0,1-2-3Zm4.32-2.19a2,2,0,0,0-1.06-.23,2.09,2.09,0,0,0-1.66,1.13,1.84,1.84,0,0,0-.2,1.05,2.35,2.35,0,0,0,.44,1.15,2.45,2.45,0,0,0,.91.85,2,2,0,0,0,2.06-.1,2.21,2.21,0,0,0,.68-.78,2,2,0,0,0,.19-1.08,2.35,2.35,0,0,0-.44-1.16A2.39,2.39,0,0,0,215.49,189.45Z"/><path class="cls-2" d="M219.75,183.91a3.27,3.27,0,0,1,.88-1.1,3.15,3.15,0,0,1,1.53-.68,3,3,0,0,1,1.64.21,3.66,3.66,0,0,1,1.45,1.14,3.7,3.7,0,0,1,.82,1.66,3,3,0,0,1-.12,1.67,2.91,2.91,0,0,1-1,1.38,3.22,3.22,0,0,1-1.27.63,2.6,2.6,0,0,1-1.24,0l.61.76-1.09.88-5.65-7,1.07-.9,2.08,2.57A2.85,2.85,0,0,1,219.75,183.91Zm3.42-.29a1.89,1.89,0,0,0-1.07-.11,2.18,2.18,0,0,0-1,.42,2,2,0,0,0-.6.84,2,2,0,0,0-.1,1.08A2.43,2.43,0,0,0,221,187a2.46,2.46,0,0,0,1,.75,2.07,2.07,0,0,0,1.09.13,1.83,1.83,0,0,0,1-.42,1.94,1.94,0,0,0,.61-.85,2.1,2.1,0,0,0,.1-1.09,2.7,2.7,0,0,0-.55-1.13A2.37,2.37,0,0,0,223.17,183.62Z"/><path class="cls-2" d="M230.2,183.21a3.15,3.15,0,0,1-1.72-.06,3.47,3.47,0,0,1-1.57-1,3.54,3.54,0,0,1-.91-1.61,3.24,3.24,0,0,1,.05-1.75,3.73,3.73,0,0,1,1-1.52,3.49,3.49,0,0,1,1.56-.88,2.84,2.84,0,0,1,1.73,0,3.58,3.58,0,0,1,1.57,1,3.48,3.48,0,0,1,.91,1.65,3.11,3.11,0,0,1-.08,1.74,3.68,3.68,0,0,1-1,1.55A3.78,3.78,0,0,1,230.2,183.21Zm1.28-2.64a2,2,0,0,0,0-1.08,2.49,2.49,0,0,0-.64-1.11,2.55,2.55,0,0,0-1.06-.69,1.83,1.83,0,0,0-1.06,0,2.13,2.13,0,0,0-.9.51,2,2,0,0,0-.55.88,1.78,1.78,0,0,0,0,1.05,2.71,2.71,0,0,0,.65,1.08,2.43,2.43,0,0,0,1.56.82,1.87,1.87,0,0,0,1.42-.54A2,2,0,0,0,231.48,180.57Z"/><path class="cls-2" d="M232.82,171.83a2.48,2.48,0,0,1,.61-1.1l1.06,1-.26.25a1.68,1.68,0,0,0-.54,1.19,2,2,0,0,0,.76,1.29l2.58,2.39-.94,1-4.91-4.57,1-1,.7.67A2.28,2.28,0,0,1,232.82,171.83Z"/><path class="cls-2" d="M239.61,173.69a.77.77,0,0,1-.65-.22.85.85,0,0,1-.32-.6.89.89,0,0,1,.23-.64.75.75,0,0,1,.6-.31.8.8,0,0,1,.65.2.87.87,0,0,1,.31.62.85.85,0,0,1-.21.63A.9.9,0,0,1,239.61,173.69Z"/><path class="cls-2" d="M133,176.2c.16-1.44,2.08-4.09,6.58-4.44,7.94-.62,8.58,8.91-1.9,9.85-.41,1.24-.78,2.4-1,3.17-.13.58-.32,1.47-.34,1.73s-.08.26-.27.28c-.61-.12-1.65-.59-1.72-1.43-.14-1.78,3.84-10.37,3.84-10.37a1,1,0,0,1,.93-.58c.47,0,1.1.19.87.76-.05.1-1.06,2.72-2,5.3,6.6-.61,7.14-8,1.57-7.53a5.32,5.32,0,0,0-4.89,4.35,1.19,1.19,0,0,0,.18.83c.05.08,0,.28-.25.3A1.88,1.88,0,0,1,133,176.2Z"/><path class="cls-2" d="M148.61,177.58c1-.07,1.47.31,1.69.84.16-.29.28-.51.36-.68a.58.58,0,0,1,.49-.35c.41,0,1.41.28,1.08.9-.43.83-2,5.15-1.52,5.11s1.33-1.29,2.33-2.6a.66.66,0,0,1,.42-.27c.27,0,.47.28.26.59-1.2,1.8-2.57,3.59-3.08,3.63s-1.91-.4-2-1.42c-.7.94-1.5,1.7-2.15,1.75a1.75,1.75,0,0,1-1.95-1.45C144.37,181.62,146,177.79,148.61,177.58Zm-1.86,6.13c1.62-.13,3.84-5.17,2.3-5.05C147.2,178.8,145.81,183.79,146.75,183.71Z"/><path class="cls-2" d="M153.38,181.35a.35.35,0,0,1-.34-.55c.58-.76,1.13-1.55,1.56-2.16l-.24,0c-.57,0-1-.76-1.06-1.13a.27.27,0,0,1,.21-.39l.06,0c.12,0,1,0,2-.1,1.18-.09,2.46-.21,2.64-.23.41,0,1.41.29,1.08.91-.43.82-2,5.15-1.52,5.11s1.32-1.29,2.33-2.6a.66.66,0,0,1,.42-.27c.29,0,.47.28.26.59-1.19,1.8-2.57,3.59-3.08,3.63s-1.94-.42-2-1.45.78-3,1.42-4.37c-.57.07-1.17.14-1.69.18-.4.62-1,1.6-1.68,2.56A.46.46,0,0,1,153.38,181.35Z"/><path class="cls-2" d="M160.43,180.8a.35.35,0,0,1-.34-.55c.58-.76,1.13-1.56,1.56-2.16l-.24,0c-.57,0-.95-.76-1.06-1.13a.27.27,0,0,1,.21-.39s0,0,.06,0a19.21,19.21,0,0,0,2-.09l2.64-.23c.41,0,1.41.28,1.08.91-.43.82-2,5.14-1.52,5.11s1.32-1.3,2.33-2.6a.66.66,0,0,1,.42-.27c.29,0,.47.28.26.59-1.19,1.8-2.57,3.59-3.08,3.63s-1.94-.42-2-1.45.77-3,1.42-4.37c-.57.07-1.18.13-1.69.17-.4.63-1,1.61-1.68,2.57A.46.46,0,0,1,160.43,180.8Z"/><path class="cls-2" d="M171.08,179.39a.64.64,0,0,1,.41-.27c.3,0,.48.28.27.59-1.19,1.8-2.57,3.59-3.08,3.63s-1.94-.42-2-1.45c-.12-1.49,1.57-4.7,2-5.56a.61.61,0,0,1,.49-.36c.41,0,1.41.29,1.08.91-.43.82-2,5.14-1.52,5.11S170.07,180.69,171.08,179.39Zm-.62-4.15c-.42,0-1.21-.3-1.11-.71.05-.18.43-1.62.68-2.21a.7.7,0,0,1,.62-.41c.69,0,1.65.57,1.41,1-.31.58-1.17,1.82-1.37,2.21A.29.29,0,0,1,170.46,175.24Z"/><path class="cls-2" d="M175.18,179.07a.62.62,0,0,1,.41-.27c.3,0,.48.28.26.59-1.18,1.8-2.57,3.59-3.08,3.63s-2.09-.41-2.17-1.44c-.14-1.77,4.11-11,4.11-11a.87.87,0,0,1,.84-.58c.44,0,1.27.19,1,.75-.08.2-3.91,9.47-3.8,10.85,0,0,0,.06.06,0C173.18,181.64,174.17,180.37,175.18,179.07Z"/><path class="cls-2" d="M179.27,178.75a.72.72,0,0,1,.42-.28c.29,0,.47.28.26.6-1.19,1.79-2.57,3.59-3.08,3.63s-2.09-.41-2.17-1.44c-.14-1.77,4.1-11,4.1-11a.92.92,0,0,1,.85-.58c.43,0,1.26.2,1,.75-.08.21-3.91,9.48-3.8,10.86,0,0,0,.06.06.05C177.27,181.32,178.27,180.05,179.27,178.75Z"/><path class="cls-2" d="M163.49,185.37a.37.37,0,0,1,.27.12,5.16,5.16,0,0,0,4,1.07c6.15-.48,11.14-2,15.66-2.93a8.42,8.42,0,0,1-.41-2.94c-.7.91-1.48,1.64-2.11,1.69a1.75,1.75,0,0,1-1.95-1.45c-.16-2,1.42-5.84,4.08-6.05,1-.07,1.49.3,1.69.84.16-.29.28-.52.36-.68a.61.61,0,0,1,.49-.36c.41,0,1.41.29,1.08.91a26.08,26.08,0,0,0-1.59,4.7,8.52,8.52,0,0,0-.05,1.65,5.94,5.94,0,0,0,.26,1.32c.45-.07.9-.13,1.34-.16,4-.31,4,3.88,1.19,4.11a4,4,0,0,1-3.83-2.32c-4.73,1.28-10.23,3.91-16.57,4.41-1.94.15-4-.78-4.15-2.94C163.26,186.16,163.2,185.39,163.49,185.37Zm17.7-4.36c1.62-.13,3.83-5.17,2.3-5C181.64,176.1,180.25,181.08,181.19,181Zm4.65,3.4a2.29,2.29,0,0,0,2,1.21c1-.08,1.22-1.6-.45-1.47A10.11,10.11,0,0,0,185.84,184.41Z"/><path class="cls-5" d="M60.23,30.55h-.06a.42.42,0,0,1,0-.07Z"/><path class="cls-5" d="M63.06,40.17v0l0,0Z"/><rect class="cls-2" x="0.96" y="115.91" width="5.66" height="17.39" rx="0.07" transform="translate(-14.06 1.23) rotate(-6.49)"/><rect class="cls-2" x="307.73" y="73.32" width="5.81" height="17.84" rx="0.07" transform="translate(-8.36 43.52) rotate(-7.91)"/></g></g></svg>