<svg xmlns="http://www.w3.org/2000/svg" viewBox="0 0 295.03 279.41"><defs><style>.cls-1{fill:#1e1e1e;}.cls-2{fill:#fff;}.cls-3{fill:#d80c33;}</style></defs><g id="Capa_2" data-name="Capa 2"><g id="Capa_1-2" data-name="Capa 1"><path class="cls-1" d="M231.75,27.22l1-.87A3.11,3.11,0,0,0,231.75,27.22Z"/><path class="cls-1" d="M232.77,26.35l-1,.87A3.11,3.11,0,0,1,232.77,26.35Z"/><path class="cls-1" d="M232.77,26.35l-1,.87A3.11,3.11,0,0,1,232.77,26.35Z"/><path class="cls-1" d="M151.44.89h0l-.24,0Z"/><path class="cls-2" d="M281.9,79.1c-10.63-8-22.94-10.57-36-9.89a86,86,0,0,0-34.19,8.86c-.87.42-1.81.7-2.81,1.1,0-3.39.18-6.39.1-9.37-.25-9.8-3.7-18.25-10.85-25.07a53.42,53.42,0,0,0-30.75-14.61c-10.66-1.39-21.36,8.82-15.94,20.89a7.14,7.14,0,0,1,.48,5.16,20.65,20.65,0,0,1-2.15,5.46c-2.41,3.63-5.14,7.05-7.77,10.54a11.83,11.83,0,0,1-1.8,1.34c.49-1.38.77-2.05.94-2.73,1.07-3.91,2.39-7.77,3.07-11.75,1.51-8.77-1.58-15.71-9.07-20.61a29.14,29.14,0,0,0-14.45-4.54A68.26,68.26,0,0,0,92,38.42c-10.37,4-20.61,8.39-31,12.47a75.74,75.74,0,0,1-21.07,5.46c-2.51.23-3.92-.46-5.19-2.77-5.61-10.17-21.51-11-27.69-.28C2.4,61.38-.29,70.05,0,79.47a28.36,28.36,0,0,0,9.61,21c7.08,6.27,15.67,8.87,25.09,8.45a79.31,79.31,0,0,0,32.07-8.34,10.48,10.48,0,0,1,1.94-.48c-2.89,7.21-5.63,14.06-8.39,20.9-5.4,13.41-10.89,26.78-16.19,40.23-4.19,10.64-8,21.42-12.25,32.06-3.07,7.8-4.61,15.71-3.21,24.1a27.48,27.48,0,0,0,7.48,15.12c5.53,5.68,12.55,8.57,20.15,9.78,6.24,1,12.64.9,18.89,1.81,11.88,1.73,22.16-11.24,15.9-21.54-.07-2.15-.58-4.4-.15-6.44,1.3-5.9,3-11.7,4.5-17.53.37-1.38.8-2.74,1.32-4.47.93,1,1.61,1.62,2.18,2.33a503.15,503.15,0,0,0,35.46,39.81c6.15,6.1,12.58,11.89,20.56,15.54a140.45,140.45,0,0,0,14.09,5.86c11.25,3.72,22.78,3.72,34.22,1.1A79.8,79.8,0,0,0,232,245.51c6.45-4.6,12.67-9.44,17.25-16.09a95.38,95.38,0,0,0,11.39-22.83c.82-2.34,1.8-4.84,1.73-7.23a20,20,0,0,1,1.89-8.68,38.05,38.05,0,0,0,1.46-4.12,36.58,36.58,0,0,0,1.49-16.34,32.34,32.34,0,0,0-9.5-18.23,16.86,16.86,0,0,1-1.47-1.92c.76-.33,1.23-.56,1.7-.74a63.68,63.68,0,0,0,19.57-11.44c7.84-6.67,13.85-14.51,16.4-24.8C297.29,99.51,292.84,87.32,281.9,79.1ZM244.58,204.68c-2.94,7.25-6.17,14.39-11.59,20.18a71.89,71.89,0,0,1-16.05,12.29,60.25,60.25,0,0,1-21.82,8c-8.83,1.35-17.33,0-25.71-3.11-10.31-3.85-18.49-10.55-26-18.31a559,559,0,0,1-38-43.82c-5.14-6.53-10.18-13.14-15.68-20.23-1.34,4.6-2.68,8.85-3.83,13.17-3.12,11.87-6,23.8-9.32,35.61-1.5,5.34-2.16,10.57-1.09,16,.3,1.48.74,2.94,1.2,4.78-3-.1-5.64-.08-8.28-.29-5.08-.39-10.16-1-15-2.8-4.54-1.73-7.86-4.8-8.94-9.66A22.62,22.62,0,0,1,45,203.91c2.45-7,5-13.91,7.64-20.81Q60,163.92,67.67,144.82c6.41-16,12.94-32,19.41-48,3.67-9,7.36-18.08,11-27.14.48-1.2.71-2.49,1.22-4.28a15.18,15.18,0,0,0-2.88.37,31.42,31.42,0,0,0-4.57,2,132,132,0,0,0-16.15,10A102.79,102.79,0,0,1,51.9,90.6,52.74,52.74,0,0,1,31.07,94c-7.29-.16-15.17-4.91-15.23-15.61,0-6.28,2.18-11.73,4.73-17.49.46.44.82.64,1,1,3.85,7,10.1,9.61,17.66,9.43,10.35-.26,20-3.57,29.54-7.29s18.63-7.72,28.07-11.25a76,76,0,0,1,14.43-3.82c3.63-.55,7.44-.06,11.16.18a10.19,10.19,0,0,1,3.77,1.38,4.58,4.58,0,0,1,2.65,5.16,49.07,49.07,0,0,1-2,8.47c-3.73,9.6-7.64,19.12-11.63,28.61-3.26,7.77-6.71,15.45-10.06,23.18-.41.94-.75,1.92-1.31,3.39,1-.49,1.65-.72,2.2-1.06,11.85-7.33,23.8-14.51,34.55-23.46,8.68-7.24,16.55-15.22,22.58-24.84,3.78-6,5.75-12.45,4.45-19.6-.32-1.69-.9-3.34-1.38-5.08a3.86,3.86,0,0,1,1-.22c8.09,1.56,15.15,5,20.81,11.13a18.92,18.92,0,0,1,4.84,10.26c1.81,11.51-1.64,21.33-9.28,29.89-6.95,7.79-15.52,13.43-24.6,18.39-11.17,6.09-23,10.72-35,14.9-7.94,2.77-16,5.33-23.94,8a10.59,10.59,0,0,0-1.33.7c1.06,1.22,2,2.31,2.93,3.35q14.92,15.93,31.15,30.6a344.1,344.1,0,0,0,32.47,26.3,142.25,142.25,0,0,0,22.07,12.88A40.45,40.45,0,0,0,209,215.05c10-1,19.47-3.35,28-8.81a80.86,80.86,0,0,0,7.25-5.87,8,8,0,0,1,2.45-1.68C246,200.69,245.37,202.72,244.58,204.68Zm-73.78-62.3a52.59,52.59,0,0,0,7.46,15.15c-5.72,6.45-11.17,12.88-12.93,21.47-4.67-1.75-35.77-29.38-38.58-34.29,15-5.23,29.69-11.06,44.12-19.18C169.8,131.55,169.22,137,170.8,142.38Zm107.63-32.12c-1.9,7-6.39,12.31-11.87,16.8a50.84,50.84,0,0,1-29.67,11.73,13.87,13.87,0,0,1-7.84-1.63,23.18,23.18,0,0,1-10.65-12.8,22.48,22.48,0,0,1,2.59.19c6.29,1.38,12.46.49,18.44-1.43a42.51,42.51,0,0,0,20.69-13.9,18.68,18.68,0,0,0,3.86-7c1.3-5.21-.73-8-5.72-7.81a50.43,50.43,0,0,0-11.66,1.82,65.38,65.38,0,0,0-31.1,19.35,30.84,30.84,0,0,0-6.79,11.8c-1.44,4.93-1.09,8.2,3.91,12,4.29,3.27,8.95,6.07,13.52,9,5,3.16,10.2,6,15.05,9.38a37.44,37.44,0,0,1,6.95,6.66c3.15,3.7,3.84,8.15,3.34,12.91-1.12,10.7-6.91,18.32-15.89,23.65-8.05,4.79-17,6.66-26.29,6.62a41.74,41.74,0,0,1-8.07-.52c-9.19-1.93-15.84-7.17-19.12-16.09-2.05-5.56-1.69-11,1.94-16a63.93,63.93,0,0,1,11.86-12.19,22.41,22.41,0,0,1,.32,3,41.62,41.62,0,0,0,4.44,19.9A20.83,20.83,0,0,0,214,197c8.35,2.38,18.54-4.91,20.34-11.21a6.73,6.73,0,0,0-.52-5.66,23,23,0,0,0-7.77-7.94,90.29,90.29,0,0,0-10.34-5.69,95.38,95.38,0,0,1-18.79-11.65,33.51,33.51,0,0,1-9.39-11.9,18.71,18.71,0,0,1-1.21-13.06,54.13,54.13,0,0,1,15.95-27c10.1-9.44,22.05-14.94,35.48-17.82a54.68,54.68,0,0,1,21-.18,28.83,28.83,0,0,1,13.36,5.71C278.59,95.72,280.77,101.57,278.43,110.26Z"/><path class="cls-1" d="M187.61,258.19a56.39,56.39,0,0,1-17.79-2.83,134.53,134.53,0,0,1-13.35-5.53c-7.73-3.54-13.67-8.64-20.36-15.3-11-10.92-21.89-23.13-35.29-39.61-.42-.52-.88-1-1.45-1.59l-3.69-3.9S93.41,197,93.14,198L92,202.28c-1.19,4.42-2.38,8.83-3.37,13.3a16.82,16.82,0,0,0-.05,5.1c.06.65.13,1.3.15,1.94l0,.63.33.55a10.67,10.67,0,0,1,0,11,13.7,13.7,0,0,1-11.7,7,12.34,12.34,0,0,1-1.81-.13c-3.08-.45-6.2-.66-9.31-.87s-6.4-.44-9.56-.93c-7.92-1.27-14.08-4.24-18.8-9.09A25,25,0,0,1,31.05,217c-1.2-7.2-.22-14.45,3.08-22.83,2.11-5.34,4.13-10.71,6.15-16.09s4-10.66,6.1-16C50,153,53.62,144,57.29,134.92L72.68,96.66l-4.51,1.09a9.19,9.19,0,0,0-2.45.67,77.35,77.35,0,0,1-31.11,8.08c-.61,0-1.22,0-1.83,0a31.55,31.55,0,0,1-21.56-7.89,25.92,25.92,0,0,1-8.8-19.27C2.14,71,4.33,62.81,9.13,54.5A13.11,13.11,0,0,1,20.67,48a13.54,13.54,0,0,1,12,6.75c1.52,2.76,3.57,4,6.43,4a10.34,10.34,0,0,0,1.08-.06c6.58-.58,13.49-2.37,21.73-5.61,4.76-1.88,9.5-3.82,14.24-5.75,5.56-2.28,11.12-4.55,16.72-6.72a66,66,0,0,1,23.88-4.49c1.29,0,2.58,0,3.88.11a26.91,26.91,0,0,1,13.28,4.16c6.74,4.41,9.37,10.37,8,18.2a71.84,71.84,0,0,1-2.05,8.11l-1,3.41a14.37,14.37,0,0,1-.5,1.48l-3,8.52,6.32-4.72.85-.58A5.53,5.53,0,0,0,144,73.6l1.85-2.43c2.06-2.69,4.12-5.39,6-8.21A19.83,19.83,0,0,0,154,57.6a10.09,10.09,0,0,0-.36-7.57,11.86,11.86,0,0,1,.58-11.63,13.61,13.61,0,0,1,11.2-6,13.22,13.22,0,0,1,1.66.11,51.33,51.33,0,0,1,29.41,14c6.56,6.26,9.86,13.91,10.1,23.4.06,2,0,4,0,6l-.1,6.81L210.78,81c.7-.26,1.37-.51,2-.82a84,84,0,0,1,33.27-8.62c1.26-.06,2.52-.1,3.77-.1,12.07,0,22.09,3.11,30.63,9.52,10.3,7.73,14.26,18.92,11.15,31.5-2.21,8.87-7.17,16.35-15.64,23.54a61.25,61.25,0,0,1-18.82,11l-4.65,2,1.85,2.44a15.9,15.9,0,0,0,1.7,2.19,29.93,29.93,0,0,1,8.81,16.88,34,34,0,0,1-1.41,15.28,34.83,34.83,0,0,1-1.37,3.87,22.83,22.83,0,0,0-2.09,9.69,16.8,16.8,0,0,1-1.33,5.64,94.75,94.75,0,0,1-11.36,23c-4.48,6.5-10.69,11.22-16.67,15.5a78.13,78.13,0,0,1-27.87,12.84,68.47,68.47,0,0,1-15.15,1.78Zm-94.1-89.62c3.4,4.4,6.68,8.65,10,12.87a561.18,561.18,0,0,0,38.14,44c9.35,9.59,17.65,15.41,26.92,18.88a55.84,55.84,0,0,0,19.66,3.78,48.85,48.85,0,0,0,7.25-.55,63.1,63.1,0,0,0,22.69-8.36,73.84,73.84,0,0,0,16.56-12.7c5.83-6.23,9.16-13.76,12.07-20.92.58-1.42,1-2.87,1.51-4.32l2.22-6.61-4.74,1.79a7.57,7.57,0,0,0-1.21.58,31.23,31.23,0,0,0,9.28-19.54c.64-6.06-.63-10.87-3.9-14.7a39.33,39.33,0,0,0-7.41-7.08c-3.1-2.15-6.35-4.11-9.6-6.06-1.85-1.11-3.71-2.23-5.53-3.38l-2.52-1.58c-3.64-2.29-7.4-4.65-10.83-7.25-4.1-3.13-4.26-5.35-3.06-9.44a28.31,28.31,0,0,1,6.28-10.88,63.2,63.2,0,0,1,30-18.63,47.44,47.44,0,0,1,11.1-1.74h.12c1.31,0,2.48.16,3,.85s.61,2.13.15,4a16.67,16.67,0,0,1-3.42,6.14,40.31,40.31,0,0,1-19.54,13.11,37.36,37.36,0,0,1-11.44,2,27.46,27.46,0,0,1-5.76-.61,11.73,11.73,0,0,0-1.9-.19l-4.75-.31,1.31,3.49a25.6,25.6,0,0,0,11.73,14.06,15.84,15.84,0,0,0,7.84,2c.43,0,.87,0,1.31,0a53.27,53.27,0,0,0,31-12.27c6.84-5.59,10.86-11.31,12.67-18,2.53-9.4.34-16.24-7.1-22.18a31.24,31.24,0,0,0-14.46-6.2,62.57,62.57,0,0,0-10.78-1,52.88,52.88,0,0,0-11.15,1.17c-14.76,3.16-26.73,9.18-36.6,18.41A56.87,56.87,0,0,0,184,129.27,21.26,21.26,0,0,0,185.38,144a35.56,35.56,0,0,0,10.06,12.73c.68.55,1.37,1.09,2.08,1.62l-3.12,2.54a66.59,66.59,0,0,0-12.29,12.65c-3.94,5.44-4.7,11.58-2.26,18.24,3.51,9.51,10.53,15.43,20.89,17.61a38.85,38.85,0,0,0,7.86.57h1c10.47,0,19.38-2.27,27.24-6.95,1-.57,1.87-1.16,2.74-1.77a34.81,34.81,0,0,1-3.92,3c-7.21,4.63-15.77,7.31-26.91,8.44a40.65,40.65,0,0,1-4.1.21,38,38,0,0,1-16.21-3.63,138.9,138.9,0,0,1-21.69-12.66,337.41,337.41,0,0,1-32.24-26.12c-10.59-9.56-21-19.8-31-30.46l-.69-.76,6.62-2.2c5.16-1.7,10.33-3.4,15.46-5.19,9.93-3.46,22.93-8.3,35.31-15.06,7.62-4.16,17.37-10.06,25.25-18.9,8.39-9.39,11.7-20.11,9.86-31.86a21.2,21.2,0,0,0-5.45-11.51c-5.77-6.21-13-10.09-22.12-11.85h-.35l-1.37.15-2.25.67.17,2.38.49,1.7a31.8,31.8,0,0,1,.84,3.18c1.09,5.94-.26,11.79-4.11,17.89C155.88,77,148.86,84.73,139,92.93c-9.43,7.85-20,14.47-30.35,20.84l2-4.54c2.27-5.18,4.55-10.36,6.74-15.58,4-9.51,7.91-19.06,11.65-28.66a39.11,39.11,0,0,0,1.83-7.25l.31-1.64a6.94,6.94,0,0,0-3.87-7.74,12.27,12.27,0,0,0-4.72-1.65l-2.12-.16c-1.84-.14-3.69-.28-5.52-.28a26.05,26.05,0,0,0-4.06.29A77.48,77.48,0,0,0,96,50.49c-5.54,2.07-11,4.32-16.49,6.57-3.87,1.59-7.73,3.18-11.63,4.7-8.46,3.31-18.36,6.87-28.72,7.12h0c-7.6,0-12.44-2.67-15.47-8.18l-.22-.4-.89-.85-2.44-2-1.73,2.51c-2.72,6.14-5,11.77-4.93,18.47.06,12.1,9.15,17.81,17.57,18h1.53a54.43,54.43,0,0,0,20.24-3.58c9.92-4,17.65-8.18,24.34-13.22A129,129,0,0,1,93,69.84a24.17,24.17,0,0,1,3-1.36l-17.4,43Q72,127.68,65.44,143.93,57.81,163,50.36,182.24c-2.67,6.91-5.2,13.87-7.67,20.87a25.05,25.05,0,0,0-.55,14c1.17,5.28,4.78,9.21,10.42,11.37,5.31,2,10.86,2.58,15.64,2.95,1.84.14,3.7.18,5.65.23l5.92.16-1.24-4.88c-.28-1-.52-1.93-.71-2.87-.88-4.45-.55-9.18,1.05-14.87C81,201.5,83,193.78,85,186.06q1.59-6.28,3.23-12.55c.73-2.77,1.55-5.51,2.4-8.35l.08-.26Zm76.18-45.12c-15.46,8.69-30.78,14.49-43.72,19l-2.73,1,1.43,2.5c3.06,5.34,34.69,33.41,39.82,35.35l2.63,1,.56-2.76c1.58-7.73,6.33-13.55,12.37-20.36l1.25-1.4-1.06-1.54a50.17,50.17,0,0,1-7.14-14.47c-1.39-4.7-1-9.51.13-15.76l.88-5ZM217.42,195a10.26,10.26,0,0,1-2.75-.37,18.45,18.45,0,0,1-11.85-10.14,39.29,39.29,0,0,1-4.19-18.77,13,13,0,0,0-.19-2.21l-.59-5a99.15,99.15,0,0,0,16.84,10.08,89.92,89.92,0,0,1,10.07,5.54,20.53,20.53,0,0,1,7,7.12,4.37,4.37,0,0,1,.31,3.79C230.77,189.56,223.77,195,217.42,195Z"/><path class="cls-2" d="M278.43,110.26c-1.9,7-6.39,12.31-11.87,16.8a50.84,50.84,0,0,1-29.67,11.73,13.87,13.87,0,0,1-7.84-1.63,23.18,23.18,0,0,1-10.65-12.8,22.48,22.48,0,0,1,2.59.19c6.29,1.38,12.46.49,18.44-1.43a42.51,42.51,0,0,0,20.69-13.9,18.68,18.68,0,0,0,3.86-7c1.3-5.21-.73-8-5.72-7.81a50.43,50.43,0,0,0-11.66,1.82,65.38,65.38,0,0,0-31.1,19.35,30.84,30.84,0,0,0-6.79,11.8c-1.44,4.93-1.09,8.2,3.91,12,4.29,3.27,8.95,6.07,13.52,9,5,3.16,10.2,6,15.05,9.38a37.44,37.44,0,0,1,6.95,6.66c3.15,3.7,3.84,8.15,3.34,12.91-1.12,10.7-6.91,18.32-15.89,23.65-8.05,4.79-17,6.66-26.29,6.62a41.74,41.74,0,0,1-8.07-.52c-9.19-1.93-15.84-7.17-19.12-16.09-2.05-5.56-1.69-11,1.94-16a63.93,63.93,0,0,1,11.86-12.19,22.41,22.41,0,0,1,.32,3,41.62,41.62,0,0,0,4.44,19.9A20.83,20.83,0,0,0,214,197c8.35,2.38,18.54-4.91,20.34-11.21a6.73,6.73,0,0,0-.52-5.66,23,23,0,0,0-7.77-7.94,90.29,90.29,0,0,0-10.34-5.69,95.38,95.38,0,0,1-18.79-11.65,33.51,33.51,0,0,1-9.39-11.9,18.71,18.71,0,0,1-1.21-13.06,54.13,54.13,0,0,1,15.95-27c10.1-9.44,22.05-14.94,35.48-17.82a54.68,54.68,0,0,1,21-.18,28.83,28.83,0,0,1,13.36,5.71C278.59,95.72,280.77,101.57,278.43,110.26Z"/><path class="cls-2" d="M246.64,198.69c-.68,2-1.27,4-2.06,6-2.94,7.25-6.17,14.39-11.59,20.18a71.89,71.89,0,0,1-16.05,12.29,60.25,60.25,0,0,1-21.82,8c-8.83,1.35-17.33,0-25.71-3.11-10.31-3.85-18.49-10.55-26-18.31a559,559,0,0,1-38-43.82c-5.14-6.53-10.18-13.14-15.68-20.23-1.34,4.6-2.68,8.85-3.83,13.17-3.12,11.87-6,23.8-9.32,35.61-1.5,5.34-2.16,10.57-1.09,16,.3,1.48.74,2.94,1.2,4.78-3-.1-5.64-.08-8.28-.29-5.08-.39-10.16-1-15-2.8-4.54-1.73-7.86-4.8-8.94-9.66A22.62,22.62,0,0,1,45,203.91c2.45-7,5-13.91,7.64-20.81Q60,163.92,67.67,144.82c6.41-16,12.94-32,19.41-48,3.67-9,7.36-18.08,11-27.14.48-1.2.71-2.49,1.22-4.28a15.18,15.18,0,0,0-2.88.37,31.42,31.42,0,0,0-4.57,2,132,132,0,0,0-16.15,10A102.79,102.79,0,0,1,51.9,90.6,52.74,52.74,0,0,1,31.07,94c-7.29-.16-15.17-4.91-15.23-15.61,0-6.28,2.18-11.73,4.73-17.49.46.44.82.64,1,1,3.85,7,10.1,9.61,17.66,9.43,10.35-.26,20-3.57,29.54-7.29s18.63-7.72,28.07-11.25a76,76,0,0,1,14.43-3.82c3.63-.55,7.44-.06,11.16.18a10.19,10.19,0,0,1,3.77,1.38,4.58,4.58,0,0,1,2.65,5.16,49.07,49.07,0,0,1-2,8.47c-3.73,9.6-7.64,19.12-11.63,28.61-3.26,7.77-6.71,15.45-10.06,23.18-.41.94-.75,1.92-1.31,3.39,1-.49,1.65-.72,2.2-1.06,11.85-7.33,23.8-14.51,34.55-23.46,8.68-7.24,16.55-15.22,22.58-24.84,3.78-6,5.75-12.45,4.45-19.6-.32-1.69-.9-3.34-1.38-5.08a3.86,3.86,0,0,1,1-.22c8.09,1.56,15.15,5,20.81,11.13a18.92,18.92,0,0,1,4.84,10.26c1.81,11.51-1.64,21.33-9.28,29.89-6.95,7.79-15.52,13.43-24.6,18.39-11.17,6.09-23,10.72-35,14.9-7.94,2.77-16,5.33-23.94,8a10.59,10.59,0,0,0-1.33.7c1.06,1.22,2,2.31,2.93,3.35q14.92,15.93,31.15,30.6a344.1,344.1,0,0,0,32.47,26.3,142.25,142.25,0,0,0,22.07,12.88A40.45,40.45,0,0,0,209,215.05c10-1,19.47-3.35,28-8.81a80.86,80.86,0,0,0,7.25-5.87A8,8,0,0,1,246.64,198.69Z"/><path class="cls-3" d="M257,40.2A6.44,6.44,0,0,0,255,36.88C226.66,13.1,205.44,1.5,157.51.13,155,.06,152.39,0,149.72,0h-.56c-3.83,0-7.62.18-11.41.45l-.53,0H137q-4.49.35-8.94.93h0c-1.49.31-3.26.56-5.31.79h0c-2,.34-4.11.72-6.16,1.14C112.82,4.13,109.11,5,105.43,6l-.12,0q-7.94,2.22-15.76,5.28a.85.85,0,0,1-.11-.14c-1.71.72-3.39,1.47-5,2.23,0,0-.07,0-.09,0-1.79.9-3.59,1.76-5.47,2.65l0,0c-4.48,2.27-8.74,4.67-12.7,7.09h0l-1.15.7-.05,0c-2.91,1.8-5.67,3.6-8.24,5.36-2.07,1.41-4,2.8-5.85,4.12a0,0,0,0,1,0,0c-1.18.92-2.37,1.85-3.48,2.86l-.14-.16c-1.69,1.3-3.24,2.51-4.6,3.62l-.11.09a5.51,5.51,0,0,1-.59.83A9.29,9.29,0,0,1,40.52,42c-1.68,1.31-3.39,2.59-5.28,4l-.05,0L39.62,52c2.45-.47,5-.77,7.52-1.46a130.49,130.49,0,0,0,19.11-6.62c7.68-3.46,15.55-6.46,23.42-9.46A97.29,97.29,0,0,1,100.48,31c9.3-2.31,18.78-2.86,28.54-.23a36.37,36.37,0,0,1,4.42,1.48,26.53,26.53,0,0,1,10.73,7.83,16.69,16.69,0,0,0,1.26,1.23,21.26,21.26,0,0,1,4.08-8.44,20.54,20.54,0,0,1,17-7.3A46.58,46.58,0,0,1,176,27.11a54,54,0,0,1,16.5,7.39,72.46,72.46,0,0,1,10.78,8.81,31,31,0,0,1,3.56,4.34,2.82,2.82,0,0,0,2.86,1.4c7.56-.72,15.12-1.39,22.68-2.08.72-.06,1.45-.09,2.18-.16,6.32-.55,12.64-1,19-1.7A3.91,3.91,0,0,0,257,40.2Zm-53-13.63a2.15,2.15,0,0,1-.85-1h0a2.28,2.28,0,0,1-.57-2.12c.46-1.51,2.9-2.1,5.44-1.31,2.07.63,3.58,2,3.82,3.28a4.15,4.15,0,0,1,.89,1.91A8.41,8.41,0,0,1,204.07,26.57Zm10.21-8.31a1.17,1.17,0,0,1,0,.41,2,2,0,0,1-1.36,1.27h0a4.37,4.37,0,0,1-1.28.32A7.54,7.54,0,0,1,206.78,19a2.13,2.13,0,0,1-1.62-1.72h0a2,2,0,0,1-.17-1.49c.46-1.5,2.9-2.09,5.45-1.31C212.76,15.22,214.38,16.83,214.28,18.26Zm15,9.33c-.46,1.5-2.91,2.09-5.45,1.31-2.17-.66-3.72-2.12-3.84-3.46a7.12,7.12,0,0,1-.48-.64,4.84,4.84,0,0,0,.61-.22h0c.59-1.37,2.94-1.89,5.38-1.14S229.72,26.08,229.26,27.59Z"/><path class="cls-3" d="M244.76,266c-9.32.9-18.63,1.82-27.95,2.67-6,.55-12,1-18,1.47-7.25.6-14.5,1.24-21.76,1.85-6.11.51-12.22,1-18.34,1.5l-26.42,2.27c-6.42.54-12.85,1-19.27,1.58-7.26.61-14.5,1.4-21.77,1.78-4.85.26-9.71.69-14.61-.28a44.69,44.69,0,0,1-16.72-7.34c-3.42-2.35-6.79-4.77-10.13-7.23-2-1.48-4-3.05-5.84-4.67a4.22,4.22,0,0,1-1.62-4.69,4.49,4.49,0,0,1,3.87-3.19c2.37-.37,4.76-.53,7.15-.71,2.17-.17,4.36-.18,6.53-.37,12-1.07,24-2.2,36.07-3.28q11.66-1,23.32-2c4.66-.39,9.33-.71,14-1.1a5.55,5.55,0,0,1,4.58,1.43c6.87,6.41,15,10.73,23.66,14.17,8.3,3.3,16.87,5.43,25.82,5.22a82,82,0,0,0,24.87-4,93.63,93.63,0,0,0,26.91-14.83,72.79,72.79,0,0,0,11.51-10.47,4.77,4.77,0,0,1,3-1.42c6.31-.62,12.63-1.06,19-1.59,2.28-.19,4.56-.55,6.84-.64a7.2,7.2,0,0,1,3.28.63,4.33,4.33,0,0,1,1.58,6.61c-2.59,3-5.09,6.05-7.81,8.91s-5.76,5.69-8.72,8.45a31.45,31.45,0,0,1-15.83,8.2c-2.34.44-4.66,1-7,1.51ZM67.66,252.81l-.28.93c.75.65,1.46,1.35,2.25,1.95,5.46,4.13,11,8.23,16.42,12.35,3.33,2.51,4.67,2.38,8-.16,3.6-2.77,7.37-5.33,11.06-8,4.13-3,8.28-5.92,12.38-8.92.68-.5,1.72-1,1.11-2.54C101.65,249.84,84.63,251,67.66,252.81Z"/></g></g></svg>