<?xml version="1.0" encoding="utf-8"?>
<!-- Generator: Adobe Illustrator 26.0.1, SVG Export Plug-In . SVG Version: 6.00 Build 0)  -->
<svg version="1.1" id="Capa_1" xmlns="http://www.w3.org/2000/svg" xmlns:xlink="http://www.w3.org/1999/xlink" x="0px" y="0px"
	 viewBox="0 0 299.8 218.5" style="enable-background:new 0 0 299.8 218.5;" xml:space="preserve">
<style type="text/css">
	.st0{opacity:5.000000e-02;}
	.st1{fill:#FFFFFF;}
	.st2{fill:#DA0C31;}
</style>
<g id="Capa_2_00000120538174942867696020000017260120263748351621_" class="st0">
	<g id="Capa_1-2">
		<path class="st1" d="M190.5,15.9l0.6-0.5C190.9,15.5,190.7,15.6,190.5,15.9z"/>
		<path class="st1" d="M191.1,15.3l-0.6,0.5C190.7,15.6,190.9,15.5,191.1,15.3z"/>
		<path class="st1" d="M191.1,15.3l-0.6,0.5C190.7,15.6,190.9,15.5,191.1,15.3z"/>
		<path class="st1" d="M143.7,0.5L143.7,0.5h-0.1H143.7z"/>
		<path class="st1" d="M111.9,113.1c-0.3,1-0.6,1.8-0.8,2.6c-0.9,3.4-1.9,6.8-2.6,10.2c-0.1,1.2-0.1,2.5,0.1,3.8
			c3.7,6-2.3,13.6-9.3,12.6c-3.7-0.5-7.4-0.5-11-1.1c-4.4-0.6-8.6-2.6-11.7-5.7c-2.3-2.4-3.9-5.5-4.4-8.8c-0.7-4.7,0-9.6,1.9-14
			c2.4-6.2,4.7-12.5,7.1-18.7c3.1-7.8,6.3-15.6,9.4-23.4c1.6-4,3.2-8,4.9-12.2c-0.4,0.1-0.8,0.2-1.1,0.3c-5.8,2.9-12.2,4.6-18.7,4.8
			c-5.3,0.4-10.6-1.4-14.6-4.9c-3.5-3.1-5.6-7.6-5.6-12.3c-0.1-5.4,1.3-10.7,4.1-15.2c3.6-6.2,12.9-5.8,16.1,0.2
			c0.5,1.2,1.7,1.8,3,1.6c4.2-0.5,8.4-1.5,12.3-3.2c6-2.4,12-4.9,18-7.3c5.3-2.1,11.1-3,16.8-2.6c3,0.1,5.9,1,8.4,2.6
			c4.4,2.9,6.2,6.9,5.3,12c-0.4,2.3-1.2,4.6-1.8,6.8c-0.1,0.4-0.3,0.8-0.6,1.6c0.4-0.2,0.7-0.5,1-0.8c1.5-2,3.1-4,4.5-6.1
			c0.6-1,1.1-2.1,1.3-3.2c0.3-1,0.2-2.1-0.3-3c-3.2-7,3.1-13,9.3-12.2c6.8,0.8,13.1,3.8,18,8.5c4,3.8,6.3,9.1,6.3,14.6
			c0,1.7,0,3.5-0.1,5.5c0.6-0.2,1.1-0.4,1.6-0.7c6.2-3.1,13-4.8,19.9-5.2c7.6-0.4,14.8,1.1,20.9,5.8c6.3,4.4,9.1,12.4,7,19.8
			c-1.5,6-5,10.6-9.6,14.4c-3.4,2.9-7.2,5.1-11.4,6.7c-0.3,0.1-0.6,0.2-1,0.4c0.3,0.4,0.5,0.8,0.9,1.1c3,2.8,4.9,6.6,5.5,10.6
			c0.4,3.2,0.1,6.5-0.9,9.5c-0.2,0.8-0.5,1.6-0.8,2.4c-0.7,1.6-1.1,3.3-1.1,5.1c-0.1,1.5-0.4,2.9-1,4.2c-1.6,4.7-3.8,9.2-6.6,13.3
			c-2.7,3.9-6.3,6.7-10,9.4c-5,3.7-10.7,6.3-16.7,7.7c-6.6,1.6-13.5,1.4-20-0.6c-2.8-1-5.5-2.1-8.2-3.4c-4.6-2.1-8.4-5.5-12-9.1
			c-7.3-7.4-14.2-15.1-20.7-23.2C112.8,114,112.4,113.7,111.9,113.1z M107.8,93.1c3.2,4.1,6.1,8,9.1,11.8
			c6.9,8.9,14.3,17.4,22.1,25.5c4.4,4.5,9.2,8.4,15.2,10.7c4.8,1.9,9.9,2.5,15,1.8c4.5-0.7,8.8-2.3,12.7-4.7
			c3.4-1.9,6.6-4.4,9.4-7.2c3.2-3.4,5-7.5,6.8-11.8c0.5-1.1,0.8-2.3,1.2-3.5c-0.5,0.2-1,0.6-1.4,1c-1.3,1.2-2.7,2.4-4.2,3.4
			c-4.9,3.2-10.5,4.6-16.3,5.1c-4.3,0.5-8.6-0.3-12.6-2.1c-4.5-2.1-8.8-4.6-12.9-7.5c-6.6-4.7-12.9-9.8-18.9-15.3
			c-6.3-5.7-12.4-11.6-18.2-17.8c-0.6-0.6-1.1-1.2-1.7-2c0.2-0.2,0.5-0.3,0.8-0.4c4.7-1.6,9.3-3,14-4.7c7-2.3,13.8-5.2,20.4-8.7
			c5.3-2.9,10.3-6.2,14.3-10.7c4.4-5,6.4-10.7,5.4-17.4c-0.3-2.2-1.3-4.3-2.8-6c-3.2-3.4-7.5-5.7-12.1-6.5c-0.2,0-0.4,0-0.6,0.1
			c0.3,1,0.6,2,0.8,3c0.6,4-0.3,8.1-2.6,11.4c-3.6,5.5-8,10.4-13.2,14.5c-6.3,5.2-13.2,9.4-20.1,13.7c-0.4,0.2-0.8,0.4-1.3,0.6
			c0.3-0.9,0.5-1.4,0.8-2c2-4.5,4-9,5.9-13.5c2.3-5.5,4.6-11.1,6.8-16.7c0.5-1.6,0.9-3.3,1.2-4.9c0.3-1.2-0.4-2.5-1.5-3
			c-0.7-0.4-1.4-0.7-2.2-0.8c-2.2-0.3-4.3-0.3-6.5-0.1c-2.9,0.5-5.7,1.2-8.4,2.2c-5.5,2-10.9,4.4-16.4,6.5s-11.2,4.1-17.2,4.2
			c-4.4,0.1-8-1.4-10.3-5.5c-0.2-0.2-0.4-0.4-0.6-0.5c-1.5,3.4-2.8,6.5-2.8,10.2c0,6.2,4.6,9,8.9,9.1c4.1,0.2,8.3-0.5,12.1-2
			c4.9-1.9,9.6-4.4,13.8-7.5c3-2.1,6.1-4.1,9.4-5.8c0.9-0.4,1.8-0.8,2.7-1.2c0.5-0.1,1.1-0.2,1.7-0.2c-0.3,1-0.4,1.8-0.7,2.5
			c-2.1,5.3-4.3,10.5-6.4,15.8c-3.8,9.3-7.6,18.6-11.3,28c-3,7.4-5.9,14.9-8.8,22.3c-1.6,4-3,8.1-4.4,12.1c-0.8,2.4-0.9,4.9-0.3,7.4
			c0.6,2.7,2.6,4.8,5.2,5.6c2.8,1,5.7,1.5,8.7,1.6c1.5,0.1,3.1,0.1,4.8,0.2c-0.3-1.1-0.5-1.9-0.7-2.8c-0.5-3.1-0.3-6.3,0.6-9.3
			c1.9-6.9,3.6-13.8,5.4-20.8C106.2,98.2,107,95.7,107.8,93.1L107.8,93.1z M182.8,72.5c1.1,3.2,3.3,5.8,6.2,7.4
			c1.4,0.8,3,1.1,4.6,0.9c6.3-0.4,12.4-2.8,17.2-6.9c3.2-2.6,5.8-5.7,6.9-9.8c1.4-5.1,0.1-8.5-3.7-11.5c-2.3-1.8-4.9-2.9-7.8-3.3
			c-4.1-0.8-8.2-0.7-12.2,0.1c-7.7,1.5-14.9,5.1-20.7,10.4c-4.6,4.2-7.8,9.7-9.3,15.7c-0.7,2.5-0.4,5.2,0.7,7.6
			c1.3,2.7,3.1,5.1,5.5,6.9c3.4,2.7,7,5,10.9,6.8c2.1,1,4.1,2.1,6,3.3c1.9,1.1,3.4,2.7,4.5,4.6c0.6,1,0.7,2.2,0.3,3.3
			c-1,3.7-7,7.9-11.9,6.5c-3.4-1-6.3-3.4-7.8-6.6c-1.8-3.6-2.7-7.6-2.6-11.6c0-0.6-0.1-1.2-0.2-1.7c-2.6,2-4.9,4.4-6.9,7.1
			c-2,2.7-2.4,6.2-1.1,9.3c1.9,5.2,5.8,8.3,11.1,9.4c1.6,0.3,3.1,0.4,4.7,0.3c5.4,0.2,10.7-1.2,15.3-3.8c5.2-3.1,8.6-7.6,9.2-13.8
			c0.5-2.7-0.3-5.4-1.9-7.5c-1.2-1.5-2.5-2.8-4-3.9c-2.8-2-5.9-3.6-8.8-5.5c-2.7-1.7-5.4-3.3-7.9-5.2c-2.9-2.2-3.1-4.1-2.3-7
			c0.8-2.6,2.2-4.9,4-6.9c4.8-5.4,11.1-9.4,18.1-11.3c2.2-0.6,4.5-0.9,6.8-1c2.9-0.1,4.1,1.5,3.3,4.5c-0.5,1.5-1.3,2.9-2.3,4.1
			c-3.1,3.8-7.3,6.7-12,8.1c-3.4,1.2-7.2,1.5-10.8,0.8C183.7,72.5,183.2,72.5,182.8,72.5L182.8,72.5z M159.4,91.8
			c-1.9-2.7-3.4-5.6-4.4-8.8c-0.9-3.1-0.6-6.3,0.1-9.8c-8.2,4.5-16.8,8.2-25.7,11.2c1.6,2.9,19.8,19,22.5,20
			C152.9,99.3,156,95.5,159.4,91.8z"/>
		<path class="st1" d="M205.2,23.4c-0.2-0.8-0.6-1.4-1.2-1.9C187.6,7.6,175.2,0.9,147.3,0.1c-1.5,0-3-0.1-4.5-0.1h-0.3
			c-2.2,0-4.4,0.1-6.6,0.3h-0.3h-0.1c-1.7,0.1-3.5,0.3-5.2,0.5l0,0c-0.9,0.2-1.9,0.3-3.1,0.5l0,0c-1.2,0.2-2.4,0.4-3.6,0.7
			c-2.2,0.4-4.3,1-6.5,1.6h-0.1c-3.1,0.9-6.2,1.9-9.2,3.1l-0.1-0.1c-1,0.4-2,0.9-2.9,1.3l0,0c-1,0.5-2.1,1-3.2,1.5l0,0
			c-2.6,1.3-5.1,2.7-7.4,4.1l0,0l-0.7,0.4l0,0c-1.7,1-3.3,2.1-4.8,3.1c-1.2,0.8-2.3,1.6-3.4,2.4l0,0c-0.7,0.5-1.4,1.1-2,1.7
			l-0.1-0.1c-1,0.8-1.9,1.5-2.7,2.1h-0.1c-0.1,0.2-0.2,0.3-0.3,0.5c-0.2,0.3-0.5,0.5-0.8,0.8c-1,0.8-2,1.5-3.1,2.4l0,0l2.6,3.4
			c1.2-0.1,2.7-0.2,4.2-0.6c3.8-1,7.5-2.3,11.1-3.9c4.5-2,9.1-3.8,13.6-5.5c2.1-0.8,4.2-1.5,6.3-2c5.4-1.5,11.2-1.5,16.6-0.1
			c0.9,0.2,1.7,0.5,2.6,0.9c2.4,1,4.6,2.5,6.2,4.6c0.2,0.3,0.5,0.5,0.7,0.7c0.4-1.8,1.2-3.5,2.4-4.9c2.4-2.9,6.1-4.5,9.9-4.3
			c1.9,0.1,3.7,0.4,5.6,0.9c3.4,0.9,6.7,2.3,9.6,4.3c2.3,1.5,4.4,3.2,6.3,5.1c0.8,0.8,1.4,1.6,2.1,2.5c0.3,0.6,1,0.9,1.7,0.8
			c4.4-0.4,8.8-0.8,13.2-1.2l1.3-0.1c3.7-0.3,7.4-0.6,11-1c1.3-0.1,2.2-1.1,2.2-2.4C205.3,23.7,205.3,23.6,205.2,23.4z M174.4,15.5
			c-0.2-0.1-0.4-0.3-0.5-0.6l0,0c-0.3-0.3-0.4-0.8-0.3-1.2c0.3-0.9,1.7-1.2,3.2-0.8c1,0.2,1.9,0.9,2.3,1.9c0.3,0.3,0.4,0.7,0.5,1.1
			C177.9,16.8,175.9,16.6,174.4,15.5z M180.4,10.6c0,0.1,0,0.2,0,0.2c-0.1,0.4-0.4,0.6-0.8,0.7l0,0c-0.2,0.1-0.5,0.2-0.7,0.2
			c-0.6,0.1-1.1,0-1.7-0.2c-0.4-0.1-0.8-0.3-1.1-0.5c-0.5-0.2-0.9-0.5-0.9-1l0,0c-0.2-0.3-0.2-0.6-0.1-0.9c0.3-0.9,1.7-1.2,3.2-0.8
			C179.6,8.9,180.4,9.8,180.4,10.6L180.4,10.6z M189.1,16.1c-0.3,0.9-1.7,1.2-3.2,0.8c-1.3-0.4-2.2-1.2-2.2-2
			c-0.1-0.1-0.2-0.2-0.3-0.4c0.1,0,0.2-0.1,0.4-0.1l0,0c0.3-0.8,1.7-1.1,3.1-0.7S189.3,15.2,189.1,16.1L189.1,16.1z"/>
		<path class="st1" d="M198.1,155c-5.4,0.5-10.9,1.1-16.3,1.6c-3.5,0.3-7,0.6-10.5,0.9l-12.7,1.1c-3.6,0.3-7.1,0.6-10.7,0.9
			l-15.4,1.3l-11.2,0.9c-4.2,0.4-8.4,0.8-12.7,1c-2.8,0.3-5.7,0.2-8.5-0.2c-3.5-0.7-6.8-2.2-9.8-4.3c-2-1.4-3.9-2.8-5.9-4.2
			c-1.2-0.9-2.3-1.8-3.4-2.7c-0.9-0.6-1.3-1.7-0.9-2.7c0.3-1,1.2-1.8,2.2-1.9c1.4-0.2,2.8-0.3,4.2-0.4s2.5-0.1,3.8-0.2
			c7-0.6,14-1.3,21-1.9c4.5-0.4,9-0.8,13.6-1.2c2.7-0.2,5.4-0.4,8.1-0.6c1-0.1,2,0.2,2.7,0.8c4,3.6,8.7,6.4,13.8,8.3
			c4.7,2,9.8,3,15,3c4.9,0,9.8-0.8,14.5-2.4c5.7-2,11-4.9,15.7-8.6c2.4-1.8,4.7-3.8,6.7-6.1c0.5-0.5,1.1-0.8,1.7-0.8
			c3.7-0.4,7.4-0.6,11-0.9c1.3-0.1,2.7-0.3,4-0.4c0.7,0,1.3,0.1,1.9,0.4c1.3,0.6,1.8,2.1,1.2,3.3c-0.1,0.2-0.2,0.3-0.3,0.5
			c-1.5,1.7-3,3.5-4.6,5.2s-3.4,3.3-5.1,4.9c-2.6,2.4-5.8,4.1-9.2,4.8c-1.4,0.2-2.7,0.6-4.1,0.9L198.1,155z M94.9,147.3l-0.2,0.5
			c0.4,0.4,0.8,0.8,1.3,1.1l9.6,7.2c1.9,1.5,2.7,1.4,4.6-0.1c2.1-1.6,4.3-3.1,6.4-4.6c2.4-1.7,4.8-3.4,7.2-5.2
			c0.4-0.3,1-0.6,0.6-1.5C114.7,145.6,104.8,146.2,94.9,147.3z"/>
		<path class="st1" d="M112.7,148.1c0.8-0.1,1.6,0.4,1.7,1.2c0.1,0.8-0.5,1.4-1.2,1.5c-0.7,0.1-1.4-0.4-1.6-1.1
			C111.4,148.9,111.9,148.2,112.7,148.1z"/>
		<path class="st1" d="M107.8,152.1c0.8-0.1,1.6,0.4,1.7,1.2c0.1,0.8-0.5,1.4-1.2,1.5c-0.7,0-1.4-0.4-1.6-1.2
			C106.5,152.9,107,152.2,107.8,152.1z"/>
		<path class="st1" d="M103.4,151.4c-0.7,0.1-1.4-0.4-1.4-0.9c0-0.6,0.4-1,0.9-1.1c0,0,0.1,0,0.1,0c0.5-0.1,1.1,0.2,1.2,0.8
			c0,0,0,0,0,0.1C104.2,150.7,103.9,151.3,103.4,151.4C103.4,151.4,103.4,151.4,103.4,151.4z"/>
		<path class="st1" d="M76,26.8c0.2-0.2,1.8-1.6,4.2-3.6c-0.1,0.2-0.2,0.3-0.3,0.5c-0.2,0.3-0.5,0.5-0.8,0.8
			C78.1,25.2,77.1,26,76,26.8z"/>
		<path class="st1" d="M48.9,114.2l-44.7,6.2l-0.6-4.8l44.1-6.3C48,110.9,48.4,112.5,48.9,114.2z"/>
		<path class="st1" d="M293.2,80.4L245.8,87c0-2-0.1-4.1-0.2-6.1l46.8-6.7C292.7,76.7,292.9,78.3,293.2,80.4z"/>
		<path class="st1" d="M51.5,122.4l-46.4,6l-0.6-4.8l45.3-6.1C50.3,119.1,50.9,120.8,51.5,122.4z"/>
		<path class="st1" d="M294.6,90.8l-49.2,6.4c0.2-2,0.3-4.1,0.4-6.1l48-6.5C294.1,87,294.4,88.7,294.6,90.8z"/>
		<path class="st1" d="M45.5,83.8c-0.1,1.7-0.1,3.4-0.1,5.1L1.2,96.1l-0.6-4.8L45.5,83.8z"/>
		<path class="st1" d="M289,49.7c-5.7,0.8-11.2,1.4-16.7,2.3L241,57c-0.6-2-1.3-3.9-2.1-5.8l49.2-8.3C288.5,45.3,288.7,47,289,49.7z
			"/>
		<path class="st1" d="M47,106.1c-14.3,2.1-29,4.2-43.8,6.4l-0.6-5.3l43.6-6.6C46.4,102.5,46.7,104.4,47,106.1z"/>
		<path class="st1" d="M291.8,69.5c-1.1,0.4-18.2,3-46.6,7.3c-0.2-2-0.5-3.9-0.8-5.8c28.7-4.2,45.9-6.6,46.7-6.5
			C291.3,66.2,291.5,67.9,291.8,69.5z"/>
		<path class="st1" d="M54.8,130.5l-48.8,5.9l-0.6-4.8l47.2-6C53.4,127.3,54.1,128.9,54.8,130.5z"/>
		<path class="st1" d="M296,101.2l-52.1,6.3c0.4-2,0.8-4.1,1-6.2l50.2-6.4C295.5,97.5,295.7,99.2,296,101.2z"/>
		<path class="st1" d="M45.7,95.8c0,0.6,0.1,1.2,0.2,1.8l-43.6,6.8l-0.6-4.9l43.8-7C45.5,93.5,45.6,94.7,45.7,95.8z"/>
		<path class="st1" d="M290.5,60c-6.6,0.9-13.1,1.7-19.5,2.7l-27.4,4.2c-0.4-2-0.9-4-1.5-6l47.5-7.6C289.9,55.7,290.1,57.3,290.5,60
			z"/>
		<path class="st1" d="M46.2,75.1c-0.2,1.7-0.4,3.5-0.5,5.2L0.3,88.2L0,85.8c-0.2-1.4,0.8-2.8,2.2-3L46.2,75.1z"/>
		<path class="st1" d="M287.6,38.5c-1,0.3-1.7,0.5-2.3,0.6l-48,8.3c-0.8-1.9-1.7-3.8-2.7-5.6l48.7-8.6c1.9-0.3,3.7,1,4,2.8
			c0,0,0,0.1,0,0.1C287.4,36.9,287.5,37.7,287.6,38.5z"/>
		<path class="st1" d="M70.8,154.6l-60.2,5.8c-0.9,0.1-1.7-0.5-1.8-1.4l-0.4-3.3l58.4-5.9C68,151.5,69.4,153.1,70.8,154.6z"/>
		<path class="st1" d="M299.8,129.2c0.2,1.7-1,3.3-2.6,3.5c-0.4,0-0.8,0.1-1.2,0.1c-21.4,2.1-42.8,4.2-64.2,6.2
			c1.2-2.1,2.4-4.2,3.5-6.4l64.1-6.5C299.5,127.3,299.7,128.3,299.8,129.2z"/>
		<path class="st1" d="M64.4,146.6L8,152.5l-0.6-4.8l53.7-5.9C62.1,143.4,63.2,145.1,64.4,146.6z"/>
		<path class="st1" d="M298.9,121.3c-7.8,1.1-15.1,2.2-22.5,3c-13,1.4-26.1,2.8-39.1,4.2c0.9-2.1,1.8-4.2,2.5-6.3l58.3-6.4
			C298.4,118,298.7,119.7,298.9,121.3z"/>
		<path class="st1" d="M59.1,138.6L7,144.5l-0.6-4.8l7.4-0.9l42.6-5C57.3,135.4,58.2,137,59.1,138.6z"/>
		<path class="st1" d="M297.5,111.4c-3.5,0.5-6.5,1-9.6,1.3l-46.7,5.2c0.7-2.1,1.2-4.1,1.7-6.2l49.6-5.9c1.3-0.2,2.6-0.2,4.1-0.3
			C296.9,107.6,297.2,109.4,297.5,111.4z"/>
		<path class="st1" d="M56,39.8L56,39.8L56,39.8z"/>
		<path class="st1" d="M245.7,154.6c2.4-0.2,4.5,1.5,4.7,3.9c0.1,1-0.1,1.9-0.7,2.7c-35.6,57-110.6,74.3-167.6,38.7
			c-9.5-5.9-18.1-13.1-25.6-21.4c-1.6-1.8-1.4-4.5,0.3-6.1c0.7-0.6,1.6-1,2.5-1.1l15.8-1.4c1.2-0.1,2.4,0.3,3.3,1.1
			c41,37.6,104.7,34.8,142.3-6.2c2.1-2.3,4.1-4.7,6-7.2c0.7-1,1.8-1.6,3-1.7L245.7,154.6z"/>
		<path class="st2" d="M89.6,187.2l-4.7,6.9l-1.1-0.8l3.2-4.7l-5.3,3.3l-0.8-0.5l1.1-6.2l-3.2,4.7l-1.2-0.8l4.7-6.9l1.2,0.8
			l-1.2,7.1l6.1-3.8L89.6,187.2z"/>
		<path class="st2" d="M90,191.2c0.5-0.3,1-0.5,1.6-0.5c0.6,0,1.1,0.1,1.6,0.4c0.4,0.2,0.8,0.5,1.1,0.9c0.2,0.3,0.4,0.7,0.4,1.1
			l0.5-0.8l1.2,0.7l-3.2,5.8l-1.2-0.7l0.5-0.9c-0.4,0.2-0.8,0.3-1.2,0.2c-1.1,0-2-0.6-2.5-1.5c-0.3-0.5-0.4-1.1-0.4-1.6
			c0-0.6,0.2-1.2,0.5-1.8C89.1,192,89.5,191.5,90,191.2z M93.9,194c0-0.4-0.1-0.7-0.3-1c-0.2-0.3-0.4-0.5-0.7-0.7
			c-0.3-0.2-0.6-0.3-1-0.3c-0.4,0-0.7,0.1-1,0.3c-0.3,0.2-0.6,0.5-0.8,0.9c-0.2,0.4-0.3,0.8-0.3,1.2c0,0.4,0.1,0.7,0.3,1
			c0.2,0.3,0.4,0.5,0.7,0.7c0.3,0.2,0.6,0.3,1,0.3c0.4,0,0.7-0.1,1-0.3c0.3-0.2,0.6-0.5,0.8-0.9C93.8,194.8,93.9,194.4,93.9,194
			L93.9,194z M95.5,190.5l-3-0.1l0.5-0.9h3L95.5,190.5z"/>
		<path class="st2" d="M96.7,200.3c-0.3-0.3-0.5-0.7-0.6-1.1c-0.1-0.4-0.1-0.8,0.1-1.2l1.3,0.6c-0.1,0.3-0.1,0.6,0.1,0.8
			c0.2,0.3,0.4,0.5,0.7,0.6c0.3,0.2,0.6,0.2,0.9,0.2c0.2,0,0.4-0.2,0.5-0.4c0.1-0.2,0.1-0.5-0.1-0.7c-0.3-0.3-0.6-0.6-0.9-0.8
			c-0.4-0.3-0.7-0.6-1-0.9c-0.2-0.3-0.4-0.6-0.5-0.9c-0.1-0.4,0-0.8,0.1-1.1c0.1-0.3,0.4-0.6,0.7-0.8c0.3-0.2,0.7-0.3,1.1-0.2
			c0.5,0,0.9,0.1,1.3,0.3c0.6,0.2,1.1,0.7,1.4,1.3c0.3,0.6,0.3,1.2,0,1.7l-1.3-0.6c0.1-0.3,0.1-0.5,0-0.8c-0.2-0.3-0.4-0.5-0.7-0.6
			c-0.3-0.2-0.6-0.2-0.9-0.2c-0.2,0-0.4,0.2-0.5,0.4c-0.1,0.1-0.1,0.3,0,0.5c0.1,0.2,0.2,0.3,0.3,0.5l0.6,0.6
			c0.3,0.3,0.6,0.6,0.9,0.9c0.2,0.3,0.4,0.5,0.5,0.9c0.1,0.4,0.1,0.7-0.1,1.1c-0.1,0.3-0.4,0.6-0.7,0.8c-0.3,0.2-0.7,0.3-1.1,0.3
			c-0.5,0-0.9-0.1-1.3-0.3C97.4,200.9,97,200.7,96.7,200.3z"/>
		<path class="st2" d="M110.9,199.3c0.5-0.1,1,0,1.4,0.1c0.5,0.2,1,0.5,1.4,0.9c0.4,0.4,0.6,0.9,0.7,1.5c0.2,1.2-0.3,2.5-1.1,3.4
			c-0.4,0.4-0.9,0.7-1.5,0.8c-0.5,0.1-1.1,0.1-1.7-0.1c-0.9-0.3-1.6-0.9-1.9-1.8l-1.3,3.9l-1.3-0.4l3.1-9.3l1.3,0.4l-0.3,0.9
			C110.1,199.5,110.5,199.3,110.9,199.3z M113,202c-0.1-0.4-0.2-0.7-0.5-0.9c-0.2-0.3-0.5-0.5-0.9-0.6c-0.3-0.1-0.7-0.1-1-0.1
			c-0.4,0.1-0.7,0.2-1,0.5c-0.3,0.3-0.5,0.6-0.7,1c-0.1,0.4-0.2,0.8-0.1,1.2c0.1,0.4,0.2,0.7,0.5,1c0.2,0.3,0.5,0.5,0.9,0.6
			c0.7,0.2,1.5,0,2-0.5c0.3-0.3,0.5-0.7,0.7-1.1C113,202.8,113.1,202.4,113,202z"/>
		<path class="st2" d="M116.7,202.5c0.4-0.4,0.9-0.7,1.4-0.9c0.5-0.2,1.1-0.2,1.7,0c0.5,0.1,0.9,0.3,1.3,0.6c0.3,0.3,0.6,0.6,0.7,1
			l0.2-0.9l1.3,0.3l-1.6,6.4l-1.4-0.3l0.2-0.9c-0.3,0.3-0.7,0.4-1.1,0.5c-0.5,0.1-1,0.1-1.4,0c-0.5-0.1-1-0.4-1.4-0.8
			c-0.4-0.4-0.7-0.9-0.8-1.5c-0.2-0.6-0.2-1.2,0-1.8C116,203.5,116.3,202.9,116.7,202.5z M121.2,204.2c-0.1-0.3-0.3-0.7-0.5-0.9
			c-0.2-0.2-0.6-0.4-0.9-0.5c-0.7-0.2-1.5,0-1.9,0.6c-0.3,0.3-0.5,0.7-0.6,1.1c-0.1,0.4-0.1,0.8,0,1.2c0.1,0.4,0.3,0.7,0.5,0.9
			c0.2,0.2,0.6,0.4,0.9,0.5c0.7,0.2,1.5-0.1,1.9-0.6c0.3-0.3,0.5-0.7,0.6-1.1C121.3,205,121.3,204.6,121.2,204.2L121.2,204.2z"/>
		<path class="st2" d="M127.9,203.5c0.4-0.1,0.8-0.2,1.2-0.1l-0.2,1.4l-0.4-0.1c-0.4-0.1-0.9,0-1.3,0.2c-0.4,0.3-0.6,0.8-0.7,1.3
			l-0.6,3.4l-1.4-0.2l1.1-6.5l1.4,0.2l-0.2,0.9C127.2,203.9,127.6,203.6,127.9,203.5z"/>
		<path class="st2" d="M133.4,204.3c0.4-0.2,0.8-0.2,1.2-0.1l-0.2,1.4h-0.4c-0.4-0.1-0.9,0-1.3,0.2c-0.4,0.4-0.6,0.8-0.6,1.4
			l-0.4,3.5l-1.4-0.2l0.8-6.6l1.4,0.2l-0.1,1C132.7,204.7,133,204.4,133.4,204.3z"/>
		<path class="st2" d="M137.8,204.5l-0.5,6.6l-1.4-0.1l0.5-6.6L137.8,204.5z M136.6,203.3c-0.2-0.2-0.2-0.4-0.2-0.6
			c0-0.2,0.1-0.5,0.3-0.6c0.2-0.1,0.4-0.2,0.6-0.2c0.2,0,0.4,0.1,0.6,0.3c0.2,0.2,0.2,0.4,0.2,0.6c0,0.2-0.1,0.5-0.3,0.6
			c-0.2,0.1-0.4,0.2-0.6,0.2C136.9,203.6,136.7,203.5,136.6,203.3L136.6,203.3z"/>
		<path class="st2" d="M141.8,202.5l-0.4,8.9l-1.4-0.1l0.4-8.9L141.8,202.5z"/>
		<path class="st2" d="M145.5,202.5l-0.1,8.9h-1.4l0.1-8.9L145.5,202.5z"/>
		<path class="st2" d="M147.8,206.4c0.5-1,1.5-1.7,2.7-1.8c0.5,0,1,0.1,1.4,0.2c0.4,0.2,0.7,0.4,1,0.7v-1l1.4-0.1l0.3,6.6l-1.4,0.1
			v-1c-0.2,0.3-0.6,0.6-0.9,0.8c-0.4,0.2-0.9,0.4-1.4,0.4c-0.6,0-1.1-0.1-1.6-0.4c-0.5-0.3-0.9-0.7-1.2-1.2
			c-0.3-0.5-0.5-1.2-0.5-1.8C147.5,207.5,147.6,206.9,147.8,206.4z M152.6,206.7c-0.2-0.3-0.5-0.6-0.8-0.7c-0.3-0.2-0.7-0.2-1-0.2
			c-0.4,0-0.7,0.1-1,0.3c-0.3,0.2-0.6,0.5-0.7,0.8c-0.4,0.8-0.3,1.7,0.1,2.4c0.2,0.3,0.5,0.6,0.8,0.8c0.3,0.2,0.7,0.2,1,0.2
			c0.4,0,0.7-0.1,1-0.3c0.3-0.2,0.6-0.5,0.7-0.8c0.2-0.4,0.2-0.8,0.2-1.2C152.9,207.5,152.8,207.1,152.6,206.7z"/>
		<path class="st2" d="M159,209l-1.1,3.5l-0.9,0.1l0.5-3.4L159,209z"/>
		<path class="st2" d="M173.3,201.5c0.5,0.1,0.9,0.4,1.2,0.7c0.3,0.4,0.6,0.9,0.7,1.4l0.9,3.8l-1.3,0.3l-0.8-3.6
			c-0.1-0.5-0.3-0.9-0.7-1.2c-0.8-0.5-1.8-0.2-2.4,0.5c-0.2,0.4-0.3,1-0.1,1.4l0.8,3.6l-1.3,0.3l-0.8-3.6c-0.1-0.5-0.3-0.9-0.7-1.2
			c-0.4-0.2-0.9-0.3-1.3-0.2c-0.5,0.1-0.9,0.4-1.1,0.8c-0.2,0.4-0.3,0.9-0.1,1.4l0.8,3.6l-1.4,0.3l-1.4-6.5l1.3-0.3l0.2,0.7
			c0.2-0.3,0.4-0.6,0.7-0.8c0.3-0.2,0.6-0.4,1-0.5c0.5-0.1,1-0.1,1.5,0c0.5,0.1,0.9,0.4,1.2,0.7c0.1-0.4,0.4-0.8,0.7-1.1
			c0.4-0.3,0.8-0.5,1.3-0.6C172.3,201.4,172.8,201.4,173.3,201.5z"/>
		<path class="st2" d="M177.7,201.6c0.1-0.6,0.3-1.1,0.7-1.5c0.4-0.4,0.8-0.7,1.4-0.9c0.4-0.2,0.9-0.2,1.4-0.2
			c0.4,0,0.8,0.2,1.1,0.4l-0.3-0.9l1.3-0.5l2.2,6.3l-1.3,0.4l-0.3-0.9c-0.1,0.4-0.4,0.7-0.7,1c-0.3,0.3-0.8,0.6-1.2,0.8
			c-0.5,0.2-1.1,0.2-1.6,0.1c-0.6-0.1-1.1-0.4-1.5-0.8C177.9,204,177.5,202.8,177.7,201.6L177.7,201.6z M180.9,197l-2.1,2.1
			l-0.3-0.9l2.1-2.3L180.9,197z M182.4,200.6c-0.3-0.3-0.6-0.4-1-0.5c-0.3-0.1-0.7,0-1,0.1c-0.3,0.1-0.6,0.3-0.9,0.6
			c-0.2,0.3-0.4,0.6-0.5,0.9c-0.1,0.4,0,0.8,0.1,1.2c0.1,0.4,0.4,0.7,0.7,1c0.3,0.3,0.6,0.4,1,0.5c0.3,0.1,0.7,0.1,1-0.1
			c0.3-0.1,0.6-0.3,0.9-0.6c0.2-0.3,0.4-0.6,0.4-1c0.1-0.4,0-0.8-0.1-1.2C182.9,201.2,182.7,200.9,182.4,200.6z"/>
		<path class="st2" d="M189,202.7c-0.4,0-0.8-0.1-1.2-0.3c-0.3-0.2-0.6-0.5-0.8-0.8l1.3-0.6c0.1,0.3,0.4,0.4,0.7,0.5
			c0.3,0.1,0.7,0.1,1-0.1c0.3-0.1,0.6-0.3,0.7-0.6c0.1-0.2,0.2-0.4,0.1-0.6c-0.1-0.2-0.3-0.4-0.6-0.4c-0.4,0-0.8,0-1.2,0.1
			c-0.4,0.1-0.9,0.1-1.3,0.1c-0.3,0-0.7-0.1-1-0.2c-0.3-0.2-0.6-0.5-0.7-0.8c-0.1-0.3-0.2-0.7-0.1-1c0.1-0.4,0.3-0.7,0.6-1
			c0.3-0.3,0.7-0.6,1.1-0.8c0.6-0.3,1.3-0.4,1.9-0.2c0.6,0.2,1.1,0.6,1.3,1.1l-1.3,0.6c-0.1-0.2-0.3-0.4-0.6-0.5
			c-0.3-0.1-0.6,0-0.9,0.1c-0.3,0.1-0.5,0.3-0.7,0.5c-0.2,0.3-0.2,0.7,0.1,0.9c0.1,0,0.1,0.1,0.2,0.1c0.2,0.1,0.4,0.1,0.6,0.1
			c0.3,0,0.6,0,0.9-0.1c0.4-0.1,0.8-0.1,1.2-0.1c0.3,0,0.7,0.1,1,0.2c0.3,0.2,0.6,0.4,0.7,0.8c0.1,0.3,0.2,0.7,0.1,1.1
			c-0.1,0.4-0.3,0.7-0.5,1c-0.3,0.3-0.7,0.6-1.1,0.8C190,202.6,189.5,202.7,189,202.7z"/>
		<path class="st2" d="M199.2,197.8c-0.4,0-0.9,0-1.2-0.2c-0.4-0.2-0.7-0.4-0.9-0.8l1.2-0.7c0.2,0.2,0.4,0.4,0.7,0.4
			c0.3,0,0.7,0,0.9-0.2c0.3-0.1,0.5-0.4,0.7-0.6c0.1-0.2,0.1-0.4,0-0.6c-0.1-0.2-0.3-0.3-0.6-0.3c-0.4,0-0.8,0.1-1.2,0.2
			c-0.4,0.1-0.8,0.2-1.3,0.2c-0.3,0-0.7,0-1-0.1c-0.4-0.1-0.6-0.4-0.8-0.7c-0.2-0.3-0.2-0.7-0.2-1c0.1-0.4,0.2-0.8,0.5-1.1
			c0.3-0.4,0.7-0.7,1.1-0.9c0.6-0.3,1.2-0.5,1.9-0.4c0.6,0.1,1.1,0.5,1.4,1l-1.2,0.7c-0.2-0.2-0.4-0.4-0.7-0.4
			c-0.3-0.1-0.6,0-0.9,0.2c-0.3,0.1-0.5,0.3-0.6,0.6c-0.1,0.2-0.1,0.4,0,0.6c0.1,0.2,0.2,0.3,0.4,0.3c0.2,0,0.4,0,0.6,0l0.8-0.2
			c0.4-0.1,0.8-0.2,1.2-0.2c0.3,0,0.7,0,1,0.1c0.3,0.1,0.6,0.4,0.8,0.7c0.2,0.3,0.3,0.7,0.2,1.1c-0.1,0.4-0.2,0.7-0.4,1
			c-0.3,0.4-0.6,0.7-1.1,0.9C200.2,197.6,199.7,197.7,199.2,197.8z"/>
		<path class="st2" d="M202.3,190.4c0-0.6,0.1-1.1,0.3-1.6c0.2-0.5,0.6-0.9,1.1-1.2c0.4-0.3,0.9-0.5,1.4-0.5c0.4-0.1,0.8,0,1.2,0.1
			l-0.5-0.8l1.2-0.8l3.7,5.5l-1.2,0.8l-0.6-0.8c0,0.4-0.1,0.8-0.4,1.2c-0.2,0.4-0.6,0.8-1,1c-0.5,0.3-1,0.5-1.6,0.5
			c-0.6,0-1.1-0.1-1.6-0.4C203.1,192.7,202.4,191.6,202.3,190.4L202.3,190.4z M206.6,188.2c-0.6-0.3-1.4-0.3-2,0.1
			c-0.3,0.2-0.5,0.5-0.7,0.8c-0.2,0.3-0.2,0.7-0.2,1.1c0,0.4,0.2,0.8,0.4,1.1c0.2,0.4,0.5,0.6,0.9,0.8c0.3,0.2,0.7,0.3,1.1,0.2
			c0.4,0,0.7-0.1,1-0.3c0.3-0.2,0.5-0.4,0.7-0.8c0.2-0.3,0.2-0.7,0.2-1.1c0-0.4-0.2-0.8-0.4-1.2C207.3,188.7,207,188.4,206.6,188.2
			L206.6,188.2z"/>
		<path class="st2" d="M210.8,182.8c0.2-0.4,0.5-0.8,0.9-1.1c0.4-0.4,1-0.6,1.5-0.7c0.6-0.1,1.1,0,1.6,0.2c0.6,0.2,1.1,0.6,1.4,1.1
			c0.4,0.5,0.7,1,0.8,1.6c0.1,0.6,0.1,1.1-0.1,1.7c-0.2,0.5-0.5,1-1,1.4c-0.4,0.3-0.8,0.5-1.3,0.6c-0.4,0.1-0.8,0.1-1.2,0l0.6,0.8
			l-1.1,0.9l-5.5-7l1.1-0.9l2,2.6C210.5,183.6,210.6,183.1,210.8,182.8z M214.2,182.5c-0.3-0.1-0.7-0.2-1.1-0.1
			c-0.3,0.1-0.7,0.2-0.9,0.4c-0.3,0.2-0.5,0.5-0.6,0.8c-0.1,0.3-0.2,0.7-0.1,1.1c0.1,0.4,0.2,0.8,0.5,1.1c0.3,0.3,0.6,0.6,1,0.8
			c0.7,0.3,1.4,0.2,2-0.3c0.3-0.2,0.5-0.5,0.6-0.8c0.1-0.3,0.2-0.7,0.1-1.1c-0.1-0.4-0.3-0.8-0.5-1.1
			C214.9,182.9,214.6,182.7,214.2,182.5z"/>
		<path class="st2" d="M221.2,182.1c-0.6,0.1-1.2,0.1-1.7-0.1c-1.2-0.4-2.1-1.4-2.4-2.6c-0.1-0.6-0.1-1.2,0.1-1.7
			c0.2-0.6,0.5-1.1,1-1.5c0.4-0.4,1-0.7,1.6-0.9c0.6-0.2,1.2-0.2,1.7,0c1.2,0.4,2.1,1.4,2.4,2.7c0.1,0.6,0.1,1.2-0.1,1.8
			C223.3,180.9,222.3,181.8,221.2,182.1L221.2,182.1z M222.5,179.5c0.1-0.3,0.1-0.7,0-1.1c-0.1-0.4-0.3-0.8-0.6-1.1
			c-0.3-0.3-0.6-0.6-1-0.7c-0.3-0.1-0.7-0.1-1.1,0c-0.3,0.1-0.6,0.3-0.9,0.5c-0.3,0.2-0.4,0.5-0.6,0.9c-0.1,0.3-0.1,0.7,0,1
			c0.1,0.4,0.3,0.8,0.6,1.1c0.4,0.5,0.9,0.8,1.5,0.9c0.5,0,1-0.2,1.4-0.5C222.2,180.2,222.4,179.9,222.5,179.5L222.5,179.5z"/>
		<path class="st2" d="M223.6,171.1c0.1-0.4,0.3-0.8,0.6-1.1l1,1l-0.2,0.3c-0.3,0.3-0.5,0.7-0.6,1.2c0.1,0.5,0.3,1,0.7,1.3l2.5,2.4
			l-0.9,1l-4.8-4.6l1-1l0.7,0.7C223.6,171.9,223.5,171.5,223.6,171.1z"/>
		<path class="st2" d="M230.6,172.8c-0.2,0-0.5-0.1-0.6-0.2c-0.2-0.2-0.3-0.4-0.3-0.6c0-0.2,0.1-0.5,0.2-0.6
			c0.1-0.2,0.4-0.3,0.6-0.3c0.2,0,0.5,0,0.6,0.2c0.2,0.1,0.3,0.4,0.3,0.6c0,0.2-0.1,0.5-0.2,0.6C231,172.6,230.8,172.8,230.6,172.8z
			"/>
		<path class="st1" d="M125.3,174.7c0.2-1.4,2.1-4.1,6.5-4.4c7.9-0.6,8.5,8.8-1.9,9.8c-0.4,1.2-0.8,2.4-1,3.1
			c-0.1,0.6-0.3,1.5-0.3,1.7s-0.1,0.3-0.3,0.3c-0.6-0.1-1.6-0.6-1.7-1.4c-0.1-1.8,3.8-10.3,3.8-10.3c0.2-0.4,0.5-0.6,0.9-0.6
			c0.5,0,1.1,0.2,0.9,0.8c-0.1,0.1-1,2.7-1.9,5.3c6.6-0.6,7.1-7.9,1.6-7.5c-2.4,0.2-4.4,1.9-4.8,4.3c0,0.3,0,0.6,0.2,0.8
			c0,0.1,0,0.3-0.2,0.3c-1-0.1-1.8-1-1.7-2.1C125.3,174.8,125.3,174.7,125.3,174.7z"/>
		<path class="st1" d="M140.8,176.1c1-0.1,1.5,0.3,1.7,0.8c0.2-0.3,0.3-0.5,0.4-0.7c0.1-0.2,0.3-0.3,0.5-0.4c0.4,0,1.4,0.3,1.1,0.9
			c-0.4,0.8-2,5.1-1.5,5.1s1.3-1.3,2.3-2.6c0.1-0.1,0.2-0.2,0.4-0.3c0.3,0,0.5,0.3,0.3,0.6c-1.2,1.8-2.6,3.6-3.1,3.6s-1.9-0.4-2-1.4
			c-0.7,0.9-1.5,1.7-2.1,1.7c-0.9,0.1-1.8-0.5-1.9-1.4C136.6,180.1,138.1,176.3,140.8,176.1z M138.9,182.1c1.6-0.1,3.8-5.1,2.3-5
			C139.4,177.3,138,182.2,138.9,182.1L138.9,182.1z"/>
		<path class="st1" d="M145.5,179.8c-0.2,0-0.4-0.1-0.4-0.3c0-0.1,0-0.2,0.1-0.3c0.6-0.8,1.1-1.5,1.5-2.1h-0.2
			c-0.6,0.1-0.9-0.8-1.1-1.1c-0.1-0.1,0-0.3,0.1-0.4c0,0,0.1,0,0.1,0h0.1c0.7,0,1.3,0,2-0.1l2.6-0.2c0.4,0,1.4,0.3,1.1,0.9
			c-0.4,0.8-2,5.1-1.5,5.1s1.3-1.3,2.3-2.6c0.1-0.1,0.2-0.2,0.4-0.3c0.3,0,0.5,0.3,0.3,0.6c-1.2,1.8-2.6,3.6-3.1,3.6s-1.9-0.4-2-1.4
			s0.8-3,1.4-4.3c-0.6,0.1-1.2,0.1-1.7,0.2c-0.4,0.6-1,1.6-1.7,2.6C145.8,179.7,145.6,179.8,145.5,179.8z"/>
		<path class="st1" d="M152.5,179.2c-0.2,0-0.4-0.1-0.4-0.3c0-0.1,0-0.2,0.1-0.2c0.6-0.8,1.1-1.5,1.5-2.1h-0.2c-0.6,0-0.9-0.8-1-1.1
			c-0.1-0.1,0-0.3,0.1-0.4c0,0,0.1,0,0.1,0l0,0c0.7,0,1.3,0,2-0.1c1.2-0.1,2.4-0.2,2.6-0.2c0.4,0,1.4,0.3,1.1,0.9
			c-0.4,0.8-2,5.1-1.5,5.1s1.3-1.3,2.3-2.6c0.1-0.1,0.2-0.2,0.4-0.3c0.3,0,0.5,0.3,0.3,0.6c-1.2,1.8-2.5,3.6-3.1,3.6s-1.9-0.4-2-1.4
			s0.8-3,1.4-4.3c-0.6,0.1-1.2,0.1-1.7,0.2c-0.4,0.6-1,1.6-1.7,2.6C152.8,179.1,152.6,179.2,152.5,179.2z"/>
		<path class="st1" d="M163,177.9c0.1-0.1,0.2-0.2,0.4-0.3c0.3,0,0.5,0.3,0.3,0.6c-1.2,1.8-2.6,3.6-3.1,3.6s-1.9-0.4-2-1.4
			c-0.1-1.5,1.6-4.7,2-5.5c0.1-0.2,0.3-0.3,0.5-0.4c0.4,0,1.4,0.3,1.1,0.9c-0.4,0.8-2,5.1-1.5,5.1S162,179.1,163,177.9z
			 M162.4,173.7c-0.4,0-1.2-0.3-1.1-0.7c0.1-0.2,0.4-1.6,0.7-2.2c0.1-0.2,0.3-0.4,0.6-0.4c0.7-0.1,1.6,0.6,1.4,1s-1.1,1.8-1.4,2.2
			C162.6,173.7,162.5,173.7,162.4,173.7L162.4,173.7z"/>
		<path class="st1" d="M167.1,177.5c0.1-0.1,0.2-0.2,0.4-0.3c0.3,0,0.5,0.3,0.3,0.6c-1.2,1.8-2.6,3.6-3.1,3.6s-2.1-0.4-2.1-1.4
			c-0.1-1.8,4.1-10.9,4.1-10.9c0.1-0.3,0.5-0.6,0.8-0.6c0.4,0,1.2,0.2,1,0.8c-0.1,0.2-3.9,9.4-3.8,10.8 M164.8,180.1
			c0.4,0,1.3-1.3,2.3-2.6L164.8,180.1z"/>
		<path class="st1" d="M171.2,177.2c0.1-0.1,0.2-0.2,0.4-0.3c0.3,0,0.5,0.3,0.3,0.6c-1.2,1.8-2.6,3.6-3.1,3.6s-2.1-0.4-2.1-1.4
			c-0.1-1.8,4.1-10.9,4.1-10.9c0.1-0.3,0.5-0.6,0.8-0.6c0.4,0,1.2,0.2,1,0.8c-0.1,0.2-3.9,9.4-3.8,10.8c0,0,0.1,0,0.1,0
			C169.2,179.8,170.2,178.5,171.2,177.2z"/>
		<path class="st1" d="M155.5,183.8c0.1,0,0.2,0,0.3,0.1c1.1,0.9,2.6,1.3,4,1.1c6.1-0.5,11-2,15.5-2.9c-0.2-0.6-0.3-1.3-0.4-1.9
			c0-0.3,0-0.7,0-1c-0.7,0.9-1.5,1.6-2.1,1.7c-0.9,0.1-1.8-0.5-1.9-1.4c-0.2-2,1.4-5.8,4-6c1-0.1,1.5,0.3,1.7,0.8l0.4-0.7
			c0.1-0.2,0.3-0.3,0.5-0.4c0.4,0,1.4,0.3,1.1,0.9c-0.7,1.5-1.2,3.1-1.6,4.7c-0.1,0.5-0.1,1.1,0,1.6c0,0.4,0.1,0.9,0.3,1.3
			c0.4-0.1,0.9-0.1,1.3-0.2c3.9-0.3,4,3.8,1.2,4.1c-1.6,0.1-3.1-0.8-3.8-2.3c-4.7,1.3-10.1,3.9-16.4,4.4c-1.9,0.1-3.9-0.8-4.1-2.9
			C155.3,184.6,155.2,183.8,155.5,183.8z M173.1,179.5c1.6-0.1,3.8-5.1,2.3-5C173.5,174.6,172.1,179.5,173.1,179.5L173.1,179.5z
			 M177.7,182.8c0.4,0.7,1.2,1.2,2,1.2c1-0.1,1.2-1.6-0.4-1.4C178.7,182.6,178.2,182.7,177.7,182.8L177.7,182.8z"/>
		<path class="st1" d="M53.2,30.3L53.2,30.3C53.1,30.3,53.1,30.2,53.2,30.3L53.2,30.3z"/>
		<path class="st1" d="M56,39.8L56,39.8L56,39.8z"/>
		<path class="st1" d="M270.6,76.4l5.5-0.8c0,0,0.1,0,0.1,0.1l2.4,17.4c0,0,0,0.1-0.1,0.1l-5.5,0.8c0,0-0.1,0-0.1-0.1L270.6,76.4
			C270.5,76.5,270.5,76.4,270.6,76.4z"/>
	</g>
</g>
</svg>
