<?xml version="1.0" encoding="utf-8"?>
<!-- Generator: Adobe Illustrator 26.3.1, SVG Export Plug-In . SVG Version: 6.00 Build 0)  -->
<svg version="1.1" id="Capa_1" xmlns="http://www.w3.org/2000/svg" xmlns:xlink="http://www.w3.org/1999/xlink" x="0px" y="0px"
	 viewBox="0 0 92.3 91.8" style="enable-background:new 0 0 92.3 91.8;" xml:space="preserve">
<style type="text/css">
	.st0{opacity:0.15;}
	.st1{fill:#FFFFFF;}
</style>
<g id="Capa_2_00000021101230524310196540000015233429004996453823_" class="st0">
	<g id="Capa_1-2">
		<g>
			<path class="st1" d="M42.6,47.5l2.2-2.2l2.2,2.2l2.2-2.2l2.2,2.2l1.2-1.2l0.7-0.7c0.3-0.3,0.4-0.3,0.7,0s1,1,1.4,1.4l0.4,0.3
				l0.4-0.4l1.5-1.5c0.3-0.3,0.3-0.3,0.6,0c0.5,0.5,1,1,1.5,1.5l0.4,0.4l2.1-2.1l2.4,2.5c-0.2,0.4-0.3,0.4-0.7,0.1l-1.2-1.2
				l-0.4-0.4l-2.2,2.2l-2.2-2.2l-2.2,2.2l-2.2-2.2l-2.2,2.2l-2.2-2.2c-0.8,0.7-1.4,1.4-2.2,2.1l-2.2-2.1l-2.2,2.2l-2.2-2.2L39.7,47
				c-0.3,0.3-0.6,0.6-1,1s-0.4,0.4-0.8-0.1c0.1-0.1,0.1-0.2,0.2-0.3c0.6-0.6,1.2-1.3,1.9-1.9c0.3-0.3,0.4-0.3,0.7,0L42.6,47.5z"/>
			<path class="st1" d="M38.4,45L38,44.5c0.1-0.1,0.1-0.2,0.2-0.3c0.6-0.6,1.2-1.2,1.9-1.9c0.3-0.3,0.4-0.3,0.7,0s1,1,1.4,1.4
				l0.4,0.3c0.1-0.1,0.2-0.2,0.3-0.3l1.4-1.4c0.4-0.4,0.4-0.4,0.8,0l1.6,1.6l0.3,0.2l2.2-2.2l2.2,2.2l2.2-2.2l2.2,2.2
				c0.2-0.2,0.3-0.2,0.4-0.4l1.5-1.5c0.3-0.3,0.3-0.3,0.6,0c0.5,0.5,1,1,1.5,1.5c0.1,0.1,0.2,0.2,0.4,0.3c0.1-0.1,0.3-0.2,0.4-0.3
				l1.5-1.5c0.3-0.3,0.4-0.3,0.7,0l2.1,2.1c-0.2,0.5-0.4,0.6-0.8,0.2s-0.8-0.8-1.2-1.2l-0.4-0.4c-0.1,0.1-0.3,0.2-0.4,0.3
				c-0.5,0.5-1,1-1.5,1.5c-0.3,0.3-0.3,0.3-0.6,0l-1.5-1.5L57.9,43l-2.1,2.1c-0.8-0.7-1.4-1.4-2.2-2.1c-0.1,0.1-0.2,0.2-0.3,0.2
				l-1.6,1.6c-0.3,0.3-0.4,0.3-0.7,0c-0.5-0.5-1-1-1.5-1.5c-0.1-0.1-0.2-0.2-0.4-0.3c-0.2,0.1-0.3,0.2-0.4,0.3l-1.4,1.4
				c-0.4,0.4-0.4,0.4-0.8,0l-1.4-1.4L44.8,43l-2.2,2.1L40.4,43L38.4,45z"/>
			<path class="st1" d="M85.5,28.1l-1.2-1.2c-0.3-0.4-0.3-0.4,0-0.7s0.7-0.8,1.1-1.1s0.3-0.2,0.6,0.1l-1.3,1.4l0.9,0.9
				c0.7,0.6,0.7,0.6,0,1.3c-0.3,0.3-0.6,0.6-0.9,0.9c0.5,0.6,1,1,1.6,1.6l-1.5,1.6l1.5,1.5l-1.6,1.6l1,1c0.5,0.5,0.6,0.5,0,1.1
				c-0.3,0.3-0.7,0.6-1,1l1.6,1.6l-1.5,1.5l1.3,1.4c0,0.1-0.1,0.1-0.1,0.2c-0.1,0.1-0.1,0.1-0.2,0.2c-0.1-0.1-0.2-0.2-0.3-0.2
				l-1.2-1.2c-0.2-0.2-0.2-0.3,0-0.6s0.6-0.6,0.9-0.9l0.4-0.4l-1-1l-0.3-0.3c-0.2-0.2-0.2-0.4,0-0.5c0.3-0.3,0.6-0.6,1-1l0.3-0.4
				l-1.5-1.5l1.5-1.6l-1.5-1.5l1.5-1.5l-1-1L84.2,30c-0.1-0.1-0.2-0.3-0.1-0.5c0,0,0-0.1,0.1-0.1l1-1C85.2,28.4,85.3,28.2,85.5,28.1
				z"/>
			<path class="st1" d="M75.7,80.4l14.5-14.5c0.4,0.2,0.4,0.3,0.1,0.7L76.4,80.5C76,80.9,75.9,80.9,75.7,80.4z"/>
			<path class="st1" d="M85.2,60.9c0.4,0.3,0.4,0.3,0,0.7L71.4,75.5c-0.4,0.4-0.4,0.3-0.7,0L85.2,60.9z"/>
			<path class="st1" d="M64.2,69c-0.4-0.3-0.4-0.4,0-0.7l13.8-13.9c0.4-0.4,0.4-0.3,0.7,0.1L64.2,69z"/>
			<path class="st1" d="M69.2,74c-0.4-0.3-0.4-0.3,0-0.8l12-12l1.8-1.8c0.4-0.4,0.4-0.3,0.7,0C79,64.3,74.1,69.2,69.2,74z"/>
			<path class="st1" d="M83.1,40.6L81.5,39l1.5-1.5l-1.5-1.6l1.6-1.6l-1.5-1.5l1.5-1.5l-1.6-1.6l1.5-1.6l-1.4-1.5l1.8-1.7l0.3,0.3
				l-1.4,1.4l1.5,1.6l-1.5,1.5l1.5,1.6l-1.6,1.6l1.6,1.6l-1.5,1.5l1.5,1.5L82.3,39l1.5,1.6l-1.6,1.6l1.4,1.4l-0.2,0.3l-1.8-1.8
				L83.1,40.6z"/>
			<path class="st1" d="M12.4,69.5H2.9c-0.2,0-0.3-0.1-0.3-0.3s0.1-0.3,0.3-0.3h18.9c0.2,0,0.3,0.1,0.3,0.3s-0.1,0.4-0.3,0.4H12.4z"
				/>
			<path class="st1" d="M21.9,71.2c-0.1,0.6-0.1,0.7-0.6,0.7H3.4c-0.4,0-0.5-0.1-0.6-0.4s0-0.3,0.2-0.3h0.4c5.9,0,11.9,0,17.8,0
				L21.9,71.2z"/>
			<path class="st1" d="M12.3,67.1H3.2c-0.2,0-0.3,0-0.3-0.3s0.1-0.3,0.3-0.4c0.1,0,0.3,0,0.4,0h17.6c0.1,0,0.3,0,0.4,0
				c0.2,0,0.2,0.2,0.2,0.4s-0.1,0.2-0.3,0.2L12.3,67.1L12.3,67.1z"/>
			<path class="st1" d="M77.7,82.6l-0.4-0.5c0.1-0.1,0.2-0.2,0.3-0.3c4.6-4.6,9.2-9.3,13.9-13.9l0.1-0.1c0.3-0.3,0.4-0.3,0.7,0.2
				L77.7,82.6z"/>
			<path class="st1" d="M74.3,79.1L74,78.8l14.6-14.6l0.3,0.3C88.7,64.9,74.8,78.8,74.3,79.1z"/>
			<path class="st1" d="M80.2,55.8l0.2,0.3c-0.2,0.4-14.1,14.3-14.6,14.6l-0.3-0.3L80.2,55.8z"/>
			<path class="st1" d="M67.6,72.5L67.2,72c0.1-0.1,0.2-0.2,0.3-0.4c4.6-4.6,9.2-9.2,13.8-13.8l0.2-0.2c0.1-0.1,0.3-0.2,0.5,0
				s0.1,0.3,0,0.5l-0.1,0.1L68,72.1C67.9,72.2,67.8,72.3,67.6,72.5z"/>
			<path class="st1" d="M72.6,77.5l-0.4-0.4c0.1-0.2,0.2-0.3,0.3-0.4l13.9-13.9c0.1-0.1,0.2-0.2,0.2-0.2c0.1,0,0.2,0,0.3,0
				c0.1,0.1,0.2,0.2,0.1,0.3c0,0,0,0,0,0c-0.1,0.1-0.1,0.2-0.2,0.2L73,77.2C72.9,77.3,72.8,77.4,72.6,77.5z"/>
			<path class="st1" d="M61.4,29.5l-0.2,0.2L47.2,15.8l0.3-0.2L61.4,29.5z"/>
			<path class="st1" d="M46,17.5l13.5,13.5c-0.2,0.3-0.3,0.4-0.7-0.1l-9.2-9.2l-3.5-3.4C45.7,17.9,45.8,17.9,46,17.5z"/>
			<path class="st1" d="M62.6,27.8L49.2,14.4c0.3-0.4,0.3-0.4,0.8,0.1l11.2,11.1c0.5,0.5,1,1,1.5,1.5C62.9,27.5,62.9,27.5,62.6,27.8
				z"/>
			<path class="st1" d="M45.1,19.6l12.2,12.2c-0.5,0.4-0.7,0.4-1,0c-1.1-1.1-2.2-2.2-3.3-3.3c-2.6-2.6-5.2-5.2-7.8-7.8
				C44.9,20.5,44.8,20.1,45.1,19.6C45,19.7,45.1,19.7,45.1,19.6z"/>
			<path class="st1" d="M3.7,64.6C3.9,64,4,64,4.6,64h15.7c0.5,0,0.5,0.1,0.7,0.6c-0.2,0-0.4,0-0.5,0h-16L3.7,64.6z"/>
			<path class="st1" d="M21,73.7c-0.2,0.6-0.2,0.6-0.8,0.6H4.4c-0.5,0-0.5-0.1-0.7-0.6c0.2,0,0.4,0,0.5,0h16L21,73.7z"/>
			<path class="st1" d="M51.4,13.3c0.3-0.2,0.7-0.2,0.9,0.1c0,0,0,0,0,0c3.7,3.7,7.4,7.5,11.2,11.2c0.4,0.4,0.4,0.4,0.2,0.9h-0.1
				c-0.1,0-0.1-0.1-0.2-0.1L51.5,13.5C51.5,13.4,51.4,13.4,51.4,13.3z"/>
			<path class="st1" d="M48.6,4.5c0,0.4,0,0.8,0,1.2s-0.1,0.4-0.4,0.4h-2.3c-0.3,0-0.4-0.1-0.4-0.4c0-0.8,0-1.6,0-2.5
				c0-0.2,0.1-0.3,0.2-0.3c0,0,0.1,0,0.1,0c0.8,0,1.6,0,2.4,0c0.2,0,0.3,0.1,0.3,0.4L48.6,4.5z"/>
			<path class="st1" d="M62.5,59.3l-2,2l-2-2l2-2L62.5,59.3z"/>
			<path class="st1" d="M37.2,29.5c-0.5,0.1-0.5,0.1-0.8-0.3c-0.1-0.2-0.2-0.3-0.3-0.5c-0.3-0.5-0.3-1.1,0.1-1.6
				c0.4-0.5,0.4-0.7,0-1.3c-0.5-0.5-0.4-1.4,0.1-1.9c0.3-0.2,0.3-0.7,0.1-0.9c0,0,0,0-0.1-0.1c-0.4-0.4-0.5-1-0.3-1.5
				c0.1-0.1,0.2-0.3,0.2-0.4c0.4-0.5,0.4-0.6,0-1.1c-0.4-0.4-0.5-1-0.3-1.5c0.2-0.3,0.4-0.6,0.6-0.9c0.1-0.1,0.3-0.1,0.5-0.1
				c0.2,0,0.1,0.2,0.1,0.4c-0.1,0.2-0.2,0.4-0.3,0.6c-0.4,0.5-0.4,0.7,0,1.2c0.3,0.4,0.5,0.9,0.3,1.4c-0.1,0.2-0.1,0.4-0.3,0.5
				c-0.4,0.5-0.4,0.7,0,1.2c0.3,0.3,0.4,0.8,0.3,1.3c-0.1,0.2-0.2,0.4-0.3,0.6c-0.3,0.4-0.3,0.6,0,1c0.5,0.6,0.5,1.4,0,2
				c-0.3,0.2-0.3,0.7-0.1,0.9c0,0,0,0,0.1,0.1C37.1,28.8,37.2,29.2,37.2,29.5z"/>
			<path class="st1" d="M34,28c0-0.4,0.1-0.7,0.3-1c0.3-0.4,0.3-0.6,0-1.1c-0.5-0.5-0.5-1.3,0-1.9c0.4-0.5,0.4-0.6,0-1.2
				c-0.4-0.5-0.4-1.2,0-1.7c0.5-0.7,0.4-0.7,0-1.3c-0.3-0.5-0.4-1.1-0.1-1.5c0.1-0.3,0.3-0.5,0.5-0.7c0.1-0.1,0.3-0.1,0.5-0.1
				c0.2,0,0.2,0.2,0.2,0.3c-0.1,0.3-0.2,0.5-0.4,0.7c-0.3,0.3-0.3,0.7,0,1c0.5,0.6,0.5,1.4,0,2c-0.3,0.5-0.3,0.6,0,1.1
				c0.4,0.5,0.4,1.3,0,1.8c-0.4,0.6-0.4,0.6,0,1.2c0.4,0.5,0.4,1.2,0,1.7c-0.3,0.3-0.4,0.8,0,1.2c0,0,0,0,0,0
				c0.1,0.2,0.2,0.4,0.3,0.6c0,0.1,0,0.3-0.1,0.3s-0.4,0.1-0.5,0C34.4,29,33.9,28.6,34,28z"/>
			<path class="st1" d="M29.7,60.4c-0.1-0.5-0.1-0.5,0.2-0.7l0.4-0.3c0.5-0.4,1.2-0.4,1.7,0c0.6,0.4,0.7,0.4,1.2,0
				c0.5-0.4,1.3-0.4,1.8,0c0.5,0.4,0.6,0.4,1.2,0c0.5-0.4,1.3-0.4,1.8,0c0.5,0.4,0.7,0.4,1.2,0c0.5-0.4,1.3-0.4,1.8,0
				c0.1,0.1,0.2,0.1,0.3,0.2c0.3,0.2,0.4,0.2,0.2,0.7c-0.3,0-0.6-0.1-0.8-0.3c-0.5-0.4-0.7-0.4-1.2,0c-0.5,0.4-1.3,0.4-1.8,0
				c-0.3-0.3-0.8-0.3-1.1,0c-0.3,0.2-0.6,0.3-0.9,0.4c-0.4,0-0.7-0.1-1-0.3c-0.3-0.3-0.8-0.3-1.1,0c-0.5,0.5-1.3,0.5-1.9,0
				c-0.3-0.3-0.8-0.3-1.1,0c0,0,0,0,0,0C30.3,60.2,30,60.4,29.7,60.4z"/>
			<path class="st1" d="M64.1,22.6c-0.4-0.2-9.4-9.2-9.6-9.6c0.3-0.2,0.8-0.1,1,0.2l4,3.9c1.4,1.5,2.9,2.9,4.3,4.3
				C64.1,21.7,64.2,22.2,64.1,22.6z"/>
			<path class="st1" d="M31.2,57.1c0.3,0,0.7,0.1,0.9,0.4c0.3,0.3,0.8,0.3,1.1,0c0.5-0.5,1.3-0.5,1.9,0c0.3,0.3,0.8,0.4,1.2,0
				c0,0,0,0,0,0c0.5-0.4,1.2-0.4,1.7,0c0.3,0.3,0.9,0.3,1.2,0c0.5-0.5,1.3-0.4,1.8,0c0.1,0.1,0.2,0.1,0.3,0.2
				c0.2,0.1,0.3,0.3,0.3,0.5s-0.3,0.2-0.5,0.1c-0.2-0.1-0.4-0.2-0.5-0.3c-0.3-0.3-0.7-0.3-1,0c0,0,0,0,0,0c-0.3,0.2-0.6,0.3-0.9,0.3
				c-0.3,0-0.7-0.1-0.9-0.3c-0.3-0.3-0.7-0.3-1,0c0,0,0,0,0,0c-0.6,0.5-1.5,0.5-2.1,0c-0.3-0.2-0.7-0.2-0.9,0
				c-0.3,0.2-0.6,0.4-1,0.4c-0.3,0-0.7-0.1-0.9-0.3c-0.5-0.3-0.6-0.3-1.1,0c-0.2,0.1-0.4,0.2-0.6,0.3c-0.1,0-0.3,0-0.3-0.1
				s0-0.4,0-0.4C30.2,57.6,30.5,57.1,31.2,57.1L31.2,57.1z"/>
			<path class="st1" d="M27.4,24.5c0.9,0,1.7,0.7,1.7,1.7s-0.7,1.7-1.7,1.7c-0.9,0-1.7-0.7-1.7-1.6c0,0,0,0,0-0.1
				c0-0.9,0.7-1.6,1.6-1.6C27.3,24.5,27.4,24.5,27.4,24.5z"/>
			<path class="st1" d="M19.2,76.1c-0.2,0.4-0.6,0.6-1.1,0.6c-3.8,0-7.6,0-11.5,0c-0.4,0-0.9-0.2-1.1-0.6C5.9,76,18.3,76,19.2,76.1z
				"/>
			<path class="st1" d="M20.9,12.1l0.3,0.4l-0.4,0.4L10.5,23.2c-0.1,0.1-0.2,0.2-0.3,0.3c-0.1,0-0.2,0-0.3-0.1
				c-0.1-0.1-0.1-0.2,0-0.3l0.2-0.2l10.4-10.5C20.6,12.3,20.7,12.2,20.9,12.1z"/>
			<path class="st1" d="M17,8.2l0.4,0.3C17.2,8.8,17.1,8.9,17,9c-3.4,3.5-6.9,6.9-10.3,10.4c-0.1,0.1-0.2,0.2-0.3,0.3
				c-0.1,0-0.2,0-0.3-0.1c0,0,0-0.2,0-0.3c0.1-0.1,0.1-0.2,0.2-0.3c3.5-3.5,6.9-6.9,10.4-10.4L17,8.2z"/>
			<path class="st1" d="M14.4,5.7L14.8,6c-0.1,0.1-0.2,0.2-0.3,0.3L4,16.9l-0.2,0.2c-0.1,0.1-0.2,0.1-0.3,0c0-0.1,0-0.2,0-0.3
				c0-0.1,0.1-0.2,0.2-0.2L14.1,6L14.4,5.7z"/>
			<path class="st1" d="M44.6,22.9l9.6,9.6c-0.4,0.1-0.7,0-1-0.3c-2.7-2.8-5.5-5.5-8.3-8.3C44.6,23.6,44.5,23.2,44.6,22.9z"/>
			<path class="st1" d="M19.2,62.2H5.5c0.2-0.3,0.5-0.5,0.9-0.5h11.9C18.7,61.7,19,61.9,19.2,62.2z"/>
			<path class="st1" d="M19.6,10.9l0.3,0.3c-0.1,0.1-0.2,0.2-0.3,0.3c-3.5,3.5-7,7-10.5,10.5c-0.1,0.1-0.3,0.5-0.5,0.2
				s0.1-0.4,0.2-0.5l10.5-10.6C19.4,11,19.5,11,19.6,10.9z"/>
			<path class="st1" d="M11.9,3.2l0.3,0.3c0,0.1,0,0.1-0.1,0.2c-0.1,0.1-0.2,0.2-0.3,0.3L1.4,14.2c-0.1,0.1-0.2,0.2-0.3,0.2
				c-0.1,0-0.2,0-0.3,0c0-0.1,0-0.2,0-0.3C0.9,14.1,1,14,1.1,14L11.5,3.5L11.9,3.2z"/>
			<path class="st1" d="M15.7,7L16,7.3c0,0.1,0,0.1-0.1,0.2l-0.3,0.3L5.3,18.1l-0.3,0.3c-0.1,0.1-0.2,0.1-0.3,0c0,0,0,0,0,0
				c-0.1-0.1-0.1-0.2,0-0.3c0,0,0,0,0,0l0.2-0.2L15.4,7.3L15.7,7z"/>
			<path class="st1" d="M7.4,21c-0.2-0.2-0.3-0.3-0.1-0.5l0.2-0.2L17.9,10c0.1-0.1,0.2-0.2,0.3-0.3c0.1,0,0.2,0,0.2,0
				c0.1,0.1,0.1,0.2,0.1,0.3c0,0.1-0.1,0.2-0.2,0.2L7.8,20.7L7.4,21z"/>
			<path class="st1" d="M2,15.6c0.1-0.1,0.2-0.2,0.3-0.4L12.7,4.8c0.1-0.1,0.2-0.2,0.3-0.2c0.1-0.1,0.2-0.1,0.3-0.1c0,0,0,0,0.1,0.1
				c0.1,0.1,0.1,0.2,0,0.4l-0.2,0.2L2.8,15.5c-0.1,0.1-0.2,0.2-0.2,0.2C2.3,15.9,2.2,15.8,2,15.6z"/>
			<path class="st1" d="M11.3,24.9c-0.2-0.1-0.3-0.3-0.1-0.5l0.2-0.2l10.3-10.3c0.1-0.1,0.2-0.2,0.3-0.3c0.1,0,0.2,0,0.3,0.1
				c0,0.1,0,0.2,0,0.2c-0.1,0.1-0.1,0.2-0.2,0.3L11.6,24.6C11.5,24.7,11.4,24.8,11.3,24.9z"/>
			<path class="st1" d="M86.5,9l0.3,0.4c-0.1,0.1-0.2,0.3-0.4,0.4L76.2,20.1c-0.1,0.1-0.2,0.2-0.3,0.3c-0.1,0-0.2,0-0.3,0
				c-0.1-0.1-0.1-0.2,0-0.3l0.2-0.2L86.2,9.3L86.5,9z"/>
			<path class="st1" d="M82.7,5.1l0.4,0.3c-0.2,0.2-0.3,0.3-0.4,0.4L72.3,16.2c-0.1,0.1-0.2,0.2-0.3,0.3c-0.1,0-0.2,0-0.3-0.1
				c0-0.1,0-0.2,0-0.3c0.1-0.1,0.1-0.2,0.2-0.2L82.3,5.4C82.4,5.3,82.5,5.2,82.7,5.1z"/>
			<path class="st1" d="M80.1,2.6l0.3,0.3c-0.1,0.1-0.2,0.2-0.3,0.3L69.7,13.7l-0.2,0.2C69.4,14,69.3,14,69.2,14c0,0,0,0-0.1-0.1
				c0-0.1,0-0.2,0-0.3c0-0.1,0.1-0.2,0.2-0.2c3.5-3.5,6.9-7,10.4-10.5C79.8,2.8,80,2.7,80.1,2.6z"/>
			<path class="st1" d="M85.3,7.7L85.6,8c-0.1,0.1-0.2,0.2-0.3,0.3L74.8,18.9c-0.1,0.1-0.3,0.4-0.5,0.2s0.1-0.4,0.2-0.5L85,8
				C85,7.9,85.1,7.8,85.3,7.7z"/>
			<path class="st1" d="M77.5,0l0.3,0.3c0,0.1,0,0.1-0.1,0.2c-0.1,0.1-0.2,0.2-0.3,0.3L67.1,11.1c-0.1,0.1-0.2,0.2-0.3,0.3
				c-0.1,0-0.2,0-0.3,0c0-0.1,0-0.2,0-0.3c0-0.1,0.2-0.2,0.2-0.2L77.2,0.3L77.5,0z"/>
			<path class="st1" d="M81.4,3.9l0.3,0.3c0,0.1,0,0.1-0.1,0.2l-0.3,0.3L71,14.9l-0.3,0.3c-0.1,0.1-0.2,0.1-0.3,0c0,0,0,0,0,0
				c-0.1-0.1-0.1-0.2,0-0.3c0,0,0,0,0,0l0.2-0.2L81.1,4.2L81.4,3.9z"/>
			<path class="st1" d="M73.1,17.9c-0.2-0.2-0.3-0.3-0.1-0.5l0.2-0.2L83.5,6.8c0.1-0.1,0.2-0.2,0.3-0.3c0.1,0,0.2,0,0.2,0
				c0.1,0.1,0.1,0.2,0.1,0.3c0,0.1-0.1,0.2-0.2,0.2L73.4,17.6C73.3,17.7,73.2,17.8,73.1,17.9z"/>
			<path class="st1" d="M67.7,12.4c0.1-0.1,0.2-0.2,0.3-0.4L78.4,1.7l0.2-0.2c0.1-0.1,0.2-0.1,0.3,0c0,0,0,0,0,0
				c0.2,0.1,0.1,0.2,0,0.4L78.8,2L68.4,12.3l-0.2,0.2C68,12.8,67.8,12.7,67.7,12.4z"/>
			<path class="st1" d="M77,21.7c-0.2-0.1-0.3-0.3-0.1-0.5C77,21.1,77,21,77.1,21l10.3-10.3c0.1-0.1,0.2-0.2,0.3-0.3
				c0.1,0,0.2,0,0.3,0.1c0,0.1,0,0.2,0,0.2c-0.1,0.1-0.1,0.2-0.2,0.2L77.3,21.4L77,21.7z"/>
			<path class="st1" d="M0,4.2l2.1-2.1c0.1,0,0.2,0.1,0.2,0.2L4,3.9c0.2,0.2,0.2,0.3,0,0.5L2.2,6.3c0,0-0.1,0-0.1,0L0,4.2z M2.1,3.1
				L1,4.2l1.1,1.1l1.1-1.1L2.1,3.1z"/>
			<path class="st1" d="M31.3,46.8l-2.1-2.2l2-2l2.2,2.1C32.7,45.4,32,46.1,31.3,46.8z M31.3,45.8c0.4-0.3,0.8-0.7,1.1-1.1l-1.1-1.1
				L30,44.7L31.3,45.8z"/>
			<path class="st1" d="M48.3,70c0,0.4,0,0.8,0,1.2c0,0.2-0.1,0.4-0.4,0.4c-0.8,0-1.6,0-2.4,0c-0.2,0-0.3-0.1-0.3-0.4
				c0-0.8,0-1.6,0-2.4c0-0.2,0.1-0.3,0.4-0.3H48c0.2,0,0.3,0.1,0.3,0.4S48.3,69.6,48.3,70z M47.7,70.9c0-0.5,0-1,0-1.4
				c0-0.1-0.1-0.3-0.2-0.3c0,0-0.1,0-0.1,0h-1.2c-0.2,0-0.3,0-0.3,0.2c0,0.5,0,0.9,0,1.4L47.7,70.9z"/>
			<path class="st1" d="M5.8,88.6c0,0.9-0.7,1.6-1.7,1.7c-0.9,0-1.7-0.8-1.7-1.7c0-0.9,0.8-1.7,1.7-1.7C5,86.8,5.8,87.6,5.8,88.6
				C5.8,88.5,5.8,88.5,5.8,88.6z M4.1,87.6c-0.6,0-1,0.4-1,1c0,0.5,0.5,1,1,1c0.6,0,1-0.4,1-1c0.1-0.5-0.3-1-0.8-1
				C4.2,87.5,4.2,87.5,4.1,87.6L4.1,87.6z"/>
			<path class="st1" d="M78.1,49.3c0-0.9,0.6-1.7,1.5-1.7c0,0,0.1,0,0.1,0c0.9,0,1.7,0.7,1.7,1.6c0,0,0,0,0,0.1
				c0,0.9-0.7,1.7-1.6,1.7c0,0-0.1,0-0.1,0c-0.9,0-1.6-0.7-1.7-1.5C78.1,49.4,78.1,49.4,78.1,49.3z M79.8,50.3c0.5,0.1,1-0.5,1-1
				c-0.1-0.5-0.5-0.9-1-1c-0.6,0-1,0.5-1.1,1C78.7,49.9,79.2,50.3,79.8,50.3C79.8,50.3,79.8,50.3,79.8,50.3L79.8,50.3z"/>
			<path class="st1" d="M9.7,50.2H8.6c-0.3,0-0.4-0.1-0.4-0.4s0.1-0.3,0.4-0.3s0.4,0,0.6,0c0.4,0,0.4,0,0.4-0.4c0-0.2,0-0.4,0-0.6
				c0-0.4,0.1-0.4,0.4-0.4s0.3,0.2,0.3,0.4V49c0,0.5,0,0.5,0.5,0.5c0.2,0,0.4,0,0.5,0c0.4,0,0.4,0.1,0.4,0.4s-0.2,0.3-0.4,0.3h-0.5
				c-0.5,0-0.5,0-0.5,0.5v0.5c0,0.4-0.1,0.4-0.4,0.4s-0.3-0.2-0.3-0.4S9.7,50.6,9.7,50.2z"/>
			<path class="st1" d="M87.8,89.6c0-0.4,0-0.7,0-1.1s0.1-0.4,0.3-0.4s0.3,0.1,0.3,0.4s0,0.4,0,0.6c0,0.4,0,0.4,0.4,0.4h0.7
				c0.3,0,0.3,0.1,0.3,0.4s-0.1,0.3-0.3,0.3h-0.7c-0.4,0-0.4,0-0.4,0.4s0,0.5,0,0.7s-0.1,0.3-0.3,0.3s-0.4-0.1-0.4-0.3v-1.1h-1.1
				c-0.2,0-0.3-0.1-0.3-0.3s0.1-0.4,0.3-0.4H87.8z"/>
			<path class="st1" d="M62,81.8l-0.5,0.5L61,82.8c-0.5-0.3-0.5-0.4-0.2-0.8s0.5-0.4,0.7-0.7l-1-1l0.4-0.4l1,1l1-1l0.5,0.4l-1,1
				l1,1.1L63,82.8L62,81.8z"/>
			<path class="st1" d="M9.1,35.6c0.8,0,1.5,0.6,1.7,1.4c0,0.1,0,0.3-0.1,0.3c-0.2,0.1-0.4,0.1-0.5-0.1C10,37.1,10,37,9.9,36.9
				c-0.1-0.4-0.6-0.7-1-0.6c-0.4,0-0.8,0.3-0.9,0.7c-0.1,0.1-0.1,0.3-0.2,0.3c-0.1,0.1-0.3,0-0.4,0c-0.1-0.1-0.1-0.3-0.1-0.4
				C7.5,36.1,8.3,35.6,9.1,35.6z"/>
			<path class="st1" d="M70.7,30.1c-0.1-0.5-0.1-0.5,0.3-0.7c0.4-0.2,0.7-0.6,0.7-1c0-0.4-0.3-0.8-0.7-0.9c0,0-0.1,0-0.1,0
				c-0.3-0.1-0.4-0.3-0.3-0.5s0.3-0.2,0.5-0.1c0.7,0.2,1.2,0.8,1.2,1.5c0.1,0.9-0.6,1.7-1.5,1.8C70.8,30.1,70.7,30.1,70.7,30.1z"/>
			<path class="st1" d="M30.3,6.2C30.8,6,30.8,6.1,31,6.5c0.2,0.4,0.5,0.7,1,0.7c0.4,0,0.8-0.3,0.9-0.7c0.2-0.4,0.2-0.4,0.7-0.3
				c0.1,0.8-0.5,1.6-1.3,1.7c-0.9,0.2-1.8-0.4-1.9-1.3C30.3,6.5,30.3,6.3,30.3,6.2z"/>
			<path class="st1" d="M26.7,89.1c-0.6,0-1.1-0.3-1.4-0.8c-0.3-0.5-0.3-1.2,0-1.7c0.2-0.4,0.6-0.7,1-0.8c0.2,0,0.4-0.1,0.5,0.2
				c0.1,0.2,0,0.4-0.2,0.5c0,0,0,0,0,0c-0.2,0.1-0.4,0.2-0.6,0.4c-0.3,0.5-0.2,1.1,0.2,1.4c0.1,0,0.1,0.1,0.2,0.1
				C26.8,88.6,26.9,88.6,26.7,89.1z"/>
			<path class="st1" d="M49.5,31.2c-1.6-0.9-2.9-2.2-3.7-3.8L49.5,31.2z"/>
			<path class="st1" d="M15.1,78.5c-1.8,0.6-3.8,0.6-5.6,0H15.1z"/>
			<path class="st1" d="M59.2,14.1c1.6,0.9,2.9,2.2,3.8,3.8L59.2,14.1z"/>
			<path class="st1" d="M9.7,59.8c1.8-0.6,3.6-0.6,5.4,0H9.7z"/>
		</g>
	</g>
</g>
</svg>
