<?xml version="1.0" encoding="utf-8"?>
<!-- Generator: Adobe Illustrator 26.0.1, SVG Export Plug-In . SVG Version: 6.00 Build 0)  -->
<svg version="1.1" id="Capa_1" xmlns="http://www.w3.org/2000/svg" xmlns:xlink="http://www.w3.org/1999/xlink" x="0px" y="0px"
	 viewBox="0 0 46.4 48" style="enable-background:new 0 0 46.4 48;" xml:space="preserve">
<style type="text/css">
	.st0{opacity:0.45;}
	.st1{fill:#FAB416;}
</style>
<g id="Capa_2_00000067959238755000643010000007752760752872737434_" class="st0">
	<g id="Capa_1-2">
		<path class="st1" d="M0,18.1L0,18.1c0.2-0.2,0.3-0.4,0.6-0.1c0.1-0.1,0.1-0.2,0.2-0.3l0.6-0.8c0.1-0.2,0.2-0.2,0.4-0.1L2,16.9
			c0.1,0,0.2,0.1,0.2,0.2s0.1,0.1,0.2,0.2l0.4-0.5c0.2-0.2,0.2-0.2,0.4-0.1c0.1,0.1,0.2,0.1,0.3,0.2c0.2,0.1,0.2,0.2,0.1,0.3
			l-0.2,0.3c0.1,0,0.2,0.1,0.2,0c0.1,0,0.2,0,0.3,0.1L4.2,18l0.2-0.1c0.2-0.1,0.2-0.1,0.3,0S4.9,18,5,18.1s0.1,0.2,0,0.4
			s-0.3,0.2-0.4,0.3c0,0-0.1,0.1-0.1,0.1l0.1-0.1c0.2-0.1,0.3-0.1,0.4,0.1l0.2,0.3c0.1,0.2,0.1,0.3-0.1,0.4l-0.1,0.1
			c0,0.1,0.1,0.2,0.1,0.3c0.1,0.3,0.1,0.3-0.1,0.4L4,21.2l-0.1,0.1c0,0,0,0.1,0,0.1c0.1,0.2,0.1,0.2-0.1,0.4l-2.9,2.3
			c-0.3,0.2-0.6,0.5-0.9,0.7v-0.4l3.5-2.9c-0.6-1.4-1.7-2.6-3.1-3.2L0,18.7V18.1z M4.8,20l-1.2,0.8L3.7,21l1.2-0.8L4.8,20z
			 M4.7,18.3c-0.1-0.1-0.1-0.1-0.2,0l-1.6,1.2c0,0-0.1,0.1-0.1,0.1C3.5,19.3,4.1,18.8,4.7,18.3L4.7,18.3z M3.1,17.1L3.1,17.1
			c0,0-0.1,0.1-0.1,0.1l-0.5,0.6c-0.2,0.2-0.4,0.5-0.5,0.7c0,0-0.1,0.1,0,0.2C2.4,18.3,2.7,17.7,3.1,17.1z M1.4,18.3
			c0.1,0.1,0.1,0.1,0.2,0c0.2-0.2,0.4-0.5,0.5-0.7l-0.2-0.1L1.4,18.3z M3.7,18L3.7,18c-0.5,0.3-0.9,0.8-1.2,1.2
			C2.9,18.9,3.3,18.5,3.7,18z M3.1,20C3.1,20,3.1,20,3.1,20L4,19.5c0,0,0-0.1,0-0.1C3.7,19.5,3.4,19.7,3.1,20L3.1,20z M1.7,17.2
			c-0.3,0.3-0.5,0.6-0.7,1c0.1,0,0.1,0,0.1,0C1.3,17.8,1.5,17.5,1.7,17.2z M4.8,19.3c-0.3,0.1-0.3,0.2-0.4,0.4
			c0.2,0,0.4-0.1,0.5-0.3L4.8,19.3z M3.1,17.8L3.1,17.8l-0.6,0.7l0,0L3.1,18C3.1,18,3.1,17.9,3.1,17.8C3.1,17.9,3.1,17.9,3.1,17.8z
			 M3.3,20.4c0.3-0.1,0.5-0.3,0.7-0.5C3.8,20.1,3.5,20.2,3.3,20.4z"/>
		<path class="st1" d="M0,38.4L1,39l0.6,0.5C2,39.8,2.6,39.9,3,39.6c0.4-0.2,0.7-0.7,0.7-1.2c0-0.4-0.2-0.7-0.5-1l-2-1.4l-0.4-0.2
			c-0.2-0.1-0.4-0.2-0.6-0.2c-0.1,0-0.1,0-0.2,0v-0.3c0.4,0,0.8,0.1,1.1,0.3l2.3,1.6c0.3,0.2,0.5,0.5,0.6,0.8L4,38.2
			c0-0.1,0.1-0.1,0.1-0.2c0-0.4-0.2-0.8-0.5-1.1c-0.7-0.5-1.4-1-2.2-1.5C1,35,0.5,34.9,0,35.1v-0.4c0.5-0.2,1.1-0.1,1.5,0.2l2.2,1.6
			c0.7,0.5,0.9,1.4,0.5,2.1l-0.1,0.1l0.2,0.1L5.8,40c0.1,0,0.1,0.1,0.2,0.1c0.2,0.2,0.2,0.4,0,0.6c-0.1,0.2-0.4,0.3-0.6,0.2
			c-0.1-0.1-0.2-0.1-0.3-0.2l-1.4-1l-0.1-0.1C3.4,39.8,3.2,39.9,3,40c-0.5,0.3-1.2,0.2-1.7-0.2l-1.4-1V38.4z M3.8,39.3l0.6,0.4
			l1.1,0.8c0.1,0.1,0.2,0.1,0.3,0s0-0.2-0.1-0.2H5.6l-0.8-0.6L4,39.1L3.8,39.3z"/>
		<path class="st1" d="M0,27.5l0.3-0.2c0.2-0.2,0.2-0.2,0.5,0l0.2-0.1l3.8-2c0.4-0.2,0.4-0.2,0.6,0.1l0.8,1.1c0.2,0.3,0.2,0.3,0,0.6
			c-1,1-2,2-3,3L3,30.3c0,0.1,0.1,0.1,0.1,0.2s0.1,0.2-0.1,0.3s-0.5,0.3-0.7,0.4c-0.1,0.1-0.2,0.1-0.2,0L2,31.1l-0.1,0.1
			c-0.2,0.2-0.3,0.1-0.4-0.1s-0.3-0.4-0.5-0.7l-0.8-1c-0.1-0.1-0.1-0.1-0.2-0.2v-0.6c0.1,0,0.1,0.1,0.2,0.2l1.3,1.8l0.1,0.2
			c0.1-0.1,0.2-0.1,0.4-0.2c0.2,0,0.2,0.1,0.3,0.2l0.4-0.2l-2.2-3l-0.3,0.3c0.2,0.3,0.2,0.4-0.1,0.5L0,27.5z M2.7,30
			c0.4-0.4,3.1-3.1,3.2-3.3L5,25.5c-1.4,0.7-2.7,1.4-4.1,2.1L2.7,30z"/>
		<path class="st1" d="M0,11.7c0.1,0.1,0.2,0.1,0.2,0.2c0.7,0.7,1.6,1,2.6,0.9h0.1c0,0,0-0.1,0-0.1c0-0.3,0-0.5,0-0.8
			C3,11.2,3,10.6,3,10s0-1.3,0.1-1.9c0,0,0-0.1,0-0.1L2.9,8.1L1,10l-0.9,0.8c0,0-0.1,0.1-0.2,0.1v-0.5c0.4-0.3,0.7-0.7,1.1-1l2-1.9
			c0,0,0-0.1,0.1-0.1c0.1,0,0.1,0,0.2,0c0.1,0,0.1,0.1,0.1,0.2c0,0.1,0,0.2,0,0.3c0,0.8,0,1.5-0.1,2.3c0,1.2-0.1,2.4-0.1,3.5
			C3.2,14,3.2,14,3,14c-0.9,0.2-1.9,0.1-2.7-0.4L0,13.3v-0.4C0.1,13,0.2,13,0.2,13c0.7,0.5,1.4,0.7,2.2,0.6l0.5-0.1v-0.4H2.6
			c-0.5,0-1-0.1-1.5-0.3c-0.4-0.2-0.8-0.4-1.1-0.7V11.7z"/>
		<path class="st1" d="M2.6,48c-0.1-0.3-0.2-0.5-0.3-0.8c0-0.1,0-0.2,0-0.4l-0.4-0.3c-0.3,0.1-0.6,0.1-0.8,0
			c-0.2-0.1-0.3-0.3-0.3-0.5c-0.1-0.5,0.1-0.9,0.7-1c0-0.3,0.2-0.6,0.5-0.7c0.2-0.1,0.4-0.1,0.6,0C3.1,44.5,3.2,45,3,45.5l0.4,0.4
			c0.2-0.2,0.3-0.1,0.5,0c0.6,0.3,1.2,0.5,1.7,0.8c0.4,0.2,0.8,0.4,1,0.8c0.1,0.2,0.1,0.4,0.2,0.5H6.3c-0.1-0.3-0.3-0.6-0.6-0.8
			c-0.7-0.4-1.4-0.7-2.1-1l-0.5,0.5C3,46.9,3,46.9,3.1,47.2s0.3,0.6,0.4,0.9L2.6,48z M3,46.2l-0.4-0.4c-0.1-0.1-0.2-0.2-0.2-0.3
			c0-0.1,0.1-0.2,0.2-0.3c0.1-0.2,0.1-0.4-0.1-0.6c-0.1-0.1-0.2-0.1-0.3,0c-0.2,0.1-0.3,0.2-0.3,0.4c0,0.4,0,0.4-0.4,0.4
			c-0.2,0-0.3,0.1-0.4,0.2c-0.1,0.2,0,0.4,0.2,0.5c0.1,0,0.2,0,0.4,0C2,46,2,46,2.2,46.2l0.4,0.4L3,46.2z"/>
		<path class="st1" d="M25.8,48c-0.1-0.3-0.2-0.5-0.3-0.8c0-0.1,0-0.2,0-0.3l-0.4-0.3c-0.2,0.1-0.5,0.1-0.8,0
			c-0.2-0.1-0.3-0.3-0.4-0.5c-0.1-0.5,0.1-0.9,0.7-1c0-0.3,0.2-0.6,0.5-0.7c0.2-0.1,0.4-0.1,0.6,0c0.5,0.2,0.6,0.7,0.4,1.2l0.4,0.4
			c0.1-0.2,0.3-0.1,0.5,0c0.7,0.3,1.4,0.6,2,1c0.5,0.2,0.8,0.6,0.9,1.1h-0.4c-0.1-0.3-0.3-0.6-0.6-0.8c-0.7-0.4-1.4-0.7-2.1-1
			l-0.5,0.5c-0.2,0.2-0.2,0.2-0.1,0.4l0.4,0.9L25.8,48z M26.3,46.2l-0.5-0.4c-0.2-0.2-0.2-0.2,0-0.5c0.1-0.1,0.1-0.4,0-0.5
			c-0.1-0.1-0.3-0.2-0.5-0.1c-0.2,0.1-0.3,0.3-0.2,0.4c0,0.3,0,0.4-0.3,0.3h-0.1c-0.2,0-0.3,0.2-0.3,0.3c0,0.1,0,0.3,0.2,0.4
			c0.1,0.1,0.3,0.1,0.4,0H25c0.2-0.1,0.2-0.1,0.4,0l0.5,0.5L26.3,46.2z"/>
		<path class="st1" d="M46.4,3l-0.1-0.1l-0.9-1.1l-1-1.2c0-0.1-0.1-0.1-0.1-0.2l-1.8,1.9l2,2.4L45.6,4l0.8-0.5V4l-0.2,0.1l-1.5,1
			c-0.2,0.1-0.3,0.1-0.4-0.1l-2-2.5c-0.2-0.2-0.2-0.3,0-0.5l1.7-1.7C44,0.3,44.1,0.2,44,0c0.2-0.1,0.4,0,0.5,0.2
			c0.6,0.7,1.2,1.4,1.8,2.2c0,0,0.1,0.1,0.1,0.1L46.4,3z"/>
		<path class="st1" d="M46.4,18.7l-0.9,1l-1.6,1.8l-0.2,0.2l0.7,0.7l1.8,1.8c0.1,0.1,0.2,0.1,0.2,0.2v0.4c-0.1,0-0.2-0.1-0.3-0.1
			l-1.5-1.6l-1.1-1.2c-0.2-0.2-0.2-0.2,0-0.5l2.7-3l0.2-0.2L46.4,18.7z"/>
		<path class="st1" d="M0,2.6l0.5,0.6c0.1,0.1,0.2,0.2,0.3,0.3C1,3.5,1.2,3.5,1.4,3.3c0,0,0-0.1,0-0.1c0-0.1,0-0.2-0.2-0.4L1,2.9
			C0.9,3,0.8,3,0.8,2.9c-0.1-0.1-0.1-0.2,0-0.2L1,2.4c0.3-0.2,0.3-0.6,0.1-0.9C1,1.5,0.9,1.4,0.9,1.4L0.8,1.3
			C0.5,1.2,0.5,1.2,0.7,0.9c0.1-0.2,0.1-0.5,0-0.7l0-0.2C1,0,1.1,0,1.1,0.4c0,0.2,0,0.4-0.1,0.6c0.5,0.3,0.7,0.9,0.4,1.4
			c0,0,0,0,0,0c0,0,0.1,0.1,0.1,0.1c0.3,0.2,0.3,0.6,0.1,0.9C1.5,3.7,1.1,3.9,0.8,3.7C0.6,3.6,0.4,3.6,0.2,3.8C0.1,3.9,0.1,3.9,0,4
			V3.5l0.2-0.1L0,3.1V2.6z"/>
		<path class="st1" d="M46.4,35.6c-0.7,0.1-1.2,0.7-1.2,1.4c0,0.2,0.1,0.4,0.2,0.5c0.1,0.1,0.2,0.2,0.3,0.3l0.7,0.5v0.5l-0.8-0.6
			c-0.7-0.5-0.9-1.5-0.4-2.2c0,0,0,0,0,0c0.1-0.2,0.3-0.4,0.4-0.6c0.2-0.3,0.5-0.5,0.8-0.6L46.4,35.6z"/>
		<path class="st1" d="M46.4,13.3c-0.5-0.3-0.9-0.7-1.3-1.2c-0.2-0.2-0.2-0.3,0-0.5l1.2-1.1c0,0,0.1-0.1,0.1-0.1V11l-0.3,0.3
			l0.3,0.4v0.5l-0.6-0.6l-0.4,0.4c0.2,0.2,0.3,0.4,0.5,0.6s0.3,0.2,0.5,0.4L46.4,13.3z"/>
		<path class="st1" d="M20.8,48c-0.1-0.4,0.1-0.8,0.5-1c0.1,0,0.1,0,0.2,0c0.2,0,0.5,0,0.7,0.2l0.3,0.2c0.6-0.3,1.4-0.1,1.8,0.5
			h-0.4c-0.4-0.4-0.7-0.4-1.1-0.2l0,0.2h-0.4c-0.1-0.3-0.4-0.5-0.6-0.6c-0.2-0.1-0.5,0-0.6,0.2c0,0.1,0,0.1,0,0.2c0,0,0,0.1,0,0.1
			L20.8,48z"/>
		<path class="st1" d="M46.4,29.3l-1.1,0.3l-0.8,0.2c-0.2,0-0.3,0-0.3-0.2s-0.2-0.4-0.2-0.6c0,0,0-0.1,0-0.1c0-0.1,0-0.2,0.1-0.2
			c0.1,0,0.2,0,0.2,0.1c0,0.1,0.1,0.2,0.1,0.3s0.1,0.2,0.1,0.3l1.7-0.5L46,28.7c-0.1-0.2-0.1-0.2,0.1-0.4l0.1-0.1c0,0,0,0,0,0
			c-0.2-0.2-0.1-0.4,0.2-0.5L46.4,29.3z"/>
		<path class="st1" d="M44,48c0,0,0-0.1,0-0.1c0-0.4,0.3-0.8,0.7-0.8c0.1,0,0.3,0,0.4,0.1c0.2,0.1,0.4,0.2,0.6,0.3
			c0.2-0.1,0.5-0.2,0.7-0.1v0.3c-0.2,0-0.3,0-0.5,0.1l0,0.2h-0.4c-0.1-0.3-0.4-0.5-0.7-0.6c-0.2-0.1-0.5,0-0.6,0.2
			c0,0.1,0,0.1,0,0.2c0,0,0,0.1,0,0.1H44z"/>
		<path class="st1" d="M0,47.4c0.4,0,0.8,0.3,1,0.6H0.6c-0.2-0.2-0.4-0.3-0.6-0.3V47.4z"/>
		<path class="st1" d="M12.3,2.9l0.2-0.1c0.1-0.1,0.2,0,0.3,0.1L13,3.3c0.1,0.2,0.1,0.2-0.1,0.4l-0.1,0.1c0,0.1,0.1,0.2,0.1,0.3
			s0.1,0.2-0.1,0.4l-1.1,0.7l-0.1,0.1v0.1c0.1,0.2,0.1,0.3-0.1,0.4L9.9,7.1L8,8.6L7.9,8.7c-0.1,0.1-0.2,0.1-0.3,0
			C7.3,8.4,7,8.2,6.7,7.9L4.9,6L4.8,5.9c-0.1-0.2-0.2-0.2,0-0.4l1.5-1.7L7.8,2C8,1.8,8.1,1.8,8.3,1.9h0.1l0.1-0.1l0.6-0.9
			c0.1-0.2,0.2-0.2,0.4-0.1c0.1,0,0.2,0.1,0.3,0.2C9.8,1,9.9,1,9.9,1.1c0,0.1,0.1,0.2,0.2,0.2l0.3-0.4l0.1-0.2
			c0.1-0.1,0.2-0.1,0.2,0C10.9,0.8,11,0.9,11.2,1s0.1,0.2,0.1,0.3s-0.1,0.1-0.2,0.2s0.1,0.2,0.2,0.1s0.2,0,0.2,0L12,2l0.2-0.2
			c0.1-0.1,0.2-0.1,0.3,0s0.2,0.2,0.3,0.3s0.1,0.2,0,0.3s-0.3,0.2-0.4,0.3L12.3,2.9L12.3,2.9z M7.7,8.4l0.2-0.1l3.2-2.6
			c0.2-0.1,0.2-0.1,0.1-0.3c-0.2-0.5-0.5-0.9-0.8-1.3c-0.5-0.7-1.2-1.3-2-1.7C8.2,2.2,8.2,2.2,8,2.4L5.6,5.1L5.1,5.6L7.7,8.4z
			 M12.3,2.2c-0.6,0.4-1.3,0.9-1.8,1.5c0,0,0.1,0,0.1,0l1.8-1.3C12.4,2.3,12.4,2.3,12.3,2.2L12.3,2.2z M12.5,4l-1.2,0.8L11.4,5
			l1.2-0.7L12.5,4z M9.6,2.7L9.6,2.7l1.2-1.5l0,0c0,0,0-0.1,0-0.1c-0.1,0.1-0.2,0.2-0.3,0.4L9.7,2.5C9.6,2.6,9.5,2.6,9.6,2.7z
			 M9.8,1.6L9.7,1.5L9.1,2.3c0.1,0.1,0.1,0.1,0.2,0L9.8,1.6z M10.2,3.2l1.2-1.2c0,0,0,0,0-0.1C11,2.4,10.6,2.8,10.2,3.2z M11.8,3.4
			c-0.1,0-0.1,0-0.1,0c-0.3,0.2-0.6,0.4-0.9,0.7C11.2,3.9,11.5,3.7,11.8,3.4z M8.7,2.1L8.7,2.1c0.2,0,0.2-0.2,0.2-0.3
			s0.1-0.2,0.2-0.3s0.2-0.2,0.1-0.4L8.7,2.1z M12.6,3.5l-0.1-0.2c-0.3,0-0.3,0.2-0.4,0.4C12.2,3.7,12.2,3.7,12.6,3.5z M10.2,2.5
			L10.2,2.5L10.9,2c0.1-0.1,0.1-0.1,0-0.2L10.2,2.5z M11.8,3.9c-0.3,0.1-0.5,0.3-0.7,0.5C11.4,4.3,11.6,4.1,11.8,3.9z"/>
		<path class="st1" d="M31.6,1.9c0.1-0.1,0.1-0.2,0.2-0.3l0.5-0.8c0.1-0.2,0.2-0.2,0.3-0.1c0.1,0,0.2,0.1,0.3,0.2
			c0,0,0.1,0.1,0.1,0.2s0.1,0.2,0.2,0.2c0.1-0.2,0.3-0.4,0.4-0.5s0.2-0.2,0.4-0.1c0.1,0.1,0.2,0.1,0.3,0.2c0.2,0.1,0.2,0.2,0.1,0.3
			l-0.1,0.2l0,0c0,0.1,0.1,0.1,0.2,0.1c0.1-0.1,0.2-0.1,0.2,0C34.9,1.7,35,1.8,35.2,2l0.2-0.2c0.2-0.1,0.2-0.1,0.3,0
			C35.9,1.9,35.9,2,36,2.1c0.1,0.2,0.1,0.2,0,0.4c-0.2,0.1-0.3,0.3-0.5,0.4l0.1,0c0.2-0.1,0.2-0.1,0.4,0.1s0.2,0.2,0.2,0.4
			s0.1,0.2-0.1,0.4L36,3.8c0,0.1,0.1,0.2,0.1,0.3s0.1,0.2-0.1,0.3l-1,0.7l-0.2,0.1c0,0,0,0.1,0,0.1c0.1,0.1,0,0.3-0.1,0.4
			c0,0,0,0,0,0c-0.3,0.2-0.6,0.5-0.9,0.7l-2.6,2.1c-0.3,0.3-0.3,0.3-0.6,0L28,5.9c-0.2-0.2-0.2-0.3,0-0.5L31.1,2
			c0.1-0.2,0.2-0.2,0.4-0.1L31.6,1.9z M30.9,8.4L30.9,8.4l3.4-2.8c0.1-0.1,0.1-0.1,0.1-0.3c-0.4-0.9-1-1.7-1.7-2.3
			c-0.3-0.3-0.7-0.5-1.1-0.7c-0.2-0.1-0.2-0.1-0.4,0.1L31,2.6l-2.3,2.5l-0.4,0.5L30.9,8.4z M33.7,3.6c0.7-0.4,1.3-0.9,1.9-1.4
			l-0.1-0.1C34.9,2.6,34.3,3.1,33.7,3.6z M34.6,5l1.2-0.7l0-0.1L35.7,4l-1.2,0.8L34.6,5z M34,1.1L34,1.1l-1.2,1.5c0,0,0,0,0,0.1
			s0,0.1,0,0.2L34,1.1C34,1.2,34,1.1,34,1.1z M32.9,1.5l-0.5,0.8c0.1,0.1,0.1,0.1,0.2,0l0.5-0.7L32.9,1.5z M34.6,2
			c-0.2,0.1-0.3,0.2-0.4,0.4c-0.1,0.1-0.3,0.3-0.4,0.4l-0.4,0.4l0,0C33.8,2.8,34.2,2.4,34.6,2z M34.9,3.3l-0.3,0.2
			c-0.1,0.1-0.2,0.2-0.3,0.2c-0.1,0.1-0.2,0.1-0.2,0.3c0.3-0.2,0.6-0.4,0.9-0.6C35,3.4,35,3.4,34.9,3.3L34.9,3.3z M32.7,1.2
			L32.7,1.2l-0.7,0.9c0.1,0,0.1,0,0.1,0C32.3,1.8,32.5,1.5,32.7,1.2z M35.3,3.7c0.2,0,0.4-0.1,0.5-0.3l-0.1-0.2
			C35.5,3.3,35.4,3.5,35.3,3.7z M33.5,2.5L33.5,2.5c0.2-0.2,0.4-0.4,0.6-0.6c0.1-0.1,0-0.1,0-0.1L33.5,2.5z M35,3.9
			c-0.3,0.1-0.5,0.3-0.7,0.5C34.5,4.3,34.8,4.1,35,3.9z"/>
		<path class="st1" d="M27.7,19l0.2-0.1c0.1-0.1,0.2,0,0.3,0.1c0,0,0,0,0,0c0.1,0.1,0.2,0.2,0.2,0.4s0.1,0.3-0.1,0.4l-0.1,0.1
			c0,0.1,0.1,0.2,0.1,0.3s0.1,0.2-0.1,0.4l-1.2,0.7L27,21.3c0,0,0,0,0,0c0.1,0.2,0,0.4-0.1,0.5c-1.2,1-2.4,1.9-3.5,2.9
			c-0.2,0.1-0.3,0.1-0.4,0L20.4,22l-0.2-0.2c-0.1-0.1-0.1-0.2,0-0.4s0.5-0.5,0.7-0.8l2.4-2.7c0.1-0.1,0.2-0.2,0.4-0.1l0.1,0
			c0.1-0.1,0.1-0.2,0.2-0.3c0.2-0.3,0.3-0.5,0.5-0.8s0.2-0.2,0.3-0.1c0.1,0,0.2,0.1,0.3,0.1c0.1,0,0.2,0.1,0.2,0.2s0.1,0.1,0.2,0.2
			l0.4-0.5c0.1-0.2,0.2-0.2,0.4-0.1l0.3,0.2c0.1,0.1,0.1,0.2,0,0.3l-0.2,0.2c0,0.1,0.1,0.1,0.2,0.1c0.1,0,0.2,0,0.3,0.1l0.4,0.4
			l0.2-0.1c0.1-0.1,0.2-0.1,0.4,0c0.1,0.1,0.2,0.2,0.3,0.3c0.1,0.1,0.1,0.2,0,0.3s-0.3,0.2-0.4,0.3L27.7,19L27.7,19z M26.7,21.5
			c-0.6-1.4-1.7-2.6-3.1-3.3l-3,3.4l2.6,2.7L26.7,21.5z M26.9,21l1.2-0.8L28,20l-1.2,0.8L26.9,21z M27.9,18.3
			c-0.1-0.1-0.1-0.1-0.2,0L26,19.6c0,0,0,0.1-0.1,0.1C26.7,19.3,27.3,18.8,27.9,18.3L27.9,18.3z M25.1,18.8c0.4-0.5,0.7-1,1.1-1.5
			c0,0,0.1-0.1,0.1-0.1l0,0v0l-0.1,0.1c-0.1,0.2-0.3,0.4-0.4,0.6l-0.6,0.8C25.1,18.6,25,18.7,25.1,18.8L25.1,18.8z M24.6,18.4
			l0.1,0.1l0.6-0.8l-0.2-0.1L24.6,18.4z M25.7,19.3l1.1-1.1c0,0,0,0,0-0.1l0,0l0,0C26.4,18.4,26,18.8,25.7,19.3L25.7,19.3z M26.3,20
			L26.3,20c0.3-0.2,0.6-0.4,0.9-0.6c0,0,0-0.1,0-0.1L26.3,20L26.3,20L26.3,20z M27.5,19.7c0.2,0,0.4-0.1,0.5-0.3L28,19.3
			C27.8,19.3,27.7,19.5,27.5,19.7L27.5,19.7z M24.2,18.1L24.2,18.1C24.2,18.1,24.3,18.1,24.2,18.1c0.3-0.3,0.5-0.6,0.6-1L24.2,18.1z
			 M26.4,17.8L26.4,17.8l-0.6,0.7l0,0l0.5-0.6C26.3,17.9,26.4,17.9,26.4,17.8z M27.3,20c-0.3,0-0.6,0.2-0.7,0.5L27.3,20z"/>
		<path class="st1" d="M16.1,34l0.7-1l0.1-0.2c0.1-0.1,0.2-0.1,0.2-0.1c0.1,0.1,0.3,0.1,0.4,0.2c0.1,0,0.1,0.1,0.1,0.2
			c0,0.1,0.1,0.2,0.2,0.2l0.4-0.5c0.2-0.2,0.2-0.2,0.4-0.1l0.3,0.2c0.1,0.1,0.1,0.2,0.1,0.3l-0.2,0.2c0,0.1,0.1,0.1,0.2,0.1
			c0.1-0.1,0.2,0,0.3,0.1l0.4,0.3l0.2-0.1c0.2-0.1,0.2-0.1,0.4,0l0.2,0.2c0.2,0.2,0.2,0.3,0,0.4s-0.4,0.3-0.6,0.5
			c0.1,0,0.2-0.1,0.3-0.2c0.2-0.1,0.2-0.1,0.4,0.1c0.1,0.1,0.2,0.2,0.2,0.3c0.1,0.2,0.1,0.3-0.1,0.4l-0.1,0.1c0,0.1,0.1,0.2,0.1,0.2
			c0.1,0.3,0.1,0.3-0.2,0.5l-1,0.6l-0.1,0.1c0,0,0,0.1,0,0.1c0.1,0.1,0,0.3-0.1,0.4c-0.8,0.6-1.5,1.3-2.3,1.9l-1.2,1
			c-0.2,0.2-0.3,0.2-0.4,0c-0.9-0.9-1.8-1.8-2.7-2.8c-0.2-0.2-0.2-0.2,0-0.4l3-3.3C15.7,33.9,15.8,33.8,16.1,34z M15.9,34.3l-3,3.4
			l2.6,2.8l3.5-2.9C18.4,36.1,17.3,34.9,15.9,34.3L15.9,34.3z M18.3,35.6L18.3,35.6C18.3,35.7,18.3,35.7,18.3,35.6
			c0.7-0.4,1.3-0.8,1.9-1.3c-0.1-0.2-0.2-0.1-0.2,0l-1.5,1.1L18.3,35.6z M19.1,37l1.2-0.7L20.2,36L19,36.8L19.1,37z M17.3,34.8
			C17.3,34.8,17.4,34.8,17.3,34.8l1.2-1.5c0,0,0-0.1,0-0.1s-0.1,0-0.1,0.1L17.3,34.8C17.3,34.7,17.3,34.8,17.3,34.8L17.3,34.8z
			 M17.3,33.6l-0.5,0.8l0.1,0.1l0.6-0.8L17.3,33.6z M19.1,34c-0.1,0.1-0.3,0.3-0.4,0.4l-0.4,0.4c-0.1,0.2-0.3,0.2-0.3,0.5
			C18.3,34.9,18.7,34.5,19.1,34L19.1,34z M19.4,35.4c-0.3,0.2-0.6,0.4-0.9,0.7c0,0,0,0,0,0c0.3-0.2,0.6-0.4,0.8-0.6
			C19.5,35.5,19.5,35.4,19.4,35.4L19.4,35.4z M17.1,33.2c-0.1,0-0.1,0-0.2,0.2s-0.2,0.2-0.2,0.4s-0.2,0.2-0.1,0.3
			C16.7,33.9,17,33.6,17.1,33.2L17.1,33.2z M20.2,35.3c-0.2,0.1-0.2,0.1-0.4,0.4c0.1,0,0.3,0,0.5-0.3L20.2,35.3z M18.5,33.8
			c-0.2,0.2-0.4,0.5-0.5,0.8l0.5-0.6C18.6,33.9,18.7,33.9,18.5,33.8L18.5,33.8z M18.7,36.5c0.3-0.1,0.5-0.3,0.7-0.5
			C19.2,36.1,19,36.2,18.7,36.5L18.7,36.5z"/>
		<path class="st1" d="M42,33.5c0,0.1,0.1,0.1,0.2,0.1s0.2,0,0.3,0.1l0.4,0.3l0.2-0.2c0.1-0.1,0.2-0.1,0.3,0l0.3,0.3
			c0.2,0.2,0.2,0.3,0,0.4L43.1,35c0,0-0.1,0.1-0.1,0.1l0.3-0.2c0.2-0.1,0.2-0.1,0.3,0.1s0.2,0.2,0.2,0.4s0.1,0.2-0.1,0.4l-0.1,0.1
			l0.1,0.2c0.1,0.3,0.1,0.3-0.2,0.5l-1,0.6l-0.2,0.1c0,0,0,0.1,0,0.1c0.1,0.2,0.1,0.2-0.1,0.4l-3.5,2.9c-0.2,0.2-0.3,0.2-0.5,0
			l-2.1-2.2l-0.5-0.5c-0.2-0.2-0.2-0.3,0-0.5l1.1-1.2l1.8-2c0.2-0.2,0.3-0.4,0.6-0.2l0.5-0.8c0.1-0.1,0.1-0.2,0.2-0.3
			c0.1-0.2,0.2-0.2,0.4-0.1l0.2,0.1c0.1,0,0.2,0.1,0.2,0.2s0.1,0.2,0.2,0.2l0.4-0.5c0.2-0.2,0.2-0.3,0.5-0.1l0.2,0.1
			c0.2,0.1,0.2,0.2,0.1,0.4L42,33.5L42,33.5z M38.6,40.4l3.5-2.9c-0.6-1.4-1.7-2.6-3.1-3.3L36,37.7L38.6,40.4z M41.4,35.6l0.1,0
			c0.6-0.4,1.2-0.9,1.8-1.4c-0.1-0.1-0.1-0.1-0.2,0L42,35.2L41.4,35.6z M42.3,37l1.2-0.7c0-0.1,0-0.1-0.1-0.2L43.4,36l-1.2,0.8
			L42.3,37z M40.6,34.8L40.6,34.8l1.1-1.5c0,0,0-0.1,0-0.1s-0.1,0.1-0.2,0.2l-1,1.3C40.6,34.6,40.5,34.6,40.6,34.8L40.6,34.8z
			 M40.6,33.6L40,34.4l0.1,0.1l0.5-0.7v-0.1L40.6,33.6z M42.3,34c-0.4,0.4-0.8,0.8-1.2,1.2C41.6,34.9,42,34.5,42.3,34L42.3,34z
			 M42.6,35.3c-0.3,0.2-0.6,0.4-0.9,0.7c0.2,0,0.3-0.1,0.4-0.2S42.5,35.6,42.6,35.3L42.6,35.3z M40.3,33.2c-0.1,0.1-0.2,0.2-0.3,0.3
			l-0.2,0.3c-0.1,0.1-0.2,0.2-0.2,0.3C40,33.9,40.2,33.6,40.3,33.2L40.3,33.2z M43.5,35.5l-0.1-0.2c-0.2,0.1-0.2,0.1-0.4,0.4
			C43.2,35.7,43.2,35.7,43.5,35.5L43.5,35.5z M41.8,33.8c-0.2,0.2-0.4,0.5-0.5,0.7l0.4-0.4l0.1-0.2C41.9,33.9,41.9,33.9,41.8,33.8
			L41.8,33.8z M42.8,36c-0.3,0.1-0.6,0.3-0.8,0.5C42.3,36.3,42.5,36.2,42.8,36L42.8,36z"/>
		<path class="st1" d="M11.9,22.8l0.7,0.5l0.9,0.7c0.2,0.1,0.2,0.3,0.2,0.4c0,0.3-0.2,0.5-0.5,0.5c-0.1,0-0.1,0-0.2,0
			c-0.1,0-0.1-0.1-0.2-0.1l-1.4-1l-0.2-0.1c-0.2,0.1-0.3,0.2-0.5,0.3c-0.5,0.3-1.2,0.3-1.7-0.1c-0.8-0.5-1.5-1.1-2.3-1.6
			c-0.3-0.2-0.6-0.6-0.6-1c-0.1-0.4,0-0.9,0.3-1.3L7,19.3c0.5-0.7,1.5-0.9,2.2-0.4c0,0,0,0,0,0c0.8,0.5,1.5,1.1,2.2,1.6
			c0.7,0.5,0.9,1.4,0.5,2.1L11.9,22.8z M10.1,23.7c0.6,0,1.1-0.3,1.2-0.9c0.2-0.5,0-1.1-0.4-1.4l-2.2-1.6c-0.2-0.2-0.5-0.3-0.8-0.2
			c-0.5,0-1,0.4-1.2,0.9c-0.2,0.5,0,1.1,0.4,1.4l2.3,1.6C9.6,23.6,9.8,23.7,10.1,23.7z M11.8,22.2c0.2-0.5,0-1-0.4-1.3L9,19.2
			C8.8,19.1,8.6,19,8.4,19c-0.3,0-0.6,0-0.8,0.2c0.5,0,0.9,0.1,1.3,0.4c0.7,0.5,1.4,1,2.1,1.5c0.3,0.2,0.6,0.5,0.7,0.9L11.8,22.2z
			 M11.6,23.2L11.6,23.2l1.6,1.2l0.1,0.1c0.1,0,0.1,0,0.1,0c0,0,0-0.1,0-0.1c0,0-0.1-0.1-0.1-0.1l-1.6-1.1h-0.1L11.6,23.2z"/>
		<path class="st1" d="M35.1,22.8l0.7,0.5l1,0.7c0.1,0.1,0.2,0.2,0.3,0.4c0,0.3-0.1,0.5-0.4,0.6c-0.1,0-0.3,0-0.4-0.1l-0.8-0.5
			l-1-0.7c-0.2,0.1-0.3,0.2-0.5,0.3c-0.5,0.3-1.2,0.3-1.7-0.1c-0.8-0.5-1.5-1.1-2.3-1.6c-0.7-0.5-0.9-1.5-0.4-2.2c0,0,0,0,0,0
			l0.5-0.6c0.5-0.7,1.5-0.9,2.2-0.4c0.8,0.5,1.5,1.1,2.3,1.6c0.7,0.5,0.9,1.4,0.5,2.1C35.2,22.7,35.2,22.7,35.1,22.8z M33.3,23.8
			c0.1,0,0.2,0,0.4,0c0.5-0.1,0.9-0.6,0.9-1.1c0.1-0.5-0.1-1-0.5-1.2c-0.7-0.5-1.5-1-2.2-1.6c-0.2-0.2-0.5-0.3-0.8-0.2
			c-0.5,0-1,0.4-1.2,0.9c-0.2,0.5,0,1.1,0.4,1.4l2.3,1.6C32.8,23.7,33,23.7,33.3,23.8L33.3,23.8z M30.9,19.2h0.2
			c0.3,0,0.7,0.1,0.9,0.3l2.3,1.7c0.1,0.1,0.2,0.2,0.3,0.3c0.2,0.2,0.3,0.5,0.3,0.7c0.2-0.5,0-1-0.4-1.3c-0.8-0.6-1.5-1.1-2.3-1.7
			c-0.1-0.1-0.1-0.1-0.2-0.1C31.6,18.9,31.2,19,30.9,19.2L30.9,19.2z M34.8,23.3L34.8,23.3l1.6,1.2l0.1,0.1c0,0,0.1,0,0.1,0
			c0,0,0-0.1,0-0.1c0-0.1-0.1-0.1-0.2-0.1L35,23.1l-0.1-0.1l-0.1,0.1L34.8,23.3z"/>
		<path class="st1" d="M42.9,6.7L44,7.6c0.2,0.1,0.3,0.2,0.5,0.4c0.1,0.1,0.2,0.1,0.2,0.2c0.1,0.2,0,0.4-0.1,0.6
			c-0.2,0.1-0.4,0.1-0.6,0c-0.2-0.1-0.4-0.3-0.6-0.4l-1-0.7l-0.1-0.1l-0.1,0.1c-0.5,0.5-1.4,0.6-2,0.2c-0.8-0.6-1.6-1.1-2.4-1.7
			C37.2,5.6,37,4.7,37.4,4c0.2-0.3,0.4-0.6,0.6-0.8c0.5-0.7,1.5-0.8,2.2-0.3l2.3,1.7C43.1,5,43.3,5.8,43,6.4L42.9,6.7z M41,7.7
			c0.6,0,1.1-0.4,1.2-0.9c0.2-0.5,0-1.1-0.4-1.4c-0.8-0.6-1.5-1.1-2.3-1.7c-0.3-0.2-0.7-0.3-1-0.2c-0.5,0.1-0.9,0.5-1,1
			c-0.1,0.5,0.1,1,0.5,1.2l2.3,1.7C40.5,7.6,40.8,7.7,41,7.7L41,7.7z M38.5,3.2h0.3c0.3,0,0.7,0.1,0.9,0.3l2.3,1.7
			c0.3,0.2,0.5,0.5,0.6,0.8l0.1,0.2c0.2-0.5,0-1.1-0.5-1.3c-0.7-0.5-1.5-1-2.2-1.6c-0.1-0.1-0.2-0.2-0.3-0.2
			C39.3,2.9,38.9,2.9,38.5,3.2z M42.5,7.2l1.7,1.2c0,0,0,0,0.1,0c0,0,0.1,0,0.1,0c0-0.1,0-0.1,0-0.2c0-0.1-0.1-0.1-0.1-0.1l-1.5-1
			l-0.2-0.1L42.5,7.2z"/>
		<path class="st1" d="M27.4,38.8l1.1,0.8c0.2,0.2,0.5,0.3,0.7,0.5c0.2,0.1,0.2,0.3,0.2,0.5c0,0.2-0.2,0.3-0.3,0.4
			c-0.2,0.1-0.3,0-0.5-0.1l-0.9-0.6l-0.8-0.6c-0.2,0.2-0.4,0.4-0.7,0.5c-0.5,0.2-1,0.1-1.5-0.2c-0.6-0.4-1.2-0.9-1.9-1.3l-0.4-0.3
			c-0.7-0.5-0.8-1.5-0.4-2.2c0.2-0.2,0.3-0.5,0.5-0.7c0.5-0.7,1.4-0.9,2.1-0.4c0.5,0.3,0.9,0.7,1.4,1c0.3,0.2,0.6,0.4,0.9,0.6
			C27.6,37,27.9,38,27.4,38.8C27.4,38.8,27.4,38.7,27.4,38.8z M26.9,38.5c0-0.4-0.2-0.8-0.5-1L24.4,36c-0.2-0.1-0.4-0.3-0.6-0.4
			c-0.6-0.3-1.3,0-1.6,0.6c-0.3,0.6-0.2,1.3,0.3,1.7l2.3,1.6c0.4,0.3,0.9,0.3,1.3,0.1C26.6,39.3,26.8,38.9,26.9,38.5z M23.1,35.2
			h0.2c0.4,0,0.7,0.1,1,0.3l2.3,1.6c0.2,0.1,0.4,0.3,0.5,0.6c0.1,0.2,0.1,0.3,0.2,0.5c0-0.1,0-0.2,0-0.3c0-0.4-0.2-0.8-0.5-1
			L25.5,36c-0.4-0.3-0.7-0.5-1.1-0.8C24.1,34.9,23.5,34.9,23.1,35.2z M27,39.3L27,39.3l1.6,1.2c0,0,0.1,0.1,0.1,0.1c0,0,0.1,0,0.1,0
			c0,0,0-0.1,0-0.1c0,0-0.1-0.1-0.1-0.1l-1.5-1.1c0,0-0.1-0.1-0.1-0.1L27,39.3z"/>
		<path class="st1" d="M19.6,6.7l1.2,0.9L21.4,8c0.2,0.1,0.2,0.3,0.2,0.5c0,0.3-0.3,0.4-0.5,0.4c-0.1,0-0.1,0-0.2-0.1
			c-0.2-0.1-0.4-0.3-0.6-0.4l-1.1-0.8c0,0-0.1,0.1-0.1,0.1c-0.5,0.5-1.4,0.6-2,0.1l-2.3-1.6c-0.4-0.3-0.6-0.7-0.6-1.1
			c0-0.3,0-0.7,0.2-1c0.2-0.3,0.4-0.6,0.6-0.9c0.5-0.7,1.5-0.8,2.2-0.3l2.3,1.7c0.6,0.5,0.8,1.3,0.5,2C19.7,6.6,19.7,6.7,19.6,6.7z
			 M17.8,7.7c0.6,0,1.1-0.4,1.2-0.9c0.2-0.5,0-1.1-0.5-1.4L18,4.9l-1.7-1.2c-0.2-0.2-0.5-0.3-0.8-0.2c-0.4,0-0.8,0.3-1,0.7
			c-0.3,0.5-0.2,1.2,0.3,1.6l2.3,1.7C17.3,7.6,17.6,7.7,17.8,7.7L17.8,7.7z M15.4,3.2L15.4,3.2L15.4,3.2c0.5,0,0.9,0.1,1.3,0.4
			c0.7,0.5,1.4,1,2,1.5c0.4,0.2,0.6,0.6,0.7,1.1l0,0V6c0,0,0-0.1,0-0.1c0-0.4-0.1-0.8-0.4-1.1l-2.2-1.6c-0.1-0.1-0.2-0.1-0.3-0.2
			C16.1,2.9,15.7,2.9,15.4,3.2z M19.3,7.2C19.3,7.2,19.3,7.3,19.3,7.2l1.6,1.2c0,0,0.1,0.1,0.1,0.1c0,0,0.1,0,0.1,0c0,0,0-0.1,0-0.1
			c0-0.1-0.1-0.1-0.2-0.2l-1.5-1l-0.2-0.1L19.3,7.2z"/>
		<path class="st1" d="M17.8,14.9l-0.4-0.4c-0.3,0.1-0.6,0.1-0.8,0c-0.2-0.1-0.3-0.3-0.3-0.5c-0.1-0.5,0.1-0.9,0.7-1
			c0-0.3,0.2-0.6,0.5-0.7c0.2-0.1,0.4-0.1,0.6,0c0.5,0.2,0.6,0.6,0.4,1.2l0.4,0.4c0.1,0,0.2-0.1,0.2-0.1c0.1,0,0.2,0,0.2,0.1
			c0.7,0.3,1.4,0.6,2,0.9c0.9,0.5,1.2,1.5,0.8,2.4c-0.2,0.6-0.8,1-1.5,1.1c-0.7,0.1-1.4-0.2-1.8-0.8c-0.2-0.4-0.5-0.8-0.7-1.3
			c-0.1-0.3-0.3-0.6-0.4-0.9S17.7,15.1,17.8,14.9z M18.5,14.9c0.1,0.2,0.2,0.4,0.2,0.6c0.2,0.4,0.4,0.9,0.6,1.3
			c0.4,0.6,1.2,0.9,1.9,0.6c0.3,0,0.5-0.3,0.5-0.5c0-0.2,0-0.5,0-0.7c0-0.4-0.3-0.8-0.7-1c-0.6-0.4-1.3-0.7-1.9-0.9
			c-0.1-0.1-0.2-0.1-0.2,0L18.5,14.9z M18.5,14.2l-0.5-0.4c-0.2-0.2-0.2-0.2,0-0.4c0,0,0-0.1,0-0.1c0.1-0.1,0.1-0.3,0-0.5
			c-0.1-0.1-0.3-0.2-0.5-0.1c-0.2,0.1-0.2,0.2-0.2,0.4c0,0,0,0.1,0,0.1c0,0.1,0,0.2-0.1,0.2c0,0-0.1,0-0.1,0c-0.1,0-0.1,0-0.2,0
			c-0.2,0-0.3,0.1-0.4,0.2c-0.1,0.2,0,0.3,0.1,0.4c0.1,0.1,0.3,0.2,0.4,0.1c0.1,0,0.1-0.1,0.2-0.1c0.1-0.1,0.2-0.1,0.3,0
			c0.1,0,0.1,0.1,0.2,0.2l0.4,0.4L18.5,14.2z"/>
		<path class="st1" d="M40.2,13c0.2-0.6,0.6-0.9,1.1-0.7s0.7,0.6,0.4,1.3l0.4,0.4c0.2-0.2,0.3-0.1,0.5-0.1c0.6,0.3,1.3,0.6,1.9,0.9
			c0.8,0.4,1.2,1.3,0.9,2.1c-0.2,0.8-0.9,1.4-1.7,1.4c-0.8,0.1-1.5-0.3-1.8-1c-0.4-0.7-0.7-1.4-1-2.1c-0.1-0.1-0.1-0.2,0-0.3
			l-0.4-0.4c-0.3,0.1-0.6,0.1-0.8,0c-0.2-0.1-0.3-0.3-0.3-0.5C39.3,13.5,39.6,13.1,40.2,13z M41.7,14.9c0.1,0.2,0.2,0.4,0.2,0.6
			c0.2,0.4,0.5,0.9,0.7,1.3c0.2,0.3,0.5,0.5,0.9,0.6c0.3,0.1,0.6,0.1,0.9,0c0.2,0,0.4-0.2,0.5-0.3c0.1-0.3,0.2-0.6,0.1-0.9
			c-0.1-0.4-0.3-0.8-0.7-1c-0.6-0.4-1.3-0.7-1.9-0.9c-0.1-0.1-0.2-0.1-0.2,0L41.7,14.9z M41.7,14.2l-0.4-0.4c-0.2-0.2-0.2-0.2,0-0.5
			c0,0,0,0,0-0.1c0.1-0.2,0.1-0.4-0.1-0.5c0,0,0,0,0,0c-0.2-0.1-0.4,0-0.5,0.2c0,0,0,0,0,0c0,0.1,0,0.2,0,0.3c0,0.2,0,0.3-0.3,0.3
			l0,0c-0.2,0-0.4,0-0.5,0.2c-0.1,0.2,0,0.4,0.1,0.5c0.1,0.1,0.4,0.1,0.5,0c0.2-0.1,0.2-0.1,0.4,0l0.5,0.5L41.7,14.2z"/>
		<path class="st1" d="M33.3,30.9l-0.4-0.4c-0.3,0.1-0.6,0.1-0.8,0c-0.2-0.1-0.3-0.3-0.4-0.5c-0.1-0.5,0.1-0.8,0.7-1
			c0.2-0.6,0.6-0.9,1.1-0.7s0.6,0.6,0.4,1.2l0.4,0.4c0.1-0.2,0.3-0.2,0.5-0.1c0.6,0.3,1.2,0.5,1.8,0.9c0.2,0.1,0.4,0.3,0.6,0.4
			c0.7,0.8,0.6,2-0.2,2.7c-0.8,0.7-2,0.6-2.7-0.2c0-0.1-0.1-0.1-0.1-0.2c-0.4-0.7-0.7-1.4-1-2.2C33.1,31.2,33.1,31,33.3,30.9z
			 M33.9,30.9c0,0.1,0.1,0.2,0.1,0.4s0.2,0.5,0.3,0.7c0.1,0.3,0.3,0.6,0.4,0.8c0.1,0.2,0.2,0.3,0.4,0.4c0.4,0.3,0.8,0.4,1.3,0.3
			c0.4-0.1,0.7-0.2,0.8-0.6c0-0.1,0.1-0.3,0.1-0.4c0-0.5-0.2-1-0.7-1.2c-0.4-0.2-0.9-0.5-1.3-0.7c-0.2-0.1-0.5-0.2-0.7-0.3
			L33.9,30.9z M33.9,30.2L33.9,30.2l-0.5-0.5c-0.1-0.1-0.1-0.2,0-0.3c0,0,0,0,0,0l0.1-0.1c0.1-0.1,0.1-0.3,0-0.5
			c-0.1-0.1-0.3-0.2-0.5-0.1c-0.2,0.1-0.3,0.2-0.2,0.4c0,0,0,0.1,0,0.1c0,0.1,0,0.2-0.1,0.2c0,0,0,0-0.1,0h-0.2
			c-0.2,0-0.4,0.1-0.4,0.3c0,0.2,0.1,0.4,0.3,0.4c0.1,0,0.2,0,0.2-0.1c0.2-0.1,0.2-0.1,0.5,0s0.3,0.3,0.4,0.4L33.9,30.2z"/>
		<path class="st1" d="M10,30.9l-0.4-0.4c-0.3,0.1-0.5,0.1-0.8,0c-0.2-0.1-0.3-0.3-0.3-0.5c-0.1-0.5,0.1-0.9,0.7-1
			c0-0.3,0.2-0.6,0.5-0.7c0.2-0.1,0.4-0.1,0.6,0c0.5,0.2,0.6,0.6,0.3,1.2l0.4,0.4c0.1-0.2,0.3-0.1,0.5,0c0.6,0.3,1.2,0.5,1.7,0.8
			c0.3,0.1,0.5,0.3,0.7,0.5c0.4,0.5,0.6,1.2,0.4,1.8c-0.2,0.7-0.8,1.2-1.5,1.3c-0.8,0.2-1.6-0.2-1.9-0.9c-0.4-0.6-0.7-1.2-0.9-1.9
			L10,31.3C9.9,31.2,9.9,31,10,30.9z M11.3,30.2c-0.2,0.2-0.4,0.4-0.6,0.5c-0.1,0.1-0.1,0.2-0.1,0.3c0.2,0.5,0.4,0.9,0.6,1.4
			c0.3,0.6,0.8,0.9,1.4,1c0.4,0,0.7-0.1,1-0.2c0.1,0,0.1-0.1,0.1-0.1c0.1-0.3,0.2-0.6,0.2-0.9c-0.1-0.5-0.4-0.9-0.8-1.1
			c-0.5-0.3-1.1-0.5-1.6-0.8L11.3,30.2z M10.3,30.6c0.2-0.1,0.3-0.3,0.4-0.5l-0.2-0.2c-0.1-0.1-0.2-0.2-0.2-0.3
			c-0.1-0.1-0.1-0.2,0-0.3c0,0,0,0,0,0l0.1-0.1c0.1-0.2,0.1-0.4-0.1-0.5c0,0,0,0,0,0c-0.1-0.1-0.3-0.1-0.4,0
			c-0.1,0.1-0.2,0.3-0.2,0.4c0,0.3,0,0.3-0.3,0.3c-0.1,0-0.1,0-0.2,0c-0.2,0-0.3,0.1-0.3,0.3c-0.1,0.2,0.1,0.4,0.3,0.5
			c0.1,0,0.2,0,0.3-0.1c0.2-0.1,0.2-0.1,0.4,0L10.3,30.6z"/>
		<path class="st1" d="M29.1,13.5l1.7-0.5l-0.2-0.3c-0.1-0.2-0.1-0.2,0.1-0.4l0.2-0.1c0,0,0-0.1,0-0.1c-0.1-0.2-0.1-0.2,0.1-0.4
			l0.4-0.4c0.2-0.2,0.2-0.2,0.5,0c0.1-0.1,0.2-0.1,0.4-0.2l3.8-2h0.1c0.2-0.1,0.2-0.1,0.3,0.1l0.5,0.6l0.4,0.6
			c0.2,0.3,0.2,0.3,0,0.6l-3.1,3.1l-0.2,0.2l0.1,0.2c0.1,0.2,0.1,0.3-0.1,0.4l-0.5,0.3c-0.3,0.2-0.3,0.2-0.5-0.1l-0.2,0.1
			c-0.2,0.1-0.2,0.1-0.4-0.1s-0.2-0.3-0.3-0.5c-0.3-0.4-0.6-0.8-0.9-1.2L31,13.3l-0.8,0.3l-1,0.3c-0.2,0.1-0.3,0-0.4-0.2
			s-0.1-0.4-0.2-0.6V13c0-0.1,0.1-0.2,0.2-0.2c0.1,0,0.1,0,0.2,0.1c0,0.1,0.1,0.2,0.1,0.3L29.1,13.5z M31.9,11.6l1.7,2.4
			c0.3-0.2,3.1-3.1,3.2-3.2L36,9.5L31.9,11.6z M33.6,14.6c-0.7-1-1.5-2-2.2-3l-0.2,0.2c0,0-0.1,0.1-0.1,0.1V12
			c0.1,0.2,0.1,0.2-0.1,0.4l-0.1,0.1l1.7,2.3c0.1-0.1,0.2-0.1,0.4-0.2c0.2-0.1,0.2,0.2,0.3,0.2L33.6,14.6z"/>
		<path class="st1" d="M5.8,13.5L7.6,13l-0.2-0.3c-0.1-0.2-0.1-0.2,0.1-0.4l0.1-0.1c0,0,0-0.1,0-0.1c-0.1-0.2-0.1-0.3,0.1-0.4
			L8,11.3c0.2-0.2,0.2-0.2,0.5,0l1.2-0.6c1-0.5,1.9-1,2.9-1.5c0.2-0.1,0.3-0.1,0.4,0.1c0.3,0.4,0.6,0.9,0.9,1.3
			c0.2,0.2,0.2,0.2,0,0.4l-3.1,3.1l-0.2,0.2c0,0,0,0.1,0.1,0.1c0.1,0.2,0.1,0.3-0.1,0.4l-0.4,0.3c-0.3,0.2-0.3,0.2-0.5-0.1l-0.2,0.1
			c-0.2,0.1-0.2,0.1-0.4-0.1l-0.9-1.2l-0.5-0.6l-0.6,0.2l-1.3,0.4c-0.2,0.1-0.3,0-0.4-0.2s-0.2-0.4-0.2-0.6s0-0.2,0.1-0.3
			s0.2,0,0.2,0.1l0.1,0.2L5.8,13.5z M10.4,13.9l3.2-3.2c-0.3-0.4-0.5-0.8-0.9-1.2l-4.1,2.1L10.4,13.9z M7.7,12.5l1.7,2.3
			c0.4-0.2,0.4-0.2,0.7,0l0.4-0.2c-0.1-0.3-2-2.8-2.2-3l-0.3,0.3C8,12.2,8,12.2,7.7,12.5z"/>
		<path class="st1" d="M26.1,30.3c0,0.1,0.1,0.1,0.1,0.2c0.1,0.1,0.1,0.2,0,0.3s-0.5,0.3-0.7,0.4c-0.1,0.1-0.2,0.1-0.2,0l-0.1-0.1
			c-0.1,0.1-0.1,0.1-0.2,0.2c-0.1,0.1-0.2,0.1-0.3,0c0,0,0,0,0,0L24.5,31l-1.2-1.6l-0.1-0.1l-1,0.3l-0.9,0.3c-0.2,0.1-0.3,0-0.4-0.2
			s-0.1-0.3-0.2-0.5c0,0,0-0.1,0-0.1c0-0.1,0-0.2,0.1-0.2c0.1,0,0.2,0,0.2,0.1c0,0.1,0.1,0.2,0.1,0.3l0.1,0.3L23,29
			c-0.1-0.1-0.1-0.2-0.2-0.3s-0.1-0.2,0-0.4l0.2-0.1c0-0.1,0-0.1,0-0.2c-0.1-0.1,0-0.2,0.1-0.3l0.5-0.4c0.2-0.2,0.3-0.2,0.5,0
			l0.5-0.2l3.7-1.9c0.2-0.1,0.2-0.1,0.4,0.1c0.3,0.5,0.7,0.9,1,1.4c0.1,0.2,0.1,0.2,0,0.4L28,28.6l-1.5,1.5L26.1,30.3z M28.3,25.5
			l-4.1,2.1l1.7,2.3l3.2-3.2L28.3,25.5z M24.8,30.8c0.1-0.1,0.2-0.1,0.3-0.2c0.2,0,0.2,0.1,0.3,0.2l0.4-0.2l-2.2-3l-0.3,0.3V28
			c0.1,0.2,0.1,0.2-0.1,0.4l-0.1,0.1L24.8,30.8z"/>
		<path class="st1" d="M15.3,44.2L15.3,44.2c-0.1-0.3-0.1-0.3,0.1-0.5l0.5-0.4c0.2-0.2,0.2-0.2,0.5,0l1-0.5l3.2-1.7
			c0.2-0.1,0.2-0.1,0.4,0.1l1,1.3c0.1,0.2,0.1,0.2,0,0.3l-0.1,0.1l-3,3l-0.2,0.2c0,0.1,0.1,0.1,0.1,0.2s0.1,0.2-0.1,0.3L18,47.2
			c-0.1,0.1-0.2,0.1-0.3,0l-0.1-0.1l-0.2,0.1c-0.2,0.1-0.2,0.1-0.3-0.1s-0.4-0.6-0.6-0.9l-0.6-0.8c-0.1-0.1-0.2-0.2-0.3-0.1
			l-1.7,0.5c-0.2,0.1-0.3,0.1-0.4-0.2s-0.1-0.3-0.2-0.5s0-0.1,0-0.1s0-0.2,0.1-0.2c0.1,0,0.2,0,0.2,0.1l0.1,0.3l0.1,0.2
			c0.6-0.1,1.1-0.3,1.7-0.5c-0.1-0.1-0.1-0.2-0.2-0.3s-0.1-0.2,0.1-0.4L15.3,44.2z M18.1,46l3.2-3.2c-0.3-0.4-0.5-0.8-0.9-1.2
			l-4.1,2.1L18.1,46z M18.1,46.7l-2.2-3L15.6,44V44c0.1,0.2,0.1,0.2-0.1,0.4l-0.1,0.1l1.7,2.3c0.1-0.1,0.2-0.2,0.4-0.2
			s0.2,0.1,0.3,0.2L18.1,46.7z"/>
		<path class="st1" d="M41.6,46.3c0.2,0.4,0.2,0.4-0.2,0.7l-0.4,0.2c-0.2,0.1-0.2,0.1-0.4-0.1l0-0.1c-0.1,0.1-0.1,0.1-0.2,0.2
			c-0.1,0.1-0.2,0.1-0.3,0s-0.3-0.4-0.4-0.6l-0.8-1.1c-0.1-0.2-0.1-0.2-0.3-0.1l-1.7,0.5c-0.3,0.1-0.3,0.1-0.4-0.2s-0.1-0.3-0.2-0.5
			c0-0.1,0-0.1,0-0.2c0-0.1,0-0.2,0.1-0.2c0.1,0,0.2,0,0.2,0.1l0.1,0.3l0.1,0.2c0.6-0.1,1.1-0.3,1.7-0.5c-0.1-0.1-0.1-0.2-0.2-0.2
			c-0.2-0.2-0.2-0.3,0.1-0.5l0.1-0.1v-0.1c-0.1-0.2-0.1-0.2,0.1-0.4l0.4-0.4c0.2-0.2,0.2-0.2,0.5,0c0.3-0.2,0.7-0.3,1-0.5l3.2-1.7
			c0.2-0.1,0.2-0.1,0.4,0.1l1,1.3c0.1,0.2,0.1,0.2,0,0.3L45,43.1l-3,3L41.6,46.3z M39.7,43.7c0.5,0.8,1.1,1.6,1.7,2.3
			c0.5-0.4,3.1-3,3.2-3.2l-0.9-1.2L39.7,43.7z M38.9,43.9c0,0.2,0.1,0.3,0,0.4s-0.2,0.2-0.3,0.3l1.7,2.3c0.1-0.1,0.2-0.2,0.3-0.2
			s0.2,0.1,0.3,0.2l0.3-0.2l-2.2-3L38.9,43.9z"/>
		<path class="st1" d="M39.7,17c0.5,0.3,0.7,0.9,0.5,1.5c0.4,0.5,0.4,0.7,0.1,1s-0.5,0.4-1.1,0.1L39,19.8l-2,1.3
			c-0.3,0.2-0.3,0.2-0.5-0.1c-0.7-0.8-1.4-1.6-2-2.5c-0.2-0.2-0.2-0.3,0-0.5c0.5-0.5,1.1-1.1,1.6-1.6l0.1-0.1
			c0.1-0.1,0.1-0.2,0.1-0.3c0-0.1,0-0.3,0-0.4c0.1-0.4,0.5-0.7,0.9-0.6c0.1,0,0.2,0,0.2,0.1c0.2,0.1,0.4,0.2,0.5,0.3
			c0.5-0.2,1.1-0.2,1.5,0.2C39.8,15.9,40,16.5,39.7,17z M34.8,18.3l2,2.4l2.1-1.4l-2.4-2.9L34.8,18.3z M38.2,15.8
			c0,0.1,0.1,0.1,0.1,0.2c0,0.1,0.1,0.3,0.1,0.4c0,0.1-0.1,0.2-0.1,0.2c0,0,0,0,0,0c-0.1,0-0.2-0.1-0.2-0.1c0,0,0,0,0,0v-0.1
			c-0.1-0.4-0.3-0.7-0.7-0.9c-0.1,0-0.2-0.1-0.3-0.1c-0.2,0-0.4,0.2-0.4,0.4c0,0,0,0.1,0,0.1c0,0.1,0.1,0.3,0.2,0.4
			c0.2,0.3,0.4,0.5,0.6,0.7l1.8,2.2c0.1,0.1,0.2,0.2,0.3,0.3c0.2,0.1,0.4,0.1,0.5-0.1c0,0,0,0,0,0c0.1-0.2,0.1-0.3-0.2-0.5l-0.1,0.1
			c-0.1,0.1-0.2,0.1-0.2,0c0,0,0,0,0,0c-0.1-0.1-0.1-0.2,0-0.3c0,0,0,0,0,0l0.2-0.2c0.3-0.2,0.3-0.6,0-0.9c0,0-0.1-0.1-0.1-0.1
			l-0.2-0.1c-0.2-0.1-0.2-0.2-0.1-0.4c0.2-0.4,0.1-0.9-0.3-1.1c-0.1,0-0.2-0.1-0.3-0.1C38.6,15.6,38.4,15.7,38.2,15.8z"/>
		<path class="st1" d="M16.5,17c0.5,0.3,0.7,0.9,0.4,1.4c0,0,0,0,0,0c0.2,0.1,0.3,0.4,0.3,0.6c0,0.2-0.1,0.3-0.2,0.5
			c-0.3,0.3-0.6,0.4-1.1,0.1l-0.2,0.1L13.8,21l-0.1,0.1c-0.1,0.1-0.2,0.1-0.3,0l-0.5-0.6l-1.6-1.9c-0.2-0.2-0.2-0.3,0-0.5
			c0.5-0.5,1.1-1.1,1.6-1.6c0.1-0.1,0.2-0.3,0.1-0.5c-0.1-0.4,0.1-0.8,0.5-1c0.1,0,0.3,0,0.4,0c0.2,0,0.4,0.1,0.6,0.3l0.2,0.2
			c0.5-0.3,1.2-0.2,1.6,0.3C16.6,16,16.7,16.4,16.5,17z M13.4,16.5l-1.8,1.8l2,2.4l2.1-1.4L13.4,16.5z M16.7,18.8l-0.1,0.1
			c-0.1,0-0.2,0.1-0.2,0c-0.1-0.1-0.1-0.2,0-0.3c0,0,0,0,0,0c0.1-0.1,0.1-0.1,0.2-0.2c0.2-0.3,0.2-0.7,0-0.9c0,0-0.1-0.1-0.1-0.1
			c-0.1-0.1-0.2-0.1-0.3-0.2s0.1-0.2,0.1-0.4c0.1-0.3,0.1-0.7-0.2-0.9c-0.3-0.3-0.7-0.3-1-0.1c0,0.1,0.1,0.1,0.1,0.2
			c0,0.2,0.1,0.3,0.1,0.5c0,0.1-0.1,0.1-0.1,0.1c0,0,0,0,0,0c-0.1,0-0.2,0-0.2-0.1v-0.1c-0.1-0.4-0.3-0.8-0.7-0.9
			c-0.1,0-0.2,0-0.3,0c-0.2,0-0.4,0.2-0.4,0.4c0,0,0,0.1,0,0.1c0,0.1,0.1,0.3,0.2,0.4c0.2,0.3,0.5,0.7,0.8,1l1.6,2
			c0.1,0.1,0.2,0.2,0.3,0.3c0.2,0.1,0.4,0,0.5-0.1c0,0,0,0,0,0C17,19.1,16.9,19,16.7,18.8L16.7,18.8z"/>
		<path class="st1" d="M7,31.5c0.5-0.3,1.1-0.2,1.5,0.2C8.9,32,9,32.6,8.8,33c0.5,0.3,0.7,0.9,0.5,1.4c0,0,0,0,0,0
			c0.2,0.2,0.3,0.4,0.3,0.6c0,0.2-0.1,0.3-0.2,0.4c-0.3,0.3-0.6,0.4-1.1,0.1l-0.8,0.5l-1.4,0.9c-0.2,0.2-0.3,0.2-0.5-0.1l-1.7-2
			l-0.3-0.4c-0.2-0.2-0.2-0.2,0-0.4c0.6-0.6,1.1-1.1,1.7-1.7c0.2-0.1,0.2-0.3,0.1-0.5c-0.1-0.4,0.1-0.9,0.5-1c0.1,0,0.3,0,0.4,0
			c0.2,0.1,0.5,0.2,0.6,0.3L7,31.5z M5.6,32.5l-1.8,1.8l2,2.4L8,35.4L5.6,32.5z M7.2,31.8c0,0.1,0.1,0.2,0.1,0.2
			c0,0.1,0.1,0.3,0.1,0.4c0,0.1-0.1,0.2-0.2,0.2c-0.1,0-0.2-0.1-0.2-0.2c0,0,0,0,0,0l0,0C7,32,6.7,31.7,6.4,31.5
			c-0.1-0.1-0.3-0.1-0.4,0c-0.2,0.1-0.3,0.3-0.2,0.6c0,0,0,0.1,0.1,0.1c0.1,0.2,0.3,0.3,0.4,0.5c0.7,0.9,1.4,1.8,2.2,2.6
			c0.1,0.1,0.2,0.2,0.3,0.2c0.2,0.1,0.4,0,0.5-0.2c0,0,0,0,0,0c0.1-0.2,0-0.3-0.2-0.4H8.9c-0.1,0.1-0.2,0.1-0.3,0s-0.1-0.2,0.1-0.3
			c0.1-0.1,0.2-0.2,0.2-0.3c0.2-0.2,0.2-0.5,0-0.7c-0.1-0.1-0.2-0.2-0.4-0.3c-0.2-0.1-0.2-0.2-0.1-0.3c0-0.1,0.1-0.1,0.1-0.2
			c0.1-0.3,0.1-0.7-0.2-0.9C8,31.7,7.6,31.6,7.2,31.8z"/>
		<path class="st1" d="M30.2,31.5c0.5-0.3,1.1-0.2,1.5,0.2c0.4,0.3,0.5,0.9,0.3,1.4c0.5,0.3,0.7,0.9,0.5,1.4c0,0,0,0,0,0
			c0.2,0.2,0.3,0.4,0.3,0.6c0,0.2-0.1,0.3-0.2,0.4c-0.3,0.3-0.6,0.4-1.1,0.1l-0.8,0.5l-1.4,0.9c-0.2,0.2-0.3,0.2-0.5-0.1
			c-0.6-0.7-1.1-1.4-1.7-2.1l-0.4-0.4c-0.2-0.2-0.1-0.2,0-0.4c0.5-0.6,1.1-1.1,1.7-1.7c0.1-0.1,0.2-0.3,0.1-0.4
			c-0.1-0.4,0.1-0.9,0.5-1c0.1,0,0.3,0,0.4,0c0.2,0,0.4,0.1,0.5,0.3L30.2,31.5z M31.2,35.4l-2.4-2.9l-1.8,1.8l2,2.4L31.2,35.4z
			 M30.5,31.8c0,0.1,0.1,0.1,0.1,0.2c0,0.1,0.1,0.3,0.1,0.4c0,0.1-0.1,0.2-0.2,0.2c-0.1,0-0.2-0.1-0.2-0.2l0,0
			c-0.1-0.4-0.3-0.8-0.7-0.9c-0.1-0.1-0.3-0.1-0.4,0c-0.2,0.1-0.3,0.4-0.2,0.6c0,0,0,0.1,0.1,0.1c0.1,0.2,0.3,0.3,0.4,0.5l2.1,2.6
			c0.1,0.1,0.2,0.2,0.3,0.2c0.2,0.1,0.4,0,0.5-0.2c0,0,0,0,0,0c0.1-0.2,0-0.3-0.2-0.4L32.1,35c-0.1,0.1-0.2,0.1-0.3,0
			s-0.1-0.2,0-0.3c0.1-0.1,0.2-0.2,0.2-0.3c0.2-0.2,0.2-0.6,0-0.8l-0.2-0.2c-0.1-0.1-0.2-0.1-0.3-0.2s0.1-0.2,0.1-0.3
			c0.2-0.3,0.1-0.7-0.2-0.9C31.2,31.7,30.8,31.6,30.5,31.8L30.5,31.8z"/>
		<path class="st1" d="M25.6,14c-0.9,0-1.8-0.3-2.6-0.8c-0.4-0.3-0.8-0.7-1.1-1.1c-0.2-0.2-0.2-0.3,0-0.5l3-2.9l1.3-1.3
			c0,0,0,0,0.1-0.1c0.1-0.1,0.1-0.1,0.2-0.1s0.1,0.2,0.1,0.3s0,0.2,0,0.3v0.6c0,1-0.1,2.1-0.1,3.1l-0.1,2.1c0,0.2,0,0.3-0.2,0.3
			S25.7,14,25.6,14z M26.3,8L26.3,8L23,11.2c0.7,1.1,1.9,1.7,3.2,1.5l0.1-0.9l0.1-2.6c0-0.3,0-0.6,0-0.9C26.3,8.3,26.3,8.1,26.3,8z
			 M22.2,11.9l0.1,0.1c0.3,0.4,0.7,0.7,1.1,1c0.6,0.5,1.4,0.7,2.2,0.6l0.5-0.1v-0.4c-1.4,0.1-2.7-0.6-3.5-1.7L22.2,11.9z"/>
		<path class="st1" d="M40.9,30.1c-0.8,0-1.6-0.3-2.2-0.7c-0.5-0.3-0.9-0.8-1.3-1.2c-0.2-0.2-0.2-0.3,0-0.5l3-2.8l1.4-1.3l0.1-0.1
			c0.1-0.1,0.1-0.1,0.2-0.1c0.1,0,0.1,0.1,0.1,0.2c0,0.1,0,0.2,0,0.2L42.1,26c0,1-0.1,2-0.1,3c0,0.2,0,0.5,0,0.7s0,0.2-0.2,0.2
			S41.2,30,40.9,30.1z M41.8,24c-0.3,0.2-3.3,3.1-3.4,3.3c0.7,1.1,1.9,1.6,3.2,1.5L41.8,24z M41.6,29.6c0-0.1,0-0.1,0-0.2
			c0-0.1,0-0.1,0-0.2c-1.4,0.1-2.7-0.5-3.5-1.7l-0.4,0.4l0.3,0.4c0.6,0.7,1.4,1.2,2.3,1.4C40.7,29.7,41.2,29.7,41.6,29.6L41.6,29.6z
			"/>
		<path class="st1" d="M33.2,46c-1,0-1.9-0.4-2.6-1c-0.3-0.3-0.6-0.5-0.8-0.8c-0.3-0.3-0.3-0.4,0-0.7c1-0.9,1.9-1.8,2.9-2.7l1.4-1.3
			l0.1-0.1c0.1-0.1,0.2-0.1,0.3,0c0,0,0.1,0.1,0.1,0.1c0,0.1,0,0.2,0,0.3l-0.1,2.3c0,0.9-0.1,1.9-0.1,2.8c0,0.2,0,0.5,0,0.7
			s0,0.2-0.2,0.3l-0.4,0.1C33.4,46.1,33.3,46,33.2,46z M34.1,40L34.1,40l-1.3,1.3l-1.9,1.8c-0.2,0.2-0.2,0.2,0,0.4
			c0.7,0.8,1.6,1.3,2.7,1.4c0.1,0,0.3,0,0.4,0L34.1,40z M33.9,45.2h-0.3c-0.2,0-0.3,0-0.5,0c-1-0.1-1.9-0.7-2.6-1.5l-0.2-0.2L30,44
			c0.1,0.1,0.2,0.2,0.3,0.4c0.2,0.2,0.4,0.4,0.6,0.5c0.6,0.5,1.3,0.8,2.1,0.9c0.3,0,0.6,0,0.9-0.1L33.9,45.2z"/>
		<path class="st1" d="M9.9,46.1c-0.9,0-1.9-0.4-2.6-1c-0.3-0.3-0.7-0.6-0.9-1c-0.2-0.2-0.2-0.3,0-0.5L9,41.2l1.8-1.7
			c0.1-0.1,0.2-0.2,0.3-0.1s0.1,0.2,0.1,0.3c0,0.9-0.1,1.8-0.1,2.7S11,44.1,11,44.9v0.8c0,0.2,0,0.2-0.2,0.3L9.9,46.1z M7.4,43.3
			c0.3,0.4,0.6,0.7,1,1c0.5,0.3,1.1,0.5,1.7,0.6c0.2,0,0.3,0,0.5-0.1l0.2-4.8L7.4,43.3z M6.7,43.9c0.3,0.5,0.8,0.9,1.3,1.2
			c0.5,0.3,1.1,0.6,1.7,0.6c0.3,0,0.6,0,0.9-0.1v-0.4h-0.1h-0.2c-1.2,0-2.3-0.5-3-1.5l-0.2-0.2L6.7,43.9z"/>
		<path class="st1" d="M17.7,30.1c-0.8,0-1.6-0.3-2.2-0.8c-0.5-0.3-0.9-0.7-1.3-1.2c-0.2-0.2-0.2-0.3,0-0.5l3.4-3.2l0.9-0.9l0.1-0.1
			c0.1-0.1,0.1-0.1,0.2-0.1c0.1,0,0.1,0.1,0.1,0.2v0.5L18.9,26c0,1-0.1,2-0.1,3c0,0.2,0,0.5,0,0.7s0,0.2-0.2,0.3L17.7,30.1z
			 M18.6,24.1L18.6,24.1l-3.4,3.2c0.7,1.1,1.9,1.7,3.2,1.5L18.6,24.1z M18.4,29.2c-1.4,0.1-2.7-0.6-3.5-1.7l-0.4,0.4l0.4,0.4
			c0.7,0.8,1.6,1.3,2.6,1.4c0.3,0,0.6,0,0.9-0.1V29.2z"/>
		<path class="st1" d="M20.8,0c0.2-0.1,0.4,0,0.5,0.2c0.8,1,1.6,2,2.4,3c0.1,0.1,0.2,0.2,0.3,0.3c0.2,0.1,0.4,0.1,0.5-0.1
			c0,0,0,0,0-0.1c0.1-0.2,0.1-0.3-0.1-0.5l-0.2,0.1c-0.1,0.1-0.2,0.1-0.2,0c0,0,0,0,0,0C24,2.8,24,2.7,24,2.7c0,0,0,0,0,0l0.1-0.2
			c0.3-0.2,0.3-0.7,0.1-0.9c-0.1-0.1-0.1-0.1-0.2-0.2c0,0-0.1,0-0.1-0.1S23.7,1.1,23.8,1c0.2-0.3,0.2-0.7,0-1c0.5-0.1,0.5,0,0.5,0.3
			c0,0.2,0,0.4-0.1,0.7c0.5,0.3,0.7,0.9,0.4,1.4l0.1,0.1C25,2.8,25,3.2,24.8,3.4c-0.2,0.3-0.5,0.5-0.9,0.3c-0.2-0.1-0.4-0.1-0.6,0.1
			l-1.8,1.2c-0.2,0.2-0.3,0.2-0.5-0.1l-2-2.4c0,0-0.1-0.1-0.1-0.1c-0.1-0.2-0.1-0.2,0-0.4l0.4-0.4l1.4-1.4C20.8,0.3,20.9,0.2,20.8,0
			z M19.3,2.3l2,2.4l2.1-1.4c-0.8-1-1.6-1.9-2.4-2.9L19.3,2.3z"/>
		<path class="st1" d="M29.6,0H30c0.1,0.3,0.1,0.6,0,0.9c-0.2,0.7-0.8,1.3-1.5,1.4c-0.7,0.1-1.5-0.2-1.9-0.9C26.3,0.9,26,0.5,25.8,0
			c0.3,0,0.6,0,0.9,0c0.2,0.3,0.3,0.5,0.5,0.8c0.1,0.2,0.2,0.3,0.4,0.4c0.5,0.3,1.1,0.3,1.6,0.1c0.2-0.1,0.3-0.2,0.3-0.4
			C29.5,0.6,29.6,0.3,29.6,0z"/>
		<path class="st1" d="M2.6,0h0.8c0,0,0.1,0.1,0.1,0.1l0.3,0.6C4.1,1,4.4,1.2,4.8,1.3C5.2,1.4,5.6,1.4,6,1.2C6.2,1.2,6.3,1,6.3,0.9
			c0-0.3,0.1-0.5,0.1-0.9h0.3c0.1,0.3,0.1,0.6,0,0.9C6.6,1.7,5.9,2.2,5.2,2.3C4.4,2.4,3.7,2,3.3,1.4C3,0.9,2.8,0.5,2.6,0z"/>
		<path class="st1" d="M22.5,0c0.4-0.1,0.4,0,0.4,0.4c0,0.1,0,0.2-0.2,0.2s-0.2,0-0.2-0.2S22.5,0.2,22.5,0z"/>
		<path class="st1" d="M45.7,0c0.3-0.1,0.5,0.1,0.4,0.4c0,0.1-0.1,0.1-0.2,0.1c-0.1,0-0.2-0.1-0.2-0.1c0,0,0,0,0,0
			C45.7,0.3,45.7,0.2,45.7,0z"/>
		<path class="st1" d="M2.1,12.5c-0.3,0-0.6-0.2-0.6-0.5c0-0.3,0.2-0.6,0.5-0.6c0,0,0.1,0,0.1,0c0.3,0,0.5,0.2,0.5,0.5
			C2.6,12.3,2.4,12.5,2.1,12.5z M2.1,12.2c0.1-0.1,0.1-0.1,0.1-0.2c0-0.1,0-0.1-0.1-0.1c0,0,0,0,0,0C2.1,11.9,2,12,2,12
			C2,12.1,2.1,12.1,2.1,12.2L2.1,12.2z"/>
		<path class="st1" d="M2.3,10.2C2,10.2,1.7,10,1.7,9.7c0,0,0,0,0,0c0-0.3,0.2-0.5,0.5-0.5c0,0,0,0,0,0c0.3,0,0.5,0.2,0.5,0.5
			C2.8,10,2.5,10.2,2.3,10.2C2.3,10.2,2.3,10.2,2.3,10.2z M2.5,9.7C2.4,9.6,2.3,9.6,2.3,9.6c-0.1,0-0.1,0-0.1,0.1
			c0,0.1,0,0.1,0.1,0.1S2.4,9.7,2.5,9.7z"/>
		<path class="st1" d="M2.2,11c0,0.1,0,0.2-0.1,0.3c-0.1,0-0.2,0-0.2-0.1c0,0,0,0,0-0.1c0-0.3-0.2-0.5-0.4-0.6
			c-0.1-0.1-0.1-0.2-0.1-0.3c0-0.1,0.2-0.1,0.3-0.1c0,0,0,0,0,0C2,10.4,2.2,10.7,2.2,11z"/>
		<path class="st1" d="M1.4,11.2c0,0.1-0.1,0.2-0.2,0.2c-0.2,0-0.5,0.2-0.6,0.4c0,0.1-0.1,0.1-0.2,0.1c-0.1,0-0.2-0.1-0.2-0.2
			c0,0,0-0.1,0-0.1C0.4,11.2,0.8,11,1.1,11C1.3,11,1.4,11,1.4,11.2z"/>
		<path class="st1" d="M25.9,12c0,0.3-0.2,0.5-0.5,0.5c-0.3,0-0.5-0.2-0.5-0.5c0-0.3,0.3-0.5,0.6-0.5C25.6,11.6,25.8,11.8,25.9,12z
			 M25.3,12.2c0.1-0.1,0.1-0.1,0.1-0.2c0-0.1,0-0.1-0.1-0.1c0,0,0,0,0,0c0,0-0.1,0.1-0.1,0.1C25.2,12.1,25.3,12.1,25.3,12.2
			L25.3,12.2z"/>
		<path class="st1" d="M25.5,10.2c-0.3,0-0.5-0.2-0.5-0.5c0,0,0,0,0,0c0-0.3,0.2-0.5,0.5-0.5c0.3,0,0.5,0.2,0.5,0.5
			C26,10,25.8,10.2,25.5,10.2z M25.5,9.5c-0.1,0.1-0.1,0.1-0.1,0.2s0.1,0.1,0.1,0.1s0.1,0,0.1-0.1S25.5,9.6,25.5,9.5L25.5,9.5z"/>
		<path class="st1" d="M25.4,11.1c0,0,0,0.1,0,0.1c0,0.1-0.1,0.1-0.2,0.1c-0.1,0-0.2-0.1-0.2-0.1c0,0,0,0,0,0c0-0.3-0.2-0.5-0.4-0.6
			c-0.1,0-0.1-0.1-0.1-0.2c0,0,0,0,0,0c0-0.1,0.1-0.1,0.2-0.1c0,0,0,0,0,0C25.2,10.4,25.4,10.7,25.4,11.1z"/>
		<path class="st1" d="M24.6,11.2c0,0-0.1,0.1-0.2,0.1c-0.3,0-0.5,0.2-0.6,0.4l0,0c-0.1,0.1-0.2,0.1-0.2,0c-0.1,0-0.1-0.2-0.1-0.2
			c0,0,0,0,0,0c0.2-0.3,0.5-0.5,0.9-0.6c0.1,0,0.2,0.1,0.3,0.2C24.6,11.1,24.6,11.2,24.6,11.2z"/>
		<path class="st1" d="M40.8,28.6c-0.3,0-0.5-0.2-0.5-0.5c0-0.3,0.2-0.5,0.5-0.5c0.3,0,0.5,0.3,0.5,0.5
			C41.3,28.3,41.1,28.6,40.8,28.6z M40.8,28.2c0.1-0.1,0.1-0.1,0.1-0.2s-0.1-0.1-0.1-0.1S40.7,28,40.7,28S40.7,28.1,40.8,28.2z"/>
		<path class="st1" d="M41,26.2c-0.3,0-0.5-0.2-0.5-0.5c0-0.3,0.2-0.5,0.5-0.5c0.3,0,0.5,0.2,0.5,0.5C41.5,26,41.3,26.2,41,26.2
			C41,26.2,41,26.2,41,26.2z M41.2,25.7c-0.1-0.1-0.1-0.1-0.2-0.1c-0.1,0-0.1,0-0.1,0.1c0,0,0,0,0,0c0,0,0.1,0.1,0.1,0.1
			S41,25.8,41.2,25.7L41.2,25.7z"/>
		<path class="st1" d="M40.1,27.2c0,0.1-0.1,0.2-0.2,0.2c-0.3,0-0.5,0.2-0.7,0.4c-0.1,0.1-0.2,0.1-0.2,0c0,0,0,0,0,0
			c-0.1-0.1-0.1-0.2-0.1-0.2c0.2-0.3,0.5-0.5,0.9-0.6C40,26.9,40.1,27,40.1,27.2C40.1,27.2,40.1,27.2,40.1,27.2z"/>
		<path class="st1" d="M40.9,27.1c0,0.1-0.1,0.2-0.2,0.3c-0.1,0-0.2-0.1-0.2-0.2c0,0,0,0,0,0c0-0.2-0.1-0.4-0.3-0.5l-0.1-0.1
			c-0.1-0.1-0.1-0.2,0-0.2c0.1-0.1,0.2-0.1,0.2-0.1C40.7,26.4,40.9,26.7,40.9,27.1z"/>
		<path class="st1" d="M33.2,41.2c0.3,0,0.5,0.2,0.5,0.5s-0.2,0.5-0.5,0.5s-0.5-0.2-0.5-0.5c0,0,0,0,0,0
			C32.7,41.4,32.9,41.2,33.2,41.2z M33.4,41.7c-0.1-0.1-0.1-0.1-0.2-0.1c-0.1,0-0.1,0.1-0.1,0.1c0,0,0.1,0.1,0.1,0.1
			S33.3,41.8,33.4,41.7z"/>
		<path class="st1" d="M33.1,44.6c-0.3,0-0.5-0.2-0.5-0.5l0,0c0-0.3,0.2-0.5,0.5-0.5c0,0,0,0,0,0c0.3,0,0.5,0.2,0.5,0.5
			C33.6,44.3,33.4,44.6,33.1,44.6z M33.1,43.9c0,0.1-0.1,0.1-0.1,0.2s0.1,0.1,0.1,0.1c0.1,0,0.1,0,0.1-0.1c0,0,0,0,0,0
			C33.2,44,33.1,44,33.1,43.9z"/>
		<path class="st1" d="M33.2,43.1c0,0,0,0.1,0,0.1c0,0.1-0.1,0.2-0.2,0.2c-0.1,0-0.2,0-0.2-0.1c0,0,0,0,0,0c0-0.3-0.1-0.5-0.4-0.6
			c-0.1-0.1-0.1-0.2-0.1-0.3s0.2-0.1,0.3,0C32.9,42.5,33.1,42.8,33.2,43.1z"/>
		<path class="st1" d="M32.1,43c0.1,0,0.2,0.1,0.3,0.2c0,0.1-0.1,0.2-0.2,0.2c-0.2,0-0.4,0.1-0.6,0.3c0,0,0,0.1-0.1,0.1
			c-0.1,0.1-0.2,0.1-0.2,0c-0.1-0.1-0.1-0.2,0-0.3C31.4,43.2,31.7,43,32.1,43z"/>
		<path class="st1" d="M10.5,41.7c0,0.3-0.2,0.5-0.5,0.5c-0.3,0-0.5-0.3-0.5-0.6c0-0.3,0.3-0.5,0.6-0.5
			C10.3,41.2,10.5,41.5,10.5,41.7z M10.2,41.7c-0.1-0.1-0.1-0.1-0.2-0.1s-0.1,0.1-0.1,0.1s0.1,0.1,0.1,0.1S10.1,41.8,10.2,41.7
			L10.2,41.7z"/>
		<path class="st1" d="M9.8,44.6c-0.3,0-0.5-0.2-0.5-0.5c0.1-0.3,0.4-0.4,0.7-0.3c0.2,0.1,0.3,0.2,0.3,0.3
			C10.3,44.3,10.1,44.5,9.8,44.6z M10,44.1c-0.1-0.1-0.1-0.1-0.2-0.1c-0.1,0-0.1,0.1-0.1,0.1c0,0,0.1,0.1,0.1,0.1S9.9,44.1,10,44.1
			L10,44.1z"/>
		<path class="st1" d="M10,43v0.1c0,0.1-0.1,0.2-0.2,0.2c-0.1,0-0.2-0.1-0.2-0.2c0,0,0,0,0,0c0-0.2-0.1-0.5-0.4-0.6l0,0
			c-0.1-0.1-0.1-0.2-0.1-0.3s0.1-0.1,0.3,0C9.7,42.4,9.9,42.7,10,43z"/>
		<path class="st1" d="M9.1,43.2c0,0.1-0.1,0.2-0.2,0.2c-0.3,0-0.5,0.2-0.6,0.4c0,0.1-0.2,0.1-0.2,0.1c0,0,0,0,0,0
			C8,43.7,8,43.6,8,43.6c0,0,0,0,0,0C8.2,43.2,8.5,43,8.8,43C9,43,9.1,43.1,9.1,43.2z"/>
		<path class="st1" d="M18.1,28c0,0.3-0.2,0.6-0.5,0.6s-0.6-0.2-0.6-0.5c0,0,0-0.1,0-0.1c0-0.3,0.3-0.5,0.5-0.5
			C17.9,27.6,18.1,27.8,18.1,28z M17.6,28.2c0.1-0.1,0.1-0.1,0.1-0.2s-0.1-0.1-0.1-0.1S17.5,28,17.5,28S17.5,28.1,17.6,28.2z"/>
		<path class="st1" d="M17.7,26.2c-0.3,0-0.5-0.2-0.5-0.5c0-0.3,0.2-0.5,0.5-0.5c0.3,0,0.5,0.2,0.5,0.5C18.3,26,18,26.2,17.7,26.2
			C17.8,26.2,17.8,26.2,17.7,26.2z M17.7,25.9c0-0.1,0.1-0.1,0.1-0.2c0,0-0.1-0.1-0.1-0.1c-0.1,0-0.1,0-0.1,0.1c0,0,0,0,0,0
			C17.6,25.8,17.7,25.8,17.7,25.9L17.7,25.9z"/>
		<path class="st1" d="M16.6,27c0.1,0,0.2,0.1,0.2,0.2c0,0.1-0.1,0.2-0.2,0.2c-0.2,0-0.4,0.2-0.6,0.4c-0.1,0.1-0.2,0.1-0.3,0.1
			c-0.1-0.1-0.1-0.2,0-0.3c0,0,0,0,0,0C16,27.2,16.3,27,16.6,27z"/>
		<path class="st1" d="M17.7,27.1c0,0.1-0.1,0.2-0.2,0.3c-0.1,0-0.2-0.1-0.2-0.2c0-0.2-0.1-0.5-0.4-0.6c-0.2-0.1-0.2-0.3,0-0.3
			c0.1,0,0.1,0,0.2,0C17.4,26.4,17.6,26.7,17.7,27.1z"/>
	</g>
</g>
</svg>
