<svg xmlns="http://www.w3.org/2000/svg" viewBox="0 0 263.26 148.42"><defs><style>.cls-1{fill:#fff;}.cls-2{fill:#fab416;}.cls-3{fill:none;stroke:#fff;stroke-miterlimit:10;stroke-width:0.9px;}.cls-4{fill:#da0c31;}.cls-5{fill:#1d1d1b;}</style></defs><g id="Capa_2" data-name="Capa 2"><g id="Capa_1-2" data-name="Capa 1"><rect class="cls-1" x="95.11" y="121.6" width="150.03" height="26.75" rx="13.38"/><rect class="cls-2" y="121.67" width="125.79" height="26.75" rx="13.38"/><path class="cls-1" d="M22.8,26.49c2.35-.62,4.37-3.51,6.29-7.16C26,18.68,23.81,16.62,24,13.44c.11-2,1.66-3.61,3.18-3.61a2.87,2.87,0,0,1,.5.07c.4.07.47.47.37.58A2.34,2.34,0,0,0,27.43,12c-.15,2.82,1.08,4.48,2.89,4.95C34,9.29,37.29,0,41.7,0c8.24,0,1.81,17.6-8.2,19.41a29.9,29.9,0,0,1-3.9,6.86,58.36,58.36,0,0,1,6.5-.36,21.71,21.71,0,0,1,6,.54c1.81.76,1.77,3.11,1.48,4.48a.43.43,0,0,1-.47.4,2.32,2.32,0,0,1-.39-.07A39.47,39.47,0,0,0,30.9,29.42a27.49,27.49,0,0,0-6.47.72C23.85,30.28,21.93,26.71,22.8,26.49ZM34.91,16.22c7.41-3.14,9.94-13.69,7-13.69C40.11,2.53,37.65,9.54,34.91,16.22Z"/><path class="cls-1" d="M51.27,11.93c5.5,0,5.79,4.95,3.4,8.81a3.64,3.64,0,0,0,1.77-1c.65-.72.87-1,1.12-1.26a1.09,1.09,0,0,1,.8-.43c.5,0,.83.57.39,1.12-1.48,2-2.74,3.32-5.45,3.43a8.26,8.26,0,0,1-5.89,2.75c-4.23,0-4.85-2.75-4.85-4.34C42.56,17.82,46.14,11.93,51.27,11.93ZM48.46,22.84a3.49,3.49,0,0,0,2-.76,5,5,0,0,1-3.18-4.37,7.47,7.47,0,0,0-.9,3.21A1.83,1.83,0,0,0,48.46,22.84ZM51.89,14a3.32,3.32,0,0,0-2.78,3.43,3.57,3.57,0,0,0,2.74,3.26C53.91,18,54.89,14,51.89,14Z"/><path class="cls-1" d="M56.47,19.62c1.31-1.51,2.32-2.71,3.11-3.61a6.82,6.82,0,0,1,4.81-5.17.51.51,0,0,1,.21,0c1.05,0,2,2.31,1.31,2.56-.87.33-2.71,1.66-2.71,3S65.83,19,65.83,21.1v.37c.8-.8,1.85-1.88,2.9-3a1.15,1.15,0,0,1,.79-.43c.51,0,.83.57.4,1.12a18.82,18.82,0,0,1-5.46,5,6,6,0,0,1-3.9,1.2C56.37,25.3,54.92,21.5,56.47,19.62Zm3.76,2.71c1.52,0,2.32-.79,2.32-1.51,0-1-1.85-1.56-2.64-3.11-.47.61-1,1.33-1.66,2.09S58.35,22.33,60.23,22.33Z"/><path class="cls-1" d="M77,19.62c1.3-1.51,2.31-2.71,3.11-3.61a6.8,6.8,0,0,1,4.8-5.17.58.58,0,0,1,.22,0c1,0,2,2.31,1.3,2.56-.86.33-2.71,1.66-2.71,3S86.39,19,86.39,21.1v.37c.79-.8,1.84-1.88,2.89-3a1.17,1.17,0,0,1,.8-.43c.5,0,.83.57.39,1.12a18.82,18.82,0,0,1-5.45,5,6,6,0,0,1-3.91,1.2C76.92,25.3,75.48,21.5,77,19.62Zm3.76,2.71c1.52,0,2.31-.79,2.31-1.51,0-1-1.84-1.56-2.64-3.11-.47.61-1,1.33-1.66,2.09S78.91,22.33,80.79,22.33Z"/><path class="cls-1" d="M96.72,11.93c1.81,0,2.64.75,3,1.77l.76-1.2a1.09,1.09,0,0,1,.93-.57c.76,0,2.53.72,1.85,1.8-.91,1.45-4.38,9.11-3.51,9.11.62,0,2.6-2.17,4.63-4.41a1.17,1.17,0,0,1,.79-.43c.51,0,.83.57.4,1.12-2.46,3.1-5.2,6.18-6.14,6.18s-3.44-1-3.47-2.9c-1.41,1.63-3,2.9-4.16,2.9a3.2,3.2,0,0,1-3.36-2.93C88.41,18.68,91.84,11.93,96.72,11.93ZM92.46,22.84c3,0,7.73-8.89,4.91-8.89C94,14,90.72,22.84,92.46,22.84Z"/><path class="cls-1" d="M112.22,2.89A1.64,1.64,0,0,1,113.85,2c.79,0,2.27.54,1.77,1.52-.11.25-3.61,7-6.11,12.54,1.77-2.13,4-4.08,5.6-4.08,6.18,0,.26,13.37-3.9,13.37a4.48,4.48,0,0,1-4.16-2.9,17.87,17.87,0,0,0-.47,2.43c0,.36-.18.47-.54.47-1.08-.29-2.92-1.3-2.92-2.86C103.12,19.19,112.22,2.89,112.22,2.89Zm-4.41,17.42c.08,1.26.73,2.53,2,2.53,1.84,0,6.1-8.89,4.33-8.89C112.58,14,109.08,18.29,107.81,20.31Z"/><path class="cls-1" d="M127.07,11.93c5.49,0,5.78,4.95,3.4,8.81a3.64,3.64,0,0,0,1.77-1c.65-.72.87-1,1.12-1.26a1.09,1.09,0,0,1,.79-.43c.51,0,.84.57.4,1.12-1.48,2-2.74,3.32-5.46,3.43a8.22,8.22,0,0,1-5.88,2.75c-4.23,0-4.85-2.75-4.85-4.34C118.36,17.82,121.94,11.93,127.07,11.93Zm-2.82,10.91a3.52,3.52,0,0,0,2-.76,5,5,0,0,1-3.18-4.37,7.47,7.47,0,0,0-.9,3.21A1.83,1.83,0,0,0,124.25,22.84ZM127.69,14a3.32,3.32,0,0,0-2.79,3.43,3.58,3.58,0,0,0,2.75,3.26C129.71,18,130.69,14,127.69,14Z"/><path class="cls-1" d="M133.9,19.48a.64.64,0,0,1-.54-1.05c1.15-1.3,2.27-2.67,3.14-3.72h-.43c-1,0-1.63-1.52-1.77-2.21a.49.49,0,0,1,.43-.68s.07,0,.11,0a31.46,31.46,0,0,0,3.65.11c2.17,0,4.51,0,4.84,0,.76,0,2.53.72,1.84,1.8-.9,1.45-4.37,9.11-3.5,9.11.61,0,2.6-2.17,4.62-4.41a1.19,1.19,0,0,1,.8-.43c.54,0,.83.57.4,1.12-2.43,3.1-5.21,6.18-6.15,6.18-.79,0-3.47-1.05-3.47-2.93s1.85-5.42,3.22-7.77c-1.05,0-2.17.07-3.11.07-.83,1.09-2.09,2.78-3.43,4.45A.87.87,0,0,1,133.9,19.48Z"/><path class="cls-1" d="M153.05,11.93c2.49,0,3.5,1.48,3.5,3,0,2.9-2.56,4.2-5.16,4.2A6.61,6.61,0,0,1,149.9,19a6.61,6.61,0,0,0-.36,2,1.83,1.83,0,0,0,2.1,1.92c2,0,3.94-2.17,6-4.41a1.17,1.17,0,0,1,.8-.43c.54,0,.83.57.39,1.12-2.42,3.1-5.2,6.18-8.2,6.18-4.23,0-4.84-2.75-4.84-4.34C145.75,17.82,149.33,11.93,153.05,11.93Zm-1.74,5.49c1.77,0,3.58-.72,3.58-2.6,0-.47-.22-.87-.76-.87-1,0-2.53,1.55-3.54,3.43A4.35,4.35,0,0,0,151.31,17.42Z"/><path class="cls-1" d="M156.51,19.62c1.3-1.51,2.32-2.71,3.11-3.61a6.82,6.82,0,0,1,4.81-5.17.51.51,0,0,1,.21,0c1.05,0,2,2.31,1.31,2.56-.87.33-2.71,1.66-2.71,3s2.63,2.64,2.63,4.73v.37c.8-.8,1.85-1.88,2.89-3a1.19,1.19,0,0,1,.8-.43c.51,0,.83.57.4,1.12a18.82,18.82,0,0,1-5.46,5,6,6,0,0,1-3.9,1.2C156.41,25.3,155,21.5,156.51,19.62Zm3.76,2.71c1.52,0,2.31-.79,2.31-1.51,0-1-1.84-1.56-2.63-3.11-.47.61-1,1.33-1.67,2.09S158.39,22.33,160.27,22.33Z"/><path class="cls-1" d="M177,22.37c0-1.95,3.29-8.64,5.93-13.63a10.89,10.89,0,0,0-4.16.91c-.76-.4-.36-1.66.36-2.1a15,15,0,0,1,5.06-1.23C185.24,4.26,186,2.89,186,2.89A1.64,1.64,0,0,1,187.66,2c.79,0,2.28.54,1.77,1.52,0,.07-.58,1.12-1.34,2.67a13.09,13.09,0,0,1,1.92.22c1.15.22,2.06,1.88,2.06,3,0,.29,0,.54-.22.54s-.36-.25-.83-.43a16.48,16.48,0,0,0-4.19-.73c-2.5,5.14-5.89,12.36-5.89,14a.1.1,0,0,0,.11.11c.61,0,2.6-2.17,4.62-4.41a1.17,1.17,0,0,1,.8-.43c.54,0,.83.57.39,1.12-2.42,3.1-5.2,6.18-6.14,6.18C179.93,25.3,177,24.25,177,22.37Z"/><path class="cls-1" d="M186.21,19.48a.64.64,0,0,1-.54-1.05c1.16-1.3,2.28-2.67,3.14-3.72h-.43c-1,0-1.63-1.52-1.77-2.21a.49.49,0,0,1,.43-.68s.07,0,.11,0a31.58,31.58,0,0,0,3.65.11c2.17,0,4.52,0,4.84,0,.76,0,2.53.72,1.85,1.8-.91,1.45-4.38,9.11-3.51,9.11.62,0,2.6-2.17,4.63-4.41a1.17,1.17,0,0,1,.79-.43c.54,0,.83.57.4,1.12-2.42,3.1-5.2,6.18-6.15,6.18-.79,0-3.46-1.05-3.46-2.93S192,17,193.4,14.6c-1.05,0-2.17.07-3.11.07-.83,1.09-2.09,2.78-3.43,4.45A.87.87,0,0,1,186.21,19.48Z"/><path class="cls-1" d="M206.05,11.93c1.8,0,2.64.75,3,1.77.33-.51.58-.91.76-1.2a1.1,1.1,0,0,1,.94-.57c.76,0,2.53.72,1.84,1.8-.9,1.45-4.37,9.11-3.5,9.11.61,0,2.6-2.17,4.62-4.41a1.17,1.17,0,0,1,.8-.43c.5,0,.83.57.39,1.12-2.45,3.1-5.2,6.18-6.14,6.18-.79,0-3.43-1-3.47-2.9-1.41,1.63-3,2.9-4.15,2.9a3.2,3.2,0,0,1-3.36-2.93C197.74,18.68,201.17,11.93,206.05,11.93Zm-4.27,10.91c3,0,7.74-8.89,4.92-8.89C203.3,14,200.05,22.84,201.78,22.84Z"/><path class="cls-1" d="M220.9,18.43a1.17,1.17,0,0,1,.79-.43c.54,0,.83.57.4,1.12-2.42,3.1-5.21,6.18-6.15,6.18-.79,0-3.46-1.05-3.46-2.93,0-2.75,3.54-8.35,4.51-9.87a1.11,1.11,0,0,1,.94-.57c.76,0,2.53.72,1.85,1.8-.91,1.45-4.38,9.11-3.51,9.11C216.88,22.84,218.87,20.67,220.9,18.43Zm-1-9.11a.62.62,0,0,0,.29-.07,49.15,49.15,0,0,0,5.13-4.59c.8-.94-1.12-2.74-2.24-2.74a.66.66,0,0,0-.57.25c-.91,1.16-3.44,4.44-4.05,5.38C218,8.28,219.2,9.32,219.88,9.32Z"/><path class="cls-1" d="M220,22.37c0-3.69,3.43-10.44,8.31-10.44a2.89,2.89,0,0,1,2.82,1.33c2.53-5.09,5.45-10.37,5.45-10.37A1.65,1.65,0,0,1,238.24,2c.8,0,2.28.54,1.77,1.52-.18.36-8.49,16.73-8.49,19.26a.1.1,0,0,0,.11.11c.61,0,2.6-2.17,4.62-4.41a1.19,1.19,0,0,1,.8-.43c.54,0,.83.57.4,1.12-2.43,3.1-5.21,6.18-6.15,6.18s-3.72-1-3.76-2.9c-1.41,1.63-3,2.9-4.15,2.9A3.2,3.2,0,0,1,220,22.37Zm4,.47c3,0,7.74-8.89,4.92-8.89C225.59,14,222.34,22.84,224.07,22.84Z"/><path class="cls-1" d="M244.42,11.93c5.49,0,5.78,4.95,3.39,8.81a3.64,3.64,0,0,0,1.77-1c.65-.72.87-1,1.12-1.26a1.13,1.13,0,0,1,.8-.43c.5,0,.83.57.4,1.12-1.49,2-2.75,3.32-5.46,3.43a8.22,8.22,0,0,1-5.89,2.75c-4.23,0-4.84-2.75-4.84-4.34C235.71,17.82,239.28,11.93,244.42,11.93ZM241.6,22.84a3.49,3.49,0,0,0,2-.76,5.06,5.06,0,0,1-3.18-4.37,7.47,7.47,0,0,0-.9,3.21A1.83,1.83,0,0,0,241.6,22.84ZM245,14a3.32,3.32,0,0,0-2.78,3.43A3.58,3.58,0,0,0,245,20.64C247.05,18,248,14,245,14Z"/><path class="cls-1" d="M249.62,19.62c1.3-1.51,2.31-2.71,3.1-3.61a6.82,6.82,0,0,1,4.81-5.17.53.53,0,0,1,.22,0c1,0,1.95,2.31,1.3,2.56-.87.33-2.71,1.66-2.71,3S259,19,259,21.1v.37c.79-.8,1.84-1.88,2.89-3a1.17,1.17,0,0,1,.79-.43c.51,0,.83.57.4,1.12a18.82,18.82,0,0,1-5.46,5,5.93,5.93,0,0,1-3.9,1.2C249.51,25.3,248.06,21.5,249.62,19.62Zm3.75,2.71c1.52,0,2.32-.79,2.32-1.51,0-1-1.85-1.56-2.64-3.11-.47.61-1.05,1.33-1.66,2.09S251.5,22.33,253.37,22.33Z"/><path class="cls-2" d="M18.4,52.17c0-5,4.6-14,11.15-14,2.09,0,3.2.73,3.78,1.8C36.73,33.11,40.66,26,40.66,26a2.19,2.19,0,0,1,2.18-1.26c1.07,0,3,.72,2.37,2-.24.49-11.39,22.46-11.39,25.85,0,.1,0,.15.14.15.83,0,3.5-2.91,6.21-5.92a1.58,1.58,0,0,1,1.07-.58c.73,0,1.11.77.53,1.5-3.25,4.17-7,8.29-8.24,8.29-1.07,0-5-1.35-5.05-3.88-1.89,2.19-4,3.88-5.57,3.88C20.77,56.09,18.4,54.59,18.4,52.17Zm5.43.63c4,0,10.38-11.93,6.59-11.93C25.87,40.87,21.5,52.8,23.83,52.8Z"/><path class="cls-2" d="M49.23,38.15c3.35,0,4.71,2,4.71,4,0,3.88-3.44,5.62-6.94,5.62a9.33,9.33,0,0,1-2-.19,8.55,8.55,0,0,0-.48,2.62c0,.92.39,2.57,2.81,2.57,2.62,0,5.29-2.91,8-5.92a1.58,1.58,0,0,1,1.07-.58c.73,0,1.12.77.53,1.5-3.24,4.17-7,8.29-11,8.29-5.68,0-6.5-3.68-6.5-5.82C39.44,46.06,44.24,38.15,49.23,38.15Zm-2.32,7.37c2.37,0,4.8-1,4.8-3.49,0-.63-.29-1.16-1-1.16-1.36,0-3.4,2.08-4.75,4.6A6.31,6.31,0,0,0,46.91,45.52Z"/><path class="cls-2" d="M65.43,46.88a1.56,1.56,0,0,1,1.06-.58c.73,0,1.12.77.54,1.5-3.25,4.17-7,8.29-8.25,8.29-1.06,0-5-1.4-5-3.92C53.74,47.8,65.91,26,65.91,26a2.2,2.2,0,0,1,2.18-1.26c1.07,0,3.06.72,2.38,2-.24.49-11.4,22.46-11.4,25.85a.13.13,0,0,0,.15.15C60,52.8,62.71,49.89,65.43,46.88Z"/><path class="cls-2" d="M76.38,52.26c0-3.68,4.8-11.3,6.11-13.33a1.47,1.47,0,0,1,1.26-.78c1,0,3.4,1,2.47,2.43a57.71,57.71,0,0,0-3.83,8.48C85.21,45,92,38.15,94.61,38.15a3.49,3.49,0,0,1,3.3,3.4,10.13,10.13,0,0,1-1,2.91c3.11-3.3,6.55-6.31,8.3-6.31a3.49,3.49,0,0,1,3.29,3.4c0,1.94-5,9.74-5,10.91,0,.24.1.34.29.34.82,0,3.44-2.91,6.21-5.92a1.47,1.47,0,0,1,1.06-.58c.68,0,1.12.77.54,1.5-3.3,4.17-7,8.29-8.34,8.29-1.07,0-4.8-1.4-4.8-3.92s5.91-10.29,4.31-10.29-6.59,6.31-9.36,10.43a8.53,8.53,0,0,0-.68,2.81c0,.59-.14,1-1,1s-3.88-1.4-3.88-3.92,5.92-10.29,4.32-10.29c-2,0-10.91,11.84-11.15,13.58-.05.49-.25.63-.73.63C78.85,55.71,76.38,54.35,76.38,52.26Z"/><path class="cls-2" d="M108.77,52.17c0-5,4.6-14,11.15-14,2.43,0,3.54,1,4,2.38.43-.68.77-1.22,1-1.6a1.44,1.44,0,0,1,1.26-.78c1,0,3.39,1,2.47,2.43-1.21,1.93-5.87,12.22-4.7,12.22.82,0,3.49-2.91,6.2-5.92a1.58,1.58,0,0,1,1.07-.58c.68,0,1.12.77.53,1.5-3.29,4.17-7,8.29-8.24,8.29-1.07,0-4.61-1.35-4.66-3.88-1.89,2.19-4,3.88-5.57,3.88C111.14,56.09,108.77,54.59,108.77,52.17Zm5.43.63c4,0,10.38-11.93,6.59-11.93C116.23,40.87,111.87,52.8,114.2,52.8Zm12.36-27.74a.89.89,0,0,1,.73-.34c1.5,0,4.07,2.42,3.06,3.68a71.46,71.46,0,0,1-6.89,6.16.9.9,0,0,1-.39.1c-.92,0-2.57-1.41-1.94-2.38C121.91,31,125.3,26.61,126.56,25.06Z"/><path class="cls-2" d="M128.69,48.48c1.75-2,3.11-3.64,4.17-4.85.2-2.18,2.53-5.82,6.45-6.93a.61.61,0,0,1,.29-.05c1.41,0,2.62,3.1,1.75,3.44-1.16.44-3.64,2.23-3.64,4s3.54,3.54,3.54,6.35V51c1.07-1.06,2.48-2.52,3.88-4.07a1.58,1.58,0,0,1,1.07-.58c.68,0,1.11.77.53,1.5-2.76,3.49-5.72,6-7.32,6.69a8,8,0,0,1-5.24,1.6C128.55,56.09,126.61,51,128.69,48.48Zm5.05,3.64c2,0,3.1-1.07,3.1-2,0-1.36-2.47-2.08-3.54-4.17-.63.83-1.41,1.79-2.23,2.81C130.15,49.89,131.22,52.12,133.74,52.12Z"/><path class="cls-2" d="M167.72,38.15c2.43,0,3.54,1,4,2.38.44-.68.78-1.22,1-1.6a1.45,1.45,0,0,1,1.26-.78c1,0,3.39,1,2.47,2.43-1.21,1.93-5.86,12.22-4.7,12.22.82,0,3.49-2.91,6.21-5.92A1.54,1.54,0,0,1,179,46.3c.68,0,1.12.77.54,1.5-3.3,4.17-7,8.29-8.25,8.29-1.06,0-4.61-1.35-4.65-3.88-1.89,2.19-4,3.88-5.58,3.88-2.13,0-4.51-1.5-4.51-3.92C156.57,47.22,161.18,38.15,167.72,38.15ZM162,52.8c4,0,10.38-11.93,6.6-11.93C164,40.87,159.67,52.8,162,52.8Z"/><path class="cls-2" d="M188,46.88a1.58,1.58,0,0,1,1.07-.58c.72,0,1.11.77.53,1.5-3.25,4.17-7,8.29-8.25,8.29-1.06,0-5-1.4-5-3.92,0-4.37,12.17-26.14,12.17-26.14a2.2,2.2,0,0,1,2.19-1.26c1.06,0,3,.72,2.37,2-.24.49-11.39,22.46-11.39,25.85,0,.1,0,.15.14.15C182.66,52.8,185.32,49.89,188,46.88Z"/><path class="cls-2" d="M198.12,46.88a1.58,1.58,0,0,1,1.07-.58c.73,0,1.11.77.53,1.5-3.25,4.17-7,8.29-8.24,8.29-1.07,0-5-1.4-5-3.92,0-4.37,12.18-26.14,12.18-26.14a2.19,2.19,0,0,1,2.18-1.26c1.07,0,3.05.72,2.38,2-.25.49-11.4,22.46-11.4,25.85a.13.13,0,0,0,.15.15C192.74,52.8,195.41,49.89,198.12,46.88Z"/><path class="cls-2" d="M197,52.17c0-5,4.6-14,11.15-14,2.42,0,3.54,1,4,2.38l1-1.6a1.47,1.47,0,0,1,1.26-.78c1,0,3.4,1,2.48,2.43-1.21,1.93-5.87,12.22-4.71,12.22.83,0,3.5-2.91,6.21-5.92a1.58,1.58,0,0,1,1.07-.58c.68,0,1.11.77.53,1.5-3.3,4.17-7,8.29-8.24,8.29-1.07,0-4.61-1.35-4.66-3.88-1.89,2.19-4,3.88-5.57,3.88C199.33,56.09,197,54.59,197,52.17Zm5.43.63c4,0,10.37-11.93,6.59-11.93C204.42,40.87,200.06,52.8,202.39,52.8Zm12.36-27.74a.89.89,0,0,1,.73-.34c1.5,0,4.07,2.42,3.06,3.68a72.67,72.67,0,0,1-6.89,6.16.9.9,0,0,1-.39.1c-.92,0-2.57-1.41-1.94-2.38C210.1,31,213.49,26.61,214.75,25.06Z"/><rect class="cls-3" x="19.02" y="79.25" width="90.94" height="13.43" rx="6.72"/><path class="cls-1" d="M32.72,86a1.82,1.82,0,0,1-.77.73,2.75,2.75,0,0,1-1.32.28H29.54v2.49h-1.3V83.05h2.39a2.81,2.81,0,0,1,1.28.26,1.83,1.83,0,0,1,.79.71,2.07,2.07,0,0,1,.26,1A2,2,0,0,1,32.72,86Zm-1.35-.28a.9.9,0,0,0,.26-.69c0-.63-.35-1-1.06-1h-1V86h1A1.16,1.16,0,0,0,31.37,85.74Z"/><path class="cls-1" d="M34,83.55a.75.75,0,0,1,0-1.08.85.85,0,0,1,1.14,0,.77.77,0,0,1,0,1.08.85.85,0,0,1-1.14,0Zm1.21.83v5.14h-1.3V84.38Z"/><path class="cls-1" d="M36.43,85.55a2.23,2.23,0,0,1,2-1.25,2.1,2.1,0,0,1,1,.22,1.79,1.79,0,0,1,.72.57V82.66h1.32v6.86H40.15v-.76a1.8,1.8,0,0,1-.67.61,2.18,2.18,0,0,1-1,.23,2.25,2.25,0,0,1-1.19-.33,2.38,2.38,0,0,1-.85-1,3.25,3.25,0,0,1,0-2.77Zm3.55.59a1.32,1.32,0,0,0-.5-.52,1.36,1.36,0,0,0-.68-.18,1.42,1.42,0,0,0-.67.17,1.3,1.3,0,0,0-.49.52,1.55,1.55,0,0,0-.19.8,1.62,1.62,0,0,0,.19.81,1.28,1.28,0,0,0,.5.53,1.23,1.23,0,0,0,.66.19,1.36,1.36,0,0,0,.68-.18,1.32,1.32,0,0,0,.5-.52,1.73,1.73,0,0,0,.18-.81A1.67,1.67,0,0,0,40,86.14Z"/><path class="cls-1" d="M47.48,87.34H43.72a1.27,1.27,0,0,0,.39.87,1.2,1.2,0,0,0,.85.31,1,1,0,0,0,1-.62h1.4a2.28,2.28,0,0,1-.85,1.22A2.47,2.47,0,0,1,45,89.6a2.7,2.7,0,0,1-1.33-.33,2.33,2.33,0,0,1-.91-.93A2.86,2.86,0,0,1,42.41,87a3,3,0,0,1,.32-1.4,2.33,2.33,0,0,1,.91-.93A2.79,2.79,0,0,1,45,84.3a2.74,2.74,0,0,1,1.32.31,2.2,2.2,0,0,1,.89.9,2.62,2.62,0,0,1,.32,1.33A3.84,3.84,0,0,1,47.48,87.34Zm-1.31-.87a1,1,0,0,0-.36-.8,1.25,1.25,0,0,0-.86-.31,1.16,1.16,0,0,0-.81.3,1.27,1.27,0,0,0-.41.81Z"/><path class="cls-1" d="M50.64,85.55a2.32,2.32,0,0,1,.85-.93,2.28,2.28,0,0,1,1.19-.32,2.11,2.11,0,0,1,1,.23,2,2,0,0,1,.69.58v-.73h1.31v5.14H54.37v-.75a1.75,1.75,0,0,1-.69.59,2.07,2.07,0,0,1-1,.24,2.19,2.19,0,0,1-1.18-.33,2.38,2.38,0,0,1-.85-1,3.25,3.25,0,0,1,0-2.77Zm3.55.59a1.32,1.32,0,0,0-.5-.52,1.36,1.36,0,0,0-.68-.18,1.42,1.42,0,0,0-.67.17,1.3,1.3,0,0,0-.49.52,1.55,1.55,0,0,0-.19.8,1.62,1.62,0,0,0,.19.81,1.28,1.28,0,0,0,.5.53,1.21,1.21,0,0,0,.66.19,1.36,1.36,0,0,0,.68-.18,1.32,1.32,0,0,0,.5-.52,1.73,1.73,0,0,0,.18-.81A1.67,1.67,0,0,0,54.19,86.14Z"/><path class="cls-1" d="M59.13,85.55a2.23,2.23,0,0,1,2-1.25,2.1,2.1,0,0,1,1,.22,1.87,1.87,0,0,1,.72.57V82.66h1.32v6.86H62.85v-.76a1.8,1.8,0,0,1-.67.61,2.18,2.18,0,0,1-1,.23A2.22,2.22,0,0,1,60,89.27a2.38,2.38,0,0,1-.85-1,3.25,3.25,0,0,1,0-2.77Zm3.55.59a1.32,1.32,0,0,0-.5-.52,1.36,1.36,0,0,0-.68-.18,1.42,1.42,0,0,0-.67.17,1.3,1.3,0,0,0-.49.52,1.55,1.55,0,0,0-.19.8,1.62,1.62,0,0,0,.19.81,1.28,1.28,0,0,0,.5.53,1.23,1.23,0,0,0,.66.19,1.36,1.36,0,0,0,.68-.18,1.32,1.32,0,0,0,.5-.52,1.73,1.73,0,0,0,.18-.81A1.67,1.67,0,0,0,62.68,86.14Z"/><path class="cls-1" d="M66.39,89.27a2.4,2.4,0,0,1-.94-.93A2.86,2.86,0,0,1,65.12,87a2.73,2.73,0,0,1,.34-1.39,2.49,2.49,0,0,1,1-.93,2.78,2.78,0,0,1,1.35-.33,2.74,2.74,0,0,1,1.34.33,2.43,2.43,0,0,1,1,.93A2.73,2.73,0,0,1,70.4,87,2.67,2.67,0,0,1,70,88.34a2.52,2.52,0,0,1-1,.93,2.82,2.82,0,0,1-1.36.33A2.68,2.68,0,0,1,66.39,89.27Zm2-1a1.26,1.26,0,0,0,.5-.52,1.76,1.76,0,0,0,.18-.83,1.55,1.55,0,0,0-.38-1.13,1.28,1.28,0,0,0-.94-.39,1.24,1.24,0,0,0-.93.39A1.59,1.59,0,0,0,66.43,87a1.55,1.55,0,0,0,.37,1.12,1.18,1.18,0,0,0,.92.4A1.35,1.35,0,0,0,68.38,88.3Z"/><path class="cls-1" d="M79.26,84.89a2.18,2.18,0,0,1,.57,1.61v3H78.54V86.68a1.25,1.25,0,0,0-.31-.92,1.06,1.06,0,0,0-.83-.32,1.09,1.09,0,0,0-.84.32,1.25,1.25,0,0,0-.31.92v2.84H75V86.68a1.25,1.25,0,0,0-.31-.92,1.06,1.06,0,0,0-.83-.32,1.11,1.11,0,0,0-.85.32,1.25,1.25,0,0,0-.31.92v2.84h-1.3V84.38h1.3V85a1.85,1.85,0,0,1,.65-.51,2,2,0,0,1,.86-.18,2.26,2.26,0,0,1,1.08.25,1.77,1.77,0,0,1,.73.73,1.78,1.78,0,0,1,.73-.71,2.22,2.22,0,0,1,2.56.31Z"/><path class="cls-1" d="M81.16,83.55a.75.75,0,0,1,0-1.08.77.77,0,0,1,.57-.22.8.8,0,0,1,.57.22.77.77,0,0,1,0,1.08.8.8,0,0,1-.57.22A.77.77,0,0,1,81.16,83.55Zm1.21.83v5.14h-1.3V84.38Z"/><path class="cls-1" d="M83.64,85.55a2.32,2.32,0,0,1,.89-.92,2.64,2.64,0,0,1,1.32-.33,2.58,2.58,0,0,1,1.58.47,2.32,2.32,0,0,1,.84,1.34h-1.4a1,1,0,0,0-.38-.52,1,1,0,0,0-.65-.19,1.1,1.1,0,0,0-.88.4A1.77,1.77,0,0,0,84.64,87,1.71,1.71,0,0,0,85,88.08a1.08,1.08,0,0,0,.88.41,1,1,0,0,0,1-.71h1.4a2.36,2.36,0,0,1-.84,1.33,2.48,2.48,0,0,1-1.58.49,2.64,2.64,0,0,1-1.32-.33,2.28,2.28,0,0,1-.89-.93A2.8,2.8,0,0,1,83.31,87,2.87,2.87,0,0,1,83.64,85.55Z"/><path class="cls-1" d="M89.31,83.55a.77.77,0,0,1,0-1.08.85.85,0,0,1,1.14,0,.75.75,0,0,1,0,1.08.85.85,0,0,1-1.14,0Zm1.21.83v5.14h-1.3V84.38Z"/><path class="cls-1" d="M93.1,82.66v6.86H91.8V82.66Z"/><path class="cls-1" d="M94.47,83.55a.75.75,0,0,1,0-1.08.77.77,0,0,1,.57-.22.8.8,0,0,1,.57.22.77.77,0,0,1,0,1.08.8.8,0,0,1-.57.22A.77.77,0,0,1,94.47,83.55Zm1.21.83v5.14h-1.3V84.38Z"/><path class="cls-1" d="M97.9,89.27a2.31,2.31,0,0,1-.93-.93,3,3,0,0,1,0-2.78,2.43,2.43,0,0,1,1-.93,2.74,2.74,0,0,1,1.34-.33,2.78,2.78,0,0,1,1.35.33,2.49,2.49,0,0,1,.95.93,2.73,2.73,0,0,1,.34,1.39,2.76,2.76,0,0,1-.35,1.39,2.48,2.48,0,0,1-1,.93,2.77,2.77,0,0,1-1.36.33A2.7,2.7,0,0,1,97.9,89.27Zm2-1a1.3,1.3,0,0,0,.49-.52,1.64,1.64,0,0,0,.19-.83,1.55,1.55,0,0,0-.39-1.13,1.26,1.26,0,0,0-.94-.39,1.24,1.24,0,0,0-.93.39,1.92,1.92,0,0,0,0,2.25,1.19,1.19,0,0,0,.92.4A1.42,1.42,0,0,0,99.9,88.3Z"/><rect class="cls-1" x="2.77" width="1.37" height="56.09"/><path class="cls-4" d="M26.38,130.46a3.61,3.61,0,0,0-1.93-.91,1.56,1.56,0,0,1-.61-.09H22.78a2.86,2.86,0,0,0-1,.13,4.47,4.47,0,0,0-3,4.2,5.9,5.9,0,0,0,.59,2.61,13.42,13.42,0,0,0,3.15,4.06,1.36,1.36,0,0,0,.68.36h.35a1.29,1.29,0,0,0,.49-.26c.36-.34.72-.7,1.05-1.05A16.45,16.45,0,0,0,27,137a6.67,6.67,0,0,0,1-3,4.52,4.52,0,0,0-1.58-3.67h0Zm-3,5.69a2.25,2.25,0,0,1-2.08-2.39,2.22,2.22,0,0,1,2.08-2.08h0a2.24,2.24,0,0,1-.08,4.47Z"/><path class="cls-4" d="M149.51,133.88v.19s0,.08,0,.08h-.66v-.31a5.66,5.66,0,0,0-.12-.81.64.64,0,0,0-.07-.27c0-.16-.12-.35-.16-.51v-.07a2.73,2.73,0,0,0-.27-.54l-.2-.31a.11.11,0,0,0,0-.08,4.74,4.74,0,0,0-1.2-1.12.92.92,0,0,0-.27-.16,2.73,2.73,0,0,0-.54-.27h0a5.5,5.5,0,0,0-.81-.27,4.57,4.57,0,0,0-1.05-.12H144v-.6a.12.12,0,0,1,.12-.12h.19a2,2,0,0,1,.42,0,.22.22,0,0,1,.16,0A8.16,8.16,0,0,1,146,129a5.4,5.4,0,0,1,2.55,1.89v0a.61.61,0,0,1,.12.16,2.13,2.13,0,0,1,.27.46,2,2,0,0,1,.27.54c.08.2.16.39.23.6s.08.16,0,.19a5.66,5.66,0,0,1,.16.82V134h0Z"/><path class="cls-4" d="M138.21,130.86v-.12a.58.58,0,0,1,.08-.22.45.45,0,0,1,.16-.2c.23-.23.46-.43.65-.66a1.43,1.43,0,0,1,.24-.19.38.38,0,0,1,.3-.11.35.35,0,0,0,.2-.05h.31l.27.08a1.57,1.57,0,0,1,.85.77,2.23,2.23,0,0,1,.16.43c.11.35.19.74.27,1.08a1.54,1.54,0,0,1-.16,1,1.31,1.31,0,0,1-.19.27,2.57,2.57,0,0,1-.39.35c-.08.08-.08.12,0,.19a3.12,3.12,0,0,1,.15.43,4.52,4.52,0,0,0,.23.5,7.7,7.7,0,0,0,.6.89c.08.08.12.16.19.24a5.81,5.81,0,0,0,1.44,1.12l.54.23a2.51,2.51,0,0,0,.46.16h.12l.39-.39a1.31,1.31,0,0,1,1-.43,2.15,2.15,0,0,1,.5.12h.08c.31.07.66.19,1,.27h.08a1.24,1.24,0,0,1,.77.7l.11.27a.63.63,0,0,0,.08.23v.38s0,.15,0,.19a1.65,1.65,0,0,1-.38.6l-.54.54a1.12,1.12,0,0,1-.24.19,1.27,1.27,0,0,1-.39.12h-.6a5.78,5.78,0,0,1-.7-.08,6.36,6.36,0,0,1-.73-.16,7.41,7.41,0,0,1-1.31-.42.3.3,0,0,1-.16-.08l-.27-.11c-.19-.12-.42-.2-.6-.31s-.54-.35-.81-.51-.43-.35-.66-.5a5.14,5.14,0,0,1-.66-.66c-.19-.19-.35-.42-.54-.6a1,1,0,0,0-.15-.2s-.05-.07-.08-.11q-.27-.39-.51-.81a3.41,3.41,0,0,1-.31-.6l-.11-.24a6.28,6.28,0,0,1-.23-.66,3.07,3.07,0,0,1-.24-.85.45.45,0,0,0,0-.23,1.37,1.37,0,0,0-.08-.35c0-.07,0-.11,0-.19a5,5,0,0,0-.08-.66v-.69h0Z"/><path class="cls-4" d="M143.88,131.33v-.66a.07.07,0,0,1,.08-.08h0a2.15,2.15,0,0,1,.5,0,.45.45,0,0,1,.23,0l.7.23a3.54,3.54,0,0,1,1.93,2.44v0s0,.11,0,.15a1.87,1.87,0,0,0,0,.47c0,.11,0,.11-.12.11h-.6v-.5a1,1,0,0,0-.07-.35,2.9,2.9,0,0,0-1.8-1.8.82.82,0,0,0-.31-.07h-.58Z"/><path class="cls-4" d="M144,133.46s-.11-.08-.11-.16v-.6a1.21,1.21,0,0,1,.53.12.22.22,0,0,1,.16.07s.08.05.12.08a1.93,1.93,0,0,1,.35.35.89.89,0,0,1,.15.27,2.49,2.49,0,0,1,.12.47v.11h-.6a.11.11,0,0,1-.12-.11h0a.6.6,0,0,0-.35-.5l-.19-.08H144Z"/><path class="cls-4" d="M38.56,130a2.89,2.89,0,0,1,1.07-1.07,3.09,3.09,0,0,1,1.52-.38,3,3,0,0,1,1.72.5,2.67,2.67,0,0,1,1,1.4H42.55a1.38,1.38,0,0,0-.56-.63,1.7,1.7,0,0,0-.85-.21,1.74,1.74,0,0,0-.91.24,1.58,1.58,0,0,0-.62.68,2.38,2.38,0,0,0,0,2,1.58,1.58,0,0,0,.62.68,1.74,1.74,0,0,0,.91.24,1.7,1.7,0,0,0,.85-.21,1.41,1.41,0,0,0,.56-.64h1.36a2.63,2.63,0,0,1-1,1.4,3.24,3.24,0,0,1-3.25.12,2.86,2.86,0,0,1-1.07-1.06,3.28,3.28,0,0,1,0-3.1Z"/><path class="cls-4" d="M46.68,130a1.69,1.69,0,0,1,.84-.21V131h-.31a1.18,1.18,0,0,0-.84.26,1.21,1.21,0,0,0-.28.9v2.32H44.92v-4.65h1.17v.72A1.64,1.64,0,0,1,46.68,130Z"/><path class="cls-4" d="M48.29,130.88a2,2,0,0,1,.77-.84,2,2,0,0,1,1.08-.3,1.91,1.91,0,0,1,.91.21,1.8,1.8,0,0,1,.62.53v-.66h1.19v4.65H51.67v-.68a1.72,1.72,0,0,1-.62.54,1.87,1.87,0,0,1-.92.22,2,2,0,0,1-1.07-.3,2.14,2.14,0,0,1-.77-.86,2.69,2.69,0,0,1-.28-1.26A2.65,2.65,0,0,1,48.29,130.88Zm3.22.53a1.3,1.3,0,0,0-.46-.47,1.19,1.19,0,0,0-.61-.17,1.29,1.29,0,0,0-.61.16,1.36,1.36,0,0,0-.45.47,1.65,1.65,0,0,0,0,1.46,1.28,1.28,0,0,0,.46.49,1.13,1.13,0,0,0,.6.17,1.19,1.19,0,0,0,.61-.17,1.22,1.22,0,0,0,.46-.47,1.77,1.77,0,0,0,0-1.47Z"/><path class="cls-4" d="M54,134.33a.64.64,0,0,1-.21-.49.65.65,0,0,1,.21-.49.72.72,0,0,1,.52-.2.69.69,0,0,1,.51.2.65.65,0,0,1,.21.49.64.64,0,0,1-.21.49.66.66,0,0,1-.51.2A.68.68,0,0,1,54,134.33Z"/><path class="cls-4" d="M62,129.24l-2.23,5.23h-1.2l2.26-5.1H57.91v-1H62Z"/><path class="cls-4" d="M62.53,129.43v-1.08h2v6.12H63.34v-5Z"/><path class="cls-4" d="M73,130.7,72.74,132h1.07v1h-1.3l-.3,1.43H71.09l.3-1.43H69.86l-.3,1.43H68.45l.3-1.43H67.48v-1H69l.28-1.29H68v-1h1.49l.29-1.4h1.11l-.3,1.4h1.53l.3-1.4h1.12l-.3,1.4h1.08v1Zm-1.12,0H70.37L70.09,132h1.53Z"/><path class="cls-4" d="M79.07,129.24l-2.24,5.23H75.64l2.25-5.1H75v-1h4Z"/><path class="cls-4" d="M81.44,133.32a1,1,0,0,0,.65.2.79.79,0,0,0,.75-.44,3.21,3.21,0,0,0,.24-1.46,1.27,1.27,0,0,1-.54.42,2,2,0,0,1-.76.16,2.07,2.07,0,0,1-1-.23,1.66,1.66,0,0,1-.68-.66,2.12,2.12,0,0,1-.26-1.07,2,2,0,0,1,.56-1.49,2.07,2.07,0,0,1,1.51-.55,1.86,1.86,0,0,1,1.69.77,4.3,4.3,0,0,1,.49,2.3,6.8,6.8,0,0,1-.19,1.79A1.76,1.76,0,0,1,82,134.48a2.16,2.16,0,0,1-1.06-.24,1.64,1.64,0,0,1-.67-.63,2,2,0,0,1-.27-.86h1.1A.88.88,0,0,0,81.44,133.32ZM82.72,131a1,1,0,0,0,.25-.72,1,1,0,0,0-.27-.77.91.91,0,0,0-.72-.28.94.94,0,0,0-.71.28,1.17,1.17,0,0,0,0,1.48,1,1,0,0,0,.77.28A.9.9,0,0,0,82.72,131Z"/><path class="cls-4" d="M85.15,130.88a2,2,0,0,1,.76-.84,2,2,0,0,1,1.08-.3,1.92,1.92,0,0,1,.92.21,1.8,1.8,0,0,1,.62.53v-.66h1.19v4.65H88.53v-.68a1.72,1.72,0,0,1-.62.54,1.87,1.87,0,0,1-.92.22,2,2,0,0,1-1.08-.3,2.2,2.2,0,0,1-.76-.86,2.69,2.69,0,0,1-.28-1.26A2.65,2.65,0,0,1,85.15,130.88Zm3.21.53a1.21,1.21,0,0,0-1.06-.64,1.29,1.29,0,0,0-.61.16,1.36,1.36,0,0,0-.45.47,1.65,1.65,0,0,0,0,1.46,1.28,1.28,0,0,0,.46.49,1.13,1.13,0,0,0,.6.17,1.19,1.19,0,0,0,.61-.17,1.14,1.14,0,0,0,.45-.47,1.67,1.67,0,0,0,0-1.47Z"/><path class="cls-4" d="M94.45,131v1H90.89v-1Z"/><path class="cls-4" d="M97.3,133.32a1,1,0,0,0,.65.2.78.78,0,0,0,.75-.44,3.21,3.21,0,0,0,.24-1.46,1.27,1.27,0,0,1-.54.42,2,2,0,0,1-.76.16,2.1,2.1,0,0,1-1-.23,1.72,1.72,0,0,1-.68-.66,2.12,2.12,0,0,1-.25-1.07,2,2,0,0,1,.55-1.49,2.09,2.09,0,0,1,1.51-.55,1.86,1.86,0,0,1,1.69.77,4.3,4.3,0,0,1,.49,2.3,6.8,6.8,0,0,1-.19,1.79,1.92,1.92,0,0,1-.64,1.06,2,2,0,0,1-1.25.36,2.16,2.16,0,0,1-1.06-.24,1.7,1.7,0,0,1-.67-.63,2,2,0,0,1-.26-.86H97A.88.88,0,0,0,97.3,133.32ZM98.58,131a1,1,0,0,0,.25-.72,1.07,1.07,0,0,0-.26-.77,1.07,1.07,0,0,0-1.44,0,1.17,1.17,0,0,0,0,1.48,1,1,0,0,0,.77.28A.9.9,0,0,0,98.58,131Z"/><path class="cls-4" d="M104.8,129.24l-2.24,5.23h-1.19l2.25-5.1h-2.87v-1h4Z"/><path class="cls-5" d="M41.77,139.36a1.66,1.66,0,0,1-.75.43,1,1,0,0,1,.61.36,1.11,1.11,0,0,1,.24.71,2,2,0,0,1,0,.23,1.58,1.58,0,0,1-.33.72,1.73,1.73,0,0,1-.67.51,2.37,2.37,0,0,1-1,.18H38.08l.93-5.25h1.77a1.64,1.64,0,0,1,1,.29,1,1,0,0,1,.36.77,2.46,2.46,0,0,1,0,.26A1.39,1.39,0,0,1,41.77,139.36Zm-.42,1.47a.72.72,0,0,0-.29-.6,1.23,1.23,0,0,0-.78-.22H39l-.36,2.06h1.26a1.56,1.56,0,0,0,.94-.27,1.22,1.22,0,0,0,.45-.76A1.49,1.49,0,0,0,41.35,140.83Zm.29-2.4a.68.68,0,0,0-.25-.56,1.16,1.16,0,0,0-.73-.2h-1.2l-.33,1.91h1.22a1.38,1.38,0,0,0,.86-.26,1.13,1.13,0,0,0,.42-.7A1,1,0,0,0,41.64,138.43Z"/><path class="cls-5" d="M43.47,142.35a1.48,1.48,0,0,1-.61-.58,1.83,1.83,0,0,1-.21-.89A2.56,2.56,0,0,1,43,139.6a2.48,2.48,0,0,1,.87-.92,2.38,2.38,0,0,1,1.26-.34,2,2,0,0,1,.9.2,1.57,1.57,0,0,1,.61.59,1.8,1.8,0,0,1,.22.89,2.54,2.54,0,0,1-.33,1.28,2.5,2.5,0,0,1-.88.92,2.32,2.32,0,0,1-1.25.34A1.87,1.87,0,0,1,43.47,142.35Zm1.92-.52a2,2,0,0,0,.66-.76,2.19,2.19,0,0,0,.24-1,1.21,1.21,0,0,0-.36-.94,1.33,1.33,0,0,0-.91-.32,1.66,1.66,0,0,0-1,.28,2.09,2.09,0,0,0-.65.76,2.38,2.38,0,0,0-.23,1,1.24,1.24,0,0,0,.35.94,1.26,1.26,0,0,0,.89.33A1.67,1.67,0,0,0,45.39,141.83Z"/><path class="cls-5" d="M50.81,138.61a1.26,1.26,0,0,1,.49.68l.16-.89H52l-.74,4.2a2.28,2.28,0,0,1-.41,1,2.19,2.19,0,0,1-.8.68,2.43,2.43,0,0,1-1,.23,1.87,1.87,0,0,1-1.24-.37,1.27,1.27,0,0,1-.47-1h.52a1,1,0,0,0,.39.68,1.39,1.39,0,0,0,.88.25,1.6,1.6,0,0,0,1.07-.38,1.71,1.71,0,0,0,.58-1.07l.17-1a2,2,0,0,1-.73.7,2.12,2.12,0,0,1-1.06.27,1.53,1.53,0,0,1-1.63-1.65,2.63,2.63,0,0,1,0-.47,2.89,2.89,0,0,1,.45-1.11,2.31,2.31,0,0,1,.83-.73,2.16,2.16,0,0,1,1.06-.26A1.65,1.65,0,0,1,50.81,138.61Zm.32,1.46a1.19,1.19,0,0,0-1.27-1.27,1.73,1.73,0,0,0-.81.19,1.77,1.77,0,0,0-.65.57,2.23,2.23,0,0,0-.35.88,3.29,3.29,0,0,0,0,.38,1.19,1.19,0,0,0,1.27,1.28,1.72,1.72,0,0,0,.8-.2,1.93,1.93,0,0,0,.66-.58,2.1,2.1,0,0,0,.35-.87A1.82,1.82,0,0,0,51.13,140.07Z"/><path class="cls-5" d="M53.36,142.35a1.4,1.4,0,0,1-.6-.58,1.83,1.83,0,0,1-.22-.89,2.67,2.67,0,0,1,.32-1.28,2.43,2.43,0,0,1,.88-.92,2.35,2.35,0,0,1,1.25-.34,2,2,0,0,1,.91.2,1.48,1.48,0,0,1,.6.59,1.7,1.7,0,0,1,.22.89,2.64,2.64,0,0,1-.32,1.28,2.59,2.59,0,0,1-.88.92,2.35,2.35,0,0,1-1.25.34A1.88,1.88,0,0,1,53.36,142.35Zm1.92-.52a1.8,1.8,0,0,0,.66-.76,2.19,2.19,0,0,0,.24-1,1.21,1.21,0,0,0-.36-.94,1.3,1.3,0,0,0-.9-.32,1.63,1.63,0,0,0-1,.28,1.92,1.92,0,0,0-.65.76,2.24,2.24,0,0,0-.23,1,1.2,1.2,0,0,0,.35.94,1.24,1.24,0,0,0,.89.33A1.66,1.66,0,0,0,55.28,141.83Z"/><path class="cls-5" d="M58.16,141.39a1.11,1.11,0,0,0,0,.23.37.37,0,0,0,.14.33.68.68,0,0,0,.43.1h.48l-.08.45h-.57a1.15,1.15,0,0,1-.7-.18.72.72,0,0,1-.23-.59,2,2,0,0,1,0-.34l.45-2.55h-.57l.08-.44h.57l.19-1h.52l-.18,1h1.14l-.09.44H58.61Z"/><path class="cls-5" d="M60.53,139.33a2.31,2.31,0,0,1,.83-.73,2.16,2.16,0,0,1,1.06-.26,1.6,1.6,0,0,1,1,.27,1.25,1.25,0,0,1,.49.69l.16-.9h.52l-.72,4.1H63.3l.16-.91a2,2,0,0,1-.73.7,2.12,2.12,0,0,1-1.06.27,1.79,1.79,0,0,1-.86-.2,1.39,1.39,0,0,1-.57-.58,1.75,1.75,0,0,1-.2-.87,2.63,2.63,0,0,1,0-.47A2.89,2.89,0,0,1,60.53,139.33Zm3.17.74a1.19,1.19,0,0,0-1.27-1.27,1.73,1.73,0,0,0-.81.19,1.77,1.77,0,0,0-.65.57,2.23,2.23,0,0,0-.35.88,3.29,3.29,0,0,0,0,.38,1.19,1.19,0,0,0,1.27,1.28,1.72,1.72,0,0,0,.8-.2,1.93,1.93,0,0,0,.66-.58,2.1,2.1,0,0,0,.35-.87A1.82,1.82,0,0,0,63.7,140.07Zm-.16-2.88-1.7.89.07-.4,1.71-1Z"/><path class="cls-4" d="M157.94,128.2a2.47,2.47,0,0,1,1.6-.5,2.54,2.54,0,0,1,1.15.24,1.68,1.68,0,0,1,.73.63,1.78,1.78,0,0,1,.24.92,1.61,1.61,0,0,1-.3,1,1.46,1.46,0,0,1-.71.54v0a1.57,1.57,0,0,1,.83.59,1.85,1.85,0,0,1,.3,1.09,1.92,1.92,0,0,1-.25,1,1.78,1.78,0,0,1-.75.68,2.72,2.72,0,0,1-1.19.24,2.65,2.65,0,0,1-1.7-.52,2,2,0,0,1-.69-1.56h1.26a1,1,0,0,0,.31.73,1.11,1.11,0,0,0,.79.27,1,1,0,0,0,.73-.26.94.94,0,0,0,.25-.68.89.89,0,0,0-.35-.8,1.93,1.93,0,0,0-1.09-.24h-.27v-1.06h.27c.88,0,1.32-.29,1.32-.88a.81.81,0,0,0-.24-.62.94.94,0,0,0-.68-.22.9.9,0,0,0-.67.24.88.88,0,0,0-.27.59h-1.27A1.91,1.91,0,0,1,157.94,128.2Z"/><path class="cls-4" d="M163.22,133.14c.59-.5,1.06-.91,1.41-1.24a6,6,0,0,0,.88-1,2,2,0,0,0,.35-1.05,1.11,1.11,0,0,0-.22-.74.85.85,0,0,0-.69-.27.86.86,0,0,0-.71.31,1.43,1.43,0,0,0-.26.85h-1.25a2.28,2.28,0,0,1,.66-1.69,2.55,2.55,0,0,1,3.2,0,2,2,0,0,1,.56,1.47,2.76,2.76,0,0,1-.38,1.38,5.42,5.42,0,0,1-.89,1.14c-.33.33-.77.72-1.31,1.17h2.73v1.07h-4.56v-1Z"/><path class="cls-4" d="M168.69,128.63a2.5,2.5,0,0,1,3.84,0,5.74,5.74,0,0,1,0,5,2.46,2.46,0,0,1-3.84,0,5.83,5.83,0,0,1,0-5Zm3.05,1.36a1.49,1.49,0,0,0-.35-.76,1,1,0,0,0-.78-.3,1,1,0,0,0-.78.3,1.49,1.49,0,0,0-.35.76,6.16,6.16,0,0,0-.09,1.15,7.71,7.71,0,0,0,.08,1.18,1.54,1.54,0,0,0,.36.77,1,1,0,0,0,.78.29,1,1,0,0,0,.79-.29,1.53,1.53,0,0,0,.35-.77,7.71,7.71,0,0,0,.08-1.18A6.16,6.16,0,0,0,171.74,130Z"/><path class="cls-4" d="M174.76,128.2a2.42,2.42,0,0,1,1.59-.5,2.58,2.58,0,0,1,1.16.24,1.65,1.65,0,0,1,.72.63,1.69,1.69,0,0,1,.25.92,1.61,1.61,0,0,1-.3,1,1.44,1.44,0,0,1-.72.54v0a1.56,1.56,0,0,1,.84.59,1.85,1.85,0,0,1,.3,1.09,1.92,1.92,0,0,1-.26,1,1.78,1.78,0,0,1-.75.68,2.67,2.67,0,0,1-1.18.24,2.61,2.61,0,0,1-1.7-.52,2,2,0,0,1-.7-1.56h1.26a1,1,0,0,0,.31.73,1.12,1.12,0,0,0,.8.27,1,1,0,0,0,.72-.26.94.94,0,0,0,.26-.68.91.91,0,0,0-.35-.8,2,2,0,0,0-1.09-.24h-.27v-1.06h.27c.87,0,1.31-.29,1.31-.88A.81.81,0,0,0,177,129a.93.93,0,0,0-.68-.22.9.9,0,0,0-.67.24,1,1,0,0,0-.27.59h-1.26A1.88,1.88,0,0,1,174.76,128.2Z"/><path class="cls-4" d="M180.2,128.63a2.5,2.5,0,0,1,3.84,0,5.83,5.83,0,0,1,0,5,2.46,2.46,0,0,1-3.84,0,5.74,5.74,0,0,1,0-5Zm3.05,1.36a1.49,1.49,0,0,0-.35-.76,1,1,0,0,0-.78-.3,1,1,0,0,0-.78.3,1.49,1.49,0,0,0-.35.76,6.16,6.16,0,0,0-.09,1.15,7.71,7.71,0,0,0,.08,1.18,1.53,1.53,0,0,0,.35.77,1,1,0,0,0,.79.29,1,1,0,0,0,.79-.29,1.62,1.62,0,0,0,.35-.77,7.71,7.71,0,0,0,.08-1.18A6.16,6.16,0,0,0,183.25,130Z"/><path class="cls-4" d="M189.88,128.84l-2.45,5.76h-1.32l2.48-5.61h-3.16v-1.11h4.45Z"/><path class="cls-4" d="M190.5,129.05v-1.19h2.23v6.74H191.4v-5.55Z"/><path class="cls-4" d="M198.3,128.84l-2.46,5.76h-1.32L197,129h-3.16v-1.11h4.46Z"/><path class="cls-4" d="M200.91,133.33a1.08,1.08,0,0,0,.7.21.9.9,0,0,0,.84-.47,3.7,3.7,0,0,0,.25-1.61,1.47,1.47,0,0,1-.59.47,2.08,2.08,0,0,1-.83.16,2.37,2.37,0,0,1-1.07-.24,1.88,1.88,0,0,1-.75-.73,2.42,2.42,0,0,1-.28-1.18,2.2,2.2,0,0,1,.61-1.63,2.24,2.24,0,0,1,1.67-.61,2,2,0,0,1,1.85.84,4.76,4.76,0,0,1,.54,2.53,7.6,7.6,0,0,1-.21,2,2.13,2.13,0,0,1-.71,1.17,2.17,2.17,0,0,1-1.37.4,2.35,2.35,0,0,1-1.17-.27,1.8,1.8,0,0,1-.73-.69,2.07,2.07,0,0,1-.29-1h1.2A1,1,0,0,0,200.91,133.33Zm1.4-2.59a1.34,1.34,0,0,0,0-1.64,1.18,1.18,0,0,0-1.58,0,1.29,1.29,0,0,0,0,1.62,1.12,1.12,0,0,0,.85.31A1,1,0,0,0,202.31,130.74Z"/><path class="cls-4" d="M204.7,129.05v-1.19h2.23v6.74H205.6v-5.55Z"/><path class="cls-5" d="M158.08,137.1a2,2,0,0,1,1.17-.34,1.39,1.39,0,0,1,.94.28.94.94,0,0,1,.33.74.86.86,0,0,1,0,.23,1.31,1.31,0,0,1-.33.7,1.25,1.25,0,0,1-.6.39v0a.92.92,0,0,1,.47.34,1,1,0,0,1,.17.59,1.48,1.48,0,0,1,0,.31,1.54,1.54,0,0,1-.58,1,1.87,1.87,0,0,1-1.2.38,1.65,1.65,0,0,1-1-.31,1.06,1.06,0,0,1-.39-.88,1.56,1.56,0,0,1,0-.24h.73a.31.31,0,0,0,0,.1.66.66,0,0,0,.21.51.84.84,0,0,0,.58.19,1,1,0,0,0,.67-.22,1,1,0,0,0,.32-.58,1.54,1.54,0,0,0,0-.19.55.55,0,0,0-.27-.51,1.64,1.64,0,0,0-.8-.15h-.17l.11-.62h.18a1.66,1.66,0,0,0,.84-.18.7.7,0,0,0,.38-.54,1,1,0,0,0,0-.15.48.48,0,0,0-.17-.4.73.73,0,0,0-.5-.14,1,1,0,0,0-.61.18,1,1,0,0,0-.33.47h-.73A1.54,1.54,0,0,1,158.08,137.1Z"/><path class="cls-5" d="M161.34,137.68l.13-.68h1.37l-.83,4.69h-.76l.71-4Z"/><path class="cls-5" d="M163.66,137.68l.12-.68h1.38l-.83,4.69h-.77l.71-4Z"/><path class="cls-5" d="M166,140.64c.48-.36.86-.65,1.14-.88a6.24,6.24,0,0,0,.73-.72,1.56,1.56,0,0,0,.37-.74,1.83,1.83,0,0,0,0-.21.61.61,0,0,0-.16-.45.71.71,0,0,0-.5-.15.89.89,0,0,0-.64.24,1.24,1.24,0,0,0-.35.67h-.73a1.94,1.94,0,0,1,.65-1.16,1.89,1.89,0,0,1,1.18-.4,1.43,1.43,0,0,1,1,.31,1.05,1.05,0,0,1,.34.82,1.53,1.53,0,0,1,0,.3,2.08,2.08,0,0,1-.39.88,4.77,4.77,0,0,1-.71.77c-.26.23-.59.5-1,.8l-.35.28h2.09l-.11.62h-3.21l.1-.54Z"/><path class="cls-5" d="M169.79,137.68l.12-.68h1.38l-.84,4.69h-.76l.71-4Z"/><path class="cls-5" d="M175.34,137.52h-2.22l-.23,1.31a1.54,1.54,0,0,1,.47-.31,1.57,1.57,0,0,1,.6-.12,1.22,1.22,0,0,1,1,.35,1.26,1.26,0,0,1,.31.88,2.4,2.4,0,0,1,0,.37,2.08,2.08,0,0,1-.65,1.22,1.89,1.89,0,0,1-1.32.47,1.51,1.51,0,0,1-1.09-.36,1.23,1.23,0,0,1-.36-.94h.74a.65.65,0,0,0,.24.49.89.89,0,0,0,.59.18,1,1,0,0,0,.76-.28,1.47,1.47,0,0,0,.37-.76,2.13,2.13,0,0,0,0-.27.71.71,0,0,0-.2-.53.85.85,0,0,0-.59-.18,1,1,0,0,0-.57.16,1.21,1.21,0,0,0-.4.44h-.72l.49-2.78h2.91Z"/><path class="cls-5" d="M176.35,140.64c.48-.36.86-.65,1.14-.88a6.24,6.24,0,0,0,.73-.72,1.56,1.56,0,0,0,.37-.74,1.83,1.83,0,0,0,0-.21.61.61,0,0,0-.16-.45.7.7,0,0,0-.5-.15.89.89,0,0,0-.64.24,1.31,1.31,0,0,0-.35.67h-.73a1.94,1.94,0,0,1,.65-1.16,1.89,1.89,0,0,1,1.18-.4,1.43,1.43,0,0,1,1,.31,1,1,0,0,1,.34.82,1.53,1.53,0,0,1,0,.3,2.08,2.08,0,0,1-.39.88,4.36,4.36,0,0,1-.71.77c-.26.23-.59.5-1,.8l-.35.28H179l-.11.62h-3.21l.1-.54Z"/><path class="cls-5" d="M179.62,140.68l.09-.56,2.79-3.19h.91l-.54,3.1h.61l-.12.65h-.61l-.18,1h-.74l.18-1Zm2.95-3-2,2.33h1.56Z"/><path class="cls-5" d="M187.61,137.45,185,141.69h-.82l2.66-4.17h-2.45l.11-.63h3.19Z"/><path class="cls-5" d="M190.57,137.53a.74.74,0,0,0-.51-.15,1,1,0,0,0-.85.4,3.07,3.07,0,0,0-.51,1.32,1.46,1.46,0,0,1,.59-.44,1.76,1.76,0,0,1,.74-.16,1.25,1.25,0,0,1,.9.31,1.19,1.19,0,0,1,.33.89,2.09,2.09,0,0,1,0,.38,2,2,0,0,1-.33.83,1.76,1.76,0,0,1-.64.57,1.86,1.86,0,0,1-.89.21,1.42,1.42,0,0,1-1.1-.38,1.65,1.65,0,0,1-.33-1.11,6.14,6.14,0,0,1,.11-1c.28-1.61,1-2.42,2.13-2.42a1.5,1.5,0,0,1,.74.17,1,1,0,0,1,.42.45,1.4,1.4,0,0,1,.11.62h-.7A.65.65,0,0,0,190.57,137.53ZM189,139.37a1,1,0,0,0-.4.7,1,1,0,0,0,0,.24.72.72,0,0,0,.21.55.89.89,0,0,0,.62.2,1,1,0,0,0,.7-.26,1.16,1.16,0,0,0,.36-.68,1.24,1.24,0,0,0,0-.27.76.76,0,0,0-.19-.53.82.82,0,0,0-.58-.19A1.18,1.18,0,0,0,189,139.37Z"/><path class="cls-5" d="M197.11,139l-.11.63h-2.72l.12-.63Z"/><path class="cls-5" d="M202.65,137.53a.74.74,0,0,0-.51-.15,1,1,0,0,0-.85.4,3.07,3.07,0,0,0-.51,1.32,1.46,1.46,0,0,1,.59-.44,1.73,1.73,0,0,1,.74-.16,1.25,1.25,0,0,1,.9.31,1.19,1.19,0,0,1,.33.89,2.14,2.14,0,0,1-.36,1.21,1.85,1.85,0,0,1-.64.57,1.87,1.87,0,0,1-.9.21,1.4,1.4,0,0,1-1.09-.38,1.65,1.65,0,0,1-.33-1.11,6.14,6.14,0,0,1,.11-1c.28-1.61,1-2.42,2.13-2.42a1.5,1.5,0,0,1,.74.17,1,1,0,0,1,.42.45,1.4,1.4,0,0,1,.11.62h-.7A.65.65,0,0,0,202.65,137.53Zm-1.54,1.84a1.09,1.09,0,0,0-.41.7,1.94,1.94,0,0,0,0,.24.72.72,0,0,0,.21.55.92.92,0,0,0,.63.2,1,1,0,0,0,.7-.26,1.16,1.16,0,0,0,.36-.68,1.24,1.24,0,0,0,0-.27.72.72,0,0,0-.2-.53.81.81,0,0,0-.58-.19A1.16,1.16,0,0,0,201.11,139.37Z"/><path class="cls-5" d="M204.44,137.68l.12-.68h1.38l-.83,4.69h-.77l.71-4Z"/><path class="cls-5" d="M210,137.52h-2.21l-.24,1.31a1.54,1.54,0,0,1,.47-.31,1.62,1.62,0,0,1,.61-.12,1.21,1.21,0,0,1,1,.35,1.26,1.26,0,0,1,.31.88,2.4,2.4,0,0,1,0,.37,2.08,2.08,0,0,1-.65,1.22,1.89,1.89,0,0,1-1.32.47,1.51,1.51,0,0,1-1.09-.36,1.22,1.22,0,0,1-.35-.94h.73a.65.65,0,0,0,.24.49.89.89,0,0,0,.59.18,1,1,0,0,0,.76-.28,1.4,1.4,0,0,0,.37-.76,2.13,2.13,0,0,0,0-.27.67.67,0,0,0-.2-.53.85.85,0,0,0-.59-.18,1,1,0,0,0-.57.16,1.21,1.21,0,0,0-.4.44h-.72l.49-2.78h2.91Z"/><path class="cls-5" d="M210.45,140.68l.1-.56,2.79-3.19h.91l-.54,3.1h.61l-.12.65h-.61l-.18,1h-.74l.18-1Zm3-3-2,2.33H213Z"/><path class="cls-5" d="M215.28,140.64c.48-.36.86-.65,1.14-.88a6.24,6.24,0,0,0,.73-.72,1.56,1.56,0,0,0,.37-.74,1.83,1.83,0,0,0,0-.21.61.61,0,0,0-.16-.45.7.7,0,0,0-.5-.15.89.89,0,0,0-.64.24,1.31,1.31,0,0,0-.35.67h-.73a1.94,1.94,0,0,1,.65-1.16,1.89,1.89,0,0,1,1.18-.4,1.43,1.43,0,0,1,1,.31,1,1,0,0,1,.34.82,1.53,1.53,0,0,1,0,.3,2.08,2.08,0,0,1-.39.88,4.77,4.77,0,0,1-.71.77c-.26.23-.59.5-1,.8l-.35.28h2.09l-.11.62H214.6l.1-.54Z"/><path class="cls-5" d="M219.09,140.64l1.15-.88A7.13,7.13,0,0,0,221,139a1.64,1.64,0,0,0,.36-.74.82.82,0,0,0,0-.21.61.61,0,0,0-.16-.45.7.7,0,0,0-.5-.15.91.91,0,0,0-.64.24,1.31,1.31,0,0,0-.35.67H219a2,2,0,0,1,.66-1.16,1.86,1.86,0,0,1,1.17-.4,1.41,1.41,0,0,1,1,.31,1,1,0,0,1,.34.82c0,.1,0,.2,0,.3a2.24,2.24,0,0,1-.4.88,4.36,4.36,0,0,1-.71.77c-.26.23-.59.5-1,.8l-.35.28h2.1l-.12.62h-3.21l.1-.54Z"/><path class="cls-5" d="M226.12,137.52h-2.21l-.24,1.31a1.54,1.54,0,0,1,.47-.31,1.61,1.61,0,0,1,.6-.12,1.22,1.22,0,0,1,1,.35,1.26,1.26,0,0,1,.31.88,2.4,2.4,0,0,1,0,.37,2.08,2.08,0,0,1-.65,1.22,1.89,1.89,0,0,1-1.32.47,1.51,1.51,0,0,1-1.09-.36,1.22,1.22,0,0,1-.35-.94h.73a.65.65,0,0,0,.24.49.89.89,0,0,0,.59.18,1,1,0,0,0,.76-.28,1.4,1.4,0,0,0,.37-.76,2.13,2.13,0,0,0,0-.27.67.67,0,0,0-.2-.53.85.85,0,0,0-.59-.18,1,1,0,0,0-.57.16,1.21,1.21,0,0,0-.4.44h-.72l.49-2.78h2.91Z"/></g></g></svg>